<?xml version="1.0" encoding="utf-8"?>
<!-- Generator: Adobe Illustrator 18.1.0, SVG Export Plug-In . SVG Version: 6.00 Build 0)  -->
<svg version="1.1" id="Layer_1" xmlns="http://www.w3.org/2000/svg" xmlns:xlink="http://www.w3.org/1999/xlink" x="0px" y="0px"
	 width="28px" height="28px" viewBox="0 0 28 28" enable-background="new 0 0 28 28" xml:space="preserve">
<path fill="#231F20" d="M24,28H4c-2.21,0-4-1.79-4-4V4c0-2.21,1.79-4,4-4h20c2.21,0,4,1.79,4,4v20C28,26.21,26.21,28,24,28z"/>
<path fill="#FFFFFF" d="M2,4l3.81,3.95l1.46-1.33l-1.32-2.6L2,4z M19.17,15.05c0.72,0.2,1.49-0.21,1.7-0.95
	c0.2-0.73-0.22-1.5-0.95-1.7l-0.56-0.16l-0.73,2.65C18.62,14.89,19.17,15.05,19.17,15.05z M18.72,12.07l-4.56-1.3
	c-0.3-0.08-0.6,0.1-0.69,0.41l-0.43,1.54c-0.08,0.3,0.08,0.61,0.38,0.71L18,14.71L18.72,12.07z M19.44,16.46
	c-0.35-0.33-0.78-0.6-1.28-0.74l-5.53-1.57l-3.4-6.11C9.06,7.73,8.77,7.48,8.4,7.38C7.66,7.16,6.88,7.61,6.68,8.36
	c-0.1,0.36-0.05,0.72,0.11,1.03l4.25,7.55c0,0,0.35,0.57,1.22,0.86l7.72,2.2l3.58,3.68c0.12,0.13,0.28,0.22,0.46,0.28
	c0.54,0.15,1.1-0.18,1.26-0.72c0.1-0.38-0.02-0.78-0.29-1.03L19.44,16.46z M23.57,17.99l0.8,1.06L26,17.24l-1.38-0.78
	c0.13-0.98-0.47-1.93-1.43-2.2c-1.06-0.3-2.15,0.32-2.45,1.39c-0.3,1.08,0.32,2.18,1.37,2.48C22.62,18.28,23.13,18.2,23.57,17.99z"
	/>
<g>
</g>
<g>
</g>
<g>
</g>
<g>
</g>
<g>
</g>
</svg>
