<svg xmlns="http://www.w3.org/2000/svg" width="18" height="18" viewBox="0 0 18 18">
    <path fill="#231F20" d="M16 18H2c-1.1 0-2-.9-2-2V2C0 .9.9 0 2 0h14c1.1 0 2 .9 2 2v14c0 1.1-.9 2-2 2z"/>
    <path fill="#FFF" d="M1.29 2.57l2.45 2.54.94-.86-.86-1.67-2.53-.01zm11.03 7.11a.883.883 0 0 0 .48-1.7l-.36-.1-.47 1.7c0-.01.35.1.35.1zm-.28-1.92l-2.93-.84a.36.36 0 0 0-.44.26l-.28 1c-.05.2.05.39.25.45l2.93.83.47-1.7zm.46 2.82c-.22-.22-.5-.39-.82-.48l-3.56-1-2.18-3.93c-.12-.2-.3-.36-.54-.43a.896.896 0 0 0-1.11.63c-.06.24-.03.47.07.67l2.73 4.85s.22.36.79.55l4.96 1.41 2.3 2.37c.08.08.18.14.3.18.35.1.71-.11.81-.46.07-.25-.01-.5-.19-.66l-3.56-3.7zm2.65.98l.52.68 1.05-1.16-.89-.5c.08-.63-.3-1.24-.92-1.41-.68-.19-1.38.21-1.57.9-.19.69.2 1.4.88 1.59.32.09.65.04.93-.1z"/>
</svg>
