<?xml version="1.0" encoding="utf-8"?>
<!-- Generator: Adobe Illustrator 18.1.0, SVG Export Plug-In . SVG Version: 6.00 Build 0)  -->
<svg version="1.1" id="Layer_1" xmlns="http://www.w3.org/2000/svg" xmlns:xlink="http://www.w3.org/1999/xlink" x="0px" y="0px"
	 width="18px" height="18px" viewBox="0 0 18 18" enable-background="new 0 0 18 18" xml:space="preserve">
<path fill="#231F20" d="M16,18H2c-1.1,0-2-0.9-2-2V2c0-1.1,0.9-2,2-2h14c1.1,0,2,0.9,2,2v14C18,17.1,17.1,18,16,18z"/>
<path fill="#FFFFFF" d="M1.29,2.57l2.45,2.54l0.94-0.86L3.82,2.58L1.29,2.57z M12.32,9.68c0.46,0.13,0.96-0.14,1.09-0.61
	c0.13-0.47-0.14-0.96-0.61-1.09l-0.36-0.1l-0.47,1.7C11.97,9.57,12.32,9.68,12.32,9.68z M12.04,7.76L9.11,6.92
	C8.91,6.87,8.72,6.99,8.67,7.18L8.39,8.18c-0.05,0.2,0.05,0.39,0.25,0.45l2.93,0.83L12.04,7.76z M12.5,10.58
	c-0.22-0.22-0.5-0.39-0.82-0.48L8.12,9.1L5.94,5.17c-0.12-0.2-0.3-0.36-0.54-0.43C4.92,4.6,4.42,4.89,4.29,5.37
	C4.23,5.61,4.26,5.84,4.36,6.04l2.73,4.85c0,0,0.22,0.36,0.79,0.55l4.96,1.41l2.3,2.37c0.08,0.08,0.18,0.14,0.3,0.18
	c0.35,0.1,0.71-0.11,0.81-0.46c0.07-0.25-0.01-0.5-0.19-0.66L12.5,10.58z M15.15,11.56l0.52,0.68l1.05-1.16l-0.89-0.5
	c0.08-0.63-0.3-1.24-0.92-1.41c-0.68-0.19-1.38,0.21-1.57,0.9c-0.19,0.69,0.2,1.4,0.88,1.59C14.54,11.75,14.87,11.7,15.15,11.56z"/>
<g>
</g>
<g>
</g>
<g>
</g>
<g>
</g>
<g>
</g>
</svg>
