<svg xmlns="http://www.w3.org/2000/svg" width="64" height="64" viewBox="0 0 64 64">
    <path d="M60.2 26.41c.74-.71 1.59-1.5 1.45-2.8-.19-1.75-1.84-3.34-3.45-3.34-.26 0-.52.04-.77.12-2.47.8-3.25 3.77-3.47 5.01-.02.14-.05.28-.07.43-.08.51-.16 1.09-.37 1.46-.14.26-.43.43-.64.36-.15-.05-.28-.21-.42-.37l-.11-.13c-.46-.52-1.32-1.12-2.21-1.12-.45 0-.84.15-1.18.44-1.02.9-.95 2.27-.88 3.48.07 1.21.13 2.25-.73 2.79-.38.24-.71.01-1.11-.28-.4-.29-.88-.62-1.47-.54-.71.1-1.36.56-1.77 1.26-.43.73-.54 1.63-.29 2.38.74 2.26 2.91 2.26 4.21 2.26l.51-.01c.07 0 .14-.01.2-.01.23 0 .34.05.43.2.35.57.53 1.08.28 1.72-.04.1-.09.19-.13.27-.25.37-.6.41-1.14.45-.39.03-.82.06-1.22.3-.95.57-.98 1.53-1.02 2.38-.01.23-.02.46-.04.68-.18 1.44-1.56 3.19-2.98 3.08-.6-.05-1.1-.33-1.33-.75-.2-.36-.19-.8.02-1.25.13-.28.29-.54.44-.79.39-.66.8-1.34.76-2.32-.04-1.21-.68-2.27-1.71-2.83-.64-.35-1.28-.41-1.9-.47-.79-.07-1.47-.14-2.01-.81-.79-.99-.83-2.08-.86-3.24-.02-.75-.05-1.53-.28-2.32-.34-1.19-1.02-2.17-1.89-2.75-.76-.5-1.49-.51-2.2-.52-.4 0-.81-.01-1.23-.1-.56-.13-1.25-.51-1.44-.95-.08-.18-.06-.37.05-.58.1-.19.26-.36.43-.53.1-.1.19-.2.28-.31.74-.88 1.12-2.4.39-3.48-.57-.84-1.4-.94-1.97-.94-.36 0-.72.04-1.08.09-.34.04-.67.08-.97.08-.66 0-1.03-.18-1.29-.63-.24-.42.35-1.23.83-1.88.38-.53.74-1.02.84-1.47.14-.67.07-1.2-.21-1.56-.28-.36-.73-.54-1.38-.54-.9 0-2.07.35-3.1.65-.78.23-1.52.45-1.92.45-.09 0-.13-.01-.14-.02-.65-.23-1.1-.8-1.58-1.4-.42-.52-.85-1.07-1.44-1.42-.7-.42-1.57-.65-2.45-.65-1.19 0-2.25.41-2.99 1.15-1.02 1.02-1.31 2.57-.69 3.77.66 1.28 1.79 1.43 2.88 1.58.25.03.51.07.76.12l.28.05c.84.16 1.71.33 2.42.75.57.34.62.55.62.61.01.3-.68.74-1.18 1.06-.76.49-1.48.96-1.5 1.64-.04 1.82 2.34 2.63 3.85 2.72.35.02.71.02 1.06.03.85.01 1.65.02 2.42.24.42.12 1.01.32 1.23.68.24.38-.12.86-.73 1.6-.55.66-1.16 1.41-1.07 2.23.09.76.66 1.45 1.45 1.76.38.15.79.22 1.28.22.37 0 .75-.04 1.11-.08.35-.04.71-.08 1.08-.08.75.01 1.59.25 1.6.56 0 .12-.07.28-.21.42l-.06.07c-.76.79-1.62 1.69-1.22 3.13.45 1.63 2 1.93 3.25 2.17l.1.02c.7.13 2.15.41 2.55 1.1.11.2.13.41.05.67-.12.38-.37.67-.63.98-.36.42-.77.9-.88 1.65-.41 2.81 2.67 4.83 4.15 5.8 1.33.87 3.34 2.03 5.45 2.03.43 0 .85-.05 1.25-.15 1.82-.44 2.93-1.89 4-3.29.37-.48.72-.94 1.1-1.36.19-.21.4-.41.62-.59 1.27-1.05 2.8-1.41 4.42-1.79.71-.17 1.44-.34 2.21-.59 1.88-.61 5.38-1.75 4.84-4.62-.07-.39-.2-.79-.33-1.18-.22-.69-.45-1.4-.38-2.07.11-1.07.59-1.14 1.45-1.27.32-.05.68-.1 1.04-.22 1.05-.35 1.4-1.63 1.38-2.61-.02-1.22-.77-1.84-1.43-2.39-.54-.45-1.01-.83-1.11-1.49-.12-.98.51-1.58 1.24-2.26zm-1.91 2.35c.14.94.79 1.48 1.36 1.95.62.51 1.16.95 1.17 1.83.01.59-.17 1.66-.9 1.91-.31.1-.62.15-.93.2-.88.13-1.87.28-2.04 1.91-.09.82.16 1.61.41 2.38.12.38.24.75.3 1.09.42 2.24-2.69 3.25-4.41 3.81-.69.23-1.41.39-2.11.55-1.63.38-3.31.77-4.7 1.93-.24.2-.48.42-.69.66-.4.44-.77.93-1.13 1.4-1.04 1.37-2.03 2.66-3.62 3.04-.35.08-.72.13-1.1.13-1.47 0-3.08-.61-5.08-1.92-1.36-.89-4.18-2.74-3.84-5.08.08-.54.37-.88.71-1.27.3-.35.62-.72.78-1.25.14-.46.1-.89-.12-1.27-.56-.97-2.16-1.28-3.04-1.45l-.08-.02c-1.17-.22-2.38-.45-2.71-1.65-.27-.98.22-1.56 1.04-2.42l.06-.07c.28-.29.42-.63.41-.96-.04-1.2-2.06-1.25-2.33-1.25-.38 0-.76.04-1.13.08-.79.09-1.52.12-2.07-.1-.45-.18-.94-.61-1.01-1.17-.06-.51.43-1.1.9-1.67.62-.75 1.33-1.6.79-2.47-.35-.56-1.06-.82-1.63-.99-.86-.24-1.74-.25-2.59-.26-.35 0-.69-.01-1.03-.03-1.02-.06-3.23-.64-3.2-1.98.01-.29.68-.73 1.17-1.05.78-.51 1.52-.99 1.5-1.69-.01-.44-.33-.85-.97-1.23-.81-.48-1.74-.65-2.63-.83l-.28-.05c-.26-.05-.53-.09-.8-.12-1-.13-1.86-.25-2.36-1.2-.47-.91-.24-2.1.56-2.9.61-.61 1.51-.95 2.51-.95.75 0 1.5.2 2.1.55.48.29.86.76 1.25 1.25.52.65 1.06 1.33 1.89 1.62.47.16 1.36-.09 2.47-.42.99-.29 2.1-.62 2.91-.62.42 0 .7.09.84.27.14.18.17.51.07.95-.06.29-.39.75-.71 1.19-.63.87-1.35 1.85-.87 2.69.5.88 1.32.98 1.88.98.34 0 .7-.04 1.05-.08.33-.04.68-.08 1-.08.68 0 1.1.19 1.4.63.51.75.22 1.91-.35 2.59-.08.1-.17.18-.25.27-.19.2-.39.41-.54.68-.22.41-.25.83-.08 1.23.34.81 1.37 1.24 1.93 1.37.49.11.93.12 1.37.12.66.01 1.24.01 1.83.41.73.48 1.3 1.32 1.6 2.34.2.7.22 1.43.25 2.14.04 1.23.08 2.5 1.02 3.68.72.91 1.61.99 2.48 1.07.58.05 1.12.1 1.63.39.81.44 1.31 1.27 1.34 2.22.03.76-.29 1.29-.66 1.91-.16.27-.32.54-.47.85-.32.67-.32 1.36 0 1.93.35.64 1.05 1.05 1.88 1.11 1.85.15 3.49-1.9 3.72-3.71.03-.24.04-.49.05-.74.03-.87.08-1.42.67-1.78.26-.16.58-.18.92-.21.56-.04 1.2-.08 1.65-.75.08-.12.16-.26.22-.42.38-.99.04-1.76-.34-2.38-.29-.48-.72-.53-1.01-.53-.08 0-.16 0-.24.01l-.47.01c-1.56 0-3.01-.14-3.55-1.77-.18-.55-.1-1.21.23-1.77.3-.51.77-.85 1.27-.92.34-.05.65.18.99.42.35.25.72.52 1.18.52.23 0 .46-.07.69-.22 1.21-.77 1.13-2.2 1.06-3.45-.06-1.14-.12-2.22.63-2.89.21-.18.45-.27.73-.27.63 0 1.31.45 1.7.89l.1.12c.19.22.4.47.73.58.52.18 1.15-.13 1.46-.69.27-.49.37-1.14.45-1.71.02-.15.04-.29.07-.42.2-1.11.88-3.77 2.99-4.45.18-.06.37-.09.56-.09 1.27 0 2.61 1.31 2.76 2.7.1.93-.51 1.51-1.22 2.18-.73.76-1.59 1.58-1.4 2.93zM22.68 39.04c-.71-.39-1.88-.2-2.76.05-.17.05-.34.08-.48.08-.47 0-.59-.27-.64-.5-.11-.52-.05-1.03.02-1.58.12-.95.26-2.03-.74-3-.57-.56-1.33-.85-2.19-.85-.44 0-.91.08-1.34.24-.29.1-.54.16-.73.16-.51 0-.7-.36-1.06-1.11a8.84 8.84 0 0 0-.38-.75c-.48-.84-1.41-1.69-2.43-1.69-.17 0-.34.02-.51.07-.58.17-1.07.63-1.31 1.22a1.9 1.9 0 0 0 .05 1.6c.35.69 1 1.1 1.6 1.41l.26.14c.48.25.93.48 1.27.84.44.46.39.99.28 1.8-.11.81-.24 1.73.5 2.55.42.47.97.68 1.49.89.39.15.76.3 1.05.53.49.39.72.99.77 1.94.02.43-.01.9-.05 1.39-.09 1.28-.2 2.74.7 3.8.83.98 2.35 2.13 3.92 2.13.12 0 .25-.01.37-.02 2.28-.29 2.1-2.63 2-3.89-.07-.9.27-1.79.63-2.75.3-.8.62-1.63.68-2.48.08-1.08-.24-1.82-.97-2.22zm-.36 4.42c-.37.99-.76 2.01-.68 3.07.14 1.89-.04 2.94-1.4 3.11-1.32.17-2.83-.85-3.68-1.86-.7-.83-.61-2.07-.52-3.27.04-.5.07-1.01.05-1.48-.03-.74-.18-1.79-1.04-2.48-.38-.3-.81-.47-1.23-.64-.47-.19-.92-.36-1.23-.71-.51-.56-.42-1.2-.32-1.95.11-.78.23-1.67-.47-2.41-.42-.45-.95-.72-1.46-.98l-.26-.13c-.49-.26-1.04-.6-1.3-1.11-.15-.29-.16-.64-.02-.97.16-.39.49-.69.86-.8.1-.03.21-.05.32-.05.74 0 1.46.69 1.83 1.34.14.24.25.48.35.7.35.74.71 1.51 1.68 1.51.28 0 .59-.06.96-.2.36-.13.75-.2 1.12-.2.48 0 1.16.11 1.72.66.73.72.64 1.45.52 2.38-.07.58-.15 1.19-.01 1.83.19.88.97 1.26 1.98.97.75-.21 1.73-.4 2.25-.11.48.26.67.73.61 1.51-.05.75-.33 1.49-.63 2.27zM9.6 27.17c.59-.11 1.14-.53 1.39-1.07.14-.31.18-.65.1-.96-.08-.34-.29-.64-.62-.88-.17-.13-.37-.25-.6-.34-.49-.2-1.04-.26-1.58-.16-1.05.19-1.95.82-2.76 1.47-.15.12-.3.24-.45.37-.42-.14-.75-.3-1.05-.49-.02-.01-.05-.04-.08-.06-.15-.12-.35-.27-.59-.27a.51.51 0 0 0-.48.34c-.11.25-.14.53-.17.76-.01.16-.09 1 .29 1.45.15.18.35.27.57.27.04 0 .08 0 .12-.01.33-.04.59-.31.8-.51l.14-.14.19-.17c.14-.12.27-.24.42-.37.3.09.61.16.91.23l.36.09c.21.05.41.11.62.17.79.21 1.67.43 2.47.28zm-5.42-.78c-.05.05-.11.1-.17.16-.12.11-.31.31-.41.32h-.03l-.05-.02c-.12-.14-.15-.57-.11-.89.01-.12.03-.27.06-.39.03.02.06.04.08.06.05.04.09.07.12.09.24.16.5.29.8.42-.03.03-.06.06-.09.08l-.2.17zm1.74-.56c.01-.01.02-.02.04-.03.75-.6 1.56-1.17 2.46-1.33.41-.07.84-.04 1.2.12.17.07.32.16.45.25.19.15.32.31.36.48.05.18-.01.35-.06.46-.15.33-.51.6-.89.67-.66.13-1.4-.06-2.16-.27-.22-.06-.43-.12-.64-.17l-.38-.09c-.13-.03-.26-.06-.38-.09z"/>
    <path d="M39.88 25.19c.46.18.95.28 1.44.28.68 0 1.31-.19 1.81-.55 1.01-.73 1.59-1.62 1.79-2.71.14-.76-.03-1.52-.49-2.19-.58-.84-1.62-1.47-2.63-1.6-1.6-.21-3.31.96-3.73 2.49-.17.64-.17 1.34-.02 2 .25 1.1.92 1.93 1.83 2.28zm-1.15-4.09c.29-1.09 1.5-1.98 2.68-1.98.1 0 .19.01.29.02.83.11 1.68.62 2.16 1.31.24.35.5.92.37 1.63-.16.91-.64 1.62-1.5 2.25-.66.48-1.7.55-2.61.19-.69-.27-1.2-.92-1.4-1.79-.12-.54-.12-1.11.01-1.63z"/>
    <path d="M40.98 23.27c.05.02.1.03.14.03.13 0 .26-.08.32-.21.08-.18 0-.4-.17-.48-.43-.21-.56-.38-.52-.7.02-.2-.11-.38-.3-.4-.2-.03-.36.12-.39.31-.12.96.64 1.32.92 1.45zm-1.59-10.01c-.02-.58-.41-1.14-1.01-1.42-.7-.32-1.58.01-1.95.72-.26.48-.24 1.02.04 1.49.24.41.71.65 1.28.65.33 0 .65-.08.9-.22.49-.28.76-.72.74-1.22zm-2.33.41a.73.73 0 0 1-.02-.76c.15-.28.45-.48.75-.48.11 0 .21.02.3.07.34.16.59.49.6.79.01.22-.12.41-.37.55-.15.09-.36.14-.57.14-.32-.01-.58-.12-.69-.31zM5.2 21.46c.7 0 1.22-.41 1.27-.99.03-.44-.1-.87-.35-1.16-.2-.23-.47-.35-.83-.35h-.01c-.38.02-.76.25-1.02.6-.12.17-.21.35-.26.54-.11.43.02.73.15.9.23.29.62.46 1.05.46zm-.51-1.18a.88.88 0 0 1 .13-.28c.14-.19.33-.31.53-.32.11 0 .19.04.26.12.12.14.19.37.17.61-.02.21-.31.33-.58.33-.22 0-.41-.07-.49-.18-.03-.05-.06-.12-.02-.28zm28.97-4.51c-.6 0-1.12.21-1.47.59-.33.36-.5.87-.48 1.46.05 1.3 1.21 2.01 2.27 2.01.96 0 1.72-.53 1.97-1.39.18-.61.09-1.2-.25-1.69-.43-.59-1.23-.98-2.04-.98zm.32 3.34c-.74 0-1.54-.46-1.58-1.31-.02-.4.08-.71.28-.93.22-.24.56-.37.97-.37.59 0 1.18.28 1.48.69.21.3.26.65.15 1.04-.23.82-1.05.88-1.3.88z"/>
</svg>
