<svg xmlns="http://www.w3.org/2000/svg" width="64" height="64" viewBox="0 0 64 64">
    <path d="M58.54 37.14l-.27.17c-.77.48-1.57.99-2.46 1.05-1 .08-2.03-.3-2.72-.6-.31-.13-.62-.28-.94-.43-.78-.36-1.59-.74-2.43-.96-.46-.12-.89-.17-1.3-.16a7.63 7.63 0 0 0 1.36-2.43c.3-.88.46-1.74.5-2.57.01 0 .02 0 .03-.01.94-.42 2.11.08 2.83.63.74.57 1.16 1.3 1.07 1.86-.03.21.1.4.31.43.02 0 .04.01.06.01.18 0 .34-.13.37-.32.14-.84-.38-1.82-1.35-2.58-1.06-.82-2.32-1.12-3.31-.82-.08-1.94-.8-3.75-1.95-5.36.5.03 1 .02 1.49.01.58-.01 1.18-.03 1.77.03 2.26.21 4.44.67 4.98 2.61.05.17.2.27.36.27.03 0 .07 0 .1-.01.2-.06.32-.26.26-.46-.76-2.7-4.05-3.01-5.64-3.15-.63-.06-1.25-.04-1.85-.03-.73.02-1.42.03-2.11-.07-1.77-2.1-4.27-3.8-6.95-4.94-6.62-2.81-13.85-3.41-19.52-1.54-1.51.5-2.85 1.17-4.05 1.99-.64-.09-1.42-.31-2.25-.55-2.75-.77-6.16-1.74-7.86.97-.11.18-.06.41.12.52.06.04.13.06.2.06.13 0 .25-.06.32-.18 1.4-2.23 4.38-1.39 7.02-.64.57.16 1.12.31 1.64.43-1.18.95-2.19 2.07-3 3.37 0 .01-.01.01-.01.02-.9-.44-2.16-.39-3.32.17-1.11.53-1.82 1.39-1.86 2.24-.01.21.15.38.36.39h.02c.2 0 .37-.16.38-.36.03-.56.59-1.19 1.43-1.6.73-.35 1.8-.58 2.62-.19-.94 1.8-1.44 4.02-.76 6.07-2.89-1.14-8.17-1.37-9.78 1.33-.11.18-.05.41.13.52a.382.382 0 0 0 .51-.13c1.52-2.57 7.27-1.97 9.57-.69.01 0 .01 0 .02.01.23.42.52.82.87 1.21 1.03 1.12 2.27 2.07 3.62 2.88-.35.69-.67 1.49-.96 2.22-.05.12-.09.23-.14.35a8.16 8.16 0 0 0-2.48-.63c-1.76-.15-3.56.47-5.06 1.75-1.82 1.55-3.05 3.93-3.22 6.23-.11 1.53.11 2.91.12 2.97.03.15.14.28.3.31.15.03.31-.04.39-.17l.08-.13c.11-.18.2-.33.33-.47.17-.18.35-.35.54-.5.89-.7 1.89-1.28 2.86-1.85.86-.5 1.75-1.02 2.58-1.63-.25.69-.67 1.28-.95 1.62-.8.97-2.3 1.51-2.32 1.52-.13.05-.22.15-.24.29-.02.13.02.27.13.35.07.06 1.63 1.38 4.08 1.49h.02c.02 0 .04-.01.06-.01.02 0 .04.01.06.01 1.91-.01 3.87-1.09 5.1-2.83 1.11-1.57 1.43-3.4.87-5.02-.47-1.36-1.45-2.32-2.57-2.95.05-.13.11-.26.16-.41.28-.7.59-1.48.92-2.13 6.26 3.43 14.92 4.04 20.19 4.04h.19c.3 0 .65-.01 1.03-.03.2.89.49 1.66.79 2.47.08.2.15.41.23.62-1.15.57-2.17 1.47-2.72 2.8-.64 1.58-.42 3.43.61 5.06 1.14 1.8 3.04 2.99 4.95 3.09h.02c.02 0 .03-.01.04-.01.02 0 .05.01.07.01h.05c2.42 0 4.03-1.22 4.09-1.27.11-.08.16-.21.14-.35a.376.376 0 0 0-.23-.3c-.01-.01-1.48-.63-2.23-1.64-.26-.35-.65-.96-.86-1.67.8.65 1.66 1.22 2.49 1.77.93.61 1.9 1.25 2.75 1.99.18.16.36.34.51.52.12.14.2.3.3.49l.07.14c.08.14.23.22.38.19.16-.02.28-.14.31-.29.01-.06.31-1.43.28-2.96-.05-2.3-1.16-4.74-2.89-6.38-1.43-1.36-3.18-2.08-4.96-2.01-.78.03-1.66.18-2.51.5-.07-.19-.14-.39-.21-.58-.28-.75-.54-1.47-.73-2.26 2.31-.21 5.43-.88 7.64-2.89h.06c.56-.13 1.16-.1 1.83.07.78.2 1.55.56 2.3.91.33.15.65.3.96.44.69.29 1.7.67 2.75.67.11 0 .22 0 .33-.01 1.07-.08 1.95-.63 2.8-1.17l.27-.17c.18-.11.23-.34.12-.52-.09-.17-.33-.23-.5-.12zm-39.93 4.58c.48 1.38.2 2.96-.78 4.33-1.09 1.54-2.82 2.51-4.49 2.51-.02 0-.04.01-.05.01-.02 0-.03-.01-.04-.01-1.4-.06-2.49-.58-3.09-.94.58-.28 1.42-.77 1.99-1.47.44-.53 1.2-1.62 1.31-2.86.87-.79 1.53-1.64 1.97-2.55.09-.19.01-.41-.17-.5a.377.377 0 0 0-.5.17c-.54 1.1-1.44 2.12-2.67 3.03-.8.59-1.68 1.1-2.52 1.59-.99.58-2.01 1.17-2.94 1.91-.19.15-.37.31-.53.48-.04-.51-.06-1.16-.01-1.84.16-2.1 1.29-4.28 2.96-5.71.95-.81 2.51-1.74 4.51-1.57 1.82.17 4.26 1.16 5.05 3.42zm24.87 1.32c2.01-.06 3.51.94 4.42 1.8 1.59 1.51 2.61 3.75 2.66 5.85.01.68-.04 1.33-.11 1.84-.16-.18-.33-.35-.51-.51-.89-.78-1.88-1.43-2.84-2.06-.82-.54-1.67-1.09-2.44-1.72-1.19-.97-2.03-2.04-2.51-3.17a.375.375 0 0 0-.69.29c.4.93 1.01 1.82 1.84 2.65.04 1.25.74 2.37 1.16 2.93.54.72 1.35 1.26 1.92 1.57-.62.33-1.71.78-3.09.78h-.05c-.01 0-.03.01-.04.01-.02 0-.03-.01-.05-.01-1.67-.09-3.34-1.15-4.35-2.74-.9-1.42-1.1-3.01-.55-4.37.89-2.22 3.38-3.08 5.23-3.14zm-5.27-3.76h-.19c-6.51 0-18.28-.91-23.91-7.04-2.26-2.45-1.53-5.78-.1-8.08 1.66-2.67 4.17-4.58 7.46-5.66 2.12-.7 4.45-1.05 6.92-1.05 3.93 0 8.11.89 12.07 2.57 5.76 2.44 10.66 7.58 8.62 13.54-1.78 5.14-8.2 5.71-10.87 5.72z"/>
    <path d="M39.65 28.84c-1.01-.24-2.04.41-2.28 1.41a1.884 1.884 0 0 0 1.85 2.32c.88 0 1.64-.6 1.84-1.46.24-1-.39-2.02-1.41-2.27zm.67 2.11c-.14.6-.76.99-1.37.85-.61-.14-.99-.76-.85-1.37a1.134 1.134 0 0 1 1.37-.85c.62.14 1 .76.85 1.37zm-17.19-4.98c-1.01-.23-2.04.41-2.28 1.41a1.884 1.884 0 0 0 1.85 2.32c.88 0 1.64-.6 1.84-1.46.23-1.01-.4-2.03-1.41-2.27zm.67 2.1c-.14.6-.76.99-1.37.85-.61-.14-.99-.76-.85-1.37a1.134 1.134 0 0 1 1.37-.85c.62.15.99.76.85 1.37z"/>
</svg>
