<svg xmlns="http://www.w3.org/2000/svg" width="64" height="64" viewBox="0 0 64 64">
    <path d="M24.02 11.41c-.4-.32-.89-.5-1.34-.5-.74 0-1.29.44-1.53 1.21-.35 1.11.56 2.45 1.57 2.77.14.04.29.06.43.06.66 0 1.27-.45 1.52-1.12.35-.93.11-1.83-.65-2.42zm-.06 2.15c-.14.38-.47.63-.81.63-.07 0-.14-.01-.21-.03-.63-.2-1.28-1.15-1.07-1.82.14-.45.41-.68.81-.68.29 0 .6.12.87.34.5.39.65.94.41 1.56zm14.88 30.13c-.46 0-.96.25-1.35.45-.15.07-.28.14-.39.18-.68.26-1.37.46-2.12.61-.52-.79-1.15-1.68-1.87-2.47-1.73-1.92-3.69-4.1-5.98-5.53-.8-.5-1.74-1.05-2.89-.86-.94.17-1.87 1.03-2.27 1.76-.48.91-.48 1.99-.01 2.98.21.45.5.86.77 1.25l.19.27c1.53 2.25 4.12 3.48 7.7 3.65 1.4.06 2.72 0 4.01-.21l.58.9c.19.31 1.23 1.84 2.38 1.84.39 0 .95-.18 1.34-1.05.3-.62.53-1.29.75-1.94l.11-.31c.08-.23.19-.55.03-.87-.19-.42-.54-.65-.98-.65zm-8.19 1.54c-3.33-.16-5.72-1.28-7.11-3.33l-.19-.28c-.27-.38-.52-.74-.71-1.13-.37-.78-.38-1.6-.01-2.3.31-.57 1.06-1.26 1.73-1.38.11-.02.22-.03.32-.03.73 0 1.44.4 2.04.78 2.2 1.37 4.13 3.51 5.82 5.39.61.67 1.14 1.4 1.62 2.11-1.07.18-2.28.22-3.51.17zm8.41-.24l-.1.28c-.22.63-.44 1.28-.72 1.87-.28.61-.56.61-.65.61-.52 0-1.27-.75-1.75-1.49l-.42-.65c.68-.15 1.32-.35 1.94-.58.13-.05.29-.13.46-.22.33-.16.73-.37 1.01-.37.12 0 .2.03.28.21.04.06 0 .19-.05.34zM28.85 19.36c-.63-.43-1.44-.67-2.26-.67-1.04 0-2.03.37-2.72 1.02-1.33 1.24-1.58 3.35-.68 5.64.99 2.56 3.98 3.67 6.45 3.86.15.01.3.02.45.02-.04.43-.08.86-.13 1.3-.02.21-.06.41-.1.62-.09.49-.19 1-.07 1.56.19.91.84 1.48 1.69 1.48.42 0 .85-.14 1.26-.39.81-.5 1.85-1.44 2.36-2.4.25-.46.24-.95-.02-1.43-.87-1.48-2.73-1.48-3.73-1.48h-.45c.06-.97.09-1.98.08-3.07-.01-1.84-.02-4.6-2.13-6.06zm1.3 9.12c-.16 0-.31-.01-.45-.02-2.24-.17-4.94-1.15-5.81-3.38-.29-.75-1.13-3.3.49-4.82.55-.52 1.35-.82 2.2-.82.67 0 1.33.19 1.83.54 1.65 1.14 1.8 3.22 1.81 5.43.02 1.09-.01 2.1-.07 3.07zm1.2.75c1.46 0 2.54.19 3.07 1.1.14.25.14.47.01.71-.44.84-1.39 1.68-2.09 2.12-.29.18-.59.28-.86.28-.49 0-.83-.31-.95-.88-.09-.42-.01-.83.07-1.26.04-.22.08-.45.11-.67.06-.46.1-.92.14-1.38l.5-.02zm-13.07.84c-.19-.08-.38-.15-.53-.23-.66-.32-1.29-.67-1.89-1.02.31-.73.59-1.45.82-2.07.9-2.42 1.21-5.06.84-7.23-.24-1.45-.77-2.71-1.56-3.74-1.41-1.83-3.74-2.97-5.81-2.81-2.53.19-4.25 1.78-4.62 4.26-.33 2.18-.03 3.92.91 5.34 1.73 2.62 4.39 4.17 6.97 5.68l.19.11c.34.2.68.4 1.03.61l.28.17c-.23.5-.46.94-.7 1.34-.08.14-.31.4-.55.68-.89 1.03-2.11 2.45-1.21 3.3.26.24.63.36 1.09.36.17 0 .34-.02.5-.04 1.62-.25 2.93-.51 4.11-.81.78-.19 2.6-.63 2.34-2.02-.21-1.07-1.32-1.52-2.21-1.88zm-4.31-2.36l-.19-.11c-2.5-1.46-5.09-2.98-6.72-5.45-.84-1.27-1.1-2.8-.79-4.81.31-2.11 1.79-3.46 3.94-3.62.11-.01.22-.01.34-.01 1.72 0 3.65 1.02 4.82 2.54.72.93 1.19 2.07 1.42 3.4.34 2.05.05 4.54-.81 6.85-.22.59-.47 1.27-.76 1.95l-.22-.13c-.34-.21-.68-.41-1.03-.61zm3.98 5.52c-1.16.3-2.45.55-4.04.8-.36.05-.79.03-.96-.13-.38-.36.78-1.69 1.27-2.26.29-.33.51-.59.63-.79.24-.41.47-.85.7-1.34.59.34 1.22.69 1.88 1.01.17.08.37.16.57.24.76.3 1.61.65 1.73 1.31.12.62-.88.94-1.78 1.16zm29.43 4.83c.15.18.3.34.46.48.08.07.19.18.33.31.99.96 2.04 1.9 2.89 1.9.41 0 .74-.22.92-.62.01-.03 1.5-3.31.69-4.57-.15-.23-.43-.5-.97-.5-.22 0-.46.04-.73.14-.88.31-1.68.81-2.45 1.31-.31.2-.62.4-.94.58-.4-.57-.76-1.26-1.14-1.98-.99-1.86-2.01-3.79-3.85-4.28-.48-.14-1.01-.16-1.63-.06-1.15.21-2.52 1.57-2.93 2.6-.51 1.27-.2 2.83.8 3.97 1 1.14 2.49 1.75 4.29 1.75 1.28 0 2.68-.31 3.95-.88.11-.06.21-.1.31-.15zm1.55-.92c.73-.47 1.49-.95 2.29-1.23.19-.06.35-.1.48-.1.21 0 .28.08.33.15.42.66-.27 2.83-.74 3.85-.07.18-.15.19-.23.19-.62 0-1.84-1.18-2.37-1.69-.15-.14-.27-.26-.35-.34-.1-.09-.19-.18-.29-.29.3-.17.59-.36.88-.54zm-2.16.37c-1.17.52-2.46.81-3.64.81-1.1 0-2.64-.26-3.72-1.49-.82-.93-1.08-2.18-.67-3.2.33-.83 1.49-1.98 2.36-2.14.2-.03.4-.05.58-.05.25 0 .49.03.72.1 1.53.41 2.47 2.19 3.38 3.91.38.71.74 1.39 1.14 1.98-.05.04-.1.06-.15.08zm7.24 12.13c-.51 0-1.02.28-1.44.5l-.24.13c-.04.02-.07.04-.11.05-.04-.1-.07-.2-.11-.3-.13-.36-.25-.67-.37-.9-.41-.79-.88-1.61-1.48-2.26-.93-.99-1.97-1.28-3.03-.85-.68.27-1.18.79-1.43 1.46-.28.75-.21 1.62.19 2.38.64 1.22 1.94 1.95 3.46 1.95h.09c.74-.01 1.48-.16 2.27-.47.39.88.96 1.76 1.9 1.76.09 0 .18-.01.28-.03.43-.08.79-.4 1.01-.9.29-.65.3-1.44.01-1.93-.21-.38-.56-.59-1-.59zm-4.46 1.41h-.07c-1.24 0-2.29-.58-2.8-1.55-.29-.56-.35-1.22-.15-1.77.17-.47.52-.82 1-1.02.23-.09.45-.14.67-.14.52 0 1.03.26 1.53.8.54.58.98 1.35 1.36 2.09.1.19.21.49.33.81.04.11.08.23.13.35-.7.28-1.36.42-2 .43zm4.79.8c-.12.27-.29.44-.47.47-.5.1-.91-.31-1.35-1.3.06-.03.11-.06.17-.08.08-.04.16-.09.25-.13.52-.28 1.18-.64 1.45-.19.16.27.13.82-.05 1.23z"/>
</svg>
