<svg xmlns="http://www.w3.org/2000/svg" width="64" height="64" viewBox="0 0 64 64">
    <path d="M56.53 12.11c-.66 0-1.35.11-1.94.3-.01-.03-.01-.06-.02-.09-.68-2.75-1.67-5.9-3.3-5.9-.59 0-1.14.4-1.68 1.22l-.44.67c-1.36 2.09-2.64 4.06-5.07 4.92-1 .35-2.05.57-3.09.76-.01-.02-.01-.05-.02-.07-1.75-3.63-6.07-6.21-10.25-6.13-3.81.08-5.9 2.68-7.91 5.2-.94 1.17-1.91 2.38-3.04 3.33-3.69 3.07-8.64 4.13-12.61 2.7a.368.368 0 1 0-.49.44c1.29 5.19 3.17 8.14 9.41 8.86.68.08 1.34.12 2 .12 3.4 0 6.46-1.05 8.66-2.94-.09.28-.17.57-.24.86-.01.02-.01.03-.01.05-.05.19-.1.37-.13.56-.49 2.38-.41 4.78.18 6.89-.04.04-.07.09-.08.15-.78 2.83-3.88 3.83-9.5 3.06-.51-.07-1.44-.32-2.5-.62-3.5-.97-8.3-2.29-9.76-.51-.14.18-.24.38-.32.6v.01c-.25.79-.03 1.85.67 3.23 3.79 7.49 12.44 6.72 18.54 5.02-3.85 2.41-8.08 4.15-12.18 5.85-1.49.61-3.02 1.25-4.53 1.91a.37.37 0 0 0-.14.57c2.65 3.44 7.05 4.8 11.1 4.8 1.45 0 2.86-.17 4.13-.49 6.09-1.52 11.76-5.76 15.55-11.62 1.33-2.06 2.35-4.51 2.72-6.56a15.78 15.78 0 0 0 3.29-1.79c.28 1.13.48 2.51.69 3.97.69 4.77 1.54 10.7 5.95 12.45.04.02.09.03.14.03.07 0 .15-.02.21-.07.1-.07.16-.19.16-.31-.01-.87-.07-1.78-.13-2.66l-.04-.63c-.16-2.52.89-5.02 1.91-7.44 1.35-3.21 2.75-6.52 1.45-10.02-.36-.95-.92-1.83-1.62-2.53-.15-.15-.32-.3-.48-.45-.47-.44-.91-.85-1.17-1.38.58-1.4 1.01-2.87 1.27-4.38.18-1.05.27-2.1.27-3.11 0-.32-.02-.65-.03-.99-.09-2.23-.04-3.6 2.05-3.72.1-.01.26-.01.47-.01 3.02-.06 5.05-.33 5.14-1.41.06-.72-.13-1.32-.56-1.78-.58-.59-1.52-.92-2.68-.92zM16.15 27.59c-5.57-.65-7.37-3.09-8.6-7.63 4.09 1.19 8.99.03 12.69-3.04 1.19-.99 2.19-2.24 3.15-3.44 2-2.49 3.88-4.85 7.34-4.92 3.86-.09 7.84 2.27 9.5 5.59-.82.15-1.66.32-2.48.55-.52.15-1.03.32-1.52.52-.91.37-1.78.82-2.6 1.34-3.78-1.26-6.68 1.12-9.49 3.42-1.97 1.62-4.01 3.29-6.3 3.6-1.88.26-3.55-.38-5.32-1.05-.32-.12-.64-.24-.97-.36a.375.375 0 0 0-.48.23c-.07.2.03.41.23.48l.96.36c1.5.57 3.04 1.15 4.73 1.15.32 0 .64-.02.96-.06 2.5-.34 4.62-2.08 6.67-3.77 2.61-2.14 5.09-4.17 8.2-3.45a16.587 16.587 0 0 0-5.46 6.71c-2.41 2.9-6.59 4.3-11.21 3.77zm28.1 8.33c-7.82 3.26-11.73-5.28-11.9-5.64a.376.376 0 0 0-.34-.22c-3.97-.03-4.7-3.01-4.79-3.54.47-1.84 1.31-3.59 2.44-5.15.36.71 1.02 1.39 1.81 1.82.66.36 1.33.49 1.93.39.05.4.16 1.03.35 2 .33 1.73 1.24 3.1 2.57 3.83 1.23.69 2.74.78 4.28.27.17.44.46 1.28.59 1.65.06.18.11.32.13.36.62 1.67 1.99 3.28 3.75 3.51-.28.25-.55.49-.82.72zm1.49-1.41c-.04-.01-.07-.02-.12-.02-1.69.1-3.02-1.46-3.62-3.06-.01-.04-.06-.16-.12-.34-.74-2.12-.75-2.13-.94-2.22a.389.389 0 0 0-.3-.01c-1.44.56-2.85.52-3.98-.11s-1.91-1.8-2.19-3.32c-.21-1.12-.36-2.02-.37-2.25a.378.378 0 0 0-.51-.44c-.66.28-1.4-.02-1.77-.22-.78-.42-1.44-1.18-1.64-1.85.9-1.12 1.95-2.12 3.11-2.96-.01.84.12 2.02.75 2.91.9 1.26 2.21.89 3.27.6.02-.01.05-.01.07-.02-.12.59-.09 1.32-.05 1.74.07.93.42 1.65 1.04 2.14 1.36 1.08 3.69.79 5.34.54.15.34.43 1.11.61 1.6.22.6.35.95.42 1.08.69 1.29 1.7 1.94 3.01 1.94.37 0 .77-.07 1.18-.17-.86 1.62-1.94 3.13-3.19 4.44zm3.66-5.33c-.03 0-.06 0-.09.01-1.86.64-3.1.25-3.9-1.25-.05-.09-.23-.59-.37-.99-.15-.42-.27-.74-.37-1.02 1.03.43 2.07.65 3.12.65.93 0 1.86-.18 2.8-.51-.31 1.08-.72 2.11-1.19 3.11zm-10.55-4.69c-.45-.36-.7-.89-.76-1.61-.05-.67.01-1.66.15-1.89.17-.06.27-.24.24-.42a.377.377 0 0 0-.44-.3c-.3.05-.61.14-.92.23-1.15.32-1.89.48-2.45-.31-.67-.93-.65-2.31-.59-3 .75-.48 1.54-.89 2.36-1.22 1.14 3.16 3.35 6.91 6.44 9.01-1.41.17-3.09.25-4.03-.49zm-2 20.92c-3.69 5.71-9.19 9.83-15.1 11.3-1.64.41-3.52.57-5.41.41 3.28-.65 6.52-2.83 8.95-4.85 3.12-2.6 5.59-6.22 6.96-10.19a.38.38 0 0 0-.23-.48.38.38 0 0 0-.48.23c-1.32 3.84-3.71 7.34-6.73 9.86-3.24 2.7-7.97 5.71-12.09 4.67-.03-.01-.06 0-.09 0-1.91-.66-3.68-1.72-5.03-3.3 1.35-.59 2.72-1.15 4.06-1.7 4.14-1.71 8.43-3.48 12.34-5.94.29-.18.56-.4.82-.61.39-.31.75-.61 1.15-.76a.378.378 0 0 0-.26-.71c-5.73 2-15.96 4.14-20.03-3.89-.39-.76-.61-1.4-.67-1.92 3.02 2.68 8.09 4.15 13.16 4.15 3.1 0 6.2-.55 8.83-1.71.19-.08.28-.31.19-.5-.08-.19-.31-.28-.5-.19-6.89 3.05-17.07 1.76-21.55-2.68a.62.62 0 0 1 .11-.17c1.15-1.41 6.05-.05 8.98.76 1.14.31 2.04.56 2.6.64 2.1.29 8.24 1.12 10.05-2.85.29.75.65 1.45 1.08 2.08 1.49 2.19 3.87 3.35 6.86 3.35 1.45 0 3.03-.3 4.55-.82-.42 1.85-1.33 3.99-2.52 5.82zm-2.03-5.77c-1.91 0-4.54-.52-6.24-3.02-1.54-2.26-2.13-5.46-1.64-8.69.61 1.2 1.94 2.76 4.83 2.87.59 1.17 3.62 6.61 9.06 6.61.53 0 1.08-.06 1.65-.17-.04.03-.08.06-.12.08-2.27 1.46-5.09 2.32-7.54 2.32zm16.41-9.27c.16.14.31.28.46.43a6.24 6.24 0 0 1 1.44 2.26c1.2 3.21-.08 6.25-1.43 9.46-1.05 2.5-2.14 5.09-1.97 7.78l.04.63c.04.67.09 1.35.11 2.02-3.55-1.85-4.29-7.02-4.95-11.62-.23-1.61-.45-3.13-.78-4.35.2-.15.39-.31.58-.47l.01-.01c2.29-1.93 4.17-4.42 5.46-7.22.31.41.67.76 1.03 1.09zm7.76-15.61c-.01.11-.26.64-4.41.72-.22 0-.39.01-.5.01-2.94.17-2.84 2.57-2.76 4.5.01.32.03.64.03.96a16.963 16.963 0 0 1-.54 4.26c-.03 0-.05 0-.08.01-2.03.83-4.04.81-5.99-.06-3.7-1.66-6.34-5.94-7.61-9.46.27-.09.54-.2.81-.28.9-.26 1.84-.43 2.75-.6 1.2-.22 2.44-.45 3.62-.87 2.67-.94 4.02-3.02 5.45-5.22l.44-.67c.38-.58.74-.88 1.05-.88.57 0 1.48.92 2.57 5.32.15.6.19.78.5.78.05 0 .1-.01.15-.03.57-.24 1.33-.39 2.04-.39.95 0 1.7.24 2.1.68.3.32.42.71.38 1.22z"/>
    <path d="M48.59 18.32l-.17.08c-.45.21-.81.37-1.25.23h-.04c.12-.89-.07-1.75-.56-2.43a.372.372 0 0 0-.53-.08c-.17.12-.21.36-.08.53.5.69.59 1.67.24 2.62-.35.95-1.07 1.63-1.9 1.82-.2.05-.33.25-.28.45.04.17.2.29.37.29.03 0 .06 0 .08-.01.63-.15 1.2-.5 1.65-1 .03.02.06.05.1.06.36.13.51.51.72 1.12l.03.08c.05.16.2.26.36.26.04 0 .08-.01.12-.02.2-.07.3-.28.24-.48l-.03-.08c-.2-.59-.43-1.26-1.08-1.54.13-.21.24-.44.34-.68.02-.06.03-.11.05-.17.19.06.36.08.53.08.47 0 .87-.18 1.24-.35l.17-.08c.19-.08.28-.31.19-.5-.1-.2-.32-.28-.51-.2zm-.21 22.87c-.08.78-.16 1.53-.18 2.24-.01.21.16.38.37.39h.01c.2 0 .37-.16.38-.37.02-.68.1-1.41.18-2.18.25-2.37.54-5.05-1.01-7.05a.38.38 0 0 0-.53-.07.39.39 0 0 0-.07.53c1.36 1.76 1.1 4.17.85 6.51z"/>
</svg>
