<svg xmlns="http://www.w3.org/2000/svg" width="64" height="64" viewBox="0 0 64 64">
    <path d="M12.74 31.53h.02c1.78-.07 3.55-.31 5.31-.63.12.21.31.56.52.96.85 1.64.93 3.27.79 5.21-.13 1.81.49 3.55 1.2 5.34.29.73.4 1.54.51 2.39.16 1.17.31 2.37.99 3.38.19.28.39.51.58.74.38.44.67.78.73 1.3.04.44-.05.88-.16 1.33-.2.85-.42 1.82.49 2.75.61.63 1.01 1.24 1.24 1.91.05.15.2.25.36.25.04 0 .08-.01.13-.02.2-.07.3-.28.23-.48-.28-.78-.73-1.48-1.41-2.19-.62-.64-.49-1.24-.3-2.06.11-.47.23-1.01.18-1.58-.08-.75-.5-1.24-.9-1.71-.18-.21-.36-.42-.53-.67-.57-.86-.71-1.92-.86-3.06-.11-.86-.23-1.75-.56-2.57-.67-1.7-1.27-3.36-1.15-5 .13-1.79.12-3.71-.87-5.61-.09-.17-.25-.48-.41-.76 1.4-.27 2.79-.58 4.16-.88.57-.13 1.15-.25 1.72-.37.18 1.79.54 3.2 1.11 4.27.19.36.43.66.65.96.31.41.61.8.76 1.26.25.8.21 1.76.16 2.69-.02.49-.05.99-.03 1.46.08 1.87.35 3.46.85 4.85.44 1.25 1.5 1.76 2.48 2.1 1.92.66 2.63 1.85 2.31 3.86-.43 2.66.87 5.25 3.16 6.31.05.02.11.03.16.03.14 0 .28-.08.34-.22.09-.19.01-.41-.18-.5-1.98-.92-3.11-3.19-2.73-5.51.38-2.37-.54-3.91-2.81-4.69-.98-.34-1.7-.75-2.01-1.64-.47-1.32-.73-2.83-.8-4.63-.02-.44 0-.9.03-1.39.05-.99.1-2.02-.19-2.95-.19-.59-.54-1.05-.87-1.49-.22-.29-.43-.56-.59-.86-.53-1-.87-2.34-1.03-4.08l.56-.12c1.62-.33 3.23-.67 4.85-1l.33-.07c.3-.06.59-.12.88-.18.49 1.15 1.16 2.19 1.82 3.2.45.69.91 1.39 1.3 2.12 1.87 3.49 3.13 6.54 3.19 10.09.03 1.71.66 3.38 1.42 5.24l.25.61c.24.57.47 1.15.68 1.73.06.15.2.25.35.25.04 0 .09-.01.13-.02.2-.07.3-.29.23-.48-.22-.59-.46-1.18-.69-1.76l-.25-.62c-.73-1.78-1.34-3.38-1.36-4.96-.07-3.7-1.36-6.85-3.28-10.43-.4-.75-.88-1.48-1.33-2.18-.61-.94-1.23-1.91-1.69-2.95 2.79-.58 5.2-1.07 7.19-1.47-.09 2.75.86 5.51 2.85 8.2 1.2 1.61 1.31 2.17 1.34 4.05.04 3.03.97 10.37 2.35 13.26.72 1.5 1.78 2.34 3.54 2.8l.17.05c.4.1.71.18.94.27.04.02.08.02.13.02a.376.376 0 0 0 .12-.73c-.25-.09-.58-.18-1.01-.29l-.17-.05c-1.55-.4-2.43-1.1-3.05-2.4-1.34-2.8-2.24-9.98-2.28-12.95-.03-2.01-.18-2.72-1.49-4.48-1.93-2.61-2.84-5.26-2.71-7.9 3.17-.63 5.09-.99 5.45-1.01.02 0 .05.01.07.01h.01c.21 0 .38-.17.38-.38a.37.37 0 0 0-.06-.21l-.3-.93c-.22-.68-.44-1.36-.67-2.04-.86-2.53-2.03-4.69-3.47-6.41-2.82-3.38-7.25-5.31-12.17-5.31-4.52 0-8.86 1.64-11.88 4.5-3 2.84-4.96 6.94-5.51 11.55-.6 4.98-.31 5.31-.19 5.44 0 .07.14.14.25.14zm.62-5.49c.53-4.43 2.41-8.37 5.28-11.09 2.89-2.73 7.03-4.29 11.37-4.29 4.69 0 8.92 1.84 11.59 5.04 1.38 1.65 2.5 3.73 3.34 6.17.23.67.45 1.35.67 2.03l.19.58c-1.92.29-8.89 1.72-14.75 2.93l-.33.07c-1.62.33-3.24.66-4.85 1-1.01.21-2.02.43-3.03.66-3.22.72-6.54 1.46-9.84 1.62-.04-.71.14-2.87.36-4.72z"/>
</svg>
