<svg xmlns="http://www.w3.org/2000/svg" width="64" height="64" viewBox="0 0 64 64">
    <path d="M48.58 56.11c-6.54-2.76-13.55-4.31-20.33-5.8l-.2-.04c-3.31-.73-6.73-1.48-10.06-2.37-2.86-.76-5.72-1.69-8.49-2.59l-.21-.07c-1.41-.46-2.83-.91-4.25-1.36-1.02-.32-1.28-.44-1.17-1.35.19-1.63.66-3.31 1.11-4.92.14-.5.28-.99.41-1.48.53-1.99 1.12-4 1.69-5.95.79-2.71 1.62-5.51 2.28-8.29.31-1.29.61-2.58.91-3.86.69-2.96 1.4-6.02 2.2-9a.38.38 0 0 0-.27-.46c-.2-.06-.41.07-.46.27-.8 3-1.51 6.06-2.2 9.03-.3 1.29-.6 2.57-.91 3.86-.66 2.76-1.48 5.55-2.27 8.25-.57 1.95-1.17 3.97-1.7 5.97-.13.48-.27.97-.4 1.47-.46 1.64-.94 3.34-1.14 5.04-.19 1.56.73 1.85 1.69 2.16 1.42.45 2.83.9 4.24 1.35l.21.07c2.78.9 5.65 1.83 8.53 2.6 3.34.89 6.77 1.65 10.09 2.38l.2.04c6.75 1.48 13.73 3.02 20.2 5.76a.383.383 0 0 0 .5-.2c.08-.21-.01-.43-.2-.51zm9.72-31.96c-1.22-.42-2.48-.7-3.71-.98-1.16-.26-2.36-.54-3.5-.92-1.23-.41-2.46-.81-3.7-1.21-5.27-1.73-10.72-3.51-15.89-5.56a.38.38 0 0 0-.49.21c-.08.19.02.41.21.49 3.35 1.33 6.81 2.54 10.26 3.7-.68.47-1.13 1.08-1.33 1.82-.33 1.25.09 2.88 1.16 4.46.33.49.73.94 1.12 1.37.57.63 1.11 1.22 1.42 1.94l.12.29c.45 1.06.88 2.05 2.3 2.51.33.1.64.26.96.43l.3.15c.97.47 1.78.8 2.57 1.01.47.09.89.14 1.3.14 1.34 0 2.57-.55 3.71-1.18.18-.1.25-.33.15-.51s-.33-.25-.51-.15c-1.57.86-2.93 1.35-4.43.94-.74-.2-1.51-.51-2.44-.96L47.6 32c-.34-.17-.69-.35-1.08-.47-1.09-.35-1.39-1.04-1.84-2.08l-.13-.29c-.36-.83-.97-1.5-1.56-2.15-.39-.43-.76-.83-1.06-1.28-.94-1.4-1.33-2.81-1.06-3.85.19-.71.68-1.27 1.46-1.66.02-.01.03-.03.05-.04 1.59.53 3.19 1.06 4.76 1.57 1.23.4 2.47.81 3.69 1.21 1.18.39 2.39.67 3.57.94 1.2.27 2.45.56 3.63.96.04.01.08.02.12.02.16 0 .3-.1.36-.26.1-.19-.01-.41-.21-.47z"/>
    <path d="M47.97 54.97a.375.375 0 0 0 .48-.24c.85-2.59 1.93-5.2 2.98-7.72.56-1.34 1.11-2.68 1.63-4.01.59-1.53 1.13-3.1 1.64-4.62.47-1.39.96-2.84 1.49-4.23.41-1.07.79-2.18 1.13-3.29.18-.57.32-1.18.46-1.77.3-1.24.61-2.52 1.22-3.58a.375.375 0 0 0-.65-.37c-.67 1.16-.99 2.49-1.3 3.78-.15.6-.28 1.17-.45 1.72-.34 1.09-.71 2.19-1.12 3.24-.54 1.41-1.03 2.86-1.5 4.26-.51 1.51-1.04 3.08-1.63 4.59-.52 1.32-1.07 2.66-1.62 4-.83 2-1.67 4.04-2.41 6.1-5-1.98-10.22-2.86-16.03-3.73-4.68-.7-9.47-1.85-15.4-3.68.01-.02.03-.03.03-.05.22-.84.63-1.61 1.06-2.41.11-.21.22-.42.33-.62.19-.38.34-.73.46-1.04.32-.8.55-1.39 1.44-1.88 2.04-1.14 3.81-2.64 5.1-4.34.74-.97 1.34-2.01 1.78-3.07.51-1.24.33-2.37.13-3.56l-.03-.15c-.4-2.47-2.35-5.13-3.9-6.66-.21-.2-.37-.43-.55-.68-.26-.36-.53-.73-.94-1.03-.44-.33-.82-.78-1.23-1.27-.55-.66-1.13-1.34-1.87-1.69-.57-.28-1.04-.63-1.5-.97-.76-.57-1.56-1.16-2.8-1.38-.11-.02-.22-.04-.32-.07l-.13-.03c.24-.92.5-1.85.91-2.71.09-.19.01-.41-.18-.5a.372.372 0 0 0-.5.18c-.48.99-.76 2.05-1.02 3.07-.17.65-.35 1.32-.57 1.95l-.31.86c-.38 1.08-.76 2.15-1.11 3.23-.62 1.91-1.13 3.88-1.52 5.85-.09.45-.27.89-.45 1.36-.19.47-.39.96-.5 1.48l-.1.51c-.18.91-.37 1.84-.65 2.68-.27.82-.49 1.66-.72 2.47-.16.57-.31 1.15-.48 1.72-.49 1.64-1.01 3.42-1.43 5.24-.05.2.08.41.28.45.03.01.06.01.09.01.07 0 .14-.02.2-.06 0 .01-.01.01-.01.02-.08.19 0 .41.19.5l.12.05c.07.03.13.05.19.09.83.47 1.86.7 2.87.93.56.13 1.09.25 1.57.4 1.65.54 3.29 1.07 4.95 1.59 6.39 2.02 11.45 3.25 16.41 3.99 5.77.86 10.95 1.73 15.89 3.69-.11.32-.23.64-.33.96-.07.16.03.37.23.44zM11.05 43.54c-.51-.17-1.08-.29-1.64-.42-.95-.21-1.93-.44-2.66-.85-.09-.05-.18-.09-.28-.13l-.1-.04a.386.386 0 0 0-.36.04c.02-.03.03-.06.04-.09.42-1.81.93-3.56 1.42-5.2.17-.57.33-1.15.49-1.73.22-.8.44-1.63.71-2.43.29-.88.48-1.84.67-2.76l.1-.51c.09-.46.27-.89.46-1.36.19-.48.39-.97.5-1.5.38-1.95.88-3.89 1.49-5.76.35-1.07.73-2.14 1.11-3.21l.31-.87c.17-.5.32-1 .45-1.5l.17.03c.12.02.23.05.35.07 1.07.19 1.76.7 2.48 1.24.48.36.98.73 1.62 1.04.6.29 1.09.88 1.62 1.5.42.49.85 1.01 1.35 1.38.31.23.54.54.78.87.19.26.38.53.63.77 1.58 1.57 3.34 4.11 3.69 6.25l.03.15c.19 1.18.35 2.11-.08 3.15-.42 1.01-.98 1.99-1.68 2.91-1.24 1.62-2.92 3.06-4.87 4.14-1.11.62-1.43 1.41-1.77 2.25-.13.31-.25.63-.43.98-.11.21-.21.41-.32.61-.43.81-.88 1.65-1.12 2.57v.03c-.07-.02-.13-.04-.19-.06-1.68-.49-3.32-1.02-4.97-1.56zm23.51-29.26c-1.37-.04-2.76-.6-4.1-1.15-.52-.21-1.03-.42-1.53-.59-1.21-.42-2.42-.83-3.63-1.24-1.41-.47-2.82-.95-4.22-1.45-.72-.26-1.49-.61-2.3-.98-1.74-.8-3.54-1.64-5.29-1.69-.2-.02-.38.16-.39.36-.01.21.16.38.36.39 1.59.05 3.32.85 5 1.62.82.38 1.6.74 2.36 1.01 1.41.5 2.82.98 4.24 1.45 1.21.41 2.42.81 3.62 1.23.49.17.99.38 1.49.58 1.4.57 2.85 1.16 4.37 1.21h.01c.2 0 .37-.16.38-.37 0-.21-.16-.38-.37-.38zm-5.28.04c-.96-.48-2.1-.73-3.2-.97-.55-.12-1.08-.24-1.57-.38-.78-.22-1.59-.42-2.41-.63-2.45-.61-4.99-1.25-7.02-2.5a.383.383 0 0 0-.52.12c-.11.18-.05.41.12.52 2.13 1.31 4.72 1.96 7.23 2.58.81.2 1.62.4 2.38.62.51.15 1.07.27 1.61.39 1.06.23 2.15.47 3.03.91.05.03.11.04.17.04.14 0 .27-.08.34-.21.1-.17.02-.4-.16-.49z"/>
    <path d="M57.93 21.84c-2.21-.55-4.46-1.4-6.64-2.22l-1.26-.47a88.668 88.668 0 0 0-11.01-3.3c-.17-.04-.38-.07-.61-.1-.51-.07-1.29-.17-1.49-.47a.373.373 0 0 0-.52-.1c-.17.12-.22.35-.1.52.39.58 1.29.7 2.01.8.2.03.39.05.54.08 3.63.83 7.31 1.93 10.91 3.27l1.25.47c2.2.83 4.47 1.68 6.72 2.25.89.22 1.66.52 2.35.92-.87 2.85-1.7 5.81-2.57 8.94-2.26 8.11-4.6 16.51-8 23.54-.09.19-.01.41.18.5.05.03.11.04.16.04.14 0 .27-.08.34-.21 3.42-7.1 5.77-15.52 8.04-23.67.9-3.23 1.75-6.28 2.66-9.21l-.15-.42c-.82-.51-1.74-.89-2.81-1.16z"/>
    <path d="M45.43 43.07c-.77-.01-1.61.3-1.99 1.64-.35 1.26-.74 2.28-1.46 3.17-.38.47-.44 1.05-.5 1.56-.02.21-.04.43-.09.63-.05.2.08.41.28.45.03.01.06.01.09.01.17 0 .33-.12.37-.29.05-.23.08-.48.11-.72.05-.45.09-.87.33-1.17.81-.99 1.22-2.09 1.6-3.44.24-.85.66-1.17 1.46-1.08l.39-.23c.66-1.57 1.92-2.26 4.23-2.28.43-.01.86.03 1.31.07.21.02.41.03.62.05.23.01.39-.15.4-.35a.38.38 0 0 0-.35-.4c-.2-.01-.41-.03-.61-.04-.45-.04-.91-.07-1.38-.07-1.7.01-3.77.32-4.81 2.49zm-16-24.14c-.14.13-.52.34-.92.55-.15-.25-.32-.49-.54-.73a.388.388 0 0 0-.53-.03c-.15.14-.17.38-.03.53.16.18.3.37.42.56-.27.14-.53.26-.71.37a.375.375 0 0 0 .19.7c.06 0 .13-.02.19-.05.18-.1.45-.23.72-.37.15.27.31.56.51.88.07.11.19.17.32.17.07 0 .14-.02.2-.06.18-.11.23-.34.12-.52-.19-.29-.34-.56-.48-.82.5-.26.87-.47 1.07-.66.15-.14.16-.38.01-.53a.41.41 0 0 0-.54.01zm19.32 18.48a.369.369 0 0 0-.46.22c-.08.19.01.41.21.49.06.03.14.04.23.04.28 0 .65-.14 1.04-.32.15.29.32.59.56.84.07.08.17.12.27.12a.37.37 0 0 0 .27-.63c-.18-.18-.31-.42-.43-.68.51-.3.94-.62 1.07-.74.15-.14.16-.38.01-.53a.368.368 0 0 0-.53-.01c-.17.16-.51.39-.89.61-.16-.29-.34-.58-.6-.82a.378.378 0 0 0-.53.02c-.14.15-.13.39.02.53.18.17.32.39.45.62-.31.14-.57.24-.69.24zm-18.02 6.1a.368.368 0 0 0-.53-.01c-.17.16-.51.39-.89.61-.16-.29-.34-.58-.6-.82a.378.378 0 0 0-.53.02c-.14.15-.13.39.02.53.18.17.32.39.44.62-.29.14-.55.24-.67.24a.369.369 0 0 0-.46.22c-.08.19.01.41.2.49.07.03.14.04.23.04.28 0 .65-.14 1.04-.32.15.29.32.59.56.84.07.08.17.12.27.12a.37.37 0 0 0 .27-.63 2.55 2.55 0 0 1-.43-.68c.51-.3.94-.62 1.07-.74.14-.14.15-.38.01-.53zm14.93-7.26c-.73-.03-1.38-.08-1.98-.15-3.05-.39-5.3-1.24-6.89-2.62-1.57-1.37-2.61-3.21-3.7-5.29-.23-.44-.48-.87-.73-1.31-.65-1.13-1.32-2.3-1.63-3.56a.381.381 0 0 0-.74.18c.34 1.36 1.04 2.58 1.71 3.76.25.43.49.85.72 1.28 1.13 2.15 2.21 4.06 3.88 5.51 1.7 1.48 4.08 2.4 7.29 2.8.62.08 1.29.13 2.04.16h.01c.2 0 .37-.16.38-.36 0-.22-.16-.4-.36-.4zm-12.89-2.28a.368.368 0 0 0-.53 0c-.13.13-3.23 3.31-2.79 7.95.02.19.18.34.37.34h.04c.21-.02.36-.2.34-.41-.41-4.29 2.55-7.32 2.58-7.35.14-.14.14-.38-.01-.53z"/>
</svg>
