<svg xmlns="http://www.w3.org/2000/svg" width="64" height="64" viewBox="0 0 64 64">
    <path d="M48.92 30.19c0-.01 0-.01-.01-.02 0 0 0-.01-.01-.01-1.74-3.89-4.39-7-7.64-8.91 1.24-1.23 1.98-3.15 1.9-5.01-.03-.71-.18-1.37-.43-1.95 0-.01 0-.03-.01-.04 0-.01-.01-.02-.02-.03a4.44 4.44 0 0 0-1.48-1.84c-2.69-1.92-5.89-2.58-9.04-2.48a.34.34 0 0 0-.2 0c-1.82.08-3.61.4-5.28.89-.07 0-.13.02-.18.05-1.31.39-2.54.87-3.63 1.4-4.21 2.06-7.55 5.4-9.79 9.33a.368.368 0 0 0-.29.52c-3.32 6.16-3.94 13.67-.91 19.95 1.05 2.17 3.16 5.36 5.68 7.18 4.31 3.13 9.24 4.77 14.66 4.89h.44c.44 0 .89-.02 1.36-.04.03.01.06.03.1.03.06 0 .12-.02.18-.05 1.51-.1 3.16-.33 4.93-.7 4.4-.92 8.06-3.01 10.31-5.89 2.55-3.25 1.92-7.69 1.05-11.95-.38-1.89-.96-3.68-1.69-5.32zm1.69 11.07c-1.08 1.08-2.38 1.6-3.84 1.57-2.05-.05-4.4-1.28-6.21-3.21.07-.11.14-.22.2-.33.14-.16.26-.33.33-.55.02-.05.02-.1.02-.15.34-.81.5-1.68.44-2.56-.13-1.94-1.23-3.6-3-4.57-.18-.1-.36-.18-.55-.26.8-1.17 3.04-2.07 5.58-2.19 2.31-.11 4.11.47 4.67 1.51.71 1.59 1.26 3.31 1.63 5.14.37 1.88.7 3.79.73 5.6zm-21.92-.2c-1.98-1.09-3.58-2.55-4.63-4.21-1.45-2.31-2.1-5.3-1.81-8.42.12-1.32.69-2.93 1.44-4.11a8.91 8.91 0 0 1 2.55-2.6c-1.03 1.78-1.44 3.85-1.17 6.08.44 3.61 2.62 7.22 5.67 9.42 1.84 1.32 3.54 2.16 5.2 2.56.02.01 1.15.27 2.35.27.34 0 .67-.02 1-.08-.19.19-.39.38-.62.54-2.67 1.97-6.96 2.21-9.98.55zM10.7 33.14c.02-3.6.95-7.22 2.65-10.47 2.05 2.02 4.78 4.13 8.4 4.29-.12.48-.21.95-.25 1.4-.19 2.05.01 4.04.55 5.85-2.11 1.28-5.41 2.44-8.12 1.68-1.41-.4-2.47-1.28-3.14-2.63a.273.273 0 0 0-.09-.12zm16.33-21.66c1.31-.37 2.69-.65 4.11-.77-.64.82-1.05 1.93-1.18 3.2-.2 1.9.25 3.88 1.16 5.26-.91.12-1.8.32-2.65.61-1.73-2.72-2.23-5.65-1.44-8.3zm8.6 8.53c-1.53.91-2.68 2.46-3.21 4.41-.68 2.49-.25 5.21 1.07 7.08-.56.39-.98.93-1.21 1.59-.22.64-.3 1.39-.22 2.16.02.21.21.35.41.34.21-.02.36-.21.34-.41-.07-.66 0-1.3.18-1.84.26-.73.77-1.25 1.53-1.55 1.08-.42 2.55-.29 3.67.32 1.54.84 2.5 2.28 2.61 3.96.07.98-.17 1.94-.65 2.78-.77.67-2.98.43-4.02.18-1.57-.38-3.18-1.18-4.94-2.44-2.89-2.09-4.95-5.5-5.37-8.9-.32-2.58.35-4.94 1.92-6.82 2.38-1.08 5.22-1.3 7.89-.86zm11.79 8.86c-.98-.46-2.32-.69-3.88-.62-2.42.12-5.32 1.01-6.29 2.71-1.02-.25-2.1-.22-3 .13-.03.01-.06.03-.09.05-1.24-1.69-1.64-4.21-1.01-6.52.57-2.09 1.91-3.67 3.67-4.36.6.15 1.18.32 1.75.53 3.68 1.38 6.75 4.25 8.85 8.08zm-6.85-8c-.57-.3-1.15-.56-1.75-.78-.04-.02-.08-.03-.12-.04.61-1.86 1.35-3.9 3.48-5.09.13.41.21.85.23 1.32.07 1.73-.65 3.51-1.84 4.59zm.22-7.88c.46.33.82.75 1.09 1.25-2.44 1.32-3.26 3.64-3.89 5.56-1.9-.59-3.98-.86-6-.72-.97-1.22-1.48-3.2-1.28-5.1.15-1.45.69-2.63 1.53-3.34.18-.01.37-.02.55-.02 2.81.01 5.62.67 8 2.37zm-17.56-.07c.9-.44 1.9-.84 2.95-1.19-.66 2.7-.11 5.6 1.56 8.32l-.42.18h-.01c-1.7.79-3.19 1.99-4.27 3.67-.44.68-.81 1.49-1.08 2.3-3.55-.11-6.14-2.13-8.24-4.23 2.18-3.8 5.43-7.05 9.51-9.05zm-10.64 28.8c-1.08-2.25-1.68-4.67-1.84-7.12.75.99 1.74 1.66 2.99 2.01.66.18 1.35.27 2.05.27 2.35 0 4.79-.93 6.53-1.95.3.82.67 1.6 1.12 2.32 1.08 1.71 2.7 3.21 4.69 4.35-.54 3.89-3.82 8.33-7.65 8.46-.05 0-.09.01-.13.03-.78-.45-1.56-.93-2.3-1.47-2.42-1.75-4.45-4.81-5.46-6.9zm19.67 11.64c-3.89-.08-7.51-.98-10.83-2.67 3.75-.73 6.74-4.85 7.38-8.73 2.09.98 4.64 1.19 6.93.66 2.18 4.23-.65 9.05-1.78 10.71-.59.03-1.16.04-1.7.03zM48.96 47c-2.14 2.74-5.65 4.74-9.87 5.62-1.49.31-2.88.51-4.18.63 2.47-3.83 3.05-7.8 1.57-10.83.96-.3 1.86-.73 2.64-1.3.36-.27.68-.57.97-.89 1.57 1.63 4.04 3.29 6.66 3.36h.18c1.37 0 2.59-.44 3.66-1.3-.11 1.73-.56 3.35-1.63 4.71z"/>
</svg>
