<?xml version="1.0" encoding="utf-8"?>
<!-- Generator: Adobe Illustrator 18.1.0, SVG Export Plug-In . SVG Version: 6.00 Build 0)  -->
<svg version="1.1" id="Layer_1" xmlns="http://www.w3.org/2000/svg" xmlns:xlink="http://www.w3.org/1999/xlink" x="0px" y="0px"
	 width="256px" height="250.2px" viewBox="0 0 256 250.2" enable-background="new 0 0 256 250.2" xml:space="preserve">
<g>
	<path fill="#1815B7" d="M124.66,5.05c0.24,0.2,0.46,0.44,0.68,0.67c0.2,0.22,0.41,0.43,0.62,0.62c3.94,3.52,8.14,5.46,11.79,5.46
		l0,0c3.62,0,6.68-1.79,9.09-5.32c1.31-1.91,2.35-4.19,2.99-6.47h-0.12c-0.64,2.26-1.67,4.51-2.95,6.41
		c-2.4,3.49-5.43,5.27-9.01,5.27l0,0c-3.63,0-7.79-1.93-11.72-5.42c-0.2-0.19-0.4-0.4-0.61-0.62c-0.22-0.23-0.45-0.46-0.68-0.68
		c-1.77-1.54-3.66-2.96-5.5-4.34c-0.28-0.2-0.54-0.4-0.82-0.61h-0.2c0.31,0.24,0.63,0.47,0.95,0.71
		C121.02,2.09,122.91,3.51,124.66,5.05z"/>
	<path fill="#1815B7" d="M7.77,16.49c2.56-2.38,5.2-4.84,6.89-8.37c0.85-1.79,1.7-4.62,2.09-8.12h-0.12
		c-0.38,3.48-1.22,6.29-2.07,8.07c-1.68,3.49-4.31,5.94-6.87,8.32c-2.97,2.77-6.04,5.62-7.56,10.12c-0.05,0.13-0.1,0.27-0.13,0.41
		v0.4c0.07-0.27,0.16-0.52,0.24-0.76C1.76,22.08,4.82,19.24,7.77,16.49z"/>
	<path fill="#1815B7" d="M136.89,6.31L136.89,6.31c1.25,0,2.47-0.44,3.58-1.29c1.05-0.79,1.56-1.6,2.1-2.43
		c0.22-0.36,0.46-0.72,0.74-1.09c0.21-0.49,0.39-0.99,0.54-1.5h-0.12c-0.15,0.49-0.32,0.97-0.51,1.43c-0.28,0.37-0.52,0.74-0.74,1.1
		c-0.53,0.83-1.05,1.61-2.07,2.4c-1.12,0.84-2.29,1.27-3.52,1.27l0,0c-3.29,0-6.45-2.93-9.24-5.5c-0.26-0.24-0.5-0.46-0.75-0.69
		h-0.18c0.28,0.26,0.55,0.51,0.83,0.77C130.37,3.37,133.55,6.31,136.89,6.31z"/>
	<path fill="#1815B7" d="M2.16,37.26c0.59-3.07,1.14-5.97,2-8.02c1.44-3.5,4.43-6.43,7.59-9.55c1.95-1.91,3.96-3.88,5.65-6.05
		c2.12-2.71,3.54-5.05,4.73-7.82c0.7-1.63,1.3-3.51,1.89-5.33c0.05-0.16,0.12-0.33,0.16-0.49h-0.12c-0.04,0.15-0.1,0.3-0.15,0.45
		c-0.58,1.82-1.18,3.7-1.88,5.32c-1.19,2.76-2.6,5.09-4.72,7.79c-1.69,2.16-3.7,4.13-5.63,6.03c-3.18,3.13-6.18,6.08-7.62,9.59
		c-0.85,2.06-1.41,4.97-2,8.05c-0.57,2.96-1.15,6.03-2.02,8.27C0.01,45.53,0,45.54,0,45.56v0.31c0.04-0.12,0.09-0.21,0.13-0.32
		C1.01,43.3,1.6,40.23,2.16,37.26z"/>
	<path fill="#1815B7" d="M11.85,75.52c4.13,1.65,9.25,3.69,11.22,7.87c0.13,2.28-0.67,4.22-1.52,6.27
		c-1.2,2.87-2.56,6.13-1.79,11.22c0.59,3.87,2.86,6.35,5.49,9.23c1.09,1.19,2.2,2.41,3.27,3.81c2.78,3.66,4.68,7.78,6.15,11.34
		c1.48,3.54,2.64,6.33,6.53,7.27c2.32,0.56,5.57,0.95,7.8,1.18c1.23,0.13,2.38,0.2,3.41,0.2c1.71,0,3.19-0.19,4.43-0.55
		c2.63-0.78,4.31-2.93,6.42-5.64c0.63-0.81,1.28-1.63,2.01-2.51c0.5-0.6,1.15-1.26,1.85-1.97c1.46-1.46,2.95-2.98,3.37-4.2
		c0.15-0.47,0.11-0.9,0.07-1.38c-0.04-0.37-0.07-0.78-0.03-1.27l0.01-0.03l-0.02-0.02c-1.41-1.86-3.12-3.35-4.78-4.81
		c-2.81-2.47-5.48-4.79-6.49-8.62c-0.53-2.01-0.34-4.17,0.59-6.59c0.98-2.55,3.27-5.37,6.47-7.91c1.44-1.14,2.96-2.33,4.58-3.6
		c7.41-5.78,15.81-12.32,20.4-18.03l0.01-0.04c0.15-0.7,0.1-1.5-0.11-2.38c-0.59-2.4-2.47-5.24-5.15-7.82
		c-2.55-2.44-5.46-4.27-7.77-4.91c-0.19-0.05-0.55-0.15-0.94-0.23c-3.09-0.69-6.29-0.21-9.38,0.25c-2.67,0.4-5.21,0.78-7.67,0.46
		c-5.31-0.7-9.14-4.26-10.49-9.76c-1.77-7.22,3.13-11.76,7.88-16.15c3.5-3.25,7.13-6.59,8.07-11.01c0.91-4.16-0.28-8.65-1.06-11.62
		C64.38,2.39,64,1.19,63.59,0h-0.12c0.42,1.2,0.79,2.41,1.11,3.62c0.77,2.95,1.95,7.43,1.06,11.56c-0.94,4.38-4.55,7.72-8.05,10.95
		c-4.76,4.41-9.7,8.97-7.91,16.26c1.36,5.55,5.23,9.14,10.59,9.84c2.47,0.32,5-0.05,7.69-0.45c3.08-0.46,6.26-0.93,9.33-0.25
		c0.38,0.08,0.75,0.18,0.94,0.23c4.6,1.26,11.55,7.47,12.82,12.63c0.22,0.87,0.26,1.65,0.12,2.32c-4.59,5.7-12.97,12.24-20.37,18.01
		c-1.62,1.26-3.15,2.45-4.59,3.59c-3.2,2.56-5.51,5.38-6.49,7.97c-0.93,2.44-1.13,4.61-0.59,6.65c1.02,3.86,3.69,6.21,6.52,8.69
		c1.65,1.44,3.35,2.93,4.76,4.76c-0.04,0.49-0.01,0.9,0.02,1.27c0.05,0.48,0.09,0.89-0.06,1.33c-0.41,1.19-1.89,2.71-3.35,4.16
		c-0.69,0.7-1.36,1.37-1.85,1.97c-0.74,0.87-1.39,1.7-2.02,2.52c-2.1,2.7-3.76,4.83-6.36,5.6c-1.98,0.59-4.53,0.7-7.78,0.35
		c-2.24-0.24-5.47-0.63-7.79-1.18c-3.82-0.9-4.99-3.68-6.45-7.2c-1.48-3.57-3.37-7.7-6.16-11.38c-1.06-1.39-2.18-2.62-3.27-3.81
		c-2.63-2.86-4.89-5.33-5.47-9.17c-0.76-5.06,0.59-8.3,1.77-11.16c0.85-2.07,1.67-4.02,1.53-6.34l-0.01-0.03
		c-1.99-4.21-7.14-6.28-11.29-7.92c-1.13-0.45-2.29-0.91-3.56-1.19C5.4,73.6,2.62,73.25,0,73.15v0.12c2.61,0.09,5.39,0.45,8.3,1.07
		C9.56,74.61,10.73,75.07,11.85,75.52z"/>
	<path fill="#1815B7" d="M72.03,3.45c0.32,1.22,0.69,2.45,1.06,3.65c0.78,2.63,1.52,5.13,1.81,7.36c0.22,1.59,0.22,3.23,0.01,4.37
		c-0.61,3.44-2.93,6.12-5.16,8.72c-2.56,2.97-5.22,6.06-5.42,10.35c0.28,3.82,4.58,4.37,9.13,4.95c0.83,0.12,1.7,0.22,2.54,0.35
		c3.34,0.53,7.18,1.6,11.11,3.07c1.38,0.52,2.7,1.17,3.98,1.8c2.45,1.22,4.76,2.37,7.47,2.67c0.35,0.04,0.69,0.05,1.06,0.05
		c1.84,0,3.43-0.52,4.8-1c1.38-0.49,2.57-1.01,3.73-1.53c2.48-1.09,4.81-2.12,8.41-2.44c0.64-0.07,1.3-0.1,1.94-0.1
		c3.91,0,7.19,1.03,10.36,2.02c2.73,0.87,5.33,1.68,8.02,1.68c0.53,0,1.06-0.03,1.57-0.1c4.08-0.52,7.22-2.63,9.58-6.47
		c2.09-3.39,3.28-7.67,4.29-11.8c0.29-1.21,0.81-3.47,0.98-5.11c0.18-1.54-0.06-2.67-0.75-3.45c-1.23-1.43-3.71-1.52-6.57-1.61
		c-1.3-0.04-2.64-0.09-3.98-0.27c-5.64-0.73-10.37-1.46-15.61-3.65c-4.31-1.79-8.62-4.04-11.49-5.59
		C110.09,8.75,104.64,5.49,100.8,0h-0.14c3.86,5.55,9.33,8.85,14.19,11.49c2.86,1.56,7.17,3.8,11.49,5.6
		c5.24,2.18,9.99,2.92,15.64,3.66c1.34,0.17,2.69,0.21,3.99,0.27c2.84,0.09,5.3,0.17,6.5,1.56c0.65,0.75,0.89,1.85,0.71,3.36
		c-0.19,1.63-0.69,3.89-0.98,5.09c-1.99,8.21-4.84,17.06-13.77,18.18c-0.51,0.06-1.03,0.09-1.55,0.09c-2.67,0-5.25-0.81-7.99-1.67
		c-3.18-0.99-6.46-2.02-10.39-2.02c-0.65,0-1.3,0.03-1.95,0.09c-3.62,0.32-5.96,1.37-8.45,2.47c-1.15,0.51-2.34,1.04-3.72,1.53
		c-1.36,0.48-2.95,0.98-4.76,0.98c-0.36,0-0.7-0.02-1.04-0.05c-2.68-0.29-4.99-1.44-7.43-2.64c-1.29-0.64-2.61-1.3-3.99-1.81
		c-3.94-1.48-7.79-2.55-11.13-3.08c-0.84-0.13-1.71-0.25-2.55-0.35c-4.5-0.59-8.76-1.14-9.03-4.85c0.2-4.22,2.85-7.29,5.39-10.27
		c2.25-2.6,4.57-5.31,5.2-8.77c0.21-1.16,0.2-2.81-0.01-4.42c-0.3-2.25-1.05-4.73-1.83-7.36c-0.35-1.2-0.72-2.44-1.06-3.66
		c-0.21-0.79-0.43-1.6-0.67-2.38C71.37,0.7,71.28,0.35,71.18,0h-0.12c0.11,0.36,0.21,0.72,0.3,1.07
		C71.59,1.85,71.81,2.65,72.03,3.45z"/>
	<path fill="#1815B7" d="M8.27,7.89C9.48,6.02,10.56,3.76,10.58,0h-0.12c-0.03,3.73-1.09,5.97-2.29,7.83
		c-1.53,2.35-3.73,3.76-6.07,5.26c-0.7,0.45-1.41,0.9-2.1,1.39v0.14c0.71-0.5,1.45-0.97,2.17-1.43C4.51,11.69,6.73,10.27,8.27,7.89z
		"/>
	<path fill="#1815B7" d="M79.8,10.64c0.72,1.62,1.47,3.27,1.72,5c0.7,4.74-1.75,7.82-4.11,10.81c-1.62,2.03-3.14,3.95-3.61,6.31
		c-0.12,0.6-0.09,0.96-0.06,1.43c0.02,0.25,0.04,0.51,0.04,0.88v0.02c0.6,1.68,2.4,2.86,3.82,3.55c5.09,2.52,13.39,3.71,19.44,4.58
		c0.91,0.12,1.82,0.2,2.76,0.2l0,0c2.35,0,4.53-0.4,6.84-0.82c2.47-0.44,5.02-0.91,7.97-0.91c0.78,0,1.58,0.04,2.35,0.1
		c0.16,0.02,0.6,0.04,1.17,0.08c0.83,0.04,1.88,0.1,2.62,0.16c2.47,0.19,4.42,0.62,6.3,1.05c2.52,0.56,4.88,1.09,8.39,1.09
		c0.36,0,0.75-0.01,1.13-0.02c2.79-0.44,5.34-3.37,6.36-7.31c0.84-3.26,0.65-7.59-2.42-9.98c-3.61-2.81-14.13-5.28-19.79-5.73
		c-1.21-0.11-2.21-0.12-3.18-0.12c-1.08-0.01-2.19-0.02-3.65-0.14c-3.9-0.36-7.12-1.89-10.78-5.14C98.57,11.68,96.11,8.56,92.6,2.4
		c-0.38-0.67-0.74-1.48-1.06-2.4H91.4c0.35,0.93,0.7,1.78,1.1,2.45c3.51,6.18,5.97,9.3,10.53,13.34c3.67,3.27,6.92,4.81,10.84,5.16
		c1.45,0.13,2.57,0.14,3.66,0.14c1.01,0.01,1.96,0.02,3.17,0.12c5.63,0.46,16.12,2.91,19.73,5.71c3.02,2.35,3.19,6.64,2.37,9.86
		c-1,3.89-3.53,6.79-6.26,7.22c-0.37,0.01-0.75,0.02-1.11,0.02c-3.48,0-5.86-0.54-8.36-1.09c-1.89-0.43-3.84-0.86-6.32-1.05
		c-0.74-0.05-1.78-0.12-2.62-0.17c-0.57-0.03-1.01-0.05-1.17-0.06c-0.78-0.08-1.57-0.11-2.36-0.11c-2.95,0-5.52,0.46-7.99,0.91
		c-2.31,0.42-4.48,0.81-6.82,0.81l0,0c-0.94,0-1.84-0.05-2.74-0.19c-6.04-0.87-14.33-2.05-19.4-4.57c-1.38-0.67-3.16-1.84-3.74-3.48
		c-0.01-0.36-0.03-0.62-0.04-0.87c-0.04-0.46-0.07-0.82,0.05-1.4c0.47-2.32,1.98-4.23,3.59-6.26c2.39-3,4.84-6.1,4.13-10.9
		c-0.26-1.74-1-3.42-1.73-5.02c-0.28-0.63-0.59-1.29-0.84-1.94C78.13,6.34,77.04,3.22,76.35,0h-0.12c0.7,3.24,1.79,6.38,2.72,8.71
		C79.22,9.35,79.51,10.01,79.8,10.64z"/>
	<path fill="#1815B7" d="M12.3,58.49c1.64-1.83,3.1-3.78,4.64-5.84c2.45-3.27,4.98-6.64,8.24-9.42c0.23-0.21,0.46-0.44,0.67-0.68
		c0.2-0.21,0.41-0.43,0.62-0.62c2.13-1.88,4.57-3.39,6.92-4.84c1.63-1.01,3.33-2.05,4.92-3.22c1.26-0.93,2.53-1.91,3.74-2.85
		c1.85-1.44,3.77-2.91,5.7-4.24c0.91-0.63,1.86-1.23,2.87-1.87c4.93-3.15,10.52-6.72,11.38-13.17c0.45-3.41-0.44-7.8-2.35-11.75
		h-0.12c1.91,3.94,2.8,8.33,2.36,11.74c-0.85,6.4-6.42,9.95-11.33,13.07c-1,0.64-1.95,1.25-2.87,1.87
		c-1.94,1.34-3.86,2.82-5.71,4.25c-1.22,0.94-2.48,1.92-3.76,2.85c-1.58,1.16-3.27,2.21-4.9,3.21c-2.36,1.46-4.8,2.97-6.93,4.85
		c-0.23,0.2-0.43,0.43-0.64,0.63c-0.21,0.22-0.43,0.46-0.67,0.66c-3.27,2.79-5.81,6.18-8.25,9.44c-1.54,2.07-3.01,4.01-4.64,5.83
		C8.96,62.02,4.67,64.47,0,65.45v0.12C4.7,64.58,9.03,62.12,12.3,58.49z"/>
	<path fill="#1815B7" d="M5.02,53.89c1.59-2.32,1.6-6.52,1.43-9.93c-0.13-2.75-0.09-8,1.71-12.37c1.39-3.34,4.69-6.31,7.89-9.17
		c0.49-0.44,0.97-0.88,1.44-1.31c6.4-5.83,9.57-11.07,12.37-17.13c0.24-0.51,0.44-1.06,0.65-1.6c0.25-0.67,0.51-1.34,0.84-2
		c0.06-0.13,0.13-0.27,0.2-0.39h-0.13c-0.05,0.12-0.12,0.22-0.18,0.33c-0.33,0.67-0.59,1.35-0.83,2.01
		c-0.2,0.53-0.41,1.07-0.66,1.59c-2.79,6.06-5.94,11.29-12.33,17.11c-0.47,0.43-0.96,0.86-1.44,1.3c-3.2,2.87-6.52,5.85-7.91,9.22
		c-1.81,4.38-1.85,9.66-1.72,12.41c0.17,3.4,0.15,7.58-1.41,9.87C3.79,55.47,1.98,56.64,0,57.65v0.13
		C2.01,56.76,3.86,55.58,5.02,53.89z"/>
	<path fill="#1815B7" d="M1.77,3.26c0.77-0.8,1.1-2.04,1.1-3.26H2.73c0,1.2-0.33,2.42-1.05,3.18C1.18,3.7,0.6,3.98,0,3.98V3.98V4.1
		l0,0C0.63,4.1,1.24,3.81,1.77,3.26z"/>
	<path fill="#1815B7" d="M38.21,1.88c-1.69,1.99-2.92,4.7-4.11,7.33c-0.19,0.4-0.36,0.79-0.54,1.19c-1.74,3.74-3.9,8.41-6.26,11.6
		c-1.28,1.74-3.39,2.99-5.63,4.31c-3.17,1.87-6.44,3.82-7.72,7.38c-0.46,1.29-0.47,2.7-0.02,4.46c0.44,0.98,1.22,1.48,2.28,1.48l0,0
		c1.76,0,3.83-1.36,4.68-2.09c1.7-1.43,3.19-3.41,4.61-5.33c0.77-1.02,1.56-2.09,2.38-3.07c0.4-0.45,1.77-2.01,2.91-2.69
		c2.71-1.6,6.19-2.82,9.88-4.12c5.12-1.79,10.4-3.65,13.69-6.66c1.76-1.58,2.79-4.06,2.88-6.8c0.08-2.93-0.93-5.7-2.87-7.83
		C54.04,0.68,53.67,0.31,53.27,0h-0.2c0.43,0.34,0.84,0.72,1.22,1.14c1.92,2.09,2.93,4.84,2.84,7.74c-0.07,2.7-1.11,5.16-2.83,6.72
		c-3.28,2.99-8.56,4.84-13.66,6.64c-3.69,1.3-7.17,2.52-9.89,4.13c-1.18,0.7-2.55,2.26-2.94,2.72c-0.83,0.97-1.62,2.04-2.4,3.08
		c-1.43,1.91-2.9,3.88-4.59,5.3c-0.84,0.72-2.89,2.07-4.61,2.07c-1.02,0-1.75-0.47-2.17-1.41c-0.44-1.72-0.43-3.11,0.03-4.38
		c1.26-3.52,4.52-5.45,7.67-7.31c2.25-1.33,4.37-2.59,5.67-4.36c2.35-3.19,4.51-7.86,6.25-11.61c0.18-0.4,0.36-0.8,0.54-1.2
		c1.19-2.62,2.42-5.32,4.1-7.29c0.63-0.75,1.37-1.4,2.17-1.96h-0.2C39.52,0.54,38.82,1.17,38.21,1.88z"/>
	<path fill="#1815B7" d="M85.13,32.24l0.01,0.02c0.21,0.22,0.34,0.53,0.45,0.83l0.03,0.06l0.02,0.04c0.87,0.81,2.16,1.26,3.66,1.26
		l0,0c2.12,0,4.22-0.9,5.25-2.22c0.62-0.81,0.82-1.72,0.59-2.66c-0.45-1.76-2.13-2.33-3.96-2.8l-0.01-0.01l-0.01,0.01
		c-3.11,0.45-6.32,2.35-6.02,5.46V32.24z M91.16,26.88c1.79,0.47,3.42,1.02,3.86,2.71c0.22,0.9,0.04,1.79-0.57,2.56
		c-1,1.3-3.08,2.17-5.16,2.17l0,0c-1.46,0-2.72-0.44-3.57-1.23l-0.02-0.04c-0.12-0.31-0.25-0.63-0.46-0.87
		C84.95,28.73,88.98,27.2,91.16,26.88z"/>
	<path fill="#1815B7" d="M117.28,34.28l0.04,0.08l0.02,0.01c1.91,1.2,5.07,2,7.85,2l0,0c1.84,0,5.04-0.36,5.87-2.84v-0.01
		c0.02-0.86-0.29-1.62-0.94-2.28c-1.21-1.24-3.61-2.01-6.26-2.01c-3.36,0-6.99,1.3-7.05,4.17v0.02l0.03,0.02
		C117.05,33.65,117.18,33.97,117.28,34.28z M123.87,29.34c2.62,0,5,0.76,6.18,1.97c0.61,0.64,0.91,1.37,0.9,2.18
		c-0.82,2.4-3.97,2.75-5.76,2.75l0,0c-2.76,0-5.87-0.79-7.78-1.97l-0.02-0.05c-0.12-0.3-0.24-0.62-0.45-0.85
		C117.01,30.6,120.57,29.34,123.87,29.34z"/>
	<path fill="#1815B7" d="M32.78,90.94c-0.67,2.88-1.38,5.88-1.09,10.36c2.25,7.78,4.9,13.66,8.08,17.98c0.75,1,1.66,2.15,2.81,3.07
		c1.65,1.32,4,2.1,6.26,2.1l0,0c2.28,0,4.23-0.78,5.49-2.23c1.4-1.59,1.92-3.88,1.54-6.8c-0.22-1.63-0.82-3.35-1.4-5.02
		c-0.59-1.66-1.19-3.37-1.4-5c-0.86-6.34,1.85-12.92,7.23-17.58c2.28-1.99,4.64-3.59,6.9-5.15c2.46-1.69,5-3.44,7.4-5.63
		c3.66-3.31,7.79-7.07,8.47-12.74v-0.02v-0.01c-0.43-2.68-1.27-5.44-4.32-7.41c-1.73-1.13-3.65-1.65-6.02-1.65
		c-2.03,0-4.12,0.38-6.34,0.78c-2.39,0.43-4.85,0.87-7.42,0.87c-0.63,0-1.25-0.03-1.85-0.07c-1.22-0.12-2.75-0.49-4.36-0.89
		c-2.17-0.52-4.41-1.07-6.18-1.07c-0.37,0-0.71,0.03-1.02,0.08c-2.4,0.36-4.93,2.44-6.88,4.21c-3.24,2.94-6.29,6-6.8,8.52
		c-0.2,0.98-0.13,2.56-0.01,3.71c0.18,1.74,0.56,3.21,0.91,4.63c0.63,2.54,1.29,5.16,0.97,9.36C33.61,87.38,33.21,89.12,32.78,90.94
		z M32.92,75.95c-0.35-1.42-0.73-2.89-0.9-4.61c-0.12-1.14-0.19-2.71,0-3.67c0.5-2.49,3.54-5.54,6.76-8.46
		c1.93-1.75,4.45-3.81,6.81-4.18c0.3-0.04,0.63-0.06,1-0.06c1.77,0,4,0.54,6.16,1.07c1.62,0.39,3.15,0.76,4.37,0.88
		c0.6,0.05,1.22,0.08,1.86,0.08c2.57,0,5.05-0.44,7.43-0.89c2.22-0.39,4.3-0.77,6.32-0.77c2.35,0,4.25,0.52,5.97,1.63
		c3.01,1.95,3.82,4.67,4.26,7.34c-0.68,5.62-4.79,9.35-8.43,12.66c-2.41,2.17-4.94,3.91-7.39,5.6c-2.28,1.56-4.62,3.18-6.92,5.17
		c-5.41,4.68-8.14,11.29-7.28,17.67c0.22,1.64,0.83,3.35,1.41,5.02c0.59,1.66,1.19,3.38,1.39,5c0.39,2.88-0.12,5.14-1.51,6.71
		c-1.23,1.41-3.14,2.18-5.39,2.18l0,0c-2.24,0-4.55-0.78-6.19-2.08c-1.14-0.91-2.05-2.06-2.79-3.05c-3.19-4.3-5.82-10.17-8.07-17.93
		c-0.28-4.44,0.42-7.43,1.1-10.29c0.43-1.84,0.83-3.58,0.98-5.63C34.2,81.13,33.56,78.5,32.92,75.95z"/>
	<path fill="#1815B7" d="M40.19,90.64c0.12,0.52,0.2,1.06,0.3,1.64c0.32,2.04,0.7,4.37,2.79,5.47l0.02,0.01h0.02
		c2.55-0.18,4.15-2.45,5.86-4.84c0.61-0.85,1.23-1.74,1.91-2.51c3.75-4.34,7.99-7.21,12.08-10c2.87-1.96,5.6-3.82,8-6.06
		c0.77-0.38,1.3-1.05,1.79-1.69c0.38-0.48,0.77-0.99,1.29-1.38c2.2-2.75,2.93-5.97,1.85-8.19c-0.68-1.4-2.36-3.08-6.57-3.08
		c-0.57,0-1.16,0.04-1.77,0.09c-1.35,0.13-2.9,0.42-4.53,0.72c-1.81,0.33-3.86,0.7-5.93,0.92c-0.44,0.04-0.84,0.08-1.25,0.13
		c-5.52,0.55-8.85,0.9-12.17,4.81c-2.36,2.79-3.62,6.25-3.98,10.88c-0.21,2.96-0.04,6.21,0.11,9.07
		C40.1,88.06,40.18,89.42,40.19,90.64z M40.04,77.57c0.35-4.61,1.61-8.03,3.94-10.8c3.28-3.9,6.41-4.21,12.09-4.79
		c0.41-0.04,0.82-0.08,1.25-0.12c2.08-0.22,4.13-0.6,5.94-0.92c1.62-0.29,3.17-0.59,4.52-0.71c0.61-0.06,1.21-0.1,1.77-0.1
		c4.14,0,5.8,1.64,6.47,3.02c1.04,2.18,0.33,5.35-1.84,8.05c-0.52,0.4-0.91,0.9-1.3,1.39c-0.51,0.67-0.99,1.3-1.75,1.66l-0.02,0.01
		c-2.41,2.25-5.13,4.11-8,6.06C59,83.1,54.77,85.98,51,90.33c-0.68,0.76-1.3,1.65-1.91,2.51c-1.69,2.37-3.27,4.61-5.76,4.79
		c-2.04-1.07-2.39-3.26-2.72-5.38c-0.1-0.59-0.18-1.13-0.29-1.64c-0.02-1.21-0.1-2.56-0.17-3.99C40,83.77,39.82,80.52,40.04,77.57z"
		/>
	<path fill="#1815B7" d="M116.93,76.48c0.9,8.43,1.76,16.4,8.33,22.09c4.42,3.82,11.56,7.9,18.4,7.9l0,0c4.17,0,7.59-1.54,10.19-4.6
		c2.24-2.65,3.39-5.75,4.71-9.34c0.14-0.4,0.29-0.8,0.44-1.22c0.27-0.69,0.52-1.37,0.78-2.05c1.47-3.89,2.87-7.54,3.21-10.58
		c0.77-6.7-1.66-9.4-4.67-12.01c-4.69-4.05-10.78-4.36-17.24-4.68c-1.53-0.08-3.34-0.24-5.24-0.42c-3.01-0.28-6.41-0.58-9.25-0.58
		c-3.07,0-5.08,0.35-6.18,1.07c-4.58,3.03-4.03,10.41-3.59,13.42L116.93,76.48z M120.48,62.18c1.07-0.72,3.07-1.06,6.11-1.06
		c2.84,0,6.25,0.31,9.25,0.59c1.91,0.17,3.72,0.34,5.24,0.41c6.44,0.32,12.52,0.63,17.17,4.66c2.99,2.58,5.39,5.26,4.63,11.91
		c-0.35,3.02-1.74,6.67-3.2,10.55c-0.26,0.68-0.52,1.37-0.77,2.06c-0.16,0.4-0.31,0.81-0.45,1.22c-1.32,3.58-2.47,6.66-4.7,9.31
		c-2.56,3.03-5.94,4.56-10.09,4.56c-6.8,0-13.93-4.07-18.32-7.89c-6.55-5.65-7.39-13.6-8.29-22l-0.12-0.99
		C116.49,72.48,115.96,65.17,120.48,62.18z"/>
	<path fill="#1815B7" d="M123.21,77.87c0.79,7.28,1.46,13.56,7.36,18.22c2.73,2.17,7.67,4.71,12.56,4.71l0,0
		c2.43,0,4.48-0.63,6.1-1.88c4.6-3.56,6.59-10.96,6.91-16.21c0.36-6.07-1.86-11.4-5.95-14.24c-3.75-2.62-8.53-2.88-13.59-3.16
		c-1.11-0.05-2.21-0.11-3.31-0.11c-3.18,0-7.1,0.4-9.1,3.5c-1.15,2.35-1.08,5.11-1,7.77C123.19,76.94,123.2,77.4,123.21,77.87z
		 M124.29,68.74c1.97-3.03,5.85-3.43,9-3.43c1.1,0,2.19,0.05,3.31,0.12c5.03,0.28,9.8,0.52,13.53,3.12
		c4.05,2.82,6.26,8.12,5.89,14.14c-0.31,5.24-2.3,12.6-6.87,16.13c-1.6,1.23-3.62,1.86-6.02,1.86l0,0c-4.85,0-9.77-2.54-12.5-4.7
		c-5.84-4.63-6.49-10.59-7.29-18.13c-0.01-0.46-0.02-0.92-0.04-1.4C123.23,73.8,123.16,71.06,124.29,68.74z"/>
	<path fill="#1815B7" d="M50.83,76.71l0.03,0.02c0.18,0.12,0.33,0.28,0.48,0.44c0.19,0.2,0.37,0.4,0.6,0.52l0.01,0.01h0.03
		c3.36-0.59,7.19-2.34,9.98-4.55c1.11-0.88,2.41-2.08,2.66-3.58l0.01-0.03l-0.02-0.03c-0.15-0.22-0.36-0.42-0.55-0.61
		c-0.15-0.14-0.29-0.28-0.43-0.43l-0.01-0.03H63.6c-0.5-0.05-1.04-0.08-1.58-0.08c-2.93,0-6.92,0.89-9.32,3.36
		c-1.31,1.37-1.94,3.03-1.87,4.95V76.71z M52.79,71.81c2.36-2.46,6.32-3.33,9.23-3.33c0.53,0,1.06,0.03,1.54,0.08
		c0.13,0.15,0.27,0.29,0.41,0.43c0.2,0.18,0.38,0.36,0.52,0.58c-0.26,1.46-1.53,2.63-2.61,3.48c-2.78,2.2-6.57,3.94-9.91,4.53
		c-0.2-0.12-0.37-0.29-0.54-0.48c-0.15-0.16-0.3-0.32-0.48-0.45C50.89,74.78,51.5,73.16,52.79,71.81z"/>
	<path fill="#1815B7" d="M135.52,92.78c1.97,1.28,4.17,1.97,6.21,1.97l0,0c2.69,0,4.94-1.16,6.55-3.37
		c3.73-5.14,2.04-14.85-3.3-18.89c-1.45-1.11-3.92-2.42-7.46-2.42c-0.83,0-1.69,0.07-2.55,0.22c-3.74,0.63-5.68,3.58-5.62,8.53
		C129.41,82.56,130.29,89.38,135.52,92.78z M134.99,70.4c0.86-0.14,1.7-0.21,2.53-0.21c3.51,0,5.95,1.29,7.4,2.39
		c2.52,1.92,4.34,5.19,4.99,9.01c0.64,3.73-0.01,7.35-1.73,9.73c-1.57,2.17-3.81,3.31-6.44,3.31l0,0c-2.01,0-4.21-0.68-6.15-1.94
		c-5.18-3.36-6.05-10.13-6.1-13.87C129.41,73.93,131.33,71.02,134.99,70.4z"/>
	<path fill="#1815B7" d="M14.93,125.9c0.49,0.89,0.96,1.74,1.52,2.44l0.03,0.03c0.77,1,2.08,2.67,3.91,2.4
		c1.97-0.29,4.57-2.63,4.1-6.08c-0.37-2.75-2.22-4.76-5.81-6.34c-0.23-0.1-0.46-0.2-0.7-0.3c-1.73-0.73-3.37-1.42-4.13-3.07
		c-0.78-3.26-0.93-7.67-1.1-12.34c-0.13-3.87-0.28-7.88-0.8-11.29c-1-6.59-4.37-10.51-10.31-12.01C1.13,79.19,0.58,79.07,0,78.99
		v0.12c0.57,0.08,1.11,0.2,1.61,0.33c5.88,1.47,9.23,5.38,10.22,11.92c0.52,3.42,0.66,7.42,0.8,11.29c0.16,4.68,0.32,9.09,1.1,12.38
		c0.78,1.7,2.44,2.4,4.2,3.13c0.24,0.11,0.47,0.19,0.7,0.3c3.55,1.54,5.37,3.53,5.73,6.25c0.46,3.36-2.07,5.65-3.99,5.94
		c-1.76,0.27-3.04-1.37-3.81-2.33l-0.03-0.03c-0.55-0.71-1.02-1.54-1.51-2.43c-1.54-2.78-3.12-5.65-7.67-4.9
		c-2.15,0.35-4.56,1.49-7.36,3.47v0.15c2.82-2.01,5.24-3.16,7.38-3.5C11.85,120.33,13.42,123.16,14.93,125.9z"/>
	<path fill="#1815B7" d="M2.95,110.16c2.63-2.89,4.03-7.17,3.85-11.75C6.62,94,4.97,89.97,2.38,87.62C1.61,87.07,0.8,86.7,0,86.5
		v0.11c0.78,0.2,1.56,0.57,2.3,1.08c2.57,2.34,4.21,6.34,4.38,10.71c0.18,4.54-1.22,8.8-3.82,11.68C2,111.03,1.02,111.83,0,112.54
		v0.14C1.06,111.97,2.06,111.15,2.95,110.16z"/>
	<path fill="#1815B7" d="M109.55,110.93c-0.12-0.79-0.48-1.74-0.78-2.49c-2.5-6.23-8.38-12.76-12.64-16.45
		c-2.93-2.53-5.36-4.01-7.22-4.38c-0.4-0.09-0.83-0.13-1.29-0.13c-5.09,0-11.35,5.18-11.74,9.72c0.02,0.22,0.07,0.45,0.13,0.67
		c0.07,0.34,0.16,0.67,0.12,1.04v0.02l0.01,0.01c1.81,4.26,3.88,8.28,6.12,11.96c1.01,1.67,2.03,3.27,3.37,4.61
		c3.24,3.24,8.88,5.51,13.69,5.51l0,0c2.66,0,4.89-0.67,6.62-1.98C108.84,116.83,110.06,114.11,109.55,110.93z M99.33,120.88
		L99.33,120.88c-4.78,0-10.38-2.25-13.6-5.48c-1.33-1.32-2.35-2.92-3.36-4.57c-2.25-3.68-4.29-7.69-6.1-11.93
		c0.03-0.38-0.05-0.74-0.14-1.06c-0.05-0.21-0.11-0.43-0.13-0.64c0.4-4.49,6.59-9.6,11.63-9.6c0.44,0,0.87,0.04,1.27,0.12
		c1.85,0.38,4.26,1.85,7.17,4.36c4.25,3.69,10.11,10.2,12.6,16.41c0.3,0.75,0.67,1.69,0.79,2.47c0.49,3.13-0.72,5.82-3.58,7.98
		C104.17,120.21,101.97,120.88,99.33,120.88z"/>
	<path fill="#1815B7" d="M98.42,100.96c-2.56-2.34-5.62-4.04-7.99-4.41c-0.44-0.08-0.87-0.12-1.28-0.12c-1.47,0-2.65,0.46-3.52,1.37
		c-1.02,1.06-1.53,2.71-1.45,4.67c1.04,4.46,2.09,8.09,5.23,10.65c1.98,1.63,5.03,2.69,7.75,2.69l0,0c3.27,0,5.53-1.5,6.2-4.1
		c0.19-0.77,0.16-1.89,0.04-2.66C103.01,106.45,101.2,103.5,98.42,100.96z M103.24,111.67c-0.66,2.55-2.87,4.01-6.08,4.01l0,0
		c-2.7,0-5.7-1.05-7.67-2.65c-3.11-2.54-4.14-6.14-5.18-10.58c-0.08-1.91,0.43-3.53,1.42-4.58c0.83-0.87,2-1.31,3.43-1.31
		c0.39,0,0.82,0.04,1.26,0.11c4.92,0.79,12.04,6.94,12.88,12.4C103.4,109.81,103.44,110.91,103.24,111.67z"/>
	<path fill="#1815B7" d="M127.02,121.2l-0.02-0.01l-0.03-0.01c-0.33-0.04-0.64-0.06-0.94-0.06c-0.68,0-1.34,0.11-2.06,0.31
		c-3.75,1.09-7.53,4.35-8.78,7.56c-0.89,2.26-0.52,4.76-0.16,7.19c0.33,2.25,0.64,4.35,0.02,6.2c-0.97,2.86-3.53,4.66-6.02,6.4
		c-2.63,1.85-5.34,3.75-6.01,6.89c-0.4,2.23,0.19,4.34,1.67,6.1c2.09,2.49,5.94,4.12,9.78,4.12l0,0c2.51,0,4.71-0.67,6.37-1.93
		c1.3-0.98,2.21-2.34,3.16-3.77l0.15-0.23c0.94-1.86,1.25-4.1,1.59-6.49c0.29-2.07,0.6-4.21,1.33-6.33c0.44-1.25,0.9-2.31,1.34-3.31
		c1.36-3.1,2.52-5.78,1.96-12.38C130.06,127.67,129.39,123.08,127.02,121.2z M128.3,143.78c-0.44,1.02-0.9,2.07-1.34,3.33
		c-0.73,2.13-1.03,4.28-1.33,6.35c-0.34,2.37-0.66,4.6-1.58,6.44l-0.13,0.21c-0.99,1.49-1.85,2.77-3.14,3.75
		c-1.63,1.24-3.82,1.89-6.3,1.89c-3.8,0-7.61-1.6-9.69-4.06c-1.46-1.74-2.03-3.82-1.64-6.01c0.66-3.09,3.24-4.89,5.95-6.8
		c2.51-1.76,5.08-3.58,6.06-6.46c0.64-1.89,0.33-4.01,0-6.25c-0.36-2.41-0.73-4.91,0.15-7.13c1.23-3.19,4.98-6.41,8.7-7.49
		c0.72-0.2,1.36-0.3,2.03-0.3c0.29,0,0.6,0.02,0.91,0.06c2.33,1.86,3,6.41,3.32,10.15C130.81,138.03,129.66,140.69,128.3,143.78z"/>
	<path fill="#1815B7" d="M17.84,144.73c-0.58-0.5-1.22-0.75-1.93-0.75c-1.19,0-2.5,0.75-3.62,2.04c-1.37,1.6-2.13,3.67-1.9,5.16
		c0.54,2.54,2.86,3.87,4.85,3.87l0,0c1.4,0,2.62-0.61,3.42-1.7C20.29,151.11,19.84,146.45,17.84,144.73z M18.58,153.27
		c-0.78,1.07-1.96,1.66-3.33,1.66l0,0c-1.95,0-4.21-1.3-4.74-3.77c-0.22-1.45,0.52-3.49,1.88-5.07c1.08-1.27,2.38-1.99,3.52-1.99
		c0.67,0,1.3,0.23,1.85,0.71C19.73,146.5,20.17,151.09,18.58,153.27z"/>
	<path fill="#1815B7" d="M61.04,160.34c-0.09-0.18-0.2-0.36-0.24-0.57l-0.01-0.02l-0.01-0.02c-0.46-0.33-1-0.51-1.56-0.51
		c-0.86,0-1.74,0.41-2.37,1.09c-0.59,0.64-0.87,1.43-0.81,2.22l0.01,0.02c0.42,0.83,1.13,1.29,2.03,1.29l0,0
		c1.4,0,3.09-1.21,3.24-2.83v-0.01V161C61.28,160.76,61.15,160.55,61.04,160.34z M58.08,163.72L58.08,163.72
		c-0.84,0-1.54-0.44-1.92-1.22c-0.07-0.75,0.2-1.5,0.77-2.12c0.6-0.65,1.45-1.05,2.28-1.05c0.52,0,1.03,0.18,1.46,0.49
		c0.05,0.2,0.16,0.39,0.26,0.57c0.11,0.21,0.22,0.4,0.26,0.61C61.04,162.56,59.43,163.72,58.08,163.72z"/>
	<path fill="#1815B7" d="M221.25,2.19c2.87,1.39,6.24,1.53,9.03,0.39c1.4-0.59,2.59-1.47,3.5-2.58h-0.14
		c-0.88,1.06-2.01,1.91-3.39,2.47c-2.77,1.14-6.11,1-8.94-0.37c-0.92-0.44-1.79-1.14-2.63-2.09h-0.16
		C219.38,1.01,220.3,1.73,221.25,2.19z"/>
	<path fill="#1815B7" d="M119.61,7.06c1.12,0.79,2.18,1.63,3.21,2.44c2.49,1.95,4.84,3.78,7.44,4.65c2.9,1.45,5.68,2.17,8.32,2.17
		c2.19,0,4.29-0.5,6.27-1.5c5.84-2.94,9.13-9.35,10.39-14.83h-0.12c-1.26,5.43-4.52,11.81-10.32,14.72
		c-4.34,2.18-9.22,1.95-14.5-0.68c-2.58-0.86-4.92-2.7-7.41-4.65c-1.03-0.8-2.09-1.63-3.22-2.43c-1.21-0.86-2.46-1.69-3.67-2.49
		c-2.2-1.46-4.36-2.89-6.26-4.47h-0.2c1.93,1.62,4.13,3.08,6.39,4.57C117.16,5.38,118.41,6.2,119.61,7.06z"/>
	<path fill="#1815B7" d="M161.55,9.29c0.79,1.92,2.53,2.85,5.31,2.85c1.41,0,2.87-0.24,4.05-0.44h0.04
		c0.26-0.04,0.53-0.06,0.82-0.06c1.11,0,2.25,0.33,3.34,0.65c0.56,0.17,1.15,0.34,1.72,0.45c0.46,0.11,0.91,0.19,1.37,0.28
		c1.87,0.36,3.82,0.75,5.57,1.55c0.69,0.32,1.4,0.63,2.09,0.92c3.43,1.48,6.97,3.02,9.26,6c0.14,0.19,0.27,0.37,0.4,0.56
		c1.61,2.38,3,4.93,4.33,7.41c1.51,2.79,3.07,5.66,4.95,8.29c1.82,2.56,4.27,5.4,6.64,8.14c0.83,0.96,1.6,1.86,2.35,2.75
		c3.76,4.45,7.31,8.65,13.86,8.65h0.01c1.68,0,3.45-0.27,5.45-0.8c5.67-1.53,15.68-5.34,19.1-13.61c0.91-2.19,1.51-5.25,2.15-8.48
		c0.49-2.44,0.99-4.97,1.63-7.07v-0.4c-0.7,2.18-1.23,4.86-1.74,7.44c-0.65,3.24-1.25,6.28-2.15,8.47
		c-3.41,8.23-13.38,12.01-19.02,13.54c-1.99,0.54-3.76,0.8-5.42,0.8h-0.01c-6.49,0-10.03-4.18-13.76-8.62
		c-0.75-0.89-1.54-1.79-2.36-2.74c-2.36-2.74-4.81-5.58-6.64-8.13c-1.86-2.62-3.42-5.5-4.93-8.28c-1.34-2.48-2.73-5.04-4.34-7.42
		c-0.12-0.19-0.27-0.39-0.41-0.57c-2.32-3-5.86-4.54-9.3-6.03c-0.7-0.3-1.41-0.61-2.09-0.92c-1.77-0.82-3.72-1.2-5.6-1.57
		c-0.46-0.09-0.91-0.18-1.37-0.28c-0.56-0.12-1.14-0.29-1.71-0.45c-1.1-0.32-2.24-0.66-3.37-0.66c-0.29,0-0.59,0.03-0.84,0.06
		l-0.05,0.01c-1.16,0.2-2.62,0.43-4.02,0.43c-2.72,0-4.44-0.9-5.2-2.76c-0.8-1.91-0.53-5.15-0.29-8.01c0.04-0.44,0.07-0.84,0.1-1.24
		h-0.12c-0.03,0.4-0.05,0.81-0.09,1.23C161.02,4.11,160.76,7.36,161.55,9.29z"/>
	<path fill="#1815B7" d="M210.62,3.64c3.52,4.77,9.78,7.61,16.73,7.61c1.73,0,3.41-0.18,4.99-0.52c6.18-1.37,8.15-5.58,9.03-10.73
		h-0.12c-0.28,1.63-0.66,3.16-1.25,4.53c-1.43,3.3-3.88,5.23-7.68,6.08c-1.58,0.35-3.25,0.52-4.97,0.52
		c-6.91,0-13.12-2.83-16.63-7.57C210.33,2.56,210,1.33,209.68,0h-0.12C209.88,1.35,210.22,2.59,210.62,3.64L210.62,3.64z"/>
	<path fill="#1815B7" d="M176.94,6.13c3.14,0.45,6.14,1.38,9.02,2.29c1.86,0.59,3.8,1.19,5.76,1.66c1.25,0.3,2.5,0.54,3.61,0.71
		c1.14,0.17,2.14,0.26,2.97,0.26l0,0c1.72,0,2.74-0.36,3.06-1.06c0.88-1.89,1.55-6,1.59-9.98h-0.12c-0.04,3.97-0.71,8.05-1.57,9.94
		c-0.3,0.66-1.3,0.98-2.96,0.98c-0.83,0-1.82-0.08-2.95-0.25c-1.11-0.17-2.35-0.41-3.6-0.71c-1.96-0.47-3.88-1.07-5.74-1.66
		c-2.9-0.9-5.9-1.85-9.06-2.3c-3.11-0.44-5.58-2.57-7.04-6.01h-0.13C171.25,3.51,173.78,5.67,176.94,6.13z"/>
	<path fill="#1815B7" d="M246.14,3.07c-0.16,4.37-0.3,8.15-3.2,10.37c-3.02,2.33-8.29,3-12.14,3.48c-0.38,0.05-0.76,0.11-1.12,0.15
		c-0.66,0.09-1.36,0.13-2.07,0.13l0,0c-3.92,0-8.1-1.32-12.15-2.59c-3.62-1.13-7.35-2.31-10.85-2.51h-0.01l-0.01,0.01
		c-2,0.57-2.49,2.7-2.3,4.5c0.57,7.04,3.04,12.79,8.57,19.88c1.11,1.42,2.16,2.87,3.16,4.27c1.72,2.36,3.34,4.6,5.23,6.72
		c2.83,3.19,6.38,4.78,10.56,4.78l0,0c4.84,0,10.29-2.25,14.95-6.2c4.8-5.2,5.52-12.09,5.85-18.69c0.03-0.52,0.04-1.05,0.05-1.62
		c0.07-2.65,0.15-5.96,1.46-7.6c1.14-1.44,2.49-2.55,3.88-3.52v-0.14c-1.42,0.99-2.8,2.11-3.98,3.6c-1.32,1.65-1.4,4.98-1.48,7.65
		c-0.02,0.58-0.03,1.12-0.05,1.62c-0.32,6.58-1.04,13.46-5.81,18.62c-4.63,3.92-10.04,6.18-14.86,6.18c-4.14,0-7.67-1.61-10.47-4.75
		c-1.88-2.12-3.51-4.35-5.22-6.73c-1-1.39-2.05-2.83-3.16-4.26c-5.51-7.07-7.99-12.82-8.54-19.83c-0.2-1.74,0.27-3.82,2.2-4.37
		c3.47,0.2,7.2,1.37,10.81,2.5c4.05,1.27,8.24,2.59,12.18,2.59l0,0c0.71,0,1.42-0.05,2.09-0.13c0.36-0.05,0.74-0.1,1.12-0.14
		c3.86-0.49,9.16-1.16,12.18-3.5c2.95-2.27,3.1-6.06,3.27-10.47c0.04-0.91,0.06-1.86,0.12-2.81c0.02-0.09,0.02-0.17,0.03-0.26h-0.12
		c0,0.09-0.01,0.16-0.01,0.25C246.21,1.21,246.18,2.15,246.14,3.07z"/>
	<path fill="#1815B7" d="M247.99,61.85l-0.02,0.01c-0.82,0.65-2.05,1.63-1.92,2.99l0.01,0.03l0.02,0.02c0.27,0.2,0.5,0.44,0.7,0.67
		l0.01,0.02h0.02c1.5,0.3,3.03,0.46,4.56,0.46l0,0c1.56,0,3.11-0.17,4.63-0.48v-0.12c-1.52,0.32-3.07,0.48-4.63,0.48
		c-1.52,0-3.03-0.15-4.52-0.45c-0.2-0.22-0.42-0.45-0.67-0.66c-0.12-1.28,1.03-2.19,1.86-2.87l0.02-0.02
		c1.45-1.14,3.34-2.01,5.35-2.93c0.87-0.39,1.74-0.8,2.59-1.22v-0.13c-0.87,0.43-1.77,0.85-2.64,1.24
		C251.34,59.81,249.43,60.68,247.99,61.85z"/>
	<path fill="#1815B7" d="M253.15,1c0.13,1.64,1.46,3.1,2.85,3.1V3.98c-1.33,0-2.6-1.39-2.72-2.98c-0.04-0.35-0.04-0.67-0.01-0.99
		h-0.12C253.13,0.32,253.12,0.66,253.15,1z"/>
	<path fill="#1815B7" d="M236.6,22.97c-0.79,0-1.61,0.09-2.43,0.25c-1.81,0.36-3.74,0.92-5.8,1.53c-2.3,0.67-4.69,1.38-6.97,1.77
		c-2.1,0.38-3.02,1.31-2.78,2.87v0.01c0.74,1.55,1.3,3.28,1.91,5.11c1.3,3.99,2.64,8.12,5.92,10.27c1.54,1,3.43,1.53,5.44,1.53l0,0
		c3.27,0,6.62-1.37,8.98-3.66c1.93-1.9,3.35-4.99,3.78-8.26c0.46-3.45-0.23-6.73-1.91-8.98C241.63,23.9,239.27,22.97,236.6,22.97z
		 M240.78,42.55c-2.33,2.28-5.66,3.64-8.89,3.64c-2,0-3.85-0.52-5.38-1.53c-3.25-2.12-4.58-6.22-5.88-10.2
		c-0.59-1.83-1.15-3.56-1.89-5.11c-0.22-1.49,0.62-2.36,2.68-2.71c2.27-0.41,4.68-1.1,6.99-1.78c2.04-0.6,3.98-1.17,5.78-1.53
		c0.82-0.16,1.63-0.24,2.41-0.24c2.63,0,4.94,0.91,6.04,2.39C246.29,30.36,244.61,38.82,240.78,42.55z"/>
	<path fill="#1815B7" d="M100.68,75.81c0.6,1.14,1.22,2.33,1.74,3.5c0.46,1,0.92,2.06,1.38,3.09c2.76,6.27,5.61,12.77,9.76,17.98
		c1.59,2,3.51,3.9,5.37,5.77c1.78,1.77,3.46,3.42,4.8,5.11c0.66,0.8,1.22,1.68,1.76,2.53c1.14,1.77,2.23,3.45,4.03,4.6l0.02,0.01
		l0.52-0.04c6.89-0.41,12.84-0.76,19.18-1.92c4.51-0.82,7.7-1.69,9.47-2.6c3.65-1.87,4.64-5.22,5.7-8.77
		c0.12-0.36,0.23-0.74,0.34-1.11c1.54-5.02,3.78-10.12,9.57-13.3l0.02-0.03c0.04-0.05,0.09-0.11,0.14-0.16
		c1.2-0.63,2.4-1.27,3.6-1.91c2.09-1.1,4.26-2.25,6.4-3.35c0.92-0.48,1.84-0.98,2.74-1.45c1.4-0.75,2.86-1.53,4.29-2.25
		c0.99-0.48,1.87-1.14,2.74-1.78c0.21-0.16,0.43-0.33,0.65-0.49c0.8-0.59,1.69-1.18,2.7-1.57c1.9-0.75,4-0.83,6.02-0.93
		c1.76-0.07,3.57-0.16,5.27-0.66c1.62-0.47,2.75-0.89,3.69-2.27c3.04-4.44,1.5-7.75-0.99-11.95c-2.63-4.4-5.82-7.83-9.5-10.2
		c-0.66-0.43-1.38-0.76-2.07-1.08c-0.77-0.36-1.56-0.74-2.27-1.23c-0.83-0.57-1.62-1.19-2.4-1.79c-0.63-0.49-1.27-0.99-1.93-1.47
		c-2.67-1.93-5.86-4.06-9.45-5.32c-1.19-0.42-2.6-0.5-3.58-0.5c-0.98,0-2.01,0.09-2.89,0.26c-1.11,0.21-2.01,0.7-2.95,1.22
		c-0.4,0.22-0.83,0.45-1.26,0.67c-0.48,0.21-0.98,0.38-1.45,0.55c-0.63,0.21-1.26,0.44-1.85,0.76c-1.46,0.8-2.87,1.73-4.22,2.64
		c-1.31,0.87-2.67,1.77-4.06,2.55c-6.58,3.7-12.23,5.79-17.72,6.58c-1.64,0.24-3.31,0.36-4.94,0.36c-2.05,0-4.09-0.19-6.07-0.56
		c-1.54-0.28-3.13-0.73-4.68-1.16c-2.71-0.75-5.49-1.53-8.23-1.53c-1.51,0-2.87,0.22-4.15,0.7c-2.61,0.96-4.93,2.95-7.4,5.06
		c-1.26,1.07-2.55,2.18-3.97,3.24c-0.32,0.23-0.72,0.51-1.17,0.82c-1,0.71-2.25,1.58-3.33,2.48c-2,1.71-2.55,3.27-1.89,5.41
		C98.71,72.08,99.66,73.89,100.68,75.81z M100.12,65c1.07-0.91,2.32-1.77,3.33-2.48c0.45-0.31,0.84-0.59,1.16-0.82
		c1.42-1.05,2.72-2.17,3.98-3.24c2.45-2.1,4.76-4.08,7.36-5.04c1.28-0.46,2.63-0.7,4.12-0.7c2.72,0,5.49,0.78,8.19,1.54
		c1.55,0.44,3.14,0.88,4.69,1.17c1.99,0.36,4.03,0.55,6.09,0.55c1.63,0,3.31-0.12,4.95-0.36c5.53-0.8,11.17-2.9,17.77-6.6
		c1.39-0.78,2.75-1.69,4.07-2.55c1.35-0.9,2.77-1.83,4.21-2.63c0.59-0.32,1.22-0.55,1.83-0.75c0.49-0.17,0.98-0.34,1.46-0.57
		c0.44-0.2,0.87-0.44,1.27-0.66c0.95-0.52,1.84-1.01,2.92-1.22c0.88-0.17,1.9-0.27,2.87-0.27c0.97,0,2.36,0.1,3.54,0.51
		c3.56,1.25,6.76,3.39,9.41,5.32c0.65,0.47,1.3,0.97,1.93,1.46c0.78,0.6,1.58,1.22,2.4,1.79c0.73,0.5,1.53,0.88,2.3,1.24
		c0.68,0.32,1.39,0.65,2.04,1.07c3.67,2.36,6.86,5.78,9.47,10.15c2.47,4.17,4,7.46,1,11.84c-0.92,1.36-2.03,1.76-3.62,2.22
		c-1.69,0.51-3.51,0.58-5.24,0.67c-2.04,0.08-4.14,0.18-6.08,0.93c-1.01,0.39-1.9,0.99-2.71,1.58c-0.23,0.16-0.44,0.33-0.66,0.49
		c-0.86,0.64-1.75,1.3-2.72,1.78c-1.45,0.71-2.9,1.48-4.3,2.23c-0.9,0.48-1.83,0.98-2.75,1.45c-2.14,1.11-4.3,2.25-6.39,3.35
		c-1.21,0.65-2.41,1.29-3.61,1.92l-0.02,0.01c-0.04,0.04-0.11,0.11-0.15,0.17c-5.82,3.22-8.06,8.33-9.61,13.37
		c-0.12,0.37-0.23,0.75-0.34,1.11c-1.06,3.52-2.06,6.85-5.65,8.69c-1.77,0.91-4.93,1.79-9.43,2.6c-6.34,1.15-12.29,1.51-19.17,1.92
		l-0.47,0.03c-1.77-1.14-2.85-2.79-3.98-4.55c-0.54-0.85-1.11-1.73-1.76-2.54c-1.36-1.69-3.03-3.36-4.81-5.12
		c-1.85-1.86-3.79-3.78-5.36-5.77c-4.14-5.2-7-11.69-9.75-17.94c-0.45-1.03-0.91-2.09-1.37-3.09c-0.53-1.17-1.15-2.36-1.76-3.51
		c-1-1.93-1.95-3.72-2.5-5.48C97.64,68.2,98.16,66.67,100.12,65z"/>
	<path fill="#1815B7" d="M111.18,83.86l0.23,0.88c2.4,8.94,5.97,14.25,13.18,19.53l0.17,0.13c3.88,2.84,7.23,5.31,10.96,6.49
		c1.86,0.6,4.14,0.91,6.58,0.91c0.01,0,0.01,0,0.01,0c3.24,0,6.54-0.57,8.82-1.51c6.02-2.49,8.23-7.76,10.77-13.89
		c3.34-8.01,9.18-18.38,18.05-22.26c1.61-0.7,3.16-0.84,4.8-0.99c0.63-0.05,1.29-0.12,1.95-0.21c2.51-0.36,5.32-0.87,8.59-1.58
		c0.46-0.09,0.92-0.2,1.38-0.3c2.4-0.53,5.56-2.04,6.6-4.53c0.77-1.84,0.66-3.51-0.31-4.98c-2.89-4.35-12.86-5.84-16.95-5.85h-0.08
		c-1.81,0-3.66,0.19-5.46,0.37c-1.02,0.11-2.07,0.22-3.08,0.28c-1.72,0.12-3.12,0.61-4.85,1.69c-1.78,1.12-3.7,1.65-6.02,1.65
		c-1.73,0-3.49-0.28-5.34-0.58c-0.56-0.1-1.14-0.19-1.73-0.28c-2.43-0.36-5.03-0.52-8.21-0.52c-1.97,0-3.96,0.06-5.87,0.12
		c-1.91,0.05-3.87,0.12-5.8,0.12c-3.52,0-6.36-0.21-8.97-0.67c-0.76-0.14-1.59-0.34-2.47-0.54c-1.88-0.45-4.01-0.97-6.15-0.97
		c-1.18,0-2.24,0.14-3.23,0.44c-4.94,1.49-9.08,7.53-9.84,12.25c-0.28,1.77-0.24,3.58,0.12,5.7
		C109.61,78.03,110.37,80.86,111.18,83.86z M109.04,69.12c0.75-4.69,4.84-10.67,9.74-12.16c1-0.29,2.04-0.44,3.2-0.44
		c2.13,0,4.25,0.51,6.12,0.96c0.87,0.21,1.7,0.41,2.47,0.55c2.61,0.46,5.46,0.67,8.99,0.67c1.93,0,3.9-0.05,5.8-0.12
		c1.92-0.06,3.9-0.12,5.87-0.12c3.16,0,5.77,0.17,8.19,0.52c0.59,0.1,1.17,0.19,1.73,0.28c1.86,0.29,3.62,0.57,5.36,0.57
		c2.33,0,4.28-0.52,6.09-1.65c1.71-1.07,3.1-1.55,4.79-1.68c1.01-0.08,2.06-0.18,3.08-0.28c1.78-0.19,3.65-0.37,5.45-0.37h0.08
		c4.07,0.01,13.97,1.48,16.84,5.78c0.95,1.43,1.06,3.07,0.3,4.88c-1.02,2.44-4.14,3.92-6.51,4.45c-0.45,0.1-0.91,0.2-1.38,0.3
		c-3.27,0.7-6.08,1.22-8.59,1.57c-0.66,0.09-1.31,0.15-1.94,0.2c-1.65,0.16-3.22,0.3-4.84,1.01c-8.91,3.9-14.76,14.28-18.12,22.32
		c-2.53,6.09-4.72,11.35-10.7,13.81c-2.27,0.94-5.55,1.5-8.78,1.5h-0.01c-2.43,0-4.69-0.31-6.55-0.9
		c-3.71-1.17-7.05-3.63-10.93-6.48l-0.17-0.13c-7.17-5.26-10.73-10.54-13.12-19.46l-0.23-0.88c-0.82-3-1.58-5.84-2.13-9.05
		C108.79,72.67,108.75,70.87,109.04,69.12z"/>
	<path fill="#1815B7" d="M245.16,81.68l-0.02,0.03c-0.27,0.5-0.54,0.92-0.78,1.3c-0.83,1.34-1.33,2.16-1.59,4.37
		c-0.2,1.76-0.12,3.56-0.05,5.31c0.08,2.06,0.17,4.19-0.19,6.29c-1.22,7.44-7.14,15.1-13.77,17.83c-0.64,0.26-1.52,0.59-2.12,0.71
		c-0.48,0.08-0.93,0.13-1.36,0.13l0,0c-3.9,0-4.79-3.83-5.65-7.53c-0.2-0.82-0.4-1.68-0.63-2.47c-0.89-3.04-2.09-5.06-3.87-6.54
		c-1.8-1.47-4.22-2.43-7.85-3.11c-1.47-0.27-2.83-0.4-4.14-0.4c-2.53,0-4.93,0.47-8.07,1.57c-0.14,0.04-0.27,0.09-0.4,0.14
		c-1.74,0.59-3.22,1.11-4.27,2.73c-2.01,3.14-3.64,8.22-2.87,11.81c0.75,3.52,3.31,4.23,6.01,4.96c0.52,0.14,1.05,0.29,1.58,0.45
		c0.82,0.28,1.48,0.55,2.06,0.88c4.08,2.29,8.58,4.36,14.19,6.53c4.76,1.84,7.06,5.88,9.29,9.77c2.17,3.78,4.41,7.69,8.87,9.56
		c0.68,0.28,1.45,0.43,2.28,0.43l0,0c0.98,0,2.08-0.21,3.25-0.62c3.19-1.11,6.03-4.53,8.16-7.37c3.34-4.47,7.48-10.04,12.39-13.61
		c0.13-0.09,0.26-0.18,0.39-0.27v-0.15c-0.15,0.11-0.3,0.21-0.46,0.33c-4.92,3.58-9.07,9.15-12.41,13.63
		c-2.11,2.84-4.95,6.24-8.1,7.34c-1.16,0.4-2.25,0.6-3.21,0.6l0,0c-0.82,0-1.56-0.14-2.24-0.42c-4.42-1.85-6.66-5.74-8.81-9.51
		c-2.24-3.91-4.57-7.96-9.36-9.81c-5.6-2.17-10.1-4.24-14.17-6.53c-0.58-0.33-1.24-0.61-2.09-0.88c-0.51-0.17-1.06-0.31-1.57-0.45
		c-2.67-0.74-5.19-1.43-5.93-4.88c-0.76-3.57,0.86-8.6,2.86-11.72c1.01-1.58,2.48-2.1,4.2-2.68c0.13-0.05,0.27-0.1,0.41-0.14
		c3.11-1.11,5.51-1.57,8.02-1.57c1.3,0,2.65,0.13,4.11,0.4c7,1.29,9.94,3.7,11.64,9.56c0.23,0.78,0.44,1.63,0.62,2.45
		c0.88,3.75,1.79,7.62,5.78,7.62l0,0c0.44,0,0.9-0.04,1.38-0.12c0.61-0.12,1.51-0.45,2.15-0.72c3.28-1.35,6.49-3.92,9.03-7.25
		c2.51-3.27,4.21-7.06,4.82-10.66c0.34-2.11,0.26-4.25,0.18-6.31c-0.07-1.75-0.14-3.55,0.06-5.3c0.24-2.19,0.75-3,1.57-4.33
		c0.22-0.36,0.49-0.79,0.78-1.29c2.33-1.9,5.11-2.87,8.23-2.87c0.82,0,1.66,0.07,2.52,0.21v-0.12c-0.86-0.13-1.7-0.2-2.52-0.2
		C250.32,78.78,247.53,79.76,245.16,81.68z"/>
	<path fill="#1815B7" d="M249.4,90.44c-0.61,1.78-0.73,3.63-0.86,5.76c-0.04,0.74-0.09,1.51-0.17,2.34
		c-0.28,3.23-0.91,6.56-1.52,9.78c-0.59,3.19-1.16,6.19-1.27,8.56v0.03l0.03,0.02c0.37,0.28,0.77,0.54,1.24,0.54
		c0.09,0,0.18-0.01,0.26-0.04l0.02-0.01c1.19-0.68,2.46-1.3,3.69-1.91c1.76-0.85,3.54-1.72,5.18-2.83v-0.14
		c-1.65,1.13-3.46,2.01-5.23,2.87c-1.23,0.6-2.51,1.22-3.7,1.92c-0.07,0.02-0.14,0.02-0.2,0.02c-0.44,0-0.82-0.24-1.16-0.49
		c0.11-2.35,0.67-5.34,1.26-8.52c0.61-3.22,1.24-6.55,1.53-9.79c0.08-0.83,0.12-1.61,0.16-2.34c0.13-2.13,0.25-3.96,0.86-5.73
		c0.83-2.44,2.87-4.03,5.17-4.03c0.44,0,0.88,0.06,1.31,0.17V86.5c-0.44-0.11-0.88-0.16-1.31-0.16
		C252.33,86.34,250.26,87.95,249.4,90.44z"/>
	<path fill="#1815B7" d="M203.52,106.46c-2.24,0-4.5,1.1-4.52,3.56v0.02c0.69,2.41,4.04,5.35,6.95,5.35l0,0
		c0.73,0,1.37-0.19,1.94-0.54c0.82-0.54,1.34-1.34,1.52-2.32c0.23-1.26-0.15-2.77-0.97-3.87
		C207.45,107.31,205.55,106.46,203.52,106.46z M209.29,112.5c-0.17,0.94-0.68,1.72-1.47,2.24c-0.53,0.35-1.16,0.53-1.87,0.53
		c-2.87,0-6.15-2.88-6.83-5.25c0.03-2.38,2.23-3.43,4.4-3.43c2,0,3.85,0.82,4.84,2.15C209.14,109.8,209.51,111.27,209.29,112.5z"/>
	<path fill="#1815B7" d="M242.52,121.19l-0.03-0.01c-0.21-0.08-0.45-0.12-0.69-0.12c-1,0-2.09,0.63-3.12,1.23
		c-0.39,0.22-0.79,0.45-1.18,0.65c-0.22,0.12-0.44,0.22-0.68,0.34c-3.42,1.68-8.11,3.98-7.78,9.46c0.47,1.7,1.89,3.43,4,3.43l0,0
		c0.19,0,0.39-0.02,0.6-0.05c3.83-1.59,6.12-6.03,7.7-9.75l0.12-0.27c0.71-1.67,1.51-3.54,1.07-4.88L242.52,121.19z M241.35,126.05
		l-0.12,0.28c-1.57,3.68-3.85,8.12-7.63,9.68c-0.2,0.03-0.38,0.04-0.57,0.04l0,0c-2.04,0-3.42-1.68-3.89-3.32
		c-0.33-5.39,4.33-7.67,7.72-9.33c0.23-0.12,0.47-0.22,0.68-0.34c0.39-0.19,0.79-0.43,1.19-0.65c1.02-0.6,2.09-1.22,3.06-1.22
		c0.21,0,0.43,0.03,0.63,0.09C242.83,122.58,242.04,124.42,241.35,126.05z"/>
	<path fill="#1815B7" d="M200.42,163.19c-1.13-1.04-2.26-1.58-3.36-1.58c-2.6,0-4.33,2.97-4.69,5.9c-0.28,2.23-0.21,4.62,0.17,6.6
		c0.37,1.94,1.15,2.92,2.77,3.48c0.36,0.12,0.81,0.24,1.34,0.35c0.86,0.18,1.61,0.27,2.32,0.27l0,0c1.87,0,3.24-0.65,4.06-1.93
		c0.95-1.46,0.8-4.86,0.56-6.65C203.22,167.09,202.08,164.72,200.42,163.19z M202.91,176.22c-0.8,1.24-2.14,1.86-3.96,1.86
		c-0.69,0-1.45-0.08-2.29-0.26c-0.53-0.11-0.97-0.22-1.33-0.35c-1.59-0.54-2.32-1.45-2.68-3.39c-0.39-1.96-0.44-4.35-0.17-6.55
		c0.36-2.88,2.04-5.8,4.57-5.8c1.06,0,2.17,0.52,3.28,1.54c1.63,1.53,2.78,3.84,3.11,6.36
		C203.68,171.29,203.85,174.78,202.91,176.22z"/>
	<path fill="#1815B7" d="M12.52,202.75c1.14-0.2,2.09-0.44,3.03-0.67c1.14-0.28,2.21-0.54,3.59-0.76c1.27-0.19,2.61-0.28,3.91-0.38
		c2.92-0.19,5.94-0.39,8.51-1.74c3.24-1.7,3.58-6.01,2.47-9.53c-1.87-5.97-4.29-10.1-7.38-12.62c-1.22-0.98-2.36-2.12-3.46-3.23
		c-2.23-2.21-4.52-4.5-7.51-5.7c-2.28-0.93-4.91-1.62-7.44-2.27c-1.54-0.4-3.11-0.82-4.61-1.28c-0.7-0.21-1.46-0.49-2.26-0.79
		c-0.43-0.16-0.89-0.32-1.35-0.48v0.12c0.44,0.16,0.88,0.32,1.3,0.47c0.81,0.29,1.57,0.58,2.27,0.79c1.51,0.46,3.09,0.88,4.61,1.27
		c2.54,0.67,5.16,1.35,7.44,2.27c2.96,1.21,5.25,3.49,7.46,5.68c1.11,1.11,2.26,2.25,3.48,3.24c3.08,2.5,5.47,6.61,7.34,12.57
		c1.09,3.47,0.77,7.72-2.4,9.37c-2.56,1.34-5.56,1.54-8.47,1.75c-1.3,0.08-2.65,0.18-3.92,0.37c-1.39,0.22-2.52,0.49-3.61,0.75
		c-0.92,0.23-1.87,0.46-3.01,0.67c-2.09,0.37-4.21,0.66-6.26,0.92c-2.17,0.29-4.28,0.58-6.24,0.94v0.12
		c1.96-0.37,4.07-0.66,6.26-0.94C8.31,203.4,10.43,203.13,12.52,202.75z"/>
	<path fill="#1815B7" d="M9.84,195.57c2.7-0.76,5.48-1.54,8.14-2.71c2.62-1.14,5.27-2.47,6.45-5.15c1.53-3.5,0.04-7.27-3.99-10.06
		c-0.7-0.49-1.36-0.97-2.01-1.44c-2.7-1.98-5.24-3.84-8.92-4.55c-2.38-0.44-5.9-0.72-9.51-0.81v0.12c3.6,0.07,7.12,0.35,9.49,0.8
		c3.64,0.71,6.18,2.56,8.86,4.53c0.65,0.47,1.31,0.96,2.01,1.44c3.98,2.77,5.46,6.48,3.95,9.91c-1.15,2.64-3.79,3.97-6.38,5.08
		c-2.65,1.16-5.43,1.94-8.13,2.71c-1.4,0.39-2.86,0.81-4.28,1.26c-1.81,0.59-3.7,0.96-5.53,1.3v0.12c1.85-0.36,3.74-0.72,5.56-1.31
		C6.97,196.37,8.43,195.96,9.84,195.57z"/>
	<path fill="#1815B7" d="M8.98,209.68c2.72,0.11,5.53,0.2,8.27-0.08c2.52-0.26,4.84-0.77,7.08-1.29c0.56-0.12,1.11-0.25,1.68-0.36
		c0.42-0.1,0.82-0.19,1.25-0.27c4.28-0.91,8.7-1.85,12.31-4.3c4.2-2.85,4.75-8.83,2.83-12.95c-1.75-3.78-4.68-6.77-7.51-9.66
		c-2.35-2.39-4.78-4.86-6.52-7.79c-0.8-1.06-1.45-2.09-2.09-3.09c-2.06-3.19-3.68-5.71-8-6.73c-8.32-1.94-15.51-3.62-16.85-11.92
		c-0.47-2.94,0.18-5.24,0.8-7.45c0.5-1.77,0.97-3.43,0.86-5.31l-0.01-0.03l-0.02-0.01c-0.22-0.2-0.43-0.42-0.64-0.63
		c-0.28-0.28-0.56-0.58-0.88-0.82l-0.02-0.02H1.49c-0.57,0.04-1.06,0.12-1.49,0.21v0.12c0.42-0.09,0.91-0.17,1.48-0.2
		c0.3,0.24,0.58,0.52,0.84,0.79c0.2,0.2,0.41,0.43,0.63,0.61c0.11,1.86-0.36,3.51-0.85,5.25c-0.62,2.24-1.27,4.54-0.8,7.51
		c1.35,8.38,8.57,10.06,16.94,12.01c4.28,0.99,5.89,3.5,7.92,6.67c0.64,1,1.31,2.02,2.1,3.09c1.74,2.93,4.18,5.41,6.53,7.82
		c2.82,2.88,5.75,5.86,7.5,9.62c1.88,4.09,1.36,9.99-2.8,12.82c-3.6,2.43-8,3.38-12.26,4.28c-0.43,0.09-0.84,0.19-1.26,0.27
		c-0.56,0.12-1.12,0.25-1.68,0.38c-2.24,0.5-4.55,1.02-7.07,1.28c-2.73,0.28-5.53,0.18-8.24,0.08c-3.15-0.11-6.13-0.21-8.99,0.22
		v0.12C2.85,209.48,5.84,209.59,8.98,209.68z"/>
	<path fill="#1815B7" d="M91.85,182.82c0.39,0.19,0.75,0.36,1.05,0.58c1.39,1.01,2.58,2.4,3.34,3.39c1.91,2.49,3.04,4.89,3.78,8.03
		c1.04,4.39,3.79,6.13,8.2,7.66c2.52,0.87,5.32,1.34,8.08,1.34c1.4,0,2.77-0.12,4.06-0.36c4.76-0.85,7.81-3.73,8.37-7.91
		c0.12-0.87,0.28-1.78,0.44-2.66c0.65-3.55,1.31-7.22-0.75-10.5c-1.69-2.66-4.87-3.03-8.07-3.03c-0.61,0-1.24,0.02-1.83,0.03
		c-0.59,0.02-1.19,0.04-1.76,0.04c-1.15,0-2-0.06-2.73-0.17c-2.55-0.41-5.08-1.03-7.51-1.63c-4.04-0.98-7.84-1.93-11.65-1.93
		c-0.81,0-1.61,0.05-2.36,0.13c-0.97,0.12-1.84,0.95-2.36,2.24c-0.48,1.21-0.62,2.82,0.14,3.74
		C90.68,182.25,91.28,182.53,91.85,182.82z M90.27,178.1c0.5-1.25,1.34-2.06,2.25-2.17c0.75-0.08,1.54-0.13,2.35-0.13
		c3.8,0,7.59,0.93,11.61,1.93c2.45,0.6,4.98,1.22,7.53,1.62c0.75,0.12,1.6,0.17,2.75,0.17c0.57,0,1.17-0.01,1.76-0.02
		c0.59-0.02,1.22-0.03,1.83-0.03c3.16,0,6.31,0.35,7.96,2.97c2.03,3.23,1.38,6.89,0.74,10.41c-0.16,0.89-0.33,1.8-0.44,2.67
		c-0.56,4.13-3.57,6.97-8.27,7.82c-1.29,0.24-2.65,0.35-4.05,0.35c-2.75,0-5.54-0.46-8.05-1.32c-4.37-1.52-7.1-3.24-8.12-7.59
		c-0.75-3.15-1.88-5.56-3.81-8.07c-0.75-0.98-1.94-2.39-3.34-3.41c-0.31-0.23-0.7-0.41-1.06-0.6c-0.58-0.27-1.16-0.56-1.52-0.98
		C89.77,180.97,89.72,179.48,90.27,178.1z"/>
	<path fill="#1815B7" d="M113.77,198.82c1.41,0,2.89-0.25,3.58-0.47c0.2-0.07,0.42-0.15,0.6-0.24c1.15-0.54,1.82-1.46,1.85-2.59
		c0.02-0.88-0.37-1.82-1.04-2.5c-0.91-0.94-2.2-1.29-3.43-0.91c-1.33,0.41-4.13,2-4.95,3.74c-0.29,0.6-0.33,1.17-0.12,1.7
		C110.69,198.59,112.4,198.82,113.77,198.82z M110.47,195.9c0.82-1.7,3.57-3.28,4.88-3.67c0.33-0.1,0.66-0.14,0.97-0.14
		c0.88,0,1.71,0.35,2.35,1.02c0.66,0.67,1.03,1.57,1,2.42c-0.03,1.07-0.66,1.96-1.77,2.47c-0.19,0.09-0.38,0.17-0.59,0.24
		c-0.68,0.22-2.14,0.46-3.54,0.46c-1.89,0-3.09-0.43-3.4-1.2C110.16,197,110.19,196.46,110.47,195.9z"/>
	<path fill="#1815B7" d="M150.5,243.73c-0.03-0.27-0.02-0.55-0.01-0.85c0.01-0.31,0.02-0.62-0.02-0.94
		c-0.23-1.93-1.02-4.3-1.85-6.81c-0.85-2.56-1.73-5.19-2.15-7.73c-0.17-1.06-0.28-2.21-0.4-3.32c-0.35-3.62-0.7-7.35-3.23-9.01
		c-1.14-0.76-2.82-1.11-5.26-1.11c-1.37,0-2.84,0.11-4.28,0.2c-0.56,0.04-1.13,0.08-1.69,0.12c-5,0.3-15.39,1.6-19.02,4.35
		c-4.95,3.75-5.55,10.2-5.47,16.02c0.59,7.32,5.59,11.42,11.1,15.55h0.2c-5.54-4.15-10.59-8.23-11.19-15.56
		c-0.07-5.78,0.52-12.19,5.44-15.91c3.59-2.73,13.97-4.03,18.95-4.33c0.56-0.03,1.13-0.08,1.69-0.12c1.44-0.11,2.91-0.2,4.27-0.2
		c2.42,0,4.07,0.35,5.2,1.09c2.48,1.63,2.83,5.33,3.19,8.93c0.1,1.11,0.21,2.26,0.39,3.33c0.42,2.55,1.29,5.19,2.15,7.75
		c0.83,2.49,1.62,4.84,1.84,6.77c0.04,0.31,0.03,0.63,0.02,0.92c-0.01,0.31-0.02,0.59,0.02,0.87c0.24,1.91-0.02,4.18-0.67,6.46h0.12
		C150.48,247.91,150.75,245.63,150.5,243.73z"/>
	<path fill="#1815B7" d="M16.92,244.58c-0.07-1.69-0.03-3.38,0.04-5.02c0.08-2.51,0.16-4.9-0.28-6.81
		c-1.06-4.71-6.99-8.07-12.2-9.65c-1.54-0.47-2.96-0.63-4.48-0.51v0.12c1.5-0.12,2.92,0.04,4.45,0.51
		c5.17,1.57,11.06,4.91,12.11,9.56c0.44,1.91,0.36,4.29,0.28,6.79c-0.06,1.65-0.12,3.34-0.04,5.03c0.09,2.01,0.02,3.9-0.18,5.62
		h0.12C16.94,248.48,17.02,246.59,16.92,244.58z"/>
	<path fill="#1815B7" d="M144.33,242.64c-0.22-1.14-0.64-2.53-1.08-4c-0.63-2.12-1.36-4.53-1.72-6.97c-0.11-0.69-0.2-1.35-0.28-1.99
		c-0.58-4.17-1.03-7.46-3.82-9.64c-1.9-1.48-5.45-2.37-9.49-2.37c-4.92,0-9.5,1.24-12.25,3.33c-4.52,3.42-4.69,9.44-4.05,13.89
		c0.99,4.75,4.4,7.19,8.72,10.3c2.01,1.44,4.1,2.94,6.22,4.85c0.05,0.04,0.11,0.11,0.17,0.15h0.18c-0.1-0.07-0.18-0.16-0.28-0.24
		c-2.12-1.93-4.29-3.49-6.21-4.87c-4.3-3.08-7.7-5.52-8.69-10.22c-0.65-4.42-0.47-10.39,4.02-13.78c2.71-2.06,7.28-3.29,12.17-3.29
		c4.02,0,7.53,0.87,9.42,2.34c2.76,2.15,3.19,5.41,3.76,9.56c0.1,0.65,0.18,1.31,0.28,1.99c0.37,2.46,1.09,4.87,1.73,6.98
		c0.44,1.47,0.86,2.86,1.07,3.99c0.46,2.43,0.28,5.1-0.47,7.54h0.12C144.61,247.74,144.79,245.07,144.33,242.64z"/>
	<path fill="#1815B7" d="M58.07,235.58c-0.5-1.75-0.88-5.03-0.59-7.31c0.05-0.45,0.18-0.96,0.32-1.49c0.47-1.85,1.06-4.13-1.26-5.79
		l-0.02-0.01h-0.01c-4.29-0.51-6.9,3.02-9.2,6.12c-0.6,0.82-1.16,1.58-1.75,2.28c-2.09,2.19-4.94,3.76-7.97,5.44
		c-4.68,2.6-9.52,5.29-11.79,10.52c-0.66,1.47-1.22,3.19-1.76,4.86h0.12c0.54-1.67,1.1-3.36,1.73-4.82
		c2.27-5.21,7.09-7.87,11.76-10.46c3.03-1.68,5.88-3.26,7.99-5.47c0.59-0.69,1.16-1.46,1.77-2.27c2.28-3.08,4.85-6.58,9.08-6.09
		c2.23,1.61,1.69,3.76,1.21,5.66c-0.14,0.53-0.28,1.05-0.34,1.51c-0.27,2.29,0.1,5.6,0.6,7.35c0.76,2.69,1.88,5.39,3.04,8.26
		c0.85,2.07,1.71,4.19,2.47,6.34h0.12c-0.75-2.17-1.63-4.29-2.48-6.38C59.94,240.95,58.84,238.25,58.07,235.58z"/>
	<path fill="#1815B7" d="M126.01,221.26c-2.66,0-5.29,0.78-7.02,2.09c-2.25,1.69-3.6,3.74-3.35,8.69c1.54,6.31,8.38,9.71,14.04,9.71
		l0,0c0.74,0,1.45-0.05,2.15-0.17h0.02l0.01-0.01c0.77-0.63,1.51-1.42,2.24-2.4l0.01-0.03c2.08-6.41,1.98-11.75-0.26-14.62
		C132.24,222.45,129.38,221.26,126.01,221.26z M133.99,239.11c-0.73,0.96-1.44,1.73-2.19,2.36c-0.69,0.1-1.4,0.16-2.12,0.16l0,0
		c-5.63,0-12.4-3.37-13.91-9.6c-0.25-4.9,1.08-6.91,3.29-8.58c1.71-1.3,4.31-2.07,6.96-2.07c3.34,0,6.15,1.17,7.73,3.21
		C135.96,227.44,136.04,232.74,133.99,239.11z"/>
	<path fill="#1815B7" d="M96.84,238.95c-0.9-4.31-1.81-8.76-4.62-12.3c-1.45-1.82-3.23-2.52-5.49-2.19
		c-4.65,0.69-10.18,4.9-13.15,7.17c-3.33,3.47-4.58,7.67-3.84,12.83c0.27,1.84,0.78,3.81,1.32,5.74h0.12
		c-0.54-1.94-1.07-3.92-1.32-5.76c-0.74-5.13,0.51-9.3,3.8-12.73c2.95-2.25,8.47-6.45,13.09-7.13c0.35-0.05,0.7-0.08,1.03-0.08
		c1.74,0,3.16,0.73,4.35,2.23c2.79,3.51,3.72,7.94,4.6,12.24c0.79,3.86,1.61,7.86,3.82,11.08c0.04,0.06,0.06,0.11,0.11,0.15h0.14
		c-0.05-0.06-0.11-0.14-0.16-0.21C98.44,246.78,97.63,242.8,96.84,238.95z"/>
	<path fill="#1815B7" d="M126.59,229.39l-0.01-0.02c-0.45-0.75-1.16-1.2-1.9-1.2c-0.23,0-0.48,0.04-0.71,0.14l-0.01,0.01
		c-0.44,0.33-0.75,0.87-0.81,1.38c-0.04,0.36,0.07,0.7,0.31,0.96c0.15,0.12,0.31,0.27,0.46,0.44l0.01,0.01h0.02
		c0.23,0.09,0.47,0.13,0.7,0.13l0,0c0.77,0,1.49-0.45,1.92-1.2l0.01-0.03C126.6,229.81,126.59,229.59,126.59,229.39L126.59,229.39z
		 M126.46,230c-0.41,0.71-1.07,1.12-1.8,1.12l0,0c-0.21,0-0.43-0.04-0.66-0.11c-0.15-0.17-0.31-0.32-0.45-0.43
		c-0.2-0.24-0.31-0.53-0.27-0.87c0.05-0.47,0.35-0.98,0.75-1.29c0.23-0.09,0.45-0.12,0.67-0.12c0.69,0,1.36,0.43,1.78,1.12
		C126.47,229.59,126.47,229.8,126.46,230z"/>
	<path fill="#1815B7" d="M5.89,234.7c-1.48-1.82-2.87-2.56-5.89-3.13v0.12c2.97,0.56,4.34,1.29,5.8,3.08
		c2.58,3.19,4.17,9.11,4.55,13.27c0.07,0.77,0.11,1.49,0.11,2.16h0.12c0-0.67-0.03-1.39-0.1-2.17
		C10.1,243.85,8.49,237.89,5.89,234.7z"/>
	<path fill="#1815B7" d="M82.24,236.26c-0.17,0-0.35,0-0.52,0.02c-1.62,0.13-3.05,0.89-4.14,2.17c-1.55,1.85-2.25,4.67-1.94,7.94
		c0.12,1.26,0.32,2.55,0.6,3.81h0.12c-0.28-1.27-0.49-2.55-0.6-3.82c-0.29-3.25,0.38-6.03,1.92-7.86c1.06-1.26,2.47-2.01,4.06-2.14
		c0.18-0.01,0.35-0.02,0.51-0.02c4.82,0,6.6,5.74,8.17,10.79c0.33,1.06,0.65,2.1,0.98,3.04h0.13c-0.35-0.94-0.67-2-1-3.08
		C88.95,242.03,87.16,236.26,82.24,236.26z"/>
	<path fill="#1815B7" d="M49.52,241.03c-0.81-0.12-1.62-0.17-2.44-0.17c-3.27,0-6.47,0.89-9.25,2.56c-2.72,1.65-4.93,3.98-6.42,6.77
		h0.13c3.04-5.7,8.95-9.22,15.54-9.22c0.81,0,1.62,0.06,2.43,0.16c3.5,0.48,6.97,3.39,9.47,7.98c0.2,0.36,0.39,0.72,0.56,1.08h0.12
		c-0.18-0.38-0.37-0.76-0.58-1.14C56.56,244.44,53.08,241.51,49.52,241.03z"/>
	<path fill="#1815B7" d="M0.17,246.11c-0.06,0-0.12,0-0.17,0.01v0.11c0.05,0,0.11,0,0.17,0c0.92,0,1.68,0.59,2.15,1.69
		c0.27,0.67,0.43,1.47,0.42,2.29h0.13c0-0.83-0.16-1.67-0.44-2.33C1.93,246.74,1.14,246.11,0.17,246.11z"/>
	<path fill="#1815B7" d="M40.28,250.2h0.2c1.87-1.29,4.16-2.02,6.49-2.02c2.29,0,4.4,0.72,6.1,2.02h0.2
		c-1.74-1.38-3.94-2.14-6.3-2.14C44.56,248.06,42.21,248.83,40.28,250.2z"/>
	<path fill="#1815B7" d="M212.26,238.67c-1.4-2.57-2.87-5.24-4.02-8c-0.64-1.51-1.22-3.16-1.83-4.92
		c-2.61-7.5-5.56-15.99-14.72-15.99c-0.12,0-0.24,0-0.36,0c-3.33,0.08-6.46,1.24-8.5,2.21c-0.5,0.22-1.01,0.46-1.53,0.71
		c-1.54,0.7-3.12,1.43-4.55,2.22c-4.16,2.3-8.93,3.42-13.54,4.51l-0.06,0.01c-0.39,0.1-0.81,0.19-1.25,0.27
		c-3.09,0.66-6.93,1.48-8.15,5.07c-0.93,2.77-0.07,6.31,0.75,9.72c0.3,1.25,0.59,2.43,0.78,3.55c0.67,3.88,0.72,7.53,0.12,10.86
		c-0.08,0.43-0.17,0.86-0.28,1.3h0.12c0.11-0.44,0.19-0.86,0.27-1.29c0.59-3.34,0.55-7.01-0.12-10.9c-0.2-1.13-0.48-2.31-0.78-3.56
		c-0.83-3.41-1.68-6.93-0.75-9.66c1.2-3.53,5-4.33,8.07-4.98c0.44-0.1,0.86-0.19,1.25-0.28l0.06-0.01
		c4.62-1.08,9.41-2.21,13.58-4.52c1.41-0.78,3-1.52,4.53-2.23c0.52-0.23,1.03-0.47,1.53-0.7c2.03-0.97,5.16-2.12,8.46-2.2
		c0.12-0.01,0.25-0.01,0.36-0.01c9.07,0,12.01,8.46,14.61,15.93c0.6,1.75,1.18,3.41,1.82,4.92c1.17,2.77,2.62,5.43,4.03,8.02
		c1.2,2.19,2.33,4.26,3.31,6.4c0.97,2.13,1.99,3.81,3.06,5.06h0.16c-1.11-1.24-2.13-2.94-3.12-5.1
		C214.59,242.96,213.45,240.88,212.26,238.67z"/>
	<path fill="#1815B7" d="M252.72,216.24c-7.54,2.85-12.58,8.22-14.56,15.55c-0.56,2.04-0.94,4.66-1.32,7.19
		c-0.47,3.14-0.96,6.39-1.75,8.64c-0.35,0.97-0.82,1.83-1.45,2.57h0.14c0.6-0.75,1.08-1.59,1.41-2.53c0.81-2.27,1.29-5.52,1.76-8.67
		c0.38-2.53,0.77-5.15,1.32-7.18c1.97-7.28,6.97-12.63,14.49-15.47c0.62-0.23,1.69-0.52,2.59-0.71c0.21-0.04,0.43-0.08,0.65-0.11
		v-0.12c-0.23,0.04-0.45,0.07-0.68,0.11C254.42,215.71,253.35,216,252.72,216.24z"/>
	<path fill="#1815B7" d="M245.39,162.09c-2.41,0.54-4.74,1.71-6.98,2.86c-2.25,1.14-4.58,2.32-6.97,2.82
		c-6.2,1.34-8.5-4.09-10.52-8.9c-0.29-0.68-0.57-1.34-0.84-1.97c-1.15-2.51-2.46-4.81-3.9-6.83c-2.9-4.07-6.24-7.32-9.93-9.65
		c-3.42-2.16-6.3-3.34-9.05-3.7c-4.46-0.59-7.64,0.79-11.29,2.38c-0.79,0.35-1.62,0.71-2.46,1.05c-2.41,0.98-5.16,2.09-7.03,4.5
		c-1.4,1.81-2.47,4-3.48,6.13l-0.24,0.48c-1.89,3.91-3.27,7.77-4.74,11.85c-0.33,0.92-0.66,1.86-0.98,2.79
		c-0.88,2.53-1.78,5.15-2.89,7.62c-0.82,1.89-2.09,3.53-3.3,5.13c-0.68,0.89-1.38,1.8-2,2.75c-1.57,2.4-4.03,4.49-6.42,6.51
		c-0.86,0.74-1.68,1.43-2.44,2.13c-0.48,0.43-0.98,0.87-1.54,1.33c-2.47,2.13-5.26,4.54-6,7.6c-0.1,0.41-0.19,0.82-0.28,1.21
		c-0.79,3.42-1.48,6.39-4.91,8.54c-3.24,2.03-7.18,2.69-10.65,3.27c-1.64,0.28-3.31,0.49-4.92,0.71c-2.98,0.38-5.79,0.76-8.33,1.42
		c-5.82,1.55-9.37,5.59-10.55,12.02c-1.14,6.27,0.02,13.93,1.31,17.06c1.16,2.82,3.12,5.03,5.47,7.01h0.2
		c-2.4-1.99-4.38-4.21-5.56-7.06c-1.28-3.11-2.45-10.74-1.3-16.99c1.18-6.38,4.68-10.39,10.46-11.92c2.55-0.68,5.35-1.05,8.32-1.44
		c1.61-0.2,3.27-0.42,4.92-0.69c3.48-0.59,7.43-1.24,10.69-3.29c3.48-2.17,4.15-5.16,4.95-8.61c0.1-0.39,0.2-0.8,0.28-1.21
		c0.73-3.03,3.51-5.41,5.96-7.53c0.54-0.47,1.06-0.91,1.53-1.35c0.76-0.69,1.57-1.39,2.44-2.12c2.39-2.03,4.85-4.12,6.42-6.54
		c0.62-0.94,1.32-1.85,2-2.74c1.21-1.6,2.48-3.26,3.33-5.15c1.11-2.48,2.01-5.1,2.89-7.64c0.32-0.91,0.65-1.86,0.98-2.79
		c1.46-4.07,2.85-7.92,4.74-11.85l0.22-0.48c1.02-2.12,2.08-4.3,3.49-6.11c1.85-2.38,4.57-3.48,6.97-4.44
		c0.85-0.36,1.67-0.71,2.46-1.05c3.65-1.6,6.8-2.97,11.24-2.39c2.73,0.37,5.59,1.54,9,3.69c3.67,2.32,7.01,5.56,9.9,9.64
		c1.43,2.01,2.73,4.3,3.88,6.81c0.28,0.62,0.56,1.28,0.85,1.97c0.98,2.32,2.09,4.94,3.71,6.76c1.87,2.09,4.14,2.81,6.96,2.21
		c2.4-0.52,4.73-1.7,6.99-2.85c2.25-1.13,4.57-2.31,6.96-2.83c3.94-0.88,7.55,0.14,10.59,1.22v-0.12
		C252.96,162.23,249.34,161.23,245.39,162.09z"/>
	<path fill="#1815B7" d="M239.14,206.93c-2.81,2.73-5.47,5.32-8.96,6.34c-4.84,1.43-8.51-2.14-12.06-5.6
		c-0.21-0.21-0.43-0.43-0.65-0.64c-1.8-1.74-3.96-3.06-6.04-4.33c-1.49-0.91-3.04-1.86-4.44-2.95c-1.05-0.82-2.16-1.59-3.23-2.32
		c-0.73-0.52-1.47-1.03-2.18-1.54c-1.19-0.87-2.01-2.24-2.82-3.57c-0.44-0.71-0.88-1.46-1.38-2.09c-1.37-1.76-3.29-3.09-5.16-4.38
		c-3.43-2.36-6.66-4.6-6.89-9.23c-0.13-2.76,0.49-6.18,1.7-9.4c1.16-3.04,3.35-6.34,6.02-9.06c1.82-1.85,3.67-2.71,5.48-2.56
		c3.23,0.28,6,3.69,8.05,6.65c1.21,1.74,1.69,3.41,2.18,5.18c0.29,1.03,0.6,2.08,1.06,3.2c0.46,1.12,1.02,2.22,1.54,3.28
		c0.85,1.68,1.71,3.41,2.25,5.26c0.9,3.1,1.08,7.59-0.32,10.18c-1.37,2.5-0.72,6.75,0.72,8.98c1.3,2.02,4.57,3.31,7.2,4.35
		c0.59,0.23,1.14,0.46,1.64,0.67c0.23,0.11,0.47,0.2,0.69,0.31c0.85,0.37,1.57,0.71,2.4,0.88c4.07,0.83,6.89-1.12,8.58-5.96
		c1.78-5.09,0.55-9.72-3.48-13.05c-1.22-1-2.63-1.77-3.98-2.52c-0.61-0.34-1.25-0.69-1.86-1.06c-0.16-0.1-0.32-0.19-0.48-0.29
		c-1.77-1.06-3.97-2.37-5.19-3.9c-1.82-2.29-3.31-4.76-4.44-7.37c-0.57-1.33-1.02-2.69-1.49-4.13c-0.35-1.04-0.7-2.1-1.11-3.19
		c-0.93-2.47-2.35-4.66-3.36-6.06c-1.92-2.61-5.37-6.11-8.8-7.39c-5.43-2.01-12.74,3.34-16.33,7.43c-2.01,2.29-3.32,5.15-4.34,7.63
		c-0.27,0.67-0.54,1.37-0.82,2.03c-1.48,3.73-2.89,7.25-5.24,10.5c-0.75,1.05-1.37,2.17-1.98,3.25c-0.44,0.77-0.88,1.59-1.38,2.36
		c-1.26,1.97-3.18,3.14-5.07,4.12c-0.87,0.45-1.77,0.87-2.64,1.29c-2.52,1.17-5.12,2.4-7.24,4.39c-1.35,1.28-1.88,2.63-1.6,4.02
		c0.47,2.31,3.03,4.04,5.27,4.87c4.66,1.74,10.05,1.11,14.8,0.54l0.61-0.06c0.38-0.04,0.75-0.08,1.13-0.12
		c2.09-0.21,4.08-0.42,6.07-1.55c0.32-0.18,0.63-0.36,0.94-0.53c3.01-1.71,5.61-3.2,9.06-3.97c2.17-0.49,5.39-0.44,7.35,0.79
		c0.98,0.6,1.39,1.53,1.84,2.5c0.27,0.6,0.55,1.22,0.96,1.77c1.65,2.16,3.88,3.85,6.03,5.5c2.11,1.61,4.3,3.27,5.95,5.38
		c0.99,1.25,1.81,2.8,2.62,4.29c0.8,1.5,1.63,3.04,2.58,4.23c1.96,2.42,4.62,3.26,7.53,2.35c2.52-0.79,5.31-2.93,8.02-5
		c0.42-0.32,0.82-0.63,1.22-0.93c1.41-1.06,2.79-2.18,4.12-3.27c3.66-2.97,7.12-5.78,11.01-7.36c1.54-0.62,3.31-1.07,5.2-1.44v-0.12
		c-1.92,0.37-3.69,0.82-5.24,1.45c-3.91,1.58-7.38,4.41-11.05,7.38c-1.33,1.08-2.7,2.19-4.11,3.26c-0.4,0.3-0.81,0.61-1.21,0.93
		c-2.7,2.06-5.48,4.2-7.99,4.98c-2.86,0.89-5.48,0.07-7.4-2.32c-0.94-1.17-1.74-2.64-2.57-4.2c-0.81-1.51-1.65-3.07-2.63-4.32
		c-1.67-2.11-3.85-3.79-5.97-5.4c-2.15-1.64-4.36-3.34-6.01-5.48c-0.4-0.53-0.67-1.14-0.95-1.74c-0.45-0.98-0.88-1.93-1.87-2.56
		c-2-1.25-5.26-1.3-7.44-0.81c-3.47,0.78-6.08,2.26-9.09,3.99c-0.31,0.17-0.63,0.35-0.94,0.54c-1.96,1.11-3.93,1.3-6.02,1.52
		c-0.36,0.04-0.75,0.09-1.13,0.12l-0.6,0.08c-4.75,0.55-10.12,1.18-14.76-0.55c-2.78-1.03-4.82-2.91-5.19-4.78
		c-0.28-1.35,0.25-2.66,1.57-3.9c2.09-1.98,4.69-3.2,7.2-4.38c0.88-0.4,1.78-0.83,2.66-1.28c1.89-0.98,3.83-2.17,5.11-4.17
		c0.49-0.77,0.94-1.57,1.38-2.35c0.6-1.08,1.22-2.2,1.97-3.23c2.36-3.27,3.76-6.8,5.25-10.53c0.27-0.67,0.53-1.35,0.82-2.04
		c1.02-2.47,2.32-5.31,4.31-7.59c3.57-4.05,10.83-9.39,16.2-7.39c3.41,1.26,6.84,4.76,8.74,7.35c1.03,1.39,2.44,3.57,3.36,6.02
		c0.41,1.07,0.76,2.15,1.1,3.18c0.47,1.45,0.92,2.81,1.5,4.14c1.13,2.62,2.63,5.1,4.45,7.4c1.23,1.54,3.44,2.87,5.22,3.93
		c0.17,0.09,0.33,0.19,0.5,0.29c0.6,0.36,1.25,0.71,1.86,1.06c1.35,0.74,2.74,1.5,3.96,2.5c3.98,3.29,5.21,7.88,3.45,12.93
		c-1.68,4.78-4.45,6.7-8.46,5.88c-0.8-0.17-1.53-0.49-2.37-0.87c-0.22-0.1-0.46-0.2-0.69-0.32c-0.49-0.2-1.06-0.42-1.64-0.66
		c-2.62-1.04-5.86-2.32-7.14-4.3c-1.41-2.2-2.06-6.38-0.72-8.86c1.41-2.61,1.23-7.15,0.33-10.27c-0.53-1.85-1.41-3.59-2.24-5.28
		c-0.54-1.06-1.08-2.17-1.54-3.28c-0.46-1.11-0.76-2.17-1.06-3.19c-0.5-1.78-0.98-3.46-2.2-5.22c-2.07-2.96-4.86-6.42-8.14-6.69
		c-1.85-0.16-3.73,0.71-5.57,2.58c-2.69,2.73-4.89,6.05-6.05,9.1c-1.22,3.24-1.85,6.69-1.71,9.46c0.23,4.68,3.64,7.04,6.94,9.32
		c1.86,1.29,3.79,2.62,5.15,4.36c0.5,0.62,0.92,1.33,1.38,2.09c0.81,1.32,1.64,2.7,2.84,3.58c0.72,0.52,1.47,1.05,2.19,1.54
		c1.06,0.75,2.17,1.52,3.22,2.33c1.4,1.1,2.95,2.05,4.45,2.95c2.08,1.28,4.23,2.59,6.02,4.33c0.23,0.21,0.43,0.42,0.66,0.64
		c3.57,3.47,7.26,7.07,12.17,5.63c3.5-1.02,6.18-3.61,9.01-6.36c2.68-2.61,5.47-5.32,9.21-6.89c2.4-1,5-1.58,7.56-2.1v-0.12
		c-2.57,0.52-5.19,1.11-7.61,2.13C244.63,201.61,241.85,204.32,239.14,206.93z"/>
	<path fill="#1815B7" d="M243.51,171.56c-1.93,0.41-3.9,1.38-5.98,2.4c-3.46,1.7-7.03,3.47-10.32,2.44
		c-5.92-1.85-8.19-8.14-10.2-13.67c-0.42-1.14-0.8-2.2-1.21-3.23c-0.91-2.28-2.07-4.4-3.42-6.27c-2.1-2.93-4.68-4.74-7.42-6.65
		c-0.42-0.28-0.82-0.58-1.25-0.87c-2.41-1.71-5.34-3.4-8.73-2.91c-1.06,0.15-2.17,0.72-3.24,1.27c-0.67,0.36-1.31,0.67-1.93,0.9
		c-0.46,0.17-0.93,0.35-1.41,0.52c-3.63,1.3-7.38,2.67-9.96,5.61c-0.74,0.84-1.38,1.94-1.99,2.99c-0.32,0.56-0.62,1.07-0.93,1.57
		c-1.29,1.96-2.39,4.13-3.3,6.43c-0.98,2.51-1.55,5.2-2.1,7.81c-0.6,2.81-1.22,5.73-2.35,8.38c-1.16,2.71-4.23,4.67-6.95,6.38
		c-0.74,0.47-1.44,0.91-2.06,1.36c-1.85,1.29-3.45,2.84-4.99,4.35c-1.01,0.98-2.06,2.01-3.17,2.95c-2.56,2.17-3.71,5.86-3.01,9.65
		c1.24,6.64,3.82,7.73,9.41,8.66c4.26,0.7,9.22,0.53,15.15-0.5c3.42-0.6,6.66-2.81,9.8-4.93c1.14-0.78,2.22-1.51,3.27-2.14
		c4.4-2.66,9.63-2.1,13.97,1.48c0.56,0.45,1.12,0.9,1.68,1.34c3.3,2.64,6.42,5.14,8.08,9.1c0.74,1.73,1.22,3.58,1.69,5.37
		c0.45,1.75,0.92,3.56,1.63,5.27c1.06,2.57,3.15,5.42,5.45,7.44c1.98,1.75,4.98,3.63,8.01,2.74c2.82-0.82,4.48-4.03,6.25-7.42
		c1.12-2.16,2.29-4.37,3.82-6.22c2-2.41,4.67-4.58,6.5-6.01l0.19-0.15c3.94-3.05,7.65-5.94,12.56-6.92
		c0.31-0.07,0.63-0.12,0.95-0.17v-0.12c-0.33,0.05-0.65,0.11-0.98,0.17c-4.94,0.98-8.66,3.89-12.59,6.95l-0.2,0.15
		c-1.84,1.43-4.51,3.62-6.52,6.02c-1.54,1.85-2.7,4.09-3.83,6.25c-1.75,3.37-3.41,6.55-6.18,7.36c-2.97,0.88-5.94-0.98-7.9-2.71
		c-2.25-1.98-4.38-4.88-5.41-7.4c-0.71-1.7-1.18-3.51-1.63-5.25c-0.47-1.79-0.95-3.65-1.69-5.39c-1.68-3.99-4.96-6.61-8.14-9.15
		c-0.54-0.43-1.11-0.89-1.66-1.34c-4.39-3.62-9.66-4.17-14.11-1.5c-1.06,0.64-2.14,1.37-3.27,2.14c-3.14,2.13-6.38,4.32-9.77,4.92
		c-5.91,1.05-10.85,1.21-15.1,0.5c-5.53-0.91-8.08-2.01-9.32-8.56c-0.7-3.74,0.44-7.4,2.96-9.53c1.11-0.95,2.17-1.97,3.19-2.96
		c1.53-1.5,3.12-3.06,4.96-4.34c0.62-0.43,1.33-0.88,2.06-1.35c2.72-1.72,5.81-3.67,6.99-6.42c1.14-2.66,1.76-5.59,2.36-8.4
		c0.56-2.61,1.12-5.29,2.1-7.78c0.9-2.3,2.01-4.46,3.28-6.42c0.32-0.49,0.62-1.02,0.94-1.57c0.61-1.05,1.24-2.13,1.98-2.97
		c2.56-2.91,6.3-4.27,9.91-5.58c0.47-0.18,0.94-0.35,1.42-0.51c0.63-0.24,1.29-0.59,1.93-0.91c1.06-0.55,2.17-1.11,3.21-1.26
		c3.35-0.48,6.25,1.2,8.65,2.89c0.43,0.3,0.83,0.58,1.24,0.86c2.73,1.92,5.31,3.71,7.39,6.62c1.35,1.87,2.48,3.98,3.41,6.26
		c0.41,1.01,0.79,2.09,1.21,3.22c2.01,5.56,4.29,11.88,10.28,13.74c3.33,1.04,6.93-0.74,10.4-2.45c2.09-1.03,4.05-1.99,5.94-2.4
		c2.7-0.58,7.67-0.81,12.48-0.69v-0.12C251.19,170.76,246.2,170.98,243.51,171.56z"/>
	<path fill="#1815B7" d="M241.08,76.68c-3.24,2.25-5.18,5.43-5.77,9.45c-0.23,1.57-0.05,3.29,0.12,4.94
		c0.19,1.74,0.38,3.53,0.11,5.23c-0.3,1.94-1.35,3.68-2.67,4.45c-0.93,0.55-1.96,0.61-3.04,0.2c-3.5-4.06-6.35-6.76-10.66-8.52
		c-1.23-0.5-2.47-0.93-4.03-1.41c-0.75-0.24-1.52-0.49-2.25-0.73c-4.68-1.53-9.52-3.11-17.39-2.47c-3.78,0.31-6.63,1.01-9.11,3.52
		c-1.64,1.66-2.88,3.66-4.06,5.59c-0.87,1.38-1.76,2.83-2.78,4.12c-0.52,0.66-1.14,1.3-1.73,1.93c-0.88,0.93-1.8,1.89-2.48,2.95
		c-1.39,2.21-1.45,5.89-0.93,8.37c0.69,3.24,2.76,6.02,4.84,8.59c0.51,0.64,0.99,1.34,1.53,2.08c1.38,1.99,2.82,4.04,4.82,5.1
		c2.19,1.15,4.75,1.16,7.18,0.99c0.84-0.05,1.69-0.29,2.53-0.51c1.22-0.33,2.48-0.67,3.69-0.45c4.32,0.77,9.22,3.78,12.35,6.34
		c1.7,1.38,3.25,2.95,4.59,4.65c1.05,1.33,2.05,2.67,3.12,4.11c1.83,2.45,3.72,4.98,5.87,7.48c2,2.33,4.6,4.53,8.68,3.12
		c2.32-0.81,4.31-2.19,6.17-3.55c2.74-2.02,5.23-4.85,7.63-7.6c2.19-2.52,4.28-4.9,6.33-6.35c0.56-0.4,1.22-0.77,2.28-1.02v-0.12
		c-1.08,0.24-1.78,0.64-2.35,1.04c-2.07,1.46-4.14,3.84-6.35,6.38c-2.39,2.73-4.86,5.57-7.6,7.58c-1.91,1.41-3.83,2.74-6.13,3.53
		c-4.02,1.39-6.58-0.78-8.55-3.08c-2.14-2.5-4.04-5.04-5.86-7.48c-1.07-1.44-2.09-2.79-3.13-4.11c-1.34-1.7-2.88-3.28-4.61-4.68
		c-3.15-2.56-8.07-5.59-12.4-6.36c-1.24-0.22-2.51,0.12-3.74,0.45c-0.82,0.21-1.67,0.44-2.5,0.5c-2.41,0.17-4.95,0.17-7.12-0.98
		c-1.97-1.05-3.4-3.09-4.78-5.06c-0.51-0.75-1.01-1.45-1.53-2.09c-2.06-2.55-4.13-5.32-4.81-8.54c-0.52-2.46-0.45-6.1,0.92-8.28
		c0.66-1.06,1.57-2.01,2.46-2.95c0.6-0.62,1.22-1.27,1.73-1.93c1.04-1.3,1.93-2.74,2.78-4.13c1.2-1.93,2.42-3.92,4.06-5.56
		c2.46-2.48,5.28-3.19,9.03-3.5c7.85-0.64,12.69,0.93,17.35,2.47c0.74,0.24,1.5,0.49,2.25,0.73c1.54,0.48,2.79,0.91,4.01,1.41
		c4.29,1.74,7.15,4.44,10.62,8.49l0.01,0.01l0.02,0.01c1.14,0.43,2.2,0.35,3.17-0.2c1.35-0.79,2.42-2.57,2.73-4.54
		c0.27-1.7,0.07-3.5-0.12-5.25c-0.17-1.65-0.35-3.36-0.12-4.92c0.59-3.99,2.51-7.14,5.71-9.37c3.66-2.55,8.78-3.74,14.85-3.5v-0.12
		C249.9,72.93,244.77,74.12,241.08,76.68z"/>
	<path fill="#1815B7" d="M69.78,11.41c0.2,1.67,0.46,4.76-0.12,6.84c-0.96,3.43-3.73,6.37-6.4,9.23c-3.78,4.02-7.68,8.18-6.49,13.74
		c0.65,3,2.26,4.86,4.97,5.7c2.34,0.74,5.23,0.64,8.47,0.46c5.93-0.33,9.95,0.65,12.28,1.53c2.36,0.9,4.52,2.4,6.64,3.85
		c2.82,1.94,5.49,3.79,8.51,4.2c1.21,0.16,2.2,0.12,3.34-0.13c2.82-0.62,4.95-2.04,7.21-3.55c3.83-2.55,7.79-5.19,15.47-3.66
		c1.69,0.33,3.36,0.83,5.14,1.36c5.66,1.68,11.52,3.4,18.06-0.07c5.92-2.97,9.65-8.43,13.24-13.71c1.68-2.46,3.42-5.01,5.33-7.25
		c2.46-2.86,5.8-6.77,9.91-5.41c1.65,0.53,3.35,0.8,5,1.06c2.62,0.42,5.31,0.84,7.75,2.37c1.74,1.09,3.09,2.64,4.4,4.15
		c0.61,0.7,1.25,1.43,1.92,2.1c1.47,1.48,2.66,3.23,3.82,4.92c0.98,1.44,2,2.91,3.18,4.23c1.6,1.41,3,2.64,4.63,4.12
		c1.97,1.8,3.77,3.94,5.51,6c3.34,3.97,6.48,7.7,10.58,8.91c2.9,0.86,5.9,0.75,9.72-0.36c2.04-0.59,4.74-1.74,6.64-2.61
		c3.85-1.75,8.19-4.14,11.59-6.39c2.65-1.76,4.68-4.22,5.91-7.18v-0.31c-1.21,3.05-3.27,5.6-5.96,7.38
		c-3.41,2.25-7.74,4.64-11.59,6.39c-1.89,0.86-4.58,2.01-6.61,2.6c-3.82,1.09-6.79,1.21-9.66,0.36c-4.07-1.2-7.21-4.92-10.53-8.87
		c-1.74-2.06-3.54-4.21-5.53-6.01c-1.63-1.48-3.03-2.72-4.62-4.13c-1.18-1.3-2.18-2.79-3.17-4.21c-1.15-1.69-2.36-3.43-3.82-4.92
		c-0.67-0.67-1.3-1.4-1.92-2.11c-1.31-1.51-2.67-3.07-4.43-4.16c-2.45-1.54-5.16-1.97-7.79-2.38c-1.65-0.27-3.35-0.53-4.98-1.06
		c-4.19-1.38-7.58,2.56-10.04,5.45c-1.93,2.25-3.66,4.79-5.34,7.26c-3.59,5.28-7.3,10.73-13.18,13.67
		c-6.51,3.45-12.35,1.73-17.99,0.06c-1.77-0.52-3.45-1.02-5.15-1.36c-7.72-1.53-11.7,1.11-15.55,3.67c-2.25,1.5-4.37,2.91-7.18,3.53
		c-1.11,0.25-2.09,0.28-3.28,0.12c-2.98-0.39-5.65-2.23-8.46-4.18c-2.1-1.45-4.29-2.95-6.66-3.86c-2.33-0.89-6.37-1.87-12.32-1.54
		c-5.56,0.31-11.88,0.67-13.33-6.07c-1.17-5.5,2.71-9.64,6.46-13.65c2.69-2.87,5.47-5.82,6.42-9.27c0.56-1.98,0.38-4.84,0.13-6.89
		c-0.41-3.29-1.37-6.67-2.4-10.24C67.39,0.77,67.28,0.39,67.17,0h-0.12c0.12,0.4,0.23,0.79,0.35,1.19
		C68.41,4.76,69.39,8.12,69.78,11.41z"/>
	<path fill="#1815B7" d="M242.77,237.07c-0.44,2.37-0.65,4.82-0.85,7.19c-0.18,2.07-0.35,4.07-0.67,5.94h0.12
		c0.32-1.88,0.5-3.9,0.67-5.94c0.21-2.37,0.42-4.82,0.86-7.18c1.53-8.23,5.65-13.16,11.92-14.23c0.41-0.07,0.8-0.12,1.19-0.15v-0.12
		c-0.4,0.03-0.79,0.07-1.22,0.15C248.48,223.82,244.32,228.77,242.77,237.07z"/>
	<path fill="#1815B7" d="M208.12,243.61c-0.69-2.44-1.81-4.96-2.89-7.39l-0.19-0.42c-0.7-1.61-1.28-3.32-1.88-5.14
		c-1.23-3.72-2.51-7.56-5.04-10.33c-2.24-2.45-5.91-3.86-10.06-3.86c-2.32,0-4.56,0.45-6.46,1.3c-2.25,1-4.06,2.2-5.56,3.66
		c-1.25,1.22-3.08,1.85-4.84,2.48c-1.18,0.4-2.4,0.83-3.46,1.43c-3.21,1.83-5.24,4.37-5.84,7.4c-0.57,2.81-0.51,6.44-0.44,9.95
		c0.03,2.13,0.07,4.34-0.03,6.38c-0.02,0.36-0.04,0.75-0.08,1.13h0.12c0.03-0.38,0.05-0.76,0.07-1.13c0.1-2.03,0.06-4.25,0.03-6.38
		c-0.06-3.51-0.12-7.13,0.44-9.93c0.6-2.98,2.6-5.51,5.79-7.32c1.05-0.59,2.26-1.01,3.44-1.42c1.77-0.62,3.6-1.26,4.88-2.49
		c1.49-1.45,3.3-2.64,5.54-3.64c1.89-0.84,4.1-1.29,6.41-1.29c4.12,0,7.75,1.39,9.97,3.82c2.51,2.75,3.79,6.57,5.01,10.28
		c0.61,1.81,1.18,3.54,1.89,5.14l0.2,0.43c1.07,2.43,2.18,4.93,2.87,7.37c0.39,1.37,0.73,2.89,1.06,4.36
		c0.17,0.75,0.33,1.48,0.5,2.18h0.12c-0.17-0.7-0.34-1.45-0.51-2.21C208.86,246.52,208.52,244.99,208.12,243.61z"/>
	<path fill="#1815B7" d="M202.68,245.75c-0.28-1.93-0.61-4.11-1.39-6.02c-0.31-0.78-0.79-1.43-1.26-2.06
		c-0.36-0.48-0.72-0.97-1.01-1.52c-0.43-0.78-0.76-1.66-1.12-2.59c-1.03-2.64-2.09-5.36-5-6.13c-0.69-0.19-1.6-0.27-2.77-0.27
		c-1.23,0-2.54,0.1-3.7,0.2c-0.46,0.03-0.89,0.06-1.29,0.1c-3.77,0.23-7.8,1.67-10.8,3.86c-3.61,2.63-4.65,7.05-5.12,10.18
		c-0.36,2.24-0.68,5.55,0.41,8.35c0.05,0.12,0.1,0.23,0.14,0.35h0.13c-0.05-0.13-0.12-0.26-0.17-0.39c-1.07-2.77-0.75-6.07-0.41-8.3
		c0.47-3.09,1.51-7.5,5.08-10.1c2.98-2.17,7-3.6,10.74-3.84c0.4-0.02,0.82-0.05,1.29-0.09c1.16-0.1,2.47-0.2,3.69-0.2
		c1.15,0,2.05,0.1,2.74,0.28c2.86,0.76,3.9,3.45,4.91,6.04c0.36,0.95,0.71,1.82,1.13,2.61c0.29,0.55,0.67,1.05,1.02,1.53
		c0.46,0.63,0.94,1.28,1.25,2.03c0.77,1.9,1.1,4.07,1.38,6c0.2,1.37,0.28,2.89,0.28,4.43h0.12
		C202.98,248.65,202.89,247.13,202.68,245.75z"/>
	<path fill="#1815B7" d="M255.89,231.55L255.89,231.55c-5.62,0.51-8.77,6.62-9.6,18.65h0.12c0.83-11.95,3.92-18.02,9.47-18.54
		c0.04,0.01,0.08,0.02,0.12,0.02v-0.12C255.97,231.56,255.93,231.55,255.89,231.55L255.89,231.55z"/>
	<path fill="#1815B7" d="M254.48,246.66c-0.61,1.02-1.22,2.2-1.33,3.54h0.12c0.12-1.3,0.72-2.47,1.31-3.46
		c0.5-0.3,0.98-0.47,1.42-0.51v-0.11c-0.47,0.04-0.97,0.2-1.5,0.52L254.48,246.66z"/>
	<path fill="#1815B7" d="M65.51,234.19c0.92-3.01,2.49-4.83,4.96-7.55c0.38-0.44,0.81-0.86,1.26-1.33c1.76-1.82,3.75-3.89,4.2-6.03
		c0.89-4.29-1.77-6.81-4.49-8.7c-1.35-0.93-2.86-1.67-4.32-2.38c-1.89-0.92-3.85-1.88-5.47-3.27c-1.72-1.49-3.2-3.61-4.42-6.32
		c-0.55-1.2-0.79-2.5-1.04-3.75c-0.23-1.22-0.47-2.48-0.98-3.66c-2.38-5.32-5.48-11.34-10.56-15.55c-2.21-1.83-5-4.72-5.73-8.16
		c-0.48-2.26,0.19-4.24,0.73-5.83l0.09-0.28c1.21-3.58,4.81-12.14,12.35-14.29c1.35-0.39,3.01-0.67,4.76-0.98
		c2.2-0.37,4.48-0.77,6.13-1.38c2.59-0.96,4.44-2.28,6.4-3.78l0.28-0.21c1.87-1.44,4.21-3.22,7.25-2.99
		c2.64,0.22,5.65,1.59,8.25,3.79c2.64,2.22,4.39,4.91,4.85,7.38c0.28,1.6,0.42,2.88,0.54,4.13c0.12,1.07,0.2,2.09,0.41,3.2
		c0.98,5.59,3.66,10.05,7.98,13.24c3.51,2.59,8.19,4.41,13.92,5.4c7.44,1.29,13.75-1.14,16.11-2.24c3.76-1.76,7.79-5.98,11.27-9.81
		c3.46-3.81,5.29-6.06,5.7-12.1c0.13-1.94-0.03-3.82-0.18-5.64c-0.05-0.71-0.12-1.44-0.17-2.17c-0.03-0.53-0.07-1.06-0.12-1.63
		c-0.17-1.84-0.33-3.74,0-5.69c0.7-4.03,3.03-5.81,7.13-5.41c5.35,0.5,10.04,4.05,11.92,9.04c1.5,3.98,0.29,8.13-0.67,11.48
		l-0.16,0.55c-1.59,5.55-3.75,9.87-6.6,13.22c-1.62,1.89-3.41,3.67-5.15,5.4c-0.65,0.63-1.3,1.29-1.94,1.94
		c-0.9,0.91-1.91,1.76-2.88,2.56c-1.22,1.01-2.48,2.08-3.55,3.29c-1.52,1.71-2.64,3.66-3.56,5.32c-2.97,5.47-5.05,10.29-6.34,14.71
		c-1.16,3.99-4.37,7.17-8.59,8.49c-5.44,1.7-13.23,1.5-23.15-0.59c-4.86-1.03-7.76-3.82-8.6-8.3c-0.95-5.11-4.41-7.66-8.06-10.35
		c-0.94-0.69-1.91-1.41-2.85-2.17c-3.88-3.18-1.94-6.18,0.1-9.37c0.91-1.43,1.85-2.89,2.25-4.39c0.65-2.34-0.19-4.82-0.98-7.21
		c-0.42-1.25-0.81-2.42-1-3.58c-0.94-5.53-1.88-9.89-4.69-11.69c-1.51-0.96-3.44-1.09-5.93-0.39c-0.4,0.1-0.84,0.23-1.31,0.37
		c-0.96,0.28-2.05,0.6-2.95,0.8c-1.55,0.36-3.17,0.56-4.88,0.76c-1.82,0.23-3.69,0.46-5.76,0.9c-3.13,0.65-5.89,2.16-7.97,4.36
		c-2.04,2.16-3.34,4.89-3.76,7.9c-0.18,1.28-0.23,2.38,0.12,3.58c1.03,3.5,4.21,5.96,7,8.14c0.65,0.5,1.26,0.97,1.85,1.46l0.1,0.08
		c2.71,2.24,6.08,5.02,5.95,8.85c-0.13,3.94,0.37,6.8,1.68,9.56c2.06,4.35,4.96,6.99,10.02,9.1c0.38,0.15,0.75,0.31,1.14,0.46
		c1.74,0.72,3.52,1.45,5.19,2.4c1.36,0.76,2.27,1.72,3.23,2.73c0.53,0.56,1.08,1.14,1.71,1.69c0.75,0.66,1.47,1.53,2.23,2.46
		c1.91,2.36,4.07,5.03,7.42,4.39c1.71-0.33,3.4-1.51,5.19-2.75c1.56-1.09,3.18-2.22,5-2.94c3.08-1.21,7.42-1.49,12.01-1.8
		c2.79-0.19,5.68-0.38,8.31-0.79c6-0.95,10.05-3.05,12.39-6.43c0.7-0.99,1.16-2.12,1.6-3.21c0.34-0.85,0.68-1.72,1.14-2.52
		c0.34-0.61,0.87-1.08,1.38-1.55c0.28-0.25,0.59-0.52,0.84-0.82c0.48-0.53,0.94-1.09,1.39-1.64c0.5-0.6,1.01-1.23,1.56-1.83
		c0.85-0.93,1.82-1.78,2.75-2.63c0.86-0.78,1.76-1.59,2.57-2.46c0.68-0.71,1.22-1.48,1.74-2.23c0.59-0.85,1.19-1.71,2.01-2.5
		c1.37-1.36,2.79-2.84,3.94-4.49c0.98-1.41,1.41-2.79,1.9-4.25c0.13-0.45,0.28-0.91,0.46-1.39c0.36-1.06,1.03-2.06,1.67-3.03
		c0.38-0.58,0.76-1.16,1.08-1.75c1.21-2.23,2.25-4.45,3.1-6.62c0.23-0.61,0.44-1.23,0.67-1.84c0.09-0.26,0.19-0.51,0.28-0.76
		c0.42-1.15,0.86-2.33,1.3-3.46c1.24-3.29,2.54-6.69,3.2-9.8c0.43-1.98,0.8-4.09,0.35-6.18c-1.54-7.16-8.48-14.62-14.84-15.99
		c-2.94-0.62-6.65-0.59-10.43,0.12c-6.29,1.18-8.62,4.21-8.3,10.84c0.07,1.54,0.22,3.11,0.35,4.61c0.3,3.27,0.59,6.35,0.24,9.33
		c-0.2,1.71-0.77,3.25-1.18,4.24c-0.92,2.23-3.03,6.03-5.67,10.16c-2.59,4.06-6.08,7.01-9.57,8.12c-6.63,2.1-15.51,0.02-20.67-4.86
		c-2.59-2.44-5.35-6.62-3.82-12.6c0.1-0.36,0.25-0.73,0.42-1.12c0.21-0.46,0.42-0.95,0.53-1.48c0.8-1.38,1.8-2.63,2.78-3.83
		c2.2-2.72,4.28-5.29,3.48-8.96c-0.14-0.67-0.44-1.39-0.76-2.17c-0.65-1.58-1.31-3.2-0.53-4.17c1.37-1.7,3.23-3.48,5.21-5.35
		c3.42-3.25,6.96-6.62,7.96-9.78c1.02-3.17-1.06-6.32-1.95-7.65c-0.96-1.45-2.06-2.94-3.21-4.53c-0.9-1.22-1.83-2.49-2.71-3.75
		c-0.73-1.06-1.44-2.07-2.14-3.07c-1.61-2.32-3.14-4.51-4.71-6.85c-0.62-0.93-1.24-1.93-1.85-2.89c-1.02-1.62-2.07-3.27-3.12-4.69
		c-2.31-3.09-4.91-4.36-7.75-3.78c-2.82,0.58-5.88,2.76-8.54,4.75c-0.36,0.27-0.72,0.53-1.07,0.81c-4.95,3.72-10.58,7.92-12.06,12.6
		c-1.25,3.98,1.06,5.84,3.51,7.8c0.27,0.21,0.53,0.43,0.79,0.65c1.63,1.34,2.88,2.73,3.89,3.9c1.37,1.61,2.58,3.53,3.75,5.4
		c0.82,1.31,1.61,2.57,2.39,3.59c2.69,3.52,6.18,5.08,9.54,6.59c3.31,1.47,6.72,2.98,9.3,6.36c0,0.12,0.01,0.24,0.01,0.36
		c0.01,0.36,0.03,0.71-0.07,1.04c-3.07,3.32-6.88,4.14-11.64,2.55c-1.46-0.49-2.89-1.26-4.42-2.09c-3.41-1.85-6.93-3.74-10.98-2.51
		c-2.92,0.88-4.94,2.94-6.9,4.92c-1.93,1.97-3.93,4-6.82,5.01c-1.69,0.58-3.44,0.75-5.9,0.94c-6.19,0.47-9.18,1.18-11.73,4.41
		c-3.35,4.27-7.49,11.8-8.76,14.92c-0.5,1.24-0.81,2.17-0.95,2.86c-1.08,5.43,2.25,9.67,5.27,12.78c0.73,0.74,1.53,1.43,2.31,2.09
		c0.69,0.59,1.41,1.21,2.08,1.85c1.35,1.35,2.43,2.95,3.47,4.51c0.54,0.79,1.07,1.6,1.65,2.37c4.16,5.55,5.41,10.38,4.07,15.69
		c-0.98,3.81-3.19,8.62-8.3,9.94c-1.87,0.48-3.9,0.72-6.02,0.96c-1.98,0.24-4.04,0.47-6.04,0.93c-1.76,0.4-3.42,0.91-5.02,1.43
		c-2.25,0.69-4.37,1.37-6.56,1.64c-3.84,0.51-7.25-0.29-10.55-1.05c-2.91-0.68-5.68-1.32-8.4-0.96v0.12
		c2.71-0.37,5.47,0.27,8.38,0.94c3.31,0.77,6.73,1.56,10.59,1.06c2.21-0.28,4.32-0.95,6.57-1.65c1.6-0.51,3.27-1.02,5.02-1.42
		c2.01-0.45,4.04-0.69,6.02-0.92c2.14-0.25,4.16-0.48,6.04-0.97c4.08-1.06,6.98-4.52,8.38-10.02c1.36-5.35,0.1-10.21-4.08-15.8
		c-0.57-0.76-1.11-1.57-1.64-2.35c-1.06-1.56-2.14-3.18-3.51-4.52c-0.66-0.67-1.37-1.28-2.07-1.86c-0.77-0.67-1.57-1.35-2.3-2.09
		c-3-3.07-6.32-7.29-5.24-12.67c0.13-0.67,0.44-1.6,0.94-2.83c1.26-3.11,5.39-10.63,8.73-14.88c2.51-3.19,5.5-3.91,11.65-4.38
		c2.47-0.19,4.21-0.36,5.94-0.95c2.92-1,4.92-3.05,6.87-5.02c2.03-2.08,3.96-4.04,6.84-4.9c4.02-1.22,7.52,0.67,10.9,2.5
		c1.53,0.82,2.97,1.61,4.43,2.1c4.83,1.61,8.68,0.76,11.79-2.59l0.01-0.03c0.1-0.36,0.09-0.74,0.06-1.09c0-0.13,0-0.26,0-0.38v-0.02
		l-0.02-0.02c-2.59-3.41-6.02-4.94-9.34-6.42c-3.35-1.49-6.83-3.05-9.49-6.55c-0.77-1.02-1.56-2.27-2.39-3.59
		c-1.17-1.86-2.39-3.78-3.76-5.4c-1-1.17-2.25-2.56-3.9-3.92c-0.27-0.22-0.53-0.43-0.79-0.64c-2.42-1.94-4.71-3.78-3.48-7.67
		c1.47-4.64,7.07-8.83,12-12.54c0.36-0.27,0.73-0.54,1.08-0.82c2.63-1.99,5.69-4.15,8.48-4.72c2.79-0.57,5.37,0.68,7.65,3.74
		c1.06,1.4,2.09,3.07,3.11,4.68c0.6,0.96,1.22,1.95,1.85,2.89c1.56,2.34,3.1,4.53,4.71,6.86c0.7,0.99,1.41,2.02,2.15,3.07
		c0.87,1.26,1.79,2.53,2.7,3.75c1.16,1.59,2.26,3.09,3.21,4.53c0.88,1.33,2.94,4.44,1.94,7.55c-1,3.14-4.53,6.48-7.94,9.72
		c-1.98,1.88-3.85,3.66-5.22,5.36c-0.82,1.03-0.14,2.69,0.53,4.29c0.31,0.76,0.61,1.49,0.75,2.14c0.79,3.62-1.28,6.17-3.46,8.86
		c-0.98,1.22-1.99,2.47-2.79,3.86l-0.01,0.03c-0.12,0.52-0.32,1-0.53,1.46c-0.16,0.4-0.33,0.76-0.42,1.13
		c-1.21,4.72,0.16,9.24,3.86,12.72c5.18,4.91,14.12,6.99,20.79,4.89c3.51-1.13,7.03-4.1,9.62-8.16c2.64-4.14,4.77-7.95,5.69-10.19
		c0.42-1,0.98-2.55,1.19-4.27c0.35-3,0.06-6.09-0.23-9.36c-0.14-1.51-0.28-3.07-0.35-4.6c-0.16-3.35,0.35-5.71,1.61-7.37
		c1.29-1.68,3.37-2.75,6.58-3.34c3.78-0.71,7.47-0.75,10.39-0.12c6.33,1.35,13.21,8.78,14.75,15.89c0.45,2.06,0.08,4.15-0.34,6.12
		c-0.67,3.11-1.96,6.49-3.2,9.77c-0.43,1.14-0.87,2.32-1.29,3.47c-0.1,0.26-0.19,0.51-0.28,0.77c-0.2,0.6-0.43,1.22-0.66,1.84
		c-0.83,2.16-1.86,4.37-3.08,6.59c-0.32,0.59-0.71,1.17-1.08,1.75c-0.64,0.98-1.31,1.99-1.69,3.06c-0.17,0.48-0.32,0.95-0.47,1.39
		c-0.46,1.45-0.9,2.82-1.86,4.21c-1.15,1.65-2.57,3.12-3.94,4.47c-0.81,0.79-1.42,1.67-2.01,2.51c-0.51,0.75-1.06,1.52-1.72,2.23
		c-0.81,0.86-1.71,1.68-2.58,2.45c-0.93,0.84-1.89,1.7-2.76,2.64c-0.53,0.59-1.06,1.22-1.56,1.83c-0.44,0.54-0.9,1.1-1.38,1.63
		c-0.26,0.28-0.55,0.56-0.83,0.82c-0.52,0.47-1.05,0.95-1.4,1.58c-0.48,0.81-0.83,1.68-1.16,2.52c-0.43,1.09-0.89,2.22-1.57,3.2
		c-2.32,3.35-6.35,5.43-12.32,6.37c-2.63,0.42-5.51,0.61-8.3,0.8c-4.61,0.31-8.95,0.59-12.05,1.81c-1.83,0.72-3.46,1.85-5.02,2.94
		c-1.78,1.24-3.45,2.41-5.14,2.73c-3.27,0.63-5.41-2.01-7.31-4.34c-0.76-0.93-1.47-1.82-2.24-2.48c-0.63-0.55-1.18-1.12-1.7-1.69
		c-0.98-1.02-1.88-1.98-3.26-2.75c-1.68-0.94-3.48-1.69-5.21-2.4c-0.38-0.15-0.75-0.31-1.14-0.46c-5.02-2.1-7.91-4.72-9.95-9.04
		c-1.3-2.75-1.8-5.6-1.67-9.52c0.12-3.87-3.27-6.68-6.01-8.94l-0.1-0.07c-0.58-0.49-1.19-0.97-1.84-1.46
		c-2.92-2.27-5.94-4.62-6.97-8.07c-0.34-1.17-0.29-2.26-0.11-3.52c0.85-6.18,5.31-10.84,11.63-12.16c2.06-0.43,3.94-0.66,5.74-0.89
		c1.71-0.21,3.34-0.43,4.9-0.77c0.9-0.2,1.99-0.51,2.95-0.8c0.46-0.14,0.9-0.28,1.31-0.38c2.45-0.68,4.36-0.55,5.84,0.39
		c2.77,1.75,3.7,6.1,4.63,11.6c0.2,1.17,0.59,2.36,1.01,3.61c0.79,2.38,1.62,4.84,0.99,7.13c-0.41,1.49-1.35,2.95-2.25,4.37
		c-2.07,3.23-4.03,6.28-0.07,9.51c0.94,0.77,1.91,1.49,2.85,2.17c3.64,2.68,7.07,5.21,8.01,10.28c0.85,4.53,3.77,7.35,8.7,8.38
		c9.93,2.1,17.75,2.3,23.19,0.59c4.27-1.34,7.51-4.53,8.67-8.56c1.29-4.43,3.35-9.23,6.34-14.7c0.9-1.66,2.04-3.59,3.54-5.3
		c1.06-1.21,2.33-2.26,3.55-3.28c0.97-0.82,1.97-1.65,2.87-2.56c0.64-0.66,1.3-1.32,1.94-1.95c1.74-1.72,3.54-3.51,5.16-5.4
		c2.87-3.36,5.03-7.7,6.62-13.26l0.16-0.55c0.98-3.35,2.17-7.53,0.67-11.55c-1.9-5.02-6.61-8.61-12.01-9.12
		c-4.17-0.39-6.56,1.41-7.25,5.52c-0.35,1.96-0.18,3.87-0.01,5.71c0.04,0.57,0.09,1.1,0.12,1.63c0.05,0.74,0.11,1.45,0.17,2.16
		c0.15,1.82,0.31,3.7,0.19,5.63c-0.42,6-2.24,8.25-5.67,12.03c-3.48,3.82-7.5,8.04-11.23,9.78c-2.35,1.1-8.64,3.52-16.05,2.24
		c-12.71-2.2-20.04-8.43-21.81-18.54c-0.19-1.11-0.29-2.13-0.39-3.19c-0.13-1.25-0.26-2.53-0.55-4.14c-0.45-2.5-2.23-5.21-4.88-7.45
		c-2.63-2.2-5.65-3.59-8.32-3.81c-3.09-0.24-5.44,1.55-7.33,3.01l-0.28,0.21c-1.97,1.5-3.81,2.82-6.37,3.77
		c-1.64,0.6-3.92,0.99-6.12,1.38c-1.75,0.3-3.41,0.6-4.76,0.98c-7.6,2.17-11.22,10.77-12.44,14.36l-0.09,0.29
		c-0.55,1.61-1.22,3.59-0.73,5.89c0.74,3.48,3.55,6.4,5.78,8.23c5.05,4.19,8.16,10.19,10.52,15.52c0.51,1.14,0.75,2.4,0.98,3.61
		c0.25,1.26,0.49,2.57,1.05,3.79c1.22,2.71,2.71,4.85,4.44,6.35c1.62,1.41,3.59,2.36,5.49,3.28c1.46,0.72,2.97,1.45,4.3,2.38
		c2.69,1.86,5.32,4.35,4.44,8.58c-0.44,2.11-2.41,4.16-4.16,5.96c-0.45,0.47-0.87,0.91-1.27,1.35c-2.48,2.71-4.04,4.54-4.97,7.59
		c-0.69,2.27-0.75,6.34-0.12,9.25c0.51,2.35,1.13,4.61,1.76,6.79h0.12c-0.63-2.18-1.25-4.45-1.77-6.81
		C64.78,240.48,64.82,236.44,65.51,234.19z"/>
</g>
<g>
</g>
<g>
</g>
<g>
</g>
<g>
</g>
<g>
</g>
</svg>
