<?xml version="1.0" encoding="utf-8"?>
<!-- Generator: Adobe Illustrator 18.1.0, SVG Export Plug-In . SVG Version: 6.00 Build 0)  -->
<svg version="1.1" id="Layer_1" xmlns="http://www.w3.org/2000/svg" xmlns:xlink="http://www.w3.org/1999/xlink" x="0px" y="0px"
	 width="256px" height="250px" viewBox="-51 55.8 256 250" enable-background="new -51 55.8 256 250" xml:space="preserve">
<g>
	<path fill="#1815B7" d="M67.75,56.51l0.34,0.25c1.7,1.25,3.67,2.72,5.48,4.31c0.2,0.17,0.39,0.37,0.58,0.56l0.09,0.09
		c0.2,0.22,0.42,0.44,0.63,0.63c3.96,3.53,8.17,5.48,11.86,5.48c3.66,0,6.75-1.8,9.18-5.36c1.29-1.88,2.35-4.18,3-6.49l0.04-0.16
		h-0.38l-0.03,0.09c-0.63,2.24-1.68,4.5-2.93,6.36c-2.38,3.45-5.37,5.21-8.9,5.21c-3.59,0-7.71-1.91-11.62-5.37
		c-0.2-0.19-0.4-0.4-0.6-0.62c-0.22-0.23-0.45-0.46-0.69-0.69c-1.79-1.56-3.76-3.04-5.5-4.34c-0.21-0.15-0.4-0.29-0.6-0.44
		l-0.25-0.19h-0.61l0.29,0.22C67.34,56.21,67.54,56.36,67.75,56.51z"/>
	<path fill="#1815B7" d="M-50.56,82.63l0.05-0.14c1.5-4.42,4.53-7.24,7.45-9.97l0.04-0.03c2.56-2.38,5.21-4.84,6.91-8.39
		c0.99-2.08,1.75-5.05,2.1-8.14l0.02-0.14h-0.37l-0.01,0.11c-0.33,3.06-1.08,5.98-2.06,8.01c-1.67,3.47-4.3,5.91-6.83,8.27
		l-0.04,0.04c-2.96,2.76-6.02,5.61-7.54,10.11c-0.05,0.13-0.1,0.28-0.14,0.45v1.38l0.25-0.95C-50.69,83.02-50.62,82.82-50.56,82.63z
		"/>
	<path fill="#1815B7" d="M85.86,62.36c1.27,0,2.53-0.45,3.65-1.31c1.04-0.78,1.57-1.6,2.08-2.39l0.05-0.07
		c0.24-0.38,0.47-0.74,0.75-1.1c0.21-0.5,0.4-1,0.54-1.51l0.05-0.16H92.6l-0.03,0.09c-0.15,0.49-0.32,0.96-0.5,1.4
		c-0.24,0.32-0.47,0.67-0.73,1.09c-0.56,0.88-1.07,1.62-2.04,2.36c-1.1,0.82-2.26,1.24-3.44,1.24c-3.21,0-6.34-2.87-9.09-5.4
		l-0.84-0.77h-0.55l1.11,1.03C79.32,59.43,82.5,62.36,85.86,62.36z"/>
	<path fill="#1815B7" d="M-50.68,101.59c0.02-0.05,0.04-0.1,0.06-0.15c0.91-2.31,1.51-5.49,2.03-8.3l0.03-0.14
		c0.58-3,1.12-5.84,1.96-7.84c1.41-3.43,4.35-6.33,7.46-9.4l0.1-0.1c1.95-1.9,3.96-3.87,5.65-6.05c2.13-2.73,3.55-5.07,4.74-7.83
		c0.67-1.55,1.25-3.34,1.81-5.07l0.09-0.27c0.02-0.06,0.04-0.12,0.06-0.19c0.04-0.1,0.07-0.21,0.1-0.31l0.04-0.15h-0.38l-0.02,0.09
		c-0.03,0.1-0.06,0.19-0.09,0.29c-0.02,0.05-0.04,0.1-0.05,0.16c-0.58,1.81-1.17,3.68-1.87,5.3c-1.19,2.75-2.59,5.07-4.7,7.75
		c-1.65,2.11-3.61,4.04-5.51,5.9l-0.12,0.12c-3.18,3.13-6.18,6.08-7.62,9.6c-0.86,2.08-1.42,4.98-2,8.06l-0.04,0.21
		c-0.55,2.87-1.12,5.83-1.96,8c-0.03,0.03-0.06,0.07-0.06,0.13v1.08l0.24-0.73C-50.73,101.69-50.7,101.64-50.68,101.59z"/>
	<path fill="#1815B7" d="M-42.6,130.25c1.21,0.26,2.31,0.68,3.55,1.18c4.08,1.63,9.16,3.66,11.11,7.76
		c0.12,2.25-0.67,4.16-1.51,6.18c-1.21,2.88-2.57,6.14-1.8,11.27c0.59,3.89,2.87,6.38,5.52,9.28c1.22,1.33,2.24,2.46,3.26,3.79
		c2.84,3.74,4.77,8,6.13,11.31c1.49,3.55,2.66,6.36,6.6,7.31c1.81,0.44,4.44,0.83,7.81,1.18c1.26,0.13,2.41,0.2,3.42,0.2
		c1.69,0,3.19-0.19,4.46-0.55c2.67-0.79,4.35-2.95,6.48-5.67c0.76-0.97,1.38-1.74,2.01-2.5c0.5-0.6,1.15-1.26,1.84-1.96
		c1.61-1.61,2.98-3.05,3.4-4.24c0.15-0.48,0.12-0.93,0.08-1.4l0-0.03c-0.04-0.36-0.07-0.76-0.04-1.21l0.03-0.11l-0.05-0.06
		c-1.38-1.82-3.06-3.29-4.68-4.72l-0.19-0.17c-2.77-2.43-5.38-4.72-6.37-8.47c-0.52-1.99-0.33-4.11,0.58-6.5
		c0.98-2.55,3.26-5.33,6.42-7.84c1.28-1.01,2.62-2.06,4.04-3.18l0.67-0.53c7.36-5.73,15.69-12.23,20.26-17.91l0.03-0.09
		c0.15-0.69,0.11-1.51-0.11-2.43c-0.59-2.4-2.48-5.27-5.18-7.87c-2.55-2.44-5.47-4.28-7.82-4.93l-0.1-0.03
		c-0.2-0.05-0.51-0.14-0.85-0.2c-1.05-0.23-2.16-0.35-3.4-0.35c-2,0-4.03,0.3-6.01,0.6c-1.98,0.3-3.86,0.58-5.69,0.58
		c-0.69,0-1.32-0.04-1.93-0.12c-5.26-0.69-9.04-4.21-10.37-9.65c-1.75-7.14,3.12-11.65,7.83-16l0.09-0.08
		c3.48-3.23,7.07-6.56,8.01-10.97c0.91-4.16-0.27-8.64-1.05-11.61l-0.01-0.05c-0.27-1.05-0.62-2.22-1.09-3.57l-0.03-0.08h-0.38
		l0.06,0.17c0.41,1.17,0.78,2.39,1.11,3.6l0.01,0.05c0.77,2.93,1.92,7.36,1.05,11.43c-0.93,4.34-4.53,7.66-8,10.86l-0.03,0.03
		c-4.77,4.42-9.71,8.99-7.91,16.33c1.37,5.59,5.27,9.21,10.68,9.92c0.63,0.08,1.29,0.12,2,0.12c1.87,0,3.83-0.29,5.72-0.57
		c1.94-0.29,3.95-0.59,5.94-0.59c1.22,0,2.31,0.11,3.33,0.34c0.34,0.07,0.67,0.16,0.86,0.21l0.07,0.02
		c4.55,1.25,11.45,7.39,12.72,12.52c0.21,0.84,0.25,1.59,0.12,2.23c-4.59,5.69-12.94,12.19-20.31,17.93l-0.08,0.06
		c-1.59,1.24-3.09,2.4-4.51,3.52c-3.23,2.58-5.54,5.42-6.52,8.01c-0.94,2.47-1.14,4.67-0.59,6.71c1.03,3.9,3.71,6.25,6.55,8.74
		c1.62,1.41,3.3,2.88,4.71,4.7c-0.03,0.46-0.01,0.85,0.02,1.24c0.05,0.46,0.09,0.86-0.05,1.27c-0.39,1.14-1.79,2.59-3.32,4.1
		l-0.16,0.16c-0.64,0.65-1.24,1.25-1.69,1.81c-0.77,0.91-1.46,1.79-2.02,2.52c-2.08,2.68-3.73,4.79-6.29,5.55
		c-1.23,0.36-2.65,0.54-4.35,0.54c-1.02,0-2.15-0.07-3.37-0.2c-3.45-0.37-5.99-0.75-7.77-1.18c-3.77-0.89-4.91-3.63-6.36-7.11
		c-1.47-3.55-3.36-7.68-6.17-11.39c-1.1-1.44-2.3-2.75-3.27-3.81c-2.61-2.83-4.86-5.28-5.43-9.09c-0.75-4.99,0.57-8.2,1.74-11.03
		l0.06-0.14c0.84-2.04,1.63-3.97,1.49-6.28l-0.02-0.08c-2.03-4.29-7.41-6.42-11.34-7.97c-1.12-0.45-2.28-0.91-3.58-1.19
		c-2.9-0.6-5.7-0.95-8.32-1.05l-0.13,0v0.37l0.12,0C-48.29,129.28-45.5,129.64-42.6,130.25z"/>
	<path fill="#1815B7" d="M20.29,57.04c0.24,0.81,0.48,1.68,0.67,2.37c0.33,1.24,0.7,2.49,1.06,3.65c0.78,2.62,1.51,5.1,1.8,7.33
		c0.22,1.57,0.22,3.18,0.01,4.32c-0.6,3.37-2.87,6.02-5.07,8.58l-0.06,0.07c-2.58,2.99-5.24,6.08-5.44,10.42
		c0.29,3.92,4.63,4.47,9.23,5.05c0.35,0.05,0.71,0.1,1.08,0.15c0.49,0.06,0.98,0.13,1.46,0.2c3.29,0.52,7.12,1.58,11.07,3.06
		c1.37,0.52,2.69,1.16,3.96,1.79c2.45,1.22,4.77,2.38,7.5,2.68c0.31,0.04,0.63,0.05,1.07,0.05c1.81,0,3.38-0.5,4.84-1.01
		c1.41-0.5,2.62-1.03,3.73-1.53l0.03-0.01c2.45-1.08,4.77-2.09,8.33-2.41c0.6-0.07,1.25-0.1,1.92-0.1c3.87,0,7.12,1.02,10.27,2
		l0.04,0.01c2.6,0.83,5.29,1.68,8.05,1.68c0.57,0,1.1-0.03,1.58-0.1c4.13-0.53,7.29-2.66,9.66-6.52c2.15-3.49,3.35-7.93,4.3-11.81
		c0.53-2.2,0.86-3.92,0.98-5.11c0.19-1.58-0.07-2.74-0.78-3.54c-1.27-1.48-3.89-1.56-6.65-1.65c-1.34-0.04-2.66-0.09-3.96-0.27
		c-5.63-0.73-10.35-1.46-15.56-3.63c-3.31-1.37-7.06-3.2-11.47-5.57c-4.79-2.61-10.21-5.84-14.04-11.31l-0.04-0.05h-0.44l0.14,0.2
		c3.91,5.62,9.39,8.89,14.22,11.51c2.88,1.57,7.21,3.81,11.49,5.59c5.24,2.18,9.99,2.92,15.65,3.66c1.15,0.15,2.31,0.2,3.42,0.25
		l0.57,0.03c2.81,0.09,5.24,0.17,6.4,1.51c0.63,0.73,0.85,1.79,0.68,3.26c-0.17,1.47-0.62,3.58-0.98,5.07
		c-1.98,8.15-4.83,16.95-13.65,18.05c-0.5,0.06-1.02,0.09-1.53,0.09c-2.65,0-5.22-0.81-7.94-1.66l-0.07-0.02
		c-3.16-0.98-6.43-2-10.34-2c-0.65,0-1.31,0.03-1.96,0.09c-3.59,0.32-5.92,1.35-8.39,2.44l-0.14,0.06c-1.13,0.5-2.3,1.02-3.66,1.5
		c-1.33,0.47-2.9,0.97-4.71,0.97c-0.32,0-0.65-0.02-1.03-0.05c-2.62-0.28-4.88-1.4-7.28-2.57l-0.21-0.1
		c-1.25-0.62-2.54-1.26-3.89-1.76c-3.97-1.49-7.82-2.55-11.14-3.08c-0.86-0.13-1.72-0.25-2.58-0.35c-4.43-0.58-8.62-1.13-8.88-4.71
		c0.2-4.13,2.78-7.16,5.28-10.09l0.07-0.08c2.15-2.48,4.58-5.29,5.22-8.81c0.21-1.15,0.2-2.81-0.01-4.45
		c-0.29-2.17-1-4.55-1.75-7.07l-0.36-1.21c-0.27-0.9-0.54-1.82-0.79-2.73c-0.2-0.77-0.43-1.59-0.67-2.38
		c-0.06-0.19-0.11-0.39-0.17-0.59c-0.04-0.15-0.08-0.3-0.12-0.45l-0.03-0.09h-0.38l0.05,0.16C20.1,56.31,20.2,56.67,20.29,57.04z"/>
	<path fill="#1815B7" d="M-48.75,69.28l0.14-0.09c2.35-1.5,4.56-2.92,6.11-5.32c1.14-1.76,2.31-4.08,2.33-7.94l0-0.13h-0.37l0,0.12
		c-0.03,3.77-1.11,5.95-2.27,7.75c-1.51,2.32-3.7,3.72-6.03,5.21l-0.22,0.14c-0.62,0.4-1.26,0.81-1.88,1.25l-0.05,0.04v0.44
		l0.2-0.14C-50.13,70.16-49.43,69.71-48.75,69.28z"/>
	<path fill="#1815B7" d="M27.88,64.68c0.28,0.67,0.57,1.32,0.85,1.93l0.06,0.14c0.69,1.55,1.41,3.16,1.65,4.82
		c0.69,4.66-1.72,7.71-4.05,10.66l-0.03,0.04c-1.62,2.03-3.15,3.95-3.63,6.35c-0.12,0.59-0.09,0.95-0.07,1.41l0,0.06
		c0.02,0.25,0.04,0.5,0.04,0.89L22.71,91c0.62,1.73,2.45,2.92,3.88,3.61c5.09,2.52,13.37,3.71,19.42,4.58l0.04,0.01
		c1.04,0.14,1.92,0.2,2.77,0.2c2.34,0,4.5-0.39,6.8-0.81l0.27-0.05c2.4-0.43,4.88-0.87,7.73-0.87c0.7,0,1.49,0.03,2.33,0.1
		c0.1,0.01,0.29,0.02,0.55,0.04c0.18,0.01,0.39,0.02,0.63,0.04c0.99,0.05,1.97,0.11,2.61,0.16c2.37,0.18,4.25,0.58,6.27,1.05
		l0.05,0.01c2.5,0.56,4.86,1.08,8.35,1.08c0.36,0,0.75-0.01,1.15-0.02c2.83-0.45,5.42-3.42,6.45-7.39
		c0.85-3.29,0.65-7.67-2.46-10.09c-3.64-2.83-14.18-5.3-19.83-5.74c-1.22-0.11-2.25-0.12-3.19-0.12c-1.07-0.01-2.18-0.02-3.63-0.14
		c-3.87-0.36-7.07-1.88-10.7-5.1c-4.53-4.03-6.97-7.14-10.47-13.27c-0.38-0.67-0.74-1.47-1.05-2.37l-0.03-0.08h-0.41l0.06,0.17
		c0.31,0.82,0.68,1.75,1.11,2.46c3.52,6.19,5.98,9.31,10.54,13.35c3.68,3.28,6.94,4.83,10.9,5.18c1.44,0.13,2.56,0.14,3.67,0.14
		c1,0.01,1.95,0.02,3.16,0.12c5.62,0.46,16.06,2.9,19.64,5.67c2.95,2.3,3.14,6.52,2.32,9.71c-0.99,3.83-3.46,6.69-6.16,7.11
		c-0.36,0.01-0.73,0.02-1.08,0.02c-3.39,0-5.71-0.51-8.17-1.05l-0.16-0.03c-1.67-0.38-3.75-0.85-6.33-1.05l-0.11-0.01
		c-0.73-0.05-1.71-0.12-2.51-0.16l-0.67-0.03c-0.23-0.01-0.41-0.02-0.49-0.03c-0.72-0.07-1.5-0.11-2.37-0.11c-3,0-5.66,0.48-8,0.91
		c-2.28,0.41-4.44,0.81-6.79,0.81c-1.03,0-1.89-0.06-2.72-0.19l-0.13-0.02c-5.99-0.86-14.2-2.04-19.21-4.53
		c-1.11-0.54-3.06-1.69-3.67-3.38c-0.01-0.21-0.02-0.39-0.02-0.55c-0.01-0.11-0.01-0.2-0.02-0.31c-0.04-0.44-0.07-0.8,0.05-1.36
		c0.47-2.29,1.97-4.19,3.56-6.19c2.4-3,4.87-6.11,4.15-10.98c-0.25-1.7-0.94-3.29-1.74-5.04L28.87,66c-0.22-0.49-0.45-1-0.64-1.5
		c-0.68-1.65-1.93-4.96-2.71-8.59l-0.02-0.1h-0.38l0.03,0.15C25.89,59.38,27.04,62.59,27.88,64.68z"/>
	<path fill="#1815B7" d="M-38.49,114.4c1.65-1.84,3.11-3.78,4.64-5.84c2.44-3.25,4.95-6.61,8.21-9.38c0.25-0.23,0.48-0.46,0.67-0.69
		c0.18-0.19,0.4-0.42,0.61-0.61c2.14-1.88,4.55-3.38,6.9-4.82l0.31-0.19c1.54-0.95,3.12-1.93,4.62-3.03
		c1.26-0.93,2.54-1.92,3.74-2.85c1.81-1.41,3.76-2.9,5.69-4.23c0.89-0.61,1.81-1.2,2.8-1.82l0.07-0.05
		c4.95-3.16,10.55-6.74,11.42-13.23c0.45-3.41-0.43-7.82-2.36-11.8L8.79,55.8H8.4l0.09,0.18c1.9,3.92,2.78,8.28,2.35,11.65
		c-0.84,6.34-6.38,9.86-11.26,12.96c-1.08,0.69-1.97,1.26-2.87,1.87c-1.98,1.37-3.96,2.9-5.71,4.25l-0.47,0.36
		c-1.07,0.82-2.17,1.67-3.29,2.48c-1.55,1.14-3.2,2.16-4.89,3.2c-2.36,1.46-4.8,2.97-6.94,4.85c-0.14,0.12-0.27,0.26-0.4,0.39
		c-0.08,0.08-0.16,0.17-0.25,0.25l-0.08,0.08c-0.18,0.19-0.38,0.39-0.58,0.57c-3.29,2.8-5.81,6.18-8.26,9.44
		c-1.5,2.01-2.98,3.97-4.63,5.81c-3.15,3.54-7.46,6.03-12.11,7.01l-0.1,0.02v0.37l0.15-0.03C-46.11,120.51-41.72,117.98-38.49,114.4
		z"/>
	<path fill="#1815B7" d="M-45.75,109.79c1.61-2.35,1.62-6.57,1.45-9.99c-0.13-2.74-0.08-7.97,1.7-12.29
		c1.39-3.34,4.82-6.4,7.85-9.11c0.45-0.4,0.89-0.81,1.32-1.2l0.11-0.1c6.39-5.82,9.57-11.06,12.38-17.14
		c0.19-0.41,0.36-0.85,0.53-1.28l0.13-0.33c0.23-0.61,0.5-1.31,0.84-1.99c0.06-0.13,0.13-0.26,0.19-0.38l0.11-0.19h-0.43l-0.03,0.08
		c-0.03,0.07-0.07,0.14-0.11,0.2c-0.02,0.04-0.04,0.08-0.07,0.12c-0.34,0.68-0.6,1.37-0.83,2.02c-0.18,0.49-0.4,1.05-0.66,1.58
		c-2.79,6.05-5.95,11.27-12.29,17.04c-0.23,0.21-0.47,0.42-0.7,0.63c-0.24,0.22-0.49,0.44-0.73,0.66c-3.21,2.88-6.53,5.85-7.93,9.25
		c-1.81,4.37-1.86,9.67-1.73,12.44c0.17,3.36,0.16,7.5-1.39,9.77c-1.24,1.77-3.26,2.95-4.89,3.77l-0.07,0.03v0.41l0.18-0.09
		C-49.12,112.86-47.02,111.64-45.75,109.79z"/>
	<path fill="#1815B7" d="M-49.01,59.27c0.72-0.75,1.13-1.97,1.13-3.34v-0.12h-0.39v0.12c0,1.28-0.37,2.41-1.01,3.09
		c-0.48,0.5-1.03,0.76-1.59,0.76h-0.12v0.37h0.12C-50.2,60.15-49.56,59.85-49.01,59.27z"/>
	<path fill="#1815B7" d="M-29.28,82.09c-3.18,1.87-6.46,3.81-7.76,7.43c-0.47,1.32-0.48,2.75-0.02,4.54
		c0.46,1.01,1.28,1.55,2.39,1.55c1.81,0,3.9-1.38,4.76-2.12c1.64-1.38,3.07-3.24,4.62-5.34l0.35-0.47c0.65-0.87,1.33-1.77,2.02-2.59
		l0.03-0.04c0.43-0.49,1.75-1.97,2.84-2.62c2.67-1.58,6.11-2.79,9.75-4.07l0.09-0.03c5.11-1.78,10.39-3.63,13.72-6.67
		c1.76-1.58,2.83-4.09,2.92-6.88c0.08-2.96-0.95-5.76-2.9-7.9c-0.41-0.45-0.76-0.78-1.11-1.05l-0.03-0.03h-0.6l0.28,0.22
		c0.43,0.34,0.84,0.72,1.2,1.12c1.9,2.06,2.89,4.78,2.8,7.64C6,67.46,4.99,69.87,3.29,71.41c-3.23,2.95-8.45,4.78-13.49,6.56
		l-0.21,0.08c-3.65,1.28-7.1,2.5-9.8,4.1c-1.2,0.71-2.57,2.28-2.97,2.74c-0.75,0.88-1.48,1.85-2.18,2.78l-0.25,0.34
		c-1.41,1.88-2.87,3.83-4.54,5.23c-0.96,0.82-2.95,2.04-4.52,2.04c-0.97,0-1.66-0.45-2.05-1.31c-0.43-1.69-0.42-3.06,0.03-4.3
		c1.25-3.48,4.48-5.39,7.61-7.23c2.25-1.33,4.38-2.59,5.7-4.38c2.34-3.17,4.49-7.8,6.21-11.52l0.58-1.29
		c1.18-2.6,2.4-5.28,4.08-7.25c0.59-0.7,1.31-1.35,2.14-1.93l0.32-0.23h-0.63l-0.03,0.02c-0.77,0.53-1.47,1.16-2.08,1.88
		c-1.71,2.01-2.94,4.72-4.12,7.34c-0.14,0.29-0.27,0.58-0.4,0.87l-0.22,0.49c-1.71,3.68-3.85,8.27-6.16,11.39
		C-24.97,79.55-27.07,80.78-29.28,82.09z"/>
	<path fill="#1815B7" d="M34.06,88.19l0.02,0.03c0.19,0.2,0.32,0.5,0.43,0.8l0.05,0.1l0.03,0.04c0.89,0.83,2.22,1.29,3.74,1.29
		c2.14,0,4.29-0.91,5.34-2.26c0.64-0.83,0.85-1.79,0.61-2.76c-0.46-1.82-2.16-2.4-4.02-2.88l-0.08-0.06l-0.06,0.06
		C37.02,83,33.82,84.9,34.04,88l-0.07,0.01L34.06,88.19z M34.85,88.88c-0.13-0.33-0.25-0.63-0.45-0.87
		c-0.25-3.32,3.66-4.79,5.78-5.11c1.8,0.47,3.32,1,3.74,2.61c0.22,0.88,0.03,1.73-0.55,2.45c-0.97,1.27-3.01,2.12-5.06,2.12
		C36.91,90.06,35.68,89.65,34.85,88.88L34.85,88.88z"/>
	<path fill="#1815B7" d="M66.21,90.28l0.04,0.04l0.03,0.02c1.92,1.21,5.1,2.02,7.91,2.02c1.87,0,5.13-0.38,5.98-2.92l0.01-0.05
		c0.02-0.89-0.31-1.69-0.97-2.37c-1.23-1.26-3.66-2.04-6.34-2.04c-3.41,0-7.1,1.34-7.17,4.31v0.07l0.07,0.04
		c0.2,0.2,0.32,0.53,0.42,0.81L66.21,90.28z M78.94,87.27c0.58,0.61,0.87,1.3,0.87,2.07c-0.8,2.3-3.87,2.64-5.63,2.64
		c-2.71,0-5.78-0.77-7.67-1.93l-0.03-0.06c-0.11-0.28-0.23-0.57-0.42-0.79c0.11-2.65,3.59-3.85,6.8-3.85
		C75.45,85.34,77.78,86.08,78.94,87.27z"/>
	<path fill="#1815B7" d="M9.45,143.68c2.13-1.86,4.34-3.38,6.47-4.85l0.41-0.28c2.45-1.68,4.98-3.42,7.4-5.63
		c3.66-3.31,7.81-7.06,8.5-12.81l0-0.05c-0.43-2.7-1.26-5.47-4.37-7.48c-1.74-1.14-3.67-1.67-6.08-1.67c-2.02,0-4.1,0.37-6.3,0.77
		l-0.05,0.01c-2.37,0.43-4.82,0.87-7.39,0.87c-0.54,0-1.13-0.02-1.84-0.07c-1.18-0.12-2.66-0.47-4.34-0.89l-0.19-0.05
		c-2.1-0.5-4.28-1.03-6.01-1.03c-0.36,0-0.71,0.03-1.04,0.08c-2.41,0.36-4.97,2.45-6.94,4.23c-3.24,2.94-6.31,6.01-6.83,8.57
		c-0.25,1.21-0.07,3.17-0.01,3.74c0.17,1.63,0.51,3.02,0.84,4.36l0.08,0.33c0.62,2.51,1.27,5.11,0.95,9.25
		c-0.14,2.09-0.58,3.94-0.97,5.57l-0.02,0.08c-0.67,2.88-1.36,5.85-1.07,10.33c2.25,7.76,4.89,13.65,8.09,17.99
		c0.8,1.07,1.7,2.19,2.83,3.09c1.66,1.33,4.03,2.12,6.33,2.12c2.32,0,4.31-0.81,5.58-2.27c1.43-1.62,1.95-3.93,1.57-6.89
		c-0.22-1.63-0.81-3.34-1.39-4.99l-0.02-0.04c-0.55-1.55-1.18-3.31-1.39-4.97C1.41,154.83,4.1,148.31,9.45,143.68z M1.89,161.16
		c0.21,1.58,0.79,3.23,1.34,4.82l0.07,0.21c0.55,1.55,1.18,3.31,1.38,4.97c0.38,2.84-0.11,5.06-1.48,6.6
		c-1.2,1.38-3.08,2.13-5.29,2.13c-2.2,0-4.49-0.77-6.1-2.05c-1.1-0.88-1.98-1.97-2.76-3.02c-3.16-4.25-5.79-10.1-8.04-17.83
		c-0.28-4.45,0.42-7.39,1.1-10.23c0.41-1.74,0.83-3.55,0.98-5.64c0.34-4.28-0.35-7.01-0.95-9.41l-0.06-0.26
		c-0.33-1.34-0.67-2.72-0.83-4.33c-0.12-1.15-0.18-2.7,0-3.63c0.5-2.46,3.52-5.48,6.71-8.38c1.92-1.74,4.42-3.78,6.73-4.14
		c0.3-0.04,0.62-0.06,0.98-0.06c1.79,0,4.09,0.57,6.12,1.06L1.83,112c1.61,0.39,3.13,0.75,4.35,0.87c0.65,0.05,1.26,0.08,1.87,0.08
		c2.52,0,4.96-0.42,7.44-0.89l0.26-0.05c2.11-0.37,4.1-0.72,6.03-0.72c2.32,0,4.2,0.51,5.9,1.61c2.95,1.91,3.76,4.6,4.2,7.22
		c-0.68,5.55-4.76,9.25-8.38,12.54c-2.37,2.14-4.87,3.86-7.29,5.52l-0.08,0.06c-2.47,1.69-4.7,3.24-6.92,5.17
		C3.76,148.12,1.02,154.75,1.89,161.16z"/>
	<path fill="#1815B7" d="M12.36,136.26c2.85-1.95,5.55-3.79,7.94-6.01c0.81-0.41,1.37-1.13,1.81-1.71l0.07-0.08
		c0.36-0.45,0.72-0.92,1.2-1.27l0.02-0.02c2.23-2.79,2.96-6.05,1.86-8.31c-0.7-1.43-2.42-3.14-6.67-3.14c-0.6,0-1.21,0.04-1.78,0.09
		c-1.3,0.13-2.78,0.4-4.35,0.69l-0.19,0.03c-1.69,0.31-3.8,0.69-5.91,0.92c-0.44,0.04-0.84,0.08-1.25,0.13
		c-5.53,0.55-8.87,0.88-12.24,4.84c-2.37,2.8-3.64,6.27-4,10.93c-0.21,2.97-0.04,6.21,0.11,9.07c0.09,1.41,0.17,2.78,0.18,4.02
		c0.09,0.39,0.16,0.8,0.23,1.23l0.07,0.4c0.31,1.97,0.69,4.42,2.88,5.56l0.08,0.01l0,0c2.58-0.18,4.19-2.43,5.9-4.81l0.25-0.35
		c0.54-0.75,1.1-1.53,1.7-2.21c3.69-4.27,7.86-7.11,11.89-9.85L12.36,136.26z M-7.56,153.25c-1.96-1.05-2.3-3.19-2.62-5.26
		l-0.07-0.44c-0.07-0.42-0.13-0.82-0.21-1.17c-0.02-0.96-0.07-2.02-0.13-3.13l-0.05-1.06c-0.15-2.79-0.31-5.95-0.1-8.82
		c0.35-4.55,1.59-7.95,3.91-10.71c3.23-3.84,6.33-4.16,11.95-4.73l0.05,0c0.41-0.04,0.81-0.08,1.24-0.12
		c1.88-0.2,3.76-0.53,5.41-0.83l1.18-0.21c1.38-0.25,2.69-0.49,3.85-0.59c0.68-0.07,1.25-0.1,1.76-0.1c4.07,0,5.7,1.6,6.35,2.94
		c1.03,2.15,0.31,5.25-1.8,7.88c-0.51,0.39-0.9,0.88-1.28,1.35l-0.05,0.06c-0.5,0.65-0.97,1.27-1.72,1.63l-0.03,0.02
		c-2.45,2.28-5.26,4.19-7.98,6.04c-4.08,2.76-8.31,5.61-12.12,10.01c-0.63,0.71-1.22,1.53-1.78,2.33l-0.17,0.24
		C-3.62,150.88-5.17,153.06-7.56,153.25z"/>
	<path fill="#1815B7" d="M102.9,157.69c2.27-2.68,3.41-5.78,4.73-9.36c0.08-0.23,0.17-0.46,0.25-0.7l0.19-0.51
		c0.16-0.41,0.31-0.82,0.47-1.22c0.1-0.27,0.21-0.55,0.31-0.82l0.11-0.29c1.43-3.77,2.77-7.32,3.1-10.3
		c0.78-6.74-1.67-9.47-4.71-12.1c-4.73-4.08-10.83-4.38-17.3-4.7c-1.58-0.08-3.45-0.25-5.23-0.42c-3.15-0.29-6.47-0.58-9.25-0.58
		c-3.08,0-5.12,0.36-6.24,1.09c-4.62,3.06-4.09,10.47-3.64,13.51l0.11,1c0.9,8.44,1.75,16.41,8.36,22.13
		c4.43,3.83,11.61,7.92,18.46,7.92C96.83,162.33,100.28,160.77,102.9,157.69z M75.58,117.06c2.92,0,6.56,0.34,9.23,0.59l0.62,0.06
		c1.68,0.15,3.26,0.29,4.62,0.35c6.4,0.32,12.45,0.62,17.07,4.62c2.95,2.55,5.34,5.19,4.58,11.78c-0.34,2.93-1.68,6.49-3.1,10.25
		l-0.09,0.25c-0.26,0.68-0.52,1.37-0.77,2.05c-0.16,0.39-0.31,0.8-0.45,1.22c-1.31,3.54-2.44,6.6-4.67,9.26
		c-2.53,2.99-5.89,4.51-9.98,4.51c-6.78,0-13.85-4.05-18.22-7.84c-6.49-5.6-7.34-13.48-8.23-21.83l-0.13-1.04
		c-0.44-2.98-0.99-10.23,3.48-13.18C70.58,117.4,72.55,117.06,75.58,117.06z"/>
	<path fill="#1815B7" d="M72.07,133.57l0.01,0.15c0.79,7.27,1.47,13.55,7.39,18.22c2.75,2.18,7.7,4.73,12.62,4.73
		c2.46,0,4.53-0.64,6.17-1.9c4.62-3.57,6.63-11,6.95-16.27c0.36-6.11-1.88-11.47-6-14.32c-3.77-2.63-8.55-2.9-13.64-3.18l-0.47-0.02
		c-0.93-0.04-1.9-0.09-2.85-0.09c-3.21,0-7.16,0.4-9.2,3.56c-1.17,2.4-1.09,5.28-1.01,7.81C72.06,132.7,72.06,133.13,72.07,133.57z
		 M82.27,121.24c0.96,0,1.98,0.04,3.3,0.12l0.16,0.01c4.96,0.28,9.64,0.54,13.29,3.08c4.02,2.8,6.2,8.03,5.83,14
		c-0.31,5.2-2.28,12.51-6.81,16.01c-1.58,1.21-3.58,1.83-5.94,1.83c-4.8,0-9.69-2.51-12.41-4.66c-5.81-4.6-6.44-10.52-7.23-18
		c-0.01-0.46-0.02-0.92-0.04-1.4c-0.07-2.63-0.14-5.34,0.97-7.62C75.33,121.63,79.15,121.24,82.27,121.24z"/>
	<path fill="#1815B7" d="M0.32,133.04l0.04,0.04c0.18,0.19,0.36,0.38,0.57,0.49l0.04,0.04h0.09l0.01,0
		c3.37-0.59,7.21-2.34,10.02-4.57c1.12-0.89,2.45-2.11,2.7-3.63l0.03-0.09l-0.05-0.08c-0.14-0.21-0.32-0.39-0.5-0.56l-0.06-0.06
		c-0.14-0.13-0.27-0.26-0.4-0.4l-0.05-0.08l-0.08-0.01c-0.54-0.05-1.07-0.08-1.59-0.08c-2.95,0-6.97,0.89-9.4,3.39
		c-1.33,1.39-1.97,3.09-1.9,5.03v0.11l0.09,0.06C0.03,132.73,0.18,132.89,0.32,133.04z M11.08,124.41c0.49,0,1,0.03,1.48,0.07
		c0.12,0.14,0.26,0.27,0.39,0.4c0.17,0.15,0.34,0.31,0.47,0.51c-0.27,1.4-1.51,2.53-2.55,3.35c-2.76,2.18-6.51,3.9-9.8,4.49
		c-0.18-0.12-0.33-0.28-0.48-0.44c-0.14-0.15-0.28-0.3-0.44-0.42c-0.04-1.81,0.56-3.38,1.81-4.68
		C4.28,125.27,8.19,124.41,11.08,124.41z"/>
	<path fill="#1815B7" d="M84.43,148.64c1.97,1.28,4.2,1.99,6.27,1.99c2.72,0,5.01-1.18,6.64-3.42c3.76-5.18,2.06-14.96-3.32-19.03
		c-1.46-1.11-3.94-2.44-7.53-2.44c-0.86,0-1.72,0.07-2.57,0.22c-3.8,0.64-5.78,3.63-5.72,8.64
		C78.27,138.38,79.16,145.22,84.43,148.64z M86.49,126.11c3.47,0,5.9,1.28,7.32,2.36c2.5,1.9,4.3,5.15,4.94,8.91
		c0.63,3.67-0.01,7.27-1.71,9.62c-1.54,2.13-3.73,3.25-6.33,3.25c-2.01,0-4.17-0.68-6.07-1.92c-5.14-3.33-5.99-10.04-6.04-13.74
		c-0.08-4.81,1.79-7.67,5.39-8.28C84.83,126.19,85.68,126.11,86.49,126.11z"/>
	<path fill="#1815B7" d="M-43.48,176.91c0.48-0.08,0.94-0.12,1.37-0.12c3.37,0,4.73,2.48,6.05,4.87c0.47,0.85,0.95,1.73,1.54,2.46
		l0.02,0.02c0.67,0.86,1.91,2.47,3.61,2.47c0.14,0,0.27-0.01,0.41-0.03c2.02-0.3,4.68-2.68,4.2-6.21c-0.38-2.79-2.24-4.83-5.88-6.43
		c-0.23-0.1-0.46-0.2-0.71-0.3c-1.7-0.72-3.31-1.4-4.04-2.97c-0.76-3.19-0.92-7.51-1.09-12.08l-0.01-0.22
		c-0.12-3.45-0.26-7.74-0.8-11.28c-1.01-6.62-4.4-10.58-10.39-12.09c-0.53-0.16-1.09-0.27-1.66-0.35l-0.14-0.02V135l0.11,0.02
		c0.49,0.07,1.01,0.18,1.6,0.33c5.82,1.46,9.13,5.31,10.12,11.79c0.51,3.37,0.66,7.32,0.79,11.13l0,0.12
		c0.15,4.44,0.31,9.04,1.11,12.4c0.81,1.76,2.56,2.48,4.26,3.19c0.11,0.05,0.22,0.1,0.33,0.14c0.12,0.05,0.24,0.1,0.37,0.16
		c3.5,1.52,5.3,3.47,5.65,6.14c0.45,3.28-2.01,5.51-3.88,5.79c-0.12,0.02-0.24,0.03-0.37,0.03c-1.47,0-2.56-1.36-3.28-2.26
		l-0.07-0.08c-0.54-0.7-1.02-1.54-1.51-2.43c-1.38-2.49-2.81-5.06-6.37-5.06c-0.44,0-0.92,0.04-1.41,0.12
		c-2.16,0.35-4.58,1.49-7.4,3.49l-0.05,0.04v0.46l0.2-0.14C-47.99,178.38-45.6,177.24-43.48,176.91z"/>
	<path fill="#1815B7" d="M-47.83,165.97c2.65-2.91,4.06-7.21,3.88-11.82c-0.18-4.43-1.85-8.49-4.47-10.87
		c-0.76-0.54-1.58-0.93-2.42-1.14l-0.16-0.04v0.37l0.09,0.02c0.76,0.19,1.52,0.55,2.24,1.05c2.55,2.32,4.17,6.28,4.33,10.6
		c0.18,4.49-1.2,8.71-3.78,11.57c-0.77,0.85-1.69,1.64-2.84,2.44l-0.05,0.04v0.44l0.19-0.13
		C-49.63,167.72-48.66,166.89-47.83,165.97z"/>
	<path fill="#1815B7" d="M25.06,154.74l0.02,0.02c1.78,4.18,3.83,8.19,6.11,11.93c0.96,1.59,2.02,3.26,3.38,4.62
		c3.26,3.26,8.92,5.54,13.76,5.54c2.68,0,4.93-0.67,6.69-2c2.94-2.24,4.17-5,3.65-8.21c-0.12-0.78-0.46-1.71-0.79-2.51
		c-2.5-6.23-8.38-12.77-12.66-16.47c-2.95-2.55-5.4-4.03-7.27-4.4c-0.4-0.09-0.83-0.13-1.32-0.13c-5.14,0-11.46,5.23-11.85,9.84
		c0.02,0.2,0.06,0.43,0.13,0.68l0.03,0.14c0.06,0.29,0.12,0.56,0.09,0.86l0,0.03L25.06,154.74z M48.35,176.46
		c-4.75,0-10.3-2.23-13.5-5.43c-1.31-1.3-2.33-2.89-3.34-4.54c-2.2-3.6-4.25-7.59-6.07-11.86c0.03-0.4-0.06-0.76-0.15-1.07
		l-0.03-0.11c-0.04-0.17-0.08-0.35-0.1-0.49c0.39-4.42,6.52-9.47,11.49-9.47c0.44,0,0.85,0.04,1.24,0.12
		c1.82,0.37,4.21,1.83,7.1,4.32c4.25,3.68,10.08,10.17,12.55,16.33c0.26,0.66,0.66,1.65,0.78,2.44c0.48,3.08-0.7,5.72-3.53,7.84
		C53.11,175.81,50.93,176.46,48.35,176.46z"/>
	<path fill="#1815B7" d="M47.52,156.61c-2.59-2.36-5.67-4.06-8.04-4.43c-0.45-0.08-0.88-0.12-1.3-0.12c-1.5,0-2.71,0.47-3.61,1.41
		c-1.04,1.08-1.56,2.77-1.48,4.78c1.05,4.48,2.1,8.12,5.27,10.7c2,1.65,5.07,2.71,7.82,2.71c3.33,0,5.63-1.53,6.31-4.19
		c0.2-0.8,0.16-1.93,0.04-2.7C52.14,162.13,50.31,159.16,47.52,156.61z M39.43,152.54c4.87,0.78,11.93,6.87,12.76,12.27
		c0.1,0.71,0.14,1.8-0.06,2.55c-0.64,2.48-2.81,3.91-5.95,3.91c-2.65,0-5.62-1.03-7.58-2.62c-3.06-2.5-4.1-6.07-5.13-10.47
		c-0.08-1.86,0.41-3.45,1.38-4.48c0.8-0.84,1.93-1.27,3.34-1.27C38.56,152.43,38.98,152.47,39.43,152.54z"/>
	<path fill="#1815B7" d="M57.95,204.34c-2.63,1.85-5.36,3.77-6.04,6.94c-0.4,2.25,0.18,4.39,1.7,6.19c2.12,2.53,5.99,4.16,9.86,4.16
		c2.53,0,4.75-0.67,6.44-1.95c1.33-1,2.27-2.42,3.19-3.79l0.16-0.24c0.94-1.85,1.25-4.07,1.59-6.43l0.01-0.09
		c0.27-1.94,0.58-4.14,1.32-6.29c0.43-1.21,0.87-2.25,1.34-3.3c1.36-3.09,2.53-5.77,1.97-12.42c-0.31-3.8-0.98-8.41-3.41-10.33
		l-0.09-0.03c-0.34-0.04-0.65-0.06-0.95-0.06c-0.66,0-1.32,0.1-2.09,0.31c-3.78,1.1-7.59,4.37-8.85,7.62
		c-0.9,2.29-0.53,4.81-0.17,7.25c0.32,2.21,0.63,4.3,0.02,6.12C62.97,200.83,60.43,202.61,57.95,204.34z M64.28,191.83
		c-0.36-2.39-0.73-4.86,0.14-7.05c1.21-3.15,4.92-6.33,8.61-7.4c0.73-0.2,1.36-0.29,1.99-0.29c0.28,0,0.57,0.02,0.86,0.05
		c2.27,1.84,2.93,6.32,3.24,10.02c0.54,6.57-0.62,9.2-1.96,12.24l-0.08,0.18c-0.42,0.96-0.85,1.96-1.26,3.15
		c-0.71,2.08-1.02,4.17-1.31,6.19l-0.02,0.17c-0.34,2.35-0.66,4.57-1.56,6.38l-0.13,0.21c-0.93,1.41-1.82,2.73-3.11,3.71
		c-1.6,1.22-3.75,1.86-6.22,1.86c-3.76,0-7.52-1.57-9.58-4.01c-1.44-1.71-1.99-3.75-1.61-5.89c0.64-3.01,3.17-4.79,5.84-6.67
		l0.06-0.04c2.51-1.76,5.1-3.57,6.1-6.51C64.93,196.2,64.62,194.08,64.28,191.83z"/>
	<path fill="#1815B7" d="M-34.97,199.51c-1.21,0-2.56,0.76-3.71,2.08c-1.39,1.62-2.16,3.73-1.92,5.26c0.55,2.6,2.92,3.96,4.97,3.96
		c1.44,0,2.69-0.62,3.52-1.75c1.65-2.27,1.2-7.02-0.84-8.77C-33.56,199.78-34.24,199.51-34.97,199.51z M-35.63,210.44
		c-1.9,0-4.1-1.26-4.61-3.66c-0.22-1.43,0.53-3.43,1.85-4.96c1.04-1.22,2.31-1.94,3.42-1.94c0.66,0,1.25,0.23,1.77,0.68
		c1.93,1.65,2.36,6.14,0.8,8.28C-33.16,209.87-34.31,210.44-35.63,210.44z"/>
	<path fill="#1815B7" d="M10.16,215.81c-0.08-0.14-0.15-0.28-0.17-0.43l-0.02-0.06l-0.05-0.06c-0.49-0.35-1.05-0.53-1.63-0.53
		c-0.88,0-1.8,0.42-2.46,1.13c-0.61,0.66-0.91,1.48-0.84,2.31l0.02,0.07c0.44,0.87,1.2,1.36,2.14,1.36c1.46,0,3.2-1.26,3.36-2.94
		l0-0.04c-0.04-0.22-0.14-0.41-0.24-0.6L10.16,215.81z M7.15,219.22c-0.78,0-1.44-0.41-1.8-1.13c-0.06-0.71,0.2-1.42,0.74-2
		c0.58-0.63,1.4-1.01,2.19-1.01c0.46,0,0.94,0.16,1.35,0.44c0.05,0.19,0.15,0.36,0.24,0.52l0.05,0.1c0.09,0.17,0.17,0.32,0.21,0.49
		C9.97,218.11,8.43,219.22,7.15,219.22z"/>
	<path fill="#1815B7" d="M170.07,58.23c1.57,0.76,3.33,1.16,5.08,1.16c0,0,0,0,0,0c1.43,0,2.79-0.26,4.04-0.77
		c1.42-0.6,2.61-1.48,3.54-2.61l0.17-0.2h-0.46l-0.04,0.04c-0.9,1.08-2.02,1.89-3.34,2.43c-1.22,0.5-2.54,0.75-3.93,0.75
		c-1.69,0-3.38-0.39-4.9-1.12c-0.9-0.43-1.74-1.1-2.59-2.06l-0.04-0.04h-0.49l0.18,0.21C168.15,57.01,169.09,57.76,170.07,58.23z"/>
	<path fill="#1815B7" d="M64.86,60.59l0.55,0.37c1.03,0.69,2.1,1.4,3.12,2.13c1.05,0.74,2.05,1.53,3.02,2.29l0.18,0.14
		c2.48,1.94,4.83,3.78,7.45,4.65c2.89,1.45,5.71,2.18,8.37,2.18c2.21,0,4.33-0.51,6.32-1.51c4.97-2.5,8.87-8.06,10.44-14.89
		l0.04-0.15h-0.38l-0.02,0.1c-1.56,6.71-5.39,12.17-10.24,14.61c-1.94,0.97-4,1.46-6.15,1.46c-2.6,0-5.36-0.72-8.24-2.15
		c-2.54-0.85-4.86-2.66-7.32-4.59l-0.28-0.22c-0.95-0.74-1.94-1.5-2.98-2.24c-1.19-0.84-2.41-1.66-3.67-2.49l-0.06-0.04
		c-2.22-1.47-4.31-2.86-6.18-4.41l-0.03-0.03H58.2l0.26,0.22C60.45,57.69,62.79,59.23,64.86,60.59z"/>
	<path fill="#1815B7" d="M115.8,68.18c1.46,0,2.97-0.25,4.05-0.44l0.06,0c0.26-0.04,0.52-0.06,0.8-0.06c1.11,0,2.27,0.34,3.3,0.64
		c0.56,0.17,1.15,0.34,1.72,0.45c0.36,0.09,0.72,0.16,1.07,0.22l0.3,0.06c1.67,0.32,3.74,0.72,5.53,1.54
		c0.64,0.3,1.34,0.61,2.09,0.92c3.4,1.47,6.92,2.98,9.2,5.95c0.14,0.19,0.27,0.37,0.4,0.55c1.58,2.33,2.94,4.83,4.32,7.39
		c1.43,2.64,3.05,5.62,4.95,8.29c1.85,2.6,4.39,5.54,6.64,8.13c0.91,1.05,1.65,1.92,2.35,2.74c3.77,4.46,7.34,8.68,13.94,8.68h0.01
		c1.64,0,3.44-0.26,5.48-0.8c5.68-1.53,15.72-5.34,19.16-13.66c0.9-2.16,1.5-5.17,2.13-8.34l0.07-0.37
		c0.47-2.36,0.96-4.79,1.58-6.82l0.01-1.23l-0.24,0.76c-0.7,2.19-1.23,4.86-1.74,7.44l-0.04,0.21c-0.63,3.13-1.22,6.09-2.1,8.22
		c-3.38,8.15-13.3,11.92-18.92,13.44c-1.97,0.53-3.73,0.79-5.39,0.79c-6.45,0-9.95-4.16-13.65-8.56c-0.52-0.61-1.05-1.23-1.6-1.86
		l-0.83-0.95c-2.34-2.71-4.75-5.51-6.56-8.03c-1.84-2.59-3.38-5.43-4.88-8.18l-0.04-0.07c-1.26-2.34-2.7-4.99-4.34-7.41
		c-0.12-0.2-0.28-0.4-0.42-0.58c-2.34-3.03-5.9-4.57-9.34-6.06c-0.81-0.35-1.49-0.65-2.08-0.92c-1.77-0.82-3.7-1.2-5.57-1.57
		l-0.05-0.01c-0.46-0.09-0.91-0.18-1.37-0.28c-0.48-0.1-0.98-0.24-1.47-0.38l-0.32-0.09c-1.08-0.31-2.2-0.64-3.32-0.64
		c-0.3,0-0.62,0.03-0.86,0.06l-0.05,0.01c-1.29,0.22-2.67,0.43-3.99,0.43c-2.68,0-4.34-0.88-5.08-2.68
		c-0.79-1.88-0.52-5.1-0.28-7.93c0.04-0.44,0.07-0.84,0.1-1.24l0.01-0.13h-0.37l-0.01,0.12c-0.01,0.13-0.02,0.27-0.03,0.4
		c-0.02,0.27-0.04,0.54-0.06,0.82c-0.23,2.73-0.51,6.12,0.3,8.1C111.19,67.22,112.96,68.18,115.8,68.18z"/>
	<path fill="#1815B7" d="M159.39,59.61l0.02,0.03c3.53,4.79,9.82,7.65,16.81,7.65c1.71,0,3.4-0.18,5.01-0.52
		c6.66-1.47,8.34-6.29,9.12-10.81l0.03-0.15H190l-0.02,0.1c-0.32,1.83-0.71,3.26-1.24,4.49c-1.41,3.25-3.82,5.15-7.58,6
		c-1.55,0.34-3.21,0.52-4.94,0.52c-6.85,0-13.02-2.8-16.5-7.49c-0.42-1.07-0.75-2.38-1.03-3.52l-0.02-0.1h-0.38l0.04,0.15
		C158.7,57.52,159.03,58.68,159.39,59.61z"/>
	<path fill="#1815B7" d="M125.85,62.18c3.23,0.46,6.42,1.47,8.99,2.28c1.83,0.58,3.77,1.18,5.76,1.66c1.19,0.28,2.44,0.53,3.62,0.71
		c1.16,0.17,2.17,0.26,2.98,0.26c1.76,0,2.83-0.38,3.17-1.13c0.9-1.94,1.56-6.05,1.6-10.01l0-0.13h-0.37l0,0.12
		c-0.04,3.89-0.68,7.94-1.56,9.87c-0.27,0.6-1.23,0.9-2.84,0.9c-0.85,0-1.83-0.08-2.93-0.25c-1.16-0.18-2.4-0.42-3.58-0.71
		c-1.91-0.46-3.8-1.04-5.73-1.65l-0.29-0.09c-2.81-0.87-5.72-1.77-8.78-2.21c-3.03-0.43-5.49-2.53-6.93-5.92l-0.03-0.08h-0.4
		l0.07,0.17C120.08,59.51,122.65,61.71,125.85,62.18z"/>
	<path fill="#1815B7" d="M151.06,72.52c0.57,7.06,3.06,12.83,8.59,19.91c1.12,1.43,2.18,2.89,3.15,4.26l0.18,0.24
		c1.66,2.28,3.23,4.43,5.05,6.47c2.84,3.19,6.42,4.81,10.64,4.81c4.88,0,10.35-2.27,15.02-6.23c4.82-5.22,5.55-12.11,5.88-18.73
		c0.03-0.52,0.04-1.04,0.05-1.62l0-0.05c0.07-2.61,0.16-5.86,1.43-7.46c0.97-1.22,2.19-2.33,3.85-3.49l0.05-0.04v-0.44l-0.2,0.14
		c-1.18,0.82-2.7,1.97-4,3.62c-1.32,1.66-1.42,4.95-1.5,7.59l0,0.12c-0.01,0.25-0.02,0.5-0.02,0.74c-0.01,0.31-0.02,0.6-0.03,0.88
		c-0.32,6.55-1.03,13.38-5.76,18.5c-4.61,3.9-9.99,6.14-14.76,6.14c-4.09,0-7.58-1.58-10.36-4.7c-1.87-2.1-3.46-4.28-5.21-6.71
		c-0.92-1.28-2.01-2.78-3.16-4.26c-5.49-7.04-7.96-12.76-8.5-19.73c-0.19-1.69,0.25-3.69,2.09-4.22c3.44,0.2,7.14,1.36,10.75,2.49
		l0.06,0.02c4.04,1.26,8.21,2.57,12.14,2.57c0.67,0,1.37-0.04,2.1-0.13c0.36-0.05,0.74-0.1,1.14-0.14
		c3.87-0.49,9.17-1.16,12.21-3.52c3-2.3,3.14-6.12,3.32-10.54c0.01-0.32,0.03-0.64,0.04-0.96c0.02-0.6,0.04-1.22,0.08-1.82
		c0.01-0.07,0.02-0.13,0.02-0.19l0.02-0.22h-0.38v0.12c0,0.04,0,0.08,0,0.12c0,0.04,0,0.08,0,0.12c-0.08,0.81-0.11,1.62-0.14,2.4
		l-0.02,0.42c-0.16,4.33-0.29,8.07-3.15,10.26c-3.01,2.32-8.24,2.97-12.07,3.45c-0.14,0.02-0.27,0.04-0.41,0.06
		c-0.24,0.03-0.48,0.07-0.71,0.09c-0.63,0.09-1.32,0.13-2.05,0.13c-3.87,0-8.01-1.3-12.01-2.55l-0.28-0.09
		c-3.55-1.11-7.23-2.25-10.7-2.45l-0.06,0.01l-0.01,0.01C151.39,68.51,150.87,70.68,151.06,72.52z"/>
	<path fill="#1815B7" d="M196.91,117.91l0.07-0.06c1.45-1.14,3.33-2,5.32-2.91c0.88-0.39,1.75-0.8,2.59-1.22l0.07-0.03v-0.41
		l-0.18,0.09c-0.81,0.4-1.7,0.82-2.63,1.24c-2.03,0.92-3.94,1.79-5.37,2.96l-0.04,0.02c-0.84,0.66-2.1,1.67-1.96,3.12l0.02,0.06
		l0.06,0.05c0.29,0.21,0.52,0.47,0.67,0.64l0.03,0.07h0.08c1.53,0.31,3.07,0.46,4.58,0.46c1.52,0,3.08-0.16,4.65-0.48l0.1-0.02
		v-0.37l-0.15,0.03c-2.95,0.62-6.07,0.63-9.05,0.04c-0.16-0.18-0.37-0.4-0.61-0.61C195.07,119.41,196.09,118.58,196.91,117.91z"/>
	<path fill="#1815B7" d="M204.84,60.15h0.12v-0.37h-0.12c-1.27,0-2.48-1.34-2.59-2.86c-0.04-0.33-0.04-0.63-0.01-0.96l0.01-0.14
		h-0.37l-0.01,0.12c-0.03,0.39-0.03,0.71,0,1.01C202,58.65,203.39,60.15,204.84,60.15z"/>
	<path fill="#1815B7" d="M185.46,78.74c-0.77,0-1.59,0.08-2.45,0.25c-1.79,0.36-3.69,0.9-5.8,1.53l-0.31,0.09
		c-2.2,0.64-4.47,1.3-6.64,1.67c-2.19,0.4-3.13,1.38-2.88,3l0.01,0.05c0.69,1.43,1.22,3.03,1.78,4.71l0.13,0.4
		c1.3,3.99,2.65,8.13,5.95,10.29c1.56,1.01,3.46,1.55,5.5,1.55c3.29,0,6.67-1.38,9.06-3.69c1.95-1.92,3.38-5.03,3.81-8.32
		c0.47-3.49-0.24-6.79-1.93-9.05C190.56,79.69,188.17,78.74,185.46,78.74z M185.46,79.1c2.59,0,4.86,0.89,5.93,2.34
		c3.62,4.83,1.95,13.18-1.85,16.87c-2.3,2.25-5.59,3.6-8.79,3.6c-1.98,0-3.81-0.52-5.31-1.51c-3.2-2.08-4.52-6.15-5.81-10.07
		l-0.01-0.04c-0.59-1.82-1.14-3.54-1.89-5.1c-0.2-1.4,0.62-2.21,2.58-2.55c2.26-0.41,4.6-1.07,6.99-1.78
		c2.04-0.6,3.96-1.16,5.76-1.52C183.88,79.18,184.68,79.1,185.46,79.1z"/>
	<path fill="#1815B7" d="M107.72,169.67c3.68-1.88,4.68-5.24,5.75-8.79l0.01-0.04c0.1-0.29,0.19-0.6,0.28-0.9l0.06-0.21
		c1.53-4.99,3.74-10.04,9.5-13.2l0.03-0.02l0.03-0.05c0.03-0.04,0.08-0.09,0.12-0.14c1.19-0.63,2.39-1.26,3.58-1.9l1.14-0.6
		c1.72-0.91,3.5-1.84,5.25-2.74c0.47-0.25,0.95-0.5,1.42-0.75c0.44-0.24,0.88-0.47,1.32-0.7c1.53-0.82,2.9-1.55,4.28-2.24
		c0.95-0.46,1.81-1.09,2.64-1.7l0.23-0.17c0.18-0.13,0.36-0.27,0.54-0.4c0.69-0.51,1.62-1.15,2.67-1.55
		c1.82-0.72,3.83-0.81,5.77-0.91l0.2-0.01c1.92-0.08,3.65-0.18,5.29-0.66c1.59-0.46,2.79-0.9,3.75-2.31
		c3.07-4.48,1.53-7.83-0.99-12.06c-2.64-4.41-5.84-7.85-9.53-10.22c-0.65-0.42-1.35-0.75-2.03-1.06l-0.05-0.02
		c-0.79-0.37-1.56-0.74-2.25-1.22c-0.72-0.49-1.41-1.03-2.09-1.55l-0.41-0.32c-0.59-0.46-1.2-0.93-1.82-1.39
		c-2.67-1.93-5.88-4.07-9.47-5.33c-0.95-0.34-2.17-0.51-3.62-0.51c-1,0-2.04,0.09-2.91,0.26c-1.15,0.22-2.08,0.73-2.98,1.23
		c-0.43,0.23-0.85,0.46-1.25,0.66c-0.38,0.17-0.78,0.31-1.16,0.45l-0.27,0.1c-0.61,0.2-1.26,0.44-1.87,0.77
		c-1.5,0.82-2.97,1.79-4.23,2.64c-1.23,0.82-2.63,1.75-4.05,2.54c-6.55,3.68-12.16,5.76-17.66,6.55c-3.64,0.53-7.38,0.47-10.96-0.2
		c-1.45-0.26-2.95-0.68-4.41-1.08l-0.37-0.1c-2.67-0.74-5.42-1.5-8.14-1.5c-1.55,0-2.92,0.23-4.19,0.71
		c-2.61,0.96-4.93,2.94-7.38,5.03l-0.35,0.3c-1.16,0.98-2.35,2-3.65,2.96c-0.32,0.23-0.72,0.51-1.17,0.82L52,118.37
		c-0.96,0.68-2.05,1.45-3.02,2.26c-2.04,1.74-2.6,3.35-1.93,5.53c0.57,1.82,1.56,3.69,2.53,5.5c0.62,1.19,1.23,2.35,1.73,3.49
		c0.31,0.66,0.61,1.35,0.92,2.04c0.15,0.35,0.31,0.7,0.46,1.04l0.05,0.11c2.75,6.23,5.59,12.68,9.72,17.86
		c1.49,1.87,3.28,3.67,5.01,5.41l0.64,0.64c1.67,1.66,3.24,3.22,4.5,4.81c0.66,0.8,1.21,1.67,1.75,2.51
		c1.09,1.7,2.23,3.46,4.08,4.64l0.05,0.02l0.65-0.05c6.85-0.41,12.77-0.76,19.08-1.91C102.76,171.45,105.95,170.57,107.72,169.67z
		 M78.58,173.85c-1.76-1.15-2.85-2.84-3.9-4.48c-0.54-0.84-1.11-1.74-1.77-2.55c-1.33-1.65-2.97-3.3-4.81-5.12l-0.36-0.36
		c-1.73-1.74-3.52-3.54-4.99-5.39c-4.13-5.19-6.98-11.64-9.72-17.88l-0.13-0.29c-0.41-0.93-0.83-1.89-1.24-2.8
		c-0.55-1.21-1.2-2.45-1.76-3.51l-0.17-0.32c-0.93-1.79-1.81-3.48-2.32-5.12c-0.62-2.02-0.09-3.51,1.81-5.13
		c0.96-0.82,2.06-1.59,3.03-2.27l0.29-0.2c0.45-0.31,0.84-0.59,1.16-0.82c1.3-0.96,2.5-1.98,3.66-2.97l0.32-0.27
		c2.44-2.09,4.74-4.06,7.31-5.01c1.29-0.46,2.63-0.69,4.07-0.69c2.7,0,5.47,0.78,8.15,1.53c1.59,0.45,3.15,0.88,4.7,1.17
		c3.67,0.66,7.42,0.72,11.07,0.19c5.53-0.8,11.18-2.9,17.79-6.6c1.2-0.67,2.37-1.44,3.51-2.18l0.56-0.37
		c1.26-0.84,2.73-1.8,4.2-2.62c0.61-0.33,1.25-0.56,1.81-0.74c0.48-0.17,0.98-0.34,1.47-0.57c0.42-0.19,0.82-0.41,1.21-0.62
		l0.09-0.05c0.93-0.51,1.81-0.99,2.86-1.19c0.89-0.17,1.9-0.27,2.84-0.27c0.76,0,2.24,0.07,3.49,0.5c3.56,1.25,6.74,3.38,9.37,5.29
		c0.65,0.47,1.31,0.98,1.92,1.45l0.18,0.14c0.72,0.55,1.46,1.12,2.22,1.65c0.76,0.52,1.62,0.92,2.31,1.25l0.06,0.03
		c0.66,0.31,1.34,0.63,1.96,1.03c3.65,2.35,6.82,5.74,9.42,10.09c2.45,4.13,3.95,7.38,1,11.68c-0.89,1.32-1.98,1.71-3.55,2.17
		c-1.58,0.48-3.28,0.56-4.93,0.65l-0.28,0.01c-1.92,0.08-4.11,0.16-6.11,0.94c-1.03,0.4-1.92,1-2.73,1.59
		c-0.14,0.1-0.27,0.2-0.4,0.29c-0.09,0.07-0.17,0.13-0.26,0.2c-0.85,0.63-1.73,1.29-2.7,1.76c-1.48,0.72-3,1.53-4.3,2.23l-0.41,0.22
		c-0.76,0.41-1.56,0.83-2.34,1.23c-1.86,0.96-3.73,1.95-5.56,2.91l-0.83,0.43c-1.21,0.65-2.41,1.29-3.62,1.92l-0.03,0.02
		c-0.04,0.04-0.1,0.1-0.15,0.16c-5.84,3.24-8.08,8.36-9.63,13.4c-0.09,0.27-0.17,0.54-0.25,0.8l-0.1,0.32
		c-1.05,3.49-2.04,6.78-5.58,8.59c-1.78,0.91-4.94,1.78-9.38,2.58c-6.37,1.15-12.28,1.51-19.13,1.92L78.58,173.85z"/>
	<path fill="#1815B7" d="M110.96,152.2c3.33-7.98,9.15-18.3,17.96-22.15c1.58-0.69,3.12-0.83,4.75-0.98
		c0.65-0.05,1.3-0.12,1.96-0.21c2.6-0.37,5.41-0.89,8.59-1.58c0.31-0.06,0.62-0.13,0.93-0.2l0.45-0.1c2.42-0.53,5.62-2.06,6.68-4.6
		c0.78-1.87,0.67-3.58-0.32-5.09c-2.92-4.39-12.92-5.88-17.03-5.89h-0.08c-1.76,0-3.57,0.18-5.32,0.35l-0.15,0.01
		c-1.05,0.11-2.07,0.22-3.07,0.28c-1.73,0.12-3.15,0.62-4.9,1.71c-1.77,1.11-3.66,1.63-5.95,1.63c-1.75,0-3.56-0.29-5.31-0.58
		c-0.57-0.1-1.17-0.19-1.73-0.28c-2.4-0.36-5.01-0.52-8.22-0.52c-1.9,0-3.78,0.05-5.87,0.12l-1.22,0.03
		c-1.5,0.04-3.05,0.09-4.57,0.09c-3.51,0-6.35-0.21-8.94-0.67c-0.6-0.11-1.24-0.26-1.93-0.42l-0.65-0.15
		c-1.85-0.44-3.95-0.94-6.06-0.94c-1.21,0-2.28,0.15-3.26,0.44c-4.99,1.5-9.15,7.59-9.92,12.33c-0.28,1.77-0.24,3.59,0.12,5.73
		c0.59,3.31,1.38,6.25,2.15,9.09l0.23,0.88c2.41,8.98,5.99,14.28,13.21,19.56l0.3,0.23c3.84,2.81,7.15,5.23,10.85,6.4
		c1.85,0.6,4.14,0.91,6.61,0.91h0.01c3.24,0,6.55-0.57,8.86-1.52C106.23,163.61,108.42,158.32,110.96,152.2z M91.24,167.27
		c-2.41,0-4.66-0.31-6.51-0.89c-3.67-1.16-6.99-3.59-10.83-6.41l-0.22-0.17c-7.14-5.23-10.68-10.48-13.06-19.35l-0.23-0.88
		c-0.88-3.21-1.59-5.92-2.12-9.02c-0.35-2.11-0.38-3.89-0.1-5.6c0.74-4.62,4.79-10.56,9.64-12.04c1.01-0.29,2.04-0.43,3.16-0.43
		c2.12,0,4.22,0.51,6.08,0.95c0.87,0.21,1.7,0.41,2.47,0.55c2.6,0.46,5.46,0.67,9,0.67c1.7,0,3.6-0.04,5.8-0.12
		c1.8-0.06,3.83-0.12,5.86-0.12c3.13,0,5.72,0.16,8.16,0.52c0.44,0.07,0.86,0.14,1.28,0.21l0.56,0.09c1.82,0.28,3.55,0.55,5.26,0.55
		c2.37,0,4.33-0.53,6.15-1.67c1.68-1.05,3.05-1.53,4.73-1.66c0.95-0.08,1.92-0.17,3.08-0.28c1.67-0.18,3.6-0.37,5.43-0.37h0.08
		c4.05,0.01,13.88,1.46,16.72,5.71c0.93,1.4,1.03,3,0.29,4.75c-1,2.39-4.08,3.85-6.41,4.37c-0.45,0.1-0.91,0.2-1.38,0.3
		c-3.35,0.72-6.15,1.23-8.57,1.57c-0.71,0.1-1.41,0.16-1.93,0.2l-0.11,0.01c-1.63,0.16-3.16,0.31-4.77,1.01
		c-8.92,3.9-14.8,14.3-18.16,22.34c-2.52,6.05-4.69,11.28-10.62,13.72C97.72,166.71,94.46,167.27,91.24,167.27z"/>
	<path fill="#1815B7" d="M204.97,134.67l-0.11-0.02c-0.88-0.13-1.73-0.2-2.54-0.2h-0.05c-3.15,0-5.96,0.98-8.35,2.91l-0.05,0.07
		c-0.24,0.44-0.48,0.83-0.7,1.17l-0.08,0.12c-0.81,1.3-1.34,2.16-1.61,4.41c-0.19,1.71-0.12,3.46-0.06,5.16l0.01,0.26
		c0.08,2.02,0.16,4.11-0.19,6.16c-1.21,7.38-7.09,14.99-13.68,17.7c-0.63,0.25-1.5,0.58-2.09,0.7c-0.52,0.09-0.95,0.13-1.34,0.13
		c-3.8,0-4.67-3.77-5.52-7.42l-0.11-0.44c-0.16-0.68-0.33-1.38-0.52-2.03c-0.9-3.06-2.1-5.09-3.91-6.59
		c-1.82-1.48-4.25-2.45-7.9-3.13c-1.47-0.27-2.83-0.4-4.16-0.4c-2.53,0-4.95,0.47-8.09,1.57c-0.14,0.04-0.28,0.09-0.41,0.14
		c-1.67,0.56-3.24,1.1-4.33,2.78c-2.02,3.16-3.66,8.25-2.88,11.88c0.77,3.61,3.48,4.34,6.09,5.05c0.55,0.15,1.08,0.3,1.57,0.45
		c0.88,0.3,1.51,0.57,2.04,0.87c4.07,2.28,8.58,4.36,14.19,6.52c4.69,1.81,6.98,5.8,9.19,9.65l0.04,0.07
		c2.18,3.78,4.42,7.7,8.91,9.58c0.71,0.29,1.49,0.44,2.32,0.44c1,0,2.1-0.21,3.29-0.63c3.19-1.11,6.06-4.54,8.21-7.4l0.09-0.12
		c3.3-4.42,7.42-9.92,12.26-13.44l0.44-0.31v-0.46l-0.2,0.14c-0.06,0.05-0.12,0.09-0.19,0.13c-0.09,0.06-0.18,0.13-0.27,0.19
		c-4.93,3.58-9.08,9.15-12.42,13.63c-2.09,2.82-4.9,6.19-8.03,7.28c-1.14,0.39-2.2,0.59-3.17,0.59c-0.8,0-1.52-0.13-2.19-0.41
		c-4.4-1.84-6.61-5.7-8.74-9.44c-2.25-3.92-4.57-7.98-9.41-9.84c-5.61-2.17-10.1-4.24-14.14-6.51c-0.59-0.34-1.26-0.62-2.11-0.89
		c-0.4-0.13-0.83-0.25-1.25-0.36l-0.35-0.09c-2.62-0.73-5.09-1.41-5.81-4.77c-0.75-3.54,0.86-8.52,2.84-11.6
		c1-1.57,2.52-2.08,4.13-2.63c0.13-0.05,0.26-0.1,0.41-0.14c3.07-1.09,5.45-1.56,7.97-1.56c1.3,0,2.64,0.13,4.08,0.4
		c6.94,1.28,9.85,3.66,11.53,9.45c0.21,0.72,0.42,1.54,0.62,2.44c0.89,3.79,1.81,7.7,5.9,7.7c0.44,0,0.91-0.04,1.4-0.12
		c0.62-0.12,1.53-0.45,2.17-0.73c3.31-1.36,6.53-3.94,9.07-7.28c2.5-3.26,4.22-7.06,4.84-10.7c0.34-2.13,0.26-4.26,0.18-6.32
		c-0.07-1.73-0.14-3.53,0.06-5.27c0.24-2.14,0.72-2.93,1.53-4.23l0.18-0.29c0.18-0.3,0.39-0.64,0.61-1.02
		c2.31-1.87,5.04-2.82,8.12-2.82c0.81,0,1.65,0.07,2.5,0.21l0.15,0.02V134.67z"/>
	<path fill="#1815B7" d="M195.94,164.09c0.61-3.21,1.24-6.53,1.53-9.78c0.08-0.77,0.11-1.49,0.15-2.19l0.01-0.15
		c0.12-2.01,0.24-3.91,0.85-5.69c0.81-2.39,2.8-3.94,5.05-3.94c0.42,0,0.85,0.06,1.28,0.17l0.16,0.04v-0.38l-0.09-0.02
		c-0.44-0.11-0.89-0.16-1.34-0.16c-2.41,0-4.53,1.64-5.4,4.18c-0.62,1.82-0.74,3.74-0.87,5.78c-0.03,0.61-0.08,1.43-0.17,2.33
		c-0.28,3.23-0.91,6.54-1.52,9.75l-0.07,0.39c-0.56,3.03-1.09,5.89-1.2,8.17v0.1l0.08,0.05c0.36,0.27,0.79,0.56,1.31,0.56
		c0.12,0,0.22-0.02,0.3-0.05l0.04-0.02c1.08-0.62,2.24-1.19,3.35-1.74l0.33-0.16c1.64-0.79,3.49-1.68,5.19-2.83l0.05-0.04v-0.44
		l-0.2,0.13c-1.64,1.12-3.46,2-5.21,2.86l-0.12,0.06c-1.19,0.58-2.42,1.18-3.57,1.85c-0.05,0.01-0.1,0.01-0.15,0.01
		c-0.36,0-0.67-0.17-1.03-0.43c0.12-2.29,0.66-5.2,1.23-8.28L195.94,164.09z"/>
	<path fill="#1815B7" d="M152.42,162.07c-2.29,0-4.62,1.14-4.64,3.7l0,0.03c0.7,2.44,4.1,5.43,7.06,5.43c0.73,0,1.4-0.19,2.01-0.56
		c0.84-0.55,1.39-1.38,1.57-2.4c0.23-1.28-0.16-2.84-0.99-3.96C156.41,162.93,154.49,162.07,152.42,162.07z M154.84,170.86
		c-2.81,0-6.02-2.82-6.7-5.13c0.04-2.27,2.17-3.28,4.27-3.28c1.96,0,3.77,0.8,4.73,2.1c0.76,1.04,1.12,2.47,0.91,3.66
		c-0.16,0.91-0.65,1.65-1.41,2.15C156.13,170.69,155.53,170.86,154.84,170.86z"/>
	<path fill="#1815B7" d="M191.39,176.77c-0.22-0.08-0.47-0.13-0.73-0.13c-1.04,0-2.18,0.66-3.18,1.24l-0.19,0.11
		c-0.33,0.18-0.66,0.37-0.99,0.54c-0.14,0.08-0.29,0.15-0.44,0.22c-0.08,0.04-0.16,0.08-0.25,0.12c-3.45,1.69-8.17,4.01-7.83,9.58
		c0.48,1.75,1.94,3.51,4.12,3.51c0.18,0,0.38-0.02,0.65-0.06c3.87-1.6,6.18-6.08,7.76-9.8l0.13-0.29c0.71-1.67,1.52-3.56,1.06-4.94
		l-0.06-0.09L191.39,176.77z M190.11,181.64l-0.14,0.33c-1.56,3.66-3.84,8.06-7.53,9.59c-0.18,0.03-0.35,0.04-0.55,0.04
		c-1.96,0-3.31-1.62-3.76-3.2c-0.32-5.3,4.28-7.55,7.64-9.19c0.1-0.05,0.19-0.1,0.29-0.14c0.14-0.06,0.27-0.13,0.39-0.2
		c0.27-0.13,0.55-0.29,0.82-0.44c0.13-0.07,0.25-0.14,0.38-0.21c0.96-0.56,2.04-1.2,2.99-1.2c0.18,0,0.36,0.02,0.53,0.07
		C191.52,178.32,190.77,180.08,190.11,181.64z"/>
	<path fill="#1815B7" d="M145.96,217.11c-2.67,0-4.44,3.02-4.81,6c-0.28,2.2-0.21,4.62,0.17,6.63c0.38,1.99,1.18,2.99,2.85,3.57
		c0.38,0.13,0.84,0.25,1.35,0.35c0.89,0.19,1.63,0.27,2.34,0.27c1.92,0,3.32-0.67,4.16-1.98c0.97-1.49,0.82-4.93,0.58-6.72
		c-0.38-2.61-1.55-4.98-3.21-6.5C148.24,217.65,147.09,217.11,145.96,217.11z M145.95,217.48c1.03,0,2.1,0.51,3.19,1.5
		c1.63,1.53,2.75,3.81,3.07,6.28c0.27,1.88,0.36,5.16-0.51,6.49c-0.77,1.19-2.07,1.8-3.85,1.8c-0.7,0-1.47-0.09-2.26-0.26
		c-0.57-0.12-0.99-0.23-1.31-0.35c-1.54-0.52-2.25-1.42-2.59-3.29c-0.38-1.91-0.44-4.28-0.17-6.5
		C141.87,220.34,143.5,217.48,145.95,217.48z"/>
	<path fill="#1815B7" d="M-19.44,254.52c-2.5,1.31-5.44,1.52-8.29,1.72l-0.12,0.01c-1.28,0.08-2.64,0.18-3.93,0.37
		c-1.38,0.22-2.5,0.48-3.58,0.74l-0.03,0.01c-0.89,0.22-1.86,0.46-3,0.67c-2.21,0.39-4.4,0.68-6.25,0.92
		c-2.17,0.29-4.28,0.58-6.24,0.94l-0.1,0.02v0.37l0.15-0.03c2.01-0.38,4.19-0.67,6.25-0.94c2.04-0.26,4.15-0.53,6.25-0.91
		c1.04-0.18,1.93-0.4,2.79-0.61l0.25-0.06c1.06-0.26,2.17-0.53,3.57-0.76c1.13-0.17,2.32-0.26,3.47-0.35l0.42-0.03
		c2.93-0.19,5.95-0.39,8.55-1.75c3.31-1.73,3.65-6.1,2.53-9.66c-1.87-5.98-4.3-10.12-7.41-12.66c-1.26-1.01-2.47-2.23-3.45-3.21
		l-0.08-0.08c-2.21-2.19-4.49-4.45-7.47-5.64c-2.2-0.9-4.68-1.56-7.45-2.27c-1.4-0.36-3.05-0.8-4.6-1.28
		c-0.7-0.21-1.46-0.49-2.25-0.79c-0.43-0.16-0.89-0.32-1.35-0.48l-0.17-0.06l0,0.38l0.08,0.03c0.44,0.16,0.88,0.32,1.3,0.47
		l0.57,0.2c0.6,0.22,1.17,0.42,1.71,0.58c1.59,0.48,3.22,0.91,4.61,1.27l0.25,0.07c2.44,0.64,4.97,1.31,7.17,2.19
		c2.92,1.19,5.18,3.43,7.37,5.6l0.04,0.04c0.99,0.99,2.22,2.21,3.49,3.24c3.04,2.47,5.43,6.55,7.29,12.49
		C-16.03,248.74-16.34,252.91-19.44,254.52z"/>
	<path fill="#1815B7" d="M-45.29,252.49c1.42-0.44,2.9-0.85,4.28-1.24l0.07-0.02c2.67-0.75,5.43-1.53,8.07-2.69
		c2.64-1.15,5.31-2.49,6.51-5.2c1.56-3.56,0.05-7.37-4.03-10.19c-0.59-0.42-1.16-0.82-1.71-1.22l-0.29-0.21
		c-2.7-1.98-5.25-3.85-8.96-4.56c-2.27-0.42-5.74-0.72-9.52-0.81l-0.13,0v0.37l0.12,0c3.72,0.07,7.17,0.36,9.46,0.8
		c3.64,0.71,6.15,2.55,8.8,4.5l0.49,0.36c0.49,0.35,0.99,0.72,1.52,1.08c3.93,2.73,5.39,6.37,3.9,9.74
		c-1.14,2.61-3.74,3.91-6.31,5.01c-2.56,1.12-5.25,1.89-7.86,2.63l-0.24,0.07c-1.08,0.3-2.69,0.76-4.28,1.26
		c-1.79,0.58-3.63,0.94-5.51,1.29l-0.1,0.02v0.37l0.34-0.07C-48.88,253.42-47.05,253.06-45.29,252.49z"/>
	<path fill="#1815B7" d="M-45.89,265.26c1.18,0,2.35,0.03,3.6,0.07l0.39,0.01c1.33,0.05,2.74,0.11,4.18,0.11
		c1.53,0,2.87-0.06,4.1-0.19c2.54-0.26,4.89-0.78,7.08-1.29c0.2-0.04,0.39-0.08,0.59-0.13c0.36-0.08,0.72-0.16,1.09-0.23
		c0.5-0.12,0.87-0.2,1.25-0.27c4.28-0.91,8.71-1.85,12.34-4.31c4.27-2.89,4.81-8.92,2.87-13.08c-1.75-3.79-4.68-6.78-7.53-9.68
		c-2.34-2.38-4.76-4.83-6.49-7.75c-0.74-0.98-1.36-1.94-1.95-2.87l-0.14-0.22c-2.07-3.2-3.7-5.72-8.05-6.75
		c-8.27-1.93-15.41-3.59-16.73-11.79c-0.46-2.9,0.17-5.17,0.79-7.36l-0.12-0.03l0.13,0c0.5-1.77,0.97-3.43,0.86-5.33l-0.05-0.12
		l-0.03-0.02c-0.16-0.14-0.31-0.3-0.46-0.45l-0.3-0.31c-0.24-0.24-0.48-0.48-0.76-0.7l-0.04-0.04h-0.09
		c-0.5,0.04-0.99,0.1-1.51,0.21l-0.1,0.02v0.38l0.15-0.03c0.48-0.1,0.95-0.17,1.41-0.19c0.28,0.23,0.55,0.5,0.79,0.75l0.15,0.15
		c0.14,0.15,0.29,0.3,0.45,0.43c0.1,1.8-0.36,3.4-0.83,5.1l-0.03,0.12c-0.62,2.22-1.25,4.52-0.78,7.48
		c1.36,8.45,8.61,10.13,17.02,12.09c4.23,0.98,5.82,3.46,7.83,6.6c0.61,0.95,1.29,1.99,2.1,3.08c1.72,2.89,4.11,5.33,6.42,7.7
		l0.18,0.19c2.79,2.85,5.68,5.8,7.41,9.51c1.86,4.03,1.33,9.86-2.75,12.64c-3.62,2.44-8.18,3.4-12.2,4.25
		c-0.17,0.04-0.34,0.07-0.5,0.11c-0.25,0.06-0.5,0.11-0.75,0.16c-0.56,0.12-1.12,0.25-1.68,0.38l-0.11,0.02
		c-2.2,0.49-4.47,1-6.94,1.25c-1.19,0.12-2.5,0.18-4,0.18c-1.43,0-2.84-0.05-4.21-0.1c-1.34-0.05-2.72-0.1-4.07-0.1
		c-1.93,0-3.49,0.1-4.93,0.32l-0.11,0.02v0.37l0.14-0.02C-49.44,265.36-47.86,265.26-45.89,265.26z"/>
	<path fill="#1815B7" d="M40.68,238.44l0.21,0.11c0.35,0.17,0.69,0.33,0.96,0.54c1.37,0.99,2.55,2.37,3.31,3.36
		c1.9,2.47,3.02,4.85,3.75,7.97c1.05,4.43,3.83,6.19,8.27,7.73c2.55,0.88,5.36,1.34,8.11,1.34c1.42,0,2.79-0.12,4.08-0.36
		c4.81-0.86,7.9-3.77,8.46-8c0.12-0.88,0.28-1.79,0.44-2.65c0.65-3.56,1.33-7.24-0.77-10.57c-1.94-3.06-5.79-3.14-9.42-3.06
		l-0.57,0.01c-0.6,0.02-1.19,0.04-1.75,0.04c-1.09,0-1.95-0.05-2.71-0.17c-2.61-0.42-5.2-1.06-7.49-1.62l-0.36-0.09
		c-3.91-0.95-7.6-1.84-11.31-1.84c-0.76,0-1.56,0.04-2.37,0.13c-1.02,0.13-1.92,0.97-2.46,2.31c-0.45,1.14-0.68,2.84,0.16,3.86
		C39.6,237.9,40.15,238.18,40.68,238.44z M39.42,233.74c0.48-1.2,1.28-1.98,2.14-2.09c0.8-0.08,1.59-0.13,2.33-0.13
		c3.83,0,7.76,0.98,11.57,1.92l0.03,0.01c2.44,0.6,4.96,1.21,7.5,1.61c0.74,0.12,1.59,0.17,2.77,0.17c0.57,0,1.17-0.01,1.76-0.02
		c0.6-0.02,1.23-0.03,1.82-0.03c3.12,0,6.24,0.35,7.84,2.91c2.02,3.2,1.36,6.81,0.72,10.3l-0.06,0.31
		c-0.14,0.78-0.29,1.59-0.39,2.36c-0.55,4.06-3.52,6.86-8.16,7.7c-1.24,0.23-2.59,0.35-4.02,0.35c-2.73,0-5.5-0.45-8-1.31
		c-4.33-1.5-7.03-3.21-8.03-7.49c-0.76-3.18-1.9-5.6-3.83-8.1c-1.13-1.47-2.26-2.62-3.36-3.43c-0.25-0.19-0.55-0.34-0.84-0.49
		l-0.24-0.12c-0.58-0.27-1.13-0.55-1.47-0.95C38.92,236.51,38.88,235.08,39.42,233.74z"/>
	<path fill="#1815B7" d="M62.77,254.5c1.38,0,2.89-0.24,3.62-0.48c0.21-0.07,0.43-0.15,0.61-0.24c1.21-0.57,1.89-1.52,1.92-2.7
		c0.02-0.92-0.38-1.88-1.07-2.58c-0.68-0.71-1.58-1.1-2.53-1.1c-0.34,0-0.69,0.05-1.03,0.16c-1.36,0.42-4.19,2.04-5.02,3.8
		c-0.3,0.63-0.35,1.24-0.12,1.8C59.61,254.27,61.37,254.5,62.77,254.5z M62.77,254.13c-1.82,0-2.99-0.4-3.28-1.12
		c-0.2-0.47-0.16-0.97,0.1-1.49c0.8-1.66,3.55-3.23,4.8-3.6c0.29-0.09,0.61-0.13,0.93-0.13c0.85,0,1.65,0.35,2.26,0.98
		c0.63,0.64,0.99,1.51,0.96,2.32c-0.03,1.03-0.63,1.87-1.7,2.36c-0.21,0.1-0.39,0.17-0.57,0.23
		C65.59,253.9,64.13,254.13,62.77,254.13z"/>
	<path fill="#1815B7" d="M99.57,298.39l0-0.03c0.01-0.31,0.02-0.63-0.02-0.96c-0.23-1.91-1-4.24-1.82-6.71l-0.07-0.21
		c-0.83-2.51-1.7-5.1-2.11-7.59c-0.14-0.87-0.24-1.81-0.34-2.72l-0.07-0.64c-0.35-3.61-0.71-7.35-3.28-9.03
		c-1.15-0.77-2.85-1.13-5.32-1.13c-1.16,0-2.42,0.08-3.63,0.16l-2.34,0.16c-4.99,0.3-15.41,1.6-19.07,4.37
		c-5,3.79-5.59,10.26-5.51,16.1c0.58,7.17,5.18,11.15,11.14,15.61l0.03,0.03h0.62l-0.3-0.22c-5.95-4.46-10.55-8.42-11.13-15.43
		c-0.07-5.74,0.52-12.1,5.38-15.78c3.57-2.72,13.9-4,18.86-4.3c0.38-0.02,0.76-0.05,1.15-0.08l0.55-0.04
		c1.21-0.09,2.79-0.2,4.26-0.2c2.38,0,4.01,0.34,5.13,1.07c2.41,1.58,2.77,5.22,3.12,8.73l0.01,0.09c0.1,1.16,0.21,2.28,0.39,3.33
		c0.44,2.65,1.39,5.48,2.15,7.75l0.04,0.12c0.81,2.43,1.58,4.73,1.79,6.62c0.04,0.31,0.03,0.63,0.02,0.9l0,0.03
		c-0.01,0.3-0.02,0.58,0.02,0.85c0.23,1.85,0,4.06-0.67,6.4l-0.05,0.16h0.38l0.03-0.09c0.68-2.42,0.91-4.66,0.66-6.5
		C99.55,298.93,99.56,298.67,99.57,298.39z"/>
	<path fill="#1815B7" d="M-46.35,278.49c-1.55-0.47-2.98-0.63-4.52-0.51l-0.12,0.01v0.37l0.13-0.01c1.49-0.12,2.89,0.04,4.4,0.5
		c5.12,1.56,10.97,4.86,12.01,9.45c0.43,1.88,0.36,4.21,0.28,6.69l0,0.06c-0.06,1.55-0.12,3.31-0.04,5.03
		c0.09,1.94,0.03,3.82-0.18,5.59l-0.02,0.14h0.37l0.01-0.11c0.21-1.86,0.27-3.76,0.18-5.65c-0.08-1.83-0.02-3.63,0.04-5l0-0.06
		c0.08-2.5,0.16-4.86-0.28-6.77C-35.15,283.46-41.12,280.07-46.35,278.49z"/>
	<path fill="#1815B7" d="M92.38,294.21l-0.11-0.36c-0.61-2.05-1.3-4.37-1.64-6.7c-0.1-0.61-0.19-1.24-0.28-1.98l-0.01-0.04
		c-0.58-4.17-1.04-7.47-3.86-9.67c-1.92-1.5-5.5-2.39-9.56-2.39c-4.95,0-9.55,1.25-12.31,3.35c-4.55,3.44-4.74,9.5-4.09,13.99
		c0.99,4.77,4.4,7.22,8.71,10.32l0.05,0.03c2,1.43,4.07,2.91,6.21,4.84c0.02,0.01,0.04,0.03,0.06,0.05
		c0.04,0.04,0.08,0.08,0.12,0.11l0.03,0.02h0.61l-0.32-0.23c-0.05-0.04-0.1-0.08-0.15-0.12c-0.04-0.04-0.08-0.08-0.12-0.11
		c-2.12-1.93-4.3-3.49-6.21-4.87c-4.27-3.06-7.65-5.48-8.63-10.12c-0.64-4.37-0.48-10.28,3.97-13.64c2.69-2.04,7.2-3.26,12.08-3.26
		c3.98,0,7.47,0.86,9.33,2.31c2.7,2.1,3.14,5.31,3.7,9.37l0.01,0.09c0.05,0.35,0.1,0.7,0.15,1.06c0.04,0.3,0.08,0.61,0.13,0.92
		c0.38,2.53,1.13,5,1.73,6.98l0.03,0.11c0.43,1.42,0.83,2.76,1.03,3.86c0.45,2.37,0.28,5.03-0.47,7.47l-0.05,0.16h0.38l0.03-0.09
		c0.77-2.48,0.94-5.18,0.48-7.6C93.2,296.98,92.8,295.63,92.38,294.21z"/>
	<path fill="#1815B7" d="M10.55,299.9l-0.3-0.74c-1.15-2.83-2.24-5.5-3-8.14c-0.5-1.76-0.87-5.02-0.59-7.25
		c0.05-0.43,0.17-0.92,0.32-1.49c0.48-1.87,1.07-4.19-1.31-5.89l-0.03-0.02l-0.06-0.02c-0.28-0.03-0.56-0.05-0.84-0.05
		c-3.86,0-6.3,3.29-8.47,6.21c-0.64,0.87-1.17,1.59-1.74,2.26c-2.05,2.15-4.86,3.7-7.83,5.35l-0.1,0.05
		c-4.69,2.61-9.54,5.3-11.83,10.56c-0.67,1.5-1.25,3.29-1.76,4.86l-0.05,0.16h0.38l0.03-0.09c0.55-1.7,1.1-3.35,1.72-4.8
		c2.24-5.14,7.02-7.79,11.65-10.36l0.04-0.03c3.03-1.68,5.89-3.26,8.02-5.49c0.53-0.62,1.04-1.29,1.58-2.01l0.23-0.3
		c2.09-2.83,4.47-6.03,8.15-6.03c0.24,0,0.49,0.01,0.74,0.04c2.13,1.56,1.6,3.65,1.13,5.5l-0.02,0.07
		c-0.14,0.52-0.27,1.01-0.33,1.46c-0.27,2.31,0.1,5.63,0.6,7.39c0.71,2.49,1.72,4.99,2.79,7.62l0.26,0.63
		c0.83,2.02,1.71,4.18,2.47,6.32l0.03,0.08h0.38l-0.06-0.17C12.1,303.68,11.31,301.76,10.55,299.9z"/>
	<path fill="#1815B7" d="M75,276.65c-2.69,0-5.34,0.79-7.09,2.11c-2.28,1.71-3.65,3.78-3.39,8.8c1.55,6.36,8.45,9.79,14.14,9.79
		c0.79,0,1.5-0.06,2.17-0.17l0.06-0.01l0.03-0.03c0.79-0.64,1.53-1.43,2.26-2.42l0.03-0.07c2.09-6.44,1.99-11.8-0.28-14.71
		C81.29,277.85,78.4,276.65,75,276.65z M82.86,294.53c-0.72,0.94-1.41,1.69-2.13,2.3c-0.71,0.1-1.4,0.15-2.06,0.15
		c-5.56,0-12.28-3.32-13.77-9.46c-0.25-4.82,1.06-6.81,3.24-8.46c1.68-1.28,4.25-2.04,6.88-2.04c3.29,0,6.07,1.15,7.62,3.16
		C84.8,282.98,84.89,288.21,82.86,294.53z"/>
	<path fill="#1815B7" d="M49.76,305.38c-2.17-3.17-2.98-7.11-3.77-10.92l-0.03-0.17c-0.89-4.27-1.82-8.69-4.62-12.21
		c-1.47-1.85-3.28-2.57-5.6-2.23c-4.7,0.7-10.22,4.92-13.21,7.19c-3.35,3.49-4.62,7.71-3.87,12.91c0.28,1.89,0.8,3.88,1.32,5.74
		l0.03,0.09h0.38l-0.04-0.16c-0.55-1.98-1.07-3.91-1.32-5.73c-0.73-5.08,0.5-9.2,3.75-12.59c2.94-2.24,8.42-6.42,13.02-7.09
		c0.37-0.05,0.71-0.08,1.01-0.08c1.69,0,3.08,0.71,4.25,2.18c2.8,3.52,3.74,8.11,4.57,12.16c0.79,3.87,1.61,7.87,3.83,11.1
		l0.03,0.04c0.03,0.04,0.06,0.09,0.11,0.14l0.03,0.03h0.45l-0.17-0.2C49.86,305.52,49.81,305.44,49.76,305.38z"/>
	<path fill="#1815B7" d="M75.67,284.8c-0.47-0.79-1.22-1.26-2-1.26c-0.27,0-0.53,0.05-0.76,0.15l-0.04,0.03
		c-0.46,0.35-0.79,0.91-0.86,1.46c-0.04,0.39,0.08,0.77,0.36,1.07c0.16,0.12,0.31,0.27,0.46,0.44l0.06,0.04h0.03
		c0.23,0.09,0.47,0.13,0.72,0.13c0.82,0,1.57-0.47,2.04-1.28l0.02-0.06c0.02-0.16,0.01-0.32,0.01-0.48l0-0.18L75.67,284.8z
		 M73.65,286.49c-0.18,0-0.37-0.03-0.59-0.09c-0.14-0.15-0.29-0.3-0.42-0.4c-0.19-0.23-0.27-0.49-0.24-0.77
		c0.05-0.42,0.32-0.9,0.69-1.19c0.19-0.07,0.38-0.11,0.61-0.11c0.63,0,1.25,0.38,1.65,1.03c0,0.08-0.01,0.16-0.01,0.25
		c0,0.09,0,0.18-0.01,0.26C74.93,286.11,74.33,286.49,73.65,286.49z"/>
	<path fill="#1815B7" d="M-44.89,290.11c-1.51-1.85-2.9-2.59-5.96-3.17l-0.15-0.03v0.37l0.1,0.02c2.94,0.55,4.28,1.26,5.72,3.03
		c2.57,3.17,4.14,9.05,4.52,13.18c0.07,0.81,0.11,1.51,0.11,2.14v0.12h0.37v-0.12c0-0.7-0.03-1.43-0.1-2.18
		C-40.65,299.29-42.26,293.33-44.89,290.11z"/>
	<path fill="#1815B7" d="M39.73,302.7l-0.05-0.18c-1.59-5.11-3.39-10.9-8.39-10.9c-0.18,0-0.36,0-0.53,0.02
		c-1.64,0.13-3.1,0.9-4.22,2.21c-1.58,1.88-2.28,4.73-1.97,8.02c0.12,1.29,0.33,2.58,0.6,3.82l0.02,0.1h0.38l-0.03-0.15
		c-0.29-1.33-0.49-2.6-0.6-3.8c-0.29-3.21,0.38-5.97,1.89-7.75c1.05-1.24,2.42-1.96,4-2.09c0.17-0.01,0.32-0.02,0.47-0.02
		c4.72,0,6.48,5.67,8.04,10.68l0.09,0.29c0.3,0.97,0.59,1.89,0.89,2.75l0.03,0.08h0.4l-0.06-0.17
		C40.34,304.72,40.04,303.74,39.73,302.7z"/>
	<path fill="#1815B7" d="M8.26,304.45c-2.54-4.65-6.06-7.59-9.64-8.07c-0.78-0.12-1.58-0.17-2.46-0.17c-3.28,0-6.5,0.89-9.3,2.57
		c-2.73,1.66-4.96,4.01-6.46,6.81l-0.1,0.18h0.41l0.04-0.07c3.01-5.64,8.91-9.14,15.41-9.14c0.75,0,1.54,0.05,2.41,0.16
		c3.48,0.48,6.89,3.36,9.37,7.9c0.22,0.4,0.4,0.75,0.56,1.07l0.03,0.07h0.4l-0.08-0.18C8.64,305.17,8.45,304.79,8.26,304.45z"/>
	<path fill="#1815B7" d="M-50.7,301.45c-0.07,0-0.14,0-0.19,0.01l-0.1,0.02v0.34h0.29c0.87,0,1.59,0.57,2.03,1.61
		c0.27,0.68,0.42,1.47,0.41,2.24l0,0.13h0.38v-0.12c0-0.84-0.16-1.7-0.45-2.38C-48.84,302.1-49.69,301.45-50.7,301.45z"/>
	<path fill="#1815B7" d="M-3.95,303.39c-2.39,0-4.79,0.77-6.75,2.16l-0.32,0.23h0.63l0.03-0.02c1.87-1.29,4.14-1.99,6.41-1.99
		c2.23,0,4.31,0.69,6.02,1.99l0.03,0.03h0.6l-0.28-0.22C0.63,304.14-1.57,303.39-3.95,303.39z"/>
	<path fill="#1815B7" d="M164.57,300.49c-0.89-1.92-1.9-3.79-2.97-5.77l-0.53-0.97c-1.34-2.46-2.73-5.01-3.82-7.63
		c-0.63-1.49-1.2-3.1-1.83-4.91c-2.62-7.51-5.58-16.03-14.82-16.03h-0.36c-3.37,0.08-6.51,1.25-8.54,2.22
		c-0.44,0.19-0.93,0.42-1.53,0.71c-1.52,0.69-3.12,1.43-4.55,2.22c-4.12,2.27-8.84,3.39-13.42,4.47l-0.14,0.03
		c-0.39,0.1-0.8,0.19-1.24,0.27c-3.11,0.66-6.99,1.49-8.23,5.14c-0.94,2.79-0.09,6.31,0.73,9.72l0.08,0.34
		c0.28,1.14,0.53,2.22,0.71,3.25c0.67,3.88,0.71,7.51,0.12,10.79c-0.09,0.47-0.18,0.89-0.28,1.29l-0.04,0.15h0.38l0.02-0.09
		c0.11-0.44,0.19-0.85,0.27-1.3c0.59-3.35,0.55-7.03-0.12-10.92c-0.21-1.17-0.51-2.44-0.78-3.56c-0.82-3.38-1.67-6.87-0.75-9.57
		c1.17-3.45,4.93-4.25,7.97-4.89l0.57-0.13c0.24-0.05,0.46-0.1,0.68-0.15l0.07-0.01c4.61-1.08,9.38-2.19,13.6-4.52
		c1.43-0.79,3.07-1.55,4.51-2.22c0.39-0.17,0.77-0.35,1.15-0.53l0.38-0.18c1.63-0.78,4.89-2.1,8.41-2.18
		c0.11-0.01,0.24-0.01,0.34-0.01c0,0,0.01,0,0.01,0c8.97,0,11.89,8.4,14.47,15.82c0.59,1.73,1.18,3.4,1.82,4.92
		c1.16,2.76,2.61,5.41,4.01,7.97l0.02,0.04c1.13,2.06,2.3,4.2,3.3,6.38c0.96,2.11,2,3.82,3.08,5.08l0.04,0.04h0.5l-0.19-0.21
		C166.59,304.36,165.58,302.7,164.57,300.49z"/>
	<path fill="#1815B7" d="M201.64,271.98c0.6-0.22,1.65-0.51,2.57-0.7c0.21-0.04,0.43-0.08,0.64-0.11l0.11-0.01v-0.38l-0.15,0.03
		c-0.11,0.02-0.22,0.04-0.33,0.05c-0.11,0.02-0.23,0.04-0.35,0.06c-1,0.22-2.03,0.51-2.61,0.73c-7.58,2.86-12.63,8.26-14.62,15.6
		c-0.54,1.95-0.91,4.43-1.27,6.83l-0.05,0.36c-0.47,3.12-0.95,6.35-1.74,8.6c-0.36,0.99-0.83,1.82-1.43,2.53l-0.18,0.21h0.47
		l0.04-0.05c0.63-0.78,1.11-1.64,1.43-2.56c0.8-2.26,1.29-5.48,1.75-8.59l0.03-0.2c0.37-2.48,0.76-5.05,1.3-7.04
		C189.21,280.1,194.18,274.79,201.64,271.98z"/>
	<path fill="#1815B7" d="M53.3,298.57c-1.27-3.1-2.43-10.69-1.29-16.89c1.17-6.32,4.65-10.29,10.36-11.8
		c2.54-0.68,5.34-1.05,8.29-1.43c1.36-0.17,3.15-0.4,4.92-0.69l0.13-0.02c3.45-0.58,7.36-1.25,10.59-3.28
		c3.49-2.18,4.18-5.15,4.98-8.59l0.02-0.08c0.09-0.36,0.2-0.79,0.28-1.21c0.71-2.95,3.43-5.31,5.84-7.38l0.43-0.37
		c0.42-0.36,0.81-0.7,1.18-1.04c0.7-0.64,1.5-1.33,2.43-2.12c2.39-2.03,4.86-4.12,6.43-6.55c0.59-0.89,1.25-1.75,1.89-2.59
		l0.19-0.25c1.19-1.57,2.42-3.19,3.25-5.05c1.08-2.4,1.96-4.95,2.81-7.4l0.47-1.34c0.2-0.56,0.39-1.12,0.59-1.67
		c1.38-3.85,2.81-7.83,4.73-11.82l0.22-0.48c0.96-1.99,2.04-4.24,3.47-6.07c1.84-2.37,4.53-3.44,6.91-4.39
		c0.85-0.36,1.67-0.71,2.46-1.05c3.08-1.35,5.73-2.51,9.14-2.51c0.66,0,1.34,0.04,2.02,0.13c2.71,0.37,5.55,1.53,8.94,3.66
		c3.67,2.32,6.99,5.55,9.85,9.59c1.41,1.98,2.71,4.26,3.86,6.78c0.29,0.65,0.59,1.35,0.85,1.96c0.98,2.32,2.09,4.94,3.73,6.78
		c1.9,2.13,4.2,2.86,7.07,2.24c2.44-0.53,4.76-1.71,7.01-2.86l0.14-0.07c2.19-1.1,4.46-2.24,6.79-2.74c0.98-0.22,2-0.33,3.03-0.33
		c2.75,0,5.32,0.78,7.47,1.54l0.17,0.06v-0.38l-0.08-0.03c-2.15-0.77-4.74-1.56-7.58-1.56c-1.05,0-2.08,0.11-3.08,0.33
		c-2.51,0.56-5,1.84-7,2.87c-2.24,1.13-4.56,2.31-6.93,2.8c-0.63,0.14-1.23,0.2-1.8,0.2c-4.78,0-6.79-4.79-8.57-9.01l-0.84-1.97
		c-1.16-2.53-2.47-4.83-3.91-6.84c-2.91-4.08-6.26-7.33-9.95-9.67c-3.44-2.17-6.33-3.35-9.09-3.71c-0.7-0.09-1.4-0.14-2.08-0.14
		c-3.46,0-6.28,1.23-9.26,2.52c-0.94,0.42-1.72,0.75-2.45,1.05l-0.03,0.01c-2.42,0.98-5.16,2.1-7.04,4.52
		c-1.37,1.77-2.43,3.92-3.49,6.14l-0.24,0.48c-1.85,3.83-3.21,7.59-4.65,11.58l-0.09,0.26c-0.33,0.92-0.66,1.86-0.98,2.79
		l-0.12,0.36c-0.84,2.41-1.7,4.89-2.76,7.24c-0.78,1.79-1.97,3.36-3.12,4.88l-0.25,0.33c-0.65,0.85-1.32,1.73-1.92,2.64
		c-1.57,2.4-4.02,4.47-6.39,6.47l-0.52,0.45c-0.67,0.58-1.31,1.12-1.92,1.68c-0.43,0.39-0.95,0.85-1.54,1.33
		c-2.48,2.13-5.28,4.55-6.03,7.65c-0.07,0.28-0.13,0.56-0.19,0.83l-0.09,0.38c-0.78,3.39-1.46,6.33-4.85,8.45
		c-3.22,2.01-7.14,2.67-10.59,3.25c-1.32,0.23-2.67,0.41-3.97,0.58l-0.94,0.13c-3.08,0.39-5.83,0.77-8.34,1.42
		c-5.86,1.56-9.44,5.63-10.63,12.09c-1.15,6.3,0.03,13.98,1.32,17.1c1.04,2.52,2.79,4.76,5.5,7.04l0.04,0.03h0.59l-0.27-0.22
		C56.1,303.32,54.34,301.09,53.3,298.57z"/>
	<path fill="#1815B7" d="M204.85,253.35c-2.38,0.48-5.13,1.08-7.62,2.13c-3.76,1.54-6.52,4.2-9.19,6.77l-0.14,0.13
		c-2.79,2.71-5.43,5.28-8.88,6.28c-0.71,0.21-1.43,0.32-2.14,0.32c-3.75,0-6.82-2.99-9.78-5.88c-0.21-0.21-0.43-0.43-0.65-0.64
		c-1.81-1.75-3.97-3.07-6.05-4.34c-1.41-0.86-3.02-1.84-4.42-2.94c-1.08-0.84-2.24-1.64-3.23-2.32c-0.32-0.23-0.64-0.45-0.96-0.68
		c-0.41-0.29-0.82-0.57-1.22-0.86c-1.14-0.84-1.95-2.16-2.73-3.44l-0.25-0.41c-0.37-0.61-0.76-1.24-1.19-1.78
		c-1.39-1.78-3.32-3.11-5.18-4.4c-3.39-2.33-6.6-4.54-6.83-9.12c-0.13-2.73,0.49-6.13,1.69-9.33c1.15-3.02,3.33-6.3,5.98-9
		c1.79-1.82,3.61-2.66,5.37-2.52c3.19,0.28,5.92,3.66,7.95,6.58c1.22,1.76,1.7,3.47,2.16,5.13c0.28,1,0.59,2.06,1.06,3.21
		c0.39,0.95,0.85,1.89,1.3,2.79l0.24,0.49c0.75,1.48,1.68,3.32,2.24,5.23c0.89,3.07,1.07,7.51-0.31,10.06
		c-1.39,2.54-0.74,6.83,0.72,9.09c1.32,2.04,4.6,3.34,7.25,4.39c0.59,0.23,1.13,0.46,1.63,0.66c0.11,0.05,0.22,0.1,0.32,0.14
		c0.12,0.05,0.25,0.11,0.37,0.17l0.27,0.12c0.75,0.33,1.4,0.61,2.15,0.77c0.61,0.12,1.2,0.19,1.76,0.19c3.22,0,5.49-2.03,6.95-6.22
		c1.8-5.13,0.55-9.81-3.51-13.16c-1.18-0.97-2.54-1.72-3.85-2.45l-0.45-0.25c-0.51-0.28-1.04-0.58-1.54-0.88
		c-0.08-0.05-0.17-0.1-0.25-0.15c-0.08-0.04-0.15-0.09-0.23-0.14l-0.06-0.04c-1.74-1.04-3.9-2.34-5.09-3.83
		c-1.81-2.28-3.3-4.74-4.42-7.33c-0.59-1.37-1.07-2.83-1.49-4.11l-0.12-0.36c-0.31-0.92-0.63-1.86-0.99-2.83
		c-0.74-1.95-1.87-4-3.37-6.08c-1.93-2.62-5.4-6.13-8.85-7.42c-0.8-0.29-1.67-0.44-2.59-0.44c-2.26,0-4.92,0.91-7.68,2.64
		c-2.23,1.4-4.48,3.31-6.19,5.25c-2,2.28-3.33,5.15-4.36,7.65c-0.09,0.22-0.18,0.44-0.27,0.67c-0.18,0.46-0.36,0.92-0.55,1.36
		c-1.4,3.53-2.85,7.18-5.22,10.45c-0.7,0.98-1.29,2.03-1.87,3.04l-0.12,0.21c-0.11,0.19-0.22,0.38-0.32,0.57
		c-0.33,0.59-0.68,1.2-1.05,1.78c-1.24,1.93-3.14,3.1-5.02,4.07c-0.65,0.34-1.33,0.66-1.99,0.98l-0.64,0.31
		c-2.38,1.11-5.09,2.36-7.26,4.4c-1.37,1.3-1.92,2.69-1.63,4.13c0.48,2.37,3.08,4.11,5.34,4.95c2.06,0.77,4.43,1.14,7.26,1.14
		c2.61,0,5.25-0.32,7.58-0.6l1.74-0.18c2.01-0.2,4.08-0.41,6.11-1.56l0.29-0.16c0.22-0.12,0.43-0.25,0.65-0.37l0.09-0.05
		c2.97-1.68,5.53-3.14,8.92-3.89c0.83-0.19,1.77-0.29,2.71-0.29c1.84,0,3.45,0.38,4.54,1.06c0.92,0.56,1.32,1.43,1.75,2.36
		l0.04,0.09c0.27,0.6,0.55,1.23,0.97,1.79c1.62,2.12,3.8,3.79,5.9,5.4l0.23,0.17c2.08,1.58,4.23,3.22,5.84,5.29
		c0.92,1.16,1.69,2.59,2.44,3.97l0.16,0.29c0.75,1.41,1.61,3.01,2.59,4.24c1.46,1.8,3.32,2.75,5.38,2.75c0.74,0,1.5-0.12,2.27-0.36
		c2.52-0.79,5.3-2.91,7.99-4.97l0.46-0.35c0.28-0.21,0.55-0.42,0.82-0.62c1.45-1.09,2.88-2.26,4.13-3.28
		c3.64-2.95,7.09-5.75,10.95-7.31c1.38-0.56,3.03-1.01,5.17-1.43l0.1-0.02v-0.37l-0.15,0.03c-2.18,0.42-3.85,0.88-5.26,1.45
		c-3.87,1.56-7.29,4.33-10.92,7.26l-0.15,0.12c-1.24,1.01-2.65,2.15-4.1,3.25c-0.35,0.27-0.8,0.6-1.21,0.93l-0.14,0.1
		c-2.64,2.01-5.36,4.09-7.81,4.85c-0.73,0.23-1.46,0.34-2.16,0.34c-1.96,0-3.72-0.91-5.1-2.62c-0.91-1.13-1.7-2.56-2.55-4.17
		c-0.77-1.43-1.64-3.06-2.64-4.33c-1.73-2.18-3.99-3.9-5.98-5.41c-2.02-1.54-4.31-3.29-5.98-5.44c-0.36-0.48-0.62-1.03-0.87-1.57
		l-0.08-0.17c-0.46-1-0.89-1.94-1.9-2.58c-1.15-0.72-2.84-1.12-4.76-1.12c-0.96,0-1.92,0.1-2.77,0.29c-3.54,0.8-6.25,2.35-9.11,4
		c-0.28,0.15-0.62,0.34-0.94,0.54c-1.9,1.07-3.82,1.27-5.85,1.49l-0.4,0.04c-0.27,0.03-0.56,0.07-0.85,0.09l-0.65,0.09
		c-2.43,0.28-4.94,0.57-7.47,0.57c-2.79,0-5.13-0.37-7.15-1.12c-2.74-1.01-4.74-2.85-5.1-4.68c-0.27-1.3,0.25-2.57,1.53-3.78
		c2.07-1.96,4.65-3.17,7.16-4.35c0.95-0.43,1.84-0.86,2.66-1.28c1.91-0.99,3.86-2.19,5.15-4.21c0.47-0.74,0.91-1.52,1.33-2.27
		l0.06-0.11c0.59-1.07,1.21-2.17,1.95-3.19c2.34-3.24,3.74-6.73,5.21-10.43l0.04-0.11c0.1-0.24,0.19-0.48,0.29-0.73
		c0.17-0.43,0.34-0.87,0.53-1.31c1.02-2.47,2.33-5.3,4.28-7.54c4.71-5.34,10.34-7.77,13.58-7.77c0.88,0,1.71,0.14,2.47,0.42
		c3.36,1.24,6.77,4.7,8.67,7.29c0.83,1.11,2.36,3.37,3.34,5.98c0.37,0.97,0.7,1.96,1.01,2.91l0.08,0.26
		c0.48,1.49,0.93,2.83,1.5,4.14c1.12,2.6,2.62,5.09,4.46,7.41c1.27,1.58,3.57,2.95,5.25,3.95c0.12,0.06,0.23,0.13,0.35,0.2
		l0.15,0.09c0.38,0.23,0.77,0.45,1.17,0.67c0.23,0.13,0.47,0.26,0.7,0.4c1.34,0.73,2.72,1.49,3.93,2.48
		c3.94,3.25,5.15,7.78,3.41,12.77c-1.66,4.72-4.37,6.59-8.31,5.79c-0.77-0.16-1.45-0.46-2.34-0.86l-0.16-0.07
		c-0.17-0.08-0.35-0.15-0.53-0.25c-0.2-0.08-0.42-0.17-0.64-0.26c-0.32-0.13-0.66-0.26-1-0.4l-0.03-0.01
		c-2.58-1.02-5.79-2.3-7.04-4.23c-1.39-2.17-2.03-6.28-0.71-8.72c1.42-2.63,1.25-7.2,0.34-10.34c-0.5-1.75-1.31-3.4-2.1-5l-0.15-0.3
		c-0.41-0.81-1.02-2.04-1.53-3.27c-0.42-1.02-0.71-2-0.99-2.95l-0.07-0.22c-0.48-1.7-0.97-3.45-2.22-5.25
		c-2.09-2.99-4.92-6.46-8.22-6.73c-1.88-0.15-3.8,0.72-5.66,2.61c-2.69,2.73-4.9,6.05-6.07,9.13c-1.23,3.27-1.86,6.72-1.72,9.49
		c0.23,4.74,3.67,7.11,6.98,9.4l0.06,0.04c1.83,1.27,3.73,2.58,5.06,4.29c0.46,0.57,0.86,1.22,1.27,1.92l0.15,0.25
		c0.8,1.3,1.62,2.64,2.81,3.52c0.77,0.56,1.51,1.08,2.19,1.54l0.5,0.36c0.9,0.63,1.83,1.29,2.71,1.97c1.4,1.1,2.91,2.02,4.46,2.95
		l0.12,0.08c2.03,1.25,4.12,2.54,5.87,4.23c0.14,0.13,0.27,0.25,0.4,0.38c0.08,0.08,0.17,0.17,0.26,0.25l0.03,0.02
		c3.01,2.93,6.13,5.96,10.02,5.96c0.74,0,1.49-0.11,2.23-0.33c3.55-1.03,6.22-3.63,9.05-6.38c2.67-2.6,5.44-5.29,9.16-6.85
		c2.43-1.01,5.05-1.59,7.53-2.09l0.1-0.02v-0.37L204.85,253.35z"/>
	<path fill="#1815B7" d="M191.23,272.77l0.27-0.21c3.89-3.01,7.57-5.86,12.42-6.82c0.31-0.07,0.63-0.12,0.94-0.17l0.11-0.02v-0.37
		l-0.14,0.02c-0.27,0.04-0.54,0.09-0.81,0.14l-0.18,0.03c-4.94,0.98-8.65,3.87-12.58,6.92l-0.25,0.19
		c-2.85,2.22-4.99,4.19-6.53,6.03c-1.52,1.82-2.66,4.01-3.77,6.13l-0.07,0.13c-1.73,3.34-3.37,6.49-6.1,7.28
		c-0.49,0.15-1.01,0.22-1.53,0.22c-2.44,0-4.74-1.58-6.24-2.9c-2.25-1.98-4.36-4.86-5.37-7.34c-0.71-1.7-1.17-3.49-1.62-5.22
		l-0.04-0.14c-0.46-1.75-0.93-3.56-1.66-5.26c-1.69-4.01-4.98-6.64-8.17-9.18c-0.54-0.43-1.11-0.89-1.66-1.34
		c-2.54-2.09-5.4-3.19-8.28-3.19c-2.08,0-4.09,0.57-5.95,1.69c-1.04,0.63-2.1,1.34-3.27,2.14c-3.11,2.11-6.34,4.29-9.71,4.89
		c-3.52,0.63-6.64,0.93-9.53,0.93c-1.95,0-3.8-0.15-5.51-0.43c-5.46-0.9-7.98-1.97-9.21-8.44c-0.69-3.69,0.43-7.29,2.91-9.39
		c1.11-0.95,2.19-1.98,3.2-2.97c1.53-1.49,3.1-3.04,4.93-4.31c0.53-0.36,1.11-0.74,1.74-1.14l0.34-0.22
		c2.73-1.72,5.82-3.68,7.01-6.45c1.13-2.64,1.75-5.53,2.35-8.33l0.07-0.34c0.54-2.5,1.09-5.09,2.04-7.49
		c0.88-2.26,1.98-4.41,3.26-6.39c0.27-0.42,0.52-0.85,0.79-1.31l0.15-0.26c0.6-1.04,1.23-2.11,1.96-2.94
		c2.54-2.88,6.25-4.23,9.85-5.54c0.5-0.19,0.96-0.36,1.42-0.51c0.53-0.2,1.07-0.48,1.61-0.75l0.34-0.17c1.15-0.6,2.19-1.1,3.17-1.24
		c0.38-0.05,0.77-0.08,1.15-0.08c2.83,0,5.33,1.49,7.4,2.94l0.3,0.21c0.32,0.22,0.63,0.44,0.94,0.65l0.13,0.09
		c2.67,1.87,5.19,3.64,7.22,6.49c1.3,1.8,2.44,3.89,3.39,6.22c0.29,0.72,0.57,1.48,0.86,2.27c0.11,0.31,0.23,0.62,0.35,0.95
		c2.02,5.58,4.31,11.9,10.34,13.77c0.67,0.21,1.38,0.31,2.13,0.31c2.74,0,5.58-1.4,8.36-2.77c2.06-1.02,4.01-1.98,5.9-2.39
		c2.12-0.46,5.76-0.72,9.97-0.72c0.82,0,1.65,0.01,2.47,0.03l0.13,0v-0.37l-0.12,0c-0.84-0.02-1.69-0.03-2.53-0.03
		c-4.23,0-7.86,0.26-9.96,0.71c-1.92,0.41-3.88,1.36-5.94,2.38l-0.12,0.06c-2.7,1.33-5.5,2.7-8.14,2.7c-0.71,0-1.39-0.1-2.02-0.3
		c-5.84-1.82-8.1-8.04-10.09-13.52l-0.27-0.73c-0.33-0.89-0.63-1.73-0.96-2.55c-0.91-2.28-2.07-4.4-3.43-6.28
		c-2.13-2.96-4.71-4.76-7.44-6.67c-0.22-0.15-0.43-0.3-0.64-0.45c-0.2-0.14-0.4-0.28-0.6-0.42c-2.1-1.49-4.65-3.01-7.6-3.01
		c-0.4,0-0.81,0.03-1.21,0.09c-1.09,0.15-2.2,0.73-3.28,1.28c-0.75,0.4-1.36,0.69-1.91,0.89l-0.46,0.17
		c-0.31,0.12-0.63,0.23-0.95,0.35c-3.45,1.24-7.37,2.64-10,5.63c-0.75,0.86-1.42,2-2,3c-0.35,0.61-0.64,1.11-0.93,1.56
		c-1.26,1.92-2.37,4.08-3.31,6.44c-0.99,2.54-1.56,5.22-2.1,7.82l-0.02,0.07c-0.6,2.78-1.21,5.66-2.33,8.27
		c-1.16,2.71-4.34,4.71-6.89,6.31l-0.14,0.09c-0.69,0.44-1.34,0.85-1.93,1.27c-1.92,1.34-3.63,3.01-5,4.35l-0.22,0.22
		c-0.94,0.91-1.91,1.85-2.94,2.72c-2.59,2.19-3.75,5.93-3.05,9.75c1.25,6.7,3.86,7.81,9.5,8.74c1.71,0.28,3.57,0.42,5.53,0.42
		c2.91,0,6.07-0.3,9.65-0.92c3.4-0.6,6.61-2.76,9.71-4.86l0.12-0.08c1.06-0.73,2.18-1.49,3.26-2.13c1.8-1.09,3.74-1.64,5.76-1.64
		c2.8,0,5.58,1.08,8.05,3.11c0.56,0.45,1.12,0.9,1.68,1.34c3.28,2.62,6.39,5.1,8.03,9.03c0.72,1.68,1.2,3.49,1.65,5.24l0.03,0.11
		c0.43,1.66,0.91,3.54,1.63,5.28c1.06,2.58,3.16,5.44,5.48,7.47c1.55,1.37,3.93,2.99,6.48,2.99c0.56,0,1.11-0.08,1.63-0.23
		c2.85-0.83,4.52-4.02,6.28-7.4l0.04-0.07c1.21-2.34,2.33-4.41,3.8-6.19C186.69,276.41,189.23,274.33,191.23,272.77z"/>
	<path fill="#1815B7" d="M204.98,128.8l-0.12,0c-0.44-0.01-0.88-0.02-1.31-0.02c-5.65,0-10.26,1.21-13.69,3.59
		c-3.26,2.26-5.22,5.47-5.82,9.52c-0.23,1.57-0.05,3.28,0.12,4.93l0,0.03c0.18,1.63,0.38,3.48,0.11,5.19
		c-0.29,1.89-1.31,3.6-2.61,4.35c-0.88,0.52-1.86,0.59-2.9,0.2c-3.51-4.07-6.39-6.76-10.68-8.51c-1.19-0.48-2.44-0.92-4.03-1.41
		c-0.75-0.24-1.52-0.49-2.25-0.73c-3.94-1.29-8.01-2.62-13.93-2.62c-1.12,0-2.3,0.05-3.49,0.15c-3.81,0.31-6.67,1.01-9.18,3.55
		c-1.69,1.71-2.96,3.78-4.07,5.6l-0.25,0.4c-0.79,1.25-1.6,2.55-2.52,3.71c-0.44,0.56-0.96,1.11-1.46,1.64l-0.36,0.38
		c-0.85,0.9-1.73,1.83-2.39,2.86c-1.4,2.23-1.47,5.94-0.95,8.45c0.7,3.29,2.78,6.06,4.86,8.63c0.36,0.45,0.7,0.92,1.06,1.42
		c0.15,0.21,0.31,0.43,0.47,0.65c1.31,1.89,2.81,4.04,4.86,5.13c1.41,0.74,3.06,1.08,5.22,1.08c0.6,0,1.24-0.03,2.02-0.08
		c0.78-0.05,1.57-0.25,2.33-0.46l0.22-0.06c0.94-0.25,1.9-0.52,2.85-0.52c0.27,0,0.54,0.02,0.79,0.07c4.31,0.77,9.17,3.76,12.28,6.3
		c1.7,1.37,3.23,2.93,4.57,4.62c1.05,1.33,2.07,2.7,3.11,4.1c1.82,2.44,3.71,4.96,5.87,7.47c1.53,1.78,3.47,3.6,6.3,3.6
		c0.8,0,1.64-0.15,2.51-0.45c2.34-0.81,4.34-2.21,6.2-3.56c2.8-2.07,5.37-5.01,7.64-7.6c1.97-2.27,4.2-4.84,6.3-6.32
		c0.49-0.35,1.14-0.74,2.23-1l0.1-0.02v-0.37l-0.15,0.03c-1.14,0.25-1.85,0.68-2.39,1.06c-2.08,1.46-4.15,3.85-6.36,6.39l-0.13,0.15
		c-2.34,2.67-4.77,5.44-7.44,7.4c-1.82,1.34-3.78,2.71-6.09,3.51c-0.82,0.28-1.63,0.43-2.39,0.43c-2.68,0-4.55-1.75-6.02-3.47
		c-2.18-2.54-4.13-5.16-5.85-7.46c-1.24-1.66-2.2-2.93-3.13-4.11c-1.38-1.74-2.93-3.32-4.62-4.69c-3.17-2.58-8.11-5.6-12.44-6.37
		c-0.27-0.05-0.56-0.07-0.85-0.07c-0.99,0-1.98,0.27-2.94,0.52l-0.17,0.04c-0.76,0.2-1.54,0.4-2.3,0.45
		c-0.78,0.06-1.42,0.08-2.02,0.08c-2.08,0-3.68-0.33-5.03-1.04c-1.94-1.03-3.36-3.06-4.73-5.01c-0.6-0.88-1.07-1.53-1.53-2.09
		c-2.05-2.53-4.1-5.27-4.78-8.47c-0.51-2.43-0.45-6.02,0.9-8.17c0.63-1.02,1.51-1.94,2.36-2.84l0.08-0.08
		c0.63-0.65,1.23-1.28,1.74-1.93c1.08-1.35,2.02-2.89,2.79-4.13l0.1-0.16c1.16-1.86,2.36-3.79,3.94-5.37
		c2.45-2.47,5.24-3.15,8.94-3.46c1.19-0.1,2.36-0.15,3.48-0.15c5.91,0,9.92,1.32,13.8,2.61l0.73,0.24c0.51,0.16,1.02,0.33,1.52,0.49
		c1.66,0.52,2.85,0.94,4,1.4c4.26,1.73,7.1,4.4,10.58,8.46l0.06,0.04c1.15,0.43,2.26,0.36,3.27-0.21c1.38-0.81,2.47-2.62,2.79-4.62
		c0.27-1.69,0.08-3.48-0.11-5.21l-0.01-0.1c-0.17-1.63-0.34-3.31-0.12-4.83c0.58-3.95,2.48-7.06,5.65-9.27
		c3.59-2.5,8.74-3.71,14.76-3.47l0.13,0V128.8z"/>
	<path fill="#1815B7" d="M16.16,56.56c0.06,0.2,0.12,0.39,0.17,0.59l0.15,0.52c0.96,3.37,1.86,6.55,2.23,9.66
		c0.24,2.03,0.42,4.85-0.12,6.78c-0.94,3.36-3.65,6.26-6.28,9.07l-0.09,0.09c-3.79,4.03-7.72,8.2-6.51,13.83
		c0.66,3.04,2.31,4.93,5.05,5.78c1.28,0.4,2.83,0.59,4.86,0.59c1.1,0,2.25-0.05,3.65-0.13c0.78-0.04,1.55-0.07,2.3-0.07
		c4.72,0,8,0.86,9.91,1.58c2.27,0.87,4.38,2.3,6.41,3.7l0.26,0.18c2.81,1.93,5.47,3.76,8.49,4.17c1.24,0.16,2.2,0.13,3.38-0.13
		c2.85-0.63,4.98-2.05,7.25-3.57c3.01-2.01,6.13-4.08,11.1-4.08c1.33,0,2.76,0.15,4.25,0.45c1.65,0.32,3.3,0.81,5.03,1.33l0.09,0.03
		c3.22,0.96,6.56,1.94,10.07,1.94c2.86,0,5.5-0.66,8.06-2.02c5.97-2.99,9.68-8.45,13.27-13.73l0.04-0.06
		c1.67-2.44,3.39-4.95,5.27-7.17l0.03-0.03c2.15-2.5,4.82-5.6,8.09-5.6c0.55,0,1.11,0.09,1.65,0.27c1.67,0.54,3.37,0.8,5.01,1.06
		l0.08,0.01c2.57,0.41,5.23,0.84,7.62,2.34c1.73,1.08,3.07,2.63,4.37,4.12c0.64,0.73,1.27,1.45,1.92,2.1
		c1.43,1.44,2.59,3.13,3.72,4.78l0.08,0.12c1.01,1.48,2.01,2.92,3.2,4.25l0.38,0.33c1.41,1.24,2.75,2.42,4.24,3.78
		c1.93,1.76,3.69,3.85,5.4,5.87l0.09,0.11c3.34,3.97,6.49,7.71,10.63,8.93c1.3,0.39,2.6,0.57,3.98,0.57c1.74,0,3.64-0.31,5.8-0.93
		c2.22-0.64,5.12-1.91,6.65-2.61c3.87-1.76,8.2-4.14,11.59-6.39c2.66-1.77,4.72-4.26,5.95-7.22l0.01-1.01l-0.24,0.61
		c-1.2,3.02-3.24,5.55-5.91,7.31c-3.41,2.25-7.73,4.63-11.56,6.37c-1.88,0.85-4.55,2-6.59,2.59c-2.15,0.61-4.03,0.91-5.73,0.91
		c-1.34,0-2.6-0.18-3.85-0.55c-4.05-1.19-7.16-4.89-10.46-8.81l-0.15-0.18c-1.7-2.01-3.45-4.08-5.38-5.83
		c-1.53-1.39-2.82-2.54-4.33-3.87l-0.28-0.25c-1.05-1.15-1.95-2.46-2.83-3.73l-0.32-0.46c-1.2-1.76-2.4-3.47-3.83-4.93
		c-0.62-0.62-1.21-1.29-1.78-1.94l-0.14-0.16c-1.31-1.51-2.67-3.07-4.45-4.18c-2.49-1.56-5.2-1.98-7.83-2.39l-0.3-0.05
		c-1.54-0.25-3.14-0.51-4.66-1c-0.58-0.19-1.18-0.29-1.77-0.29c-3.48,0-6.32,3.33-8.39,5.77c-1.95,2.27-3.67,4.81-5.34,7.26
		c-3.57,5.25-7.27,10.68-13.12,13.6c-2.52,1.33-5.1,1.98-7.9,1.98c-3.45,0-6.77-0.98-9.97-1.93l-0.2-0.06
		c-1.71-0.5-3.32-0.97-4.96-1.3c-1.52-0.3-2.97-0.45-4.32-0.45c-5.08,0-8.24,2.1-11.3,4.14c-2.23,1.49-4.34,2.89-7.13,3.5
		c-1.1,0.25-2.02,0.28-3.23,0.12c-2.97-0.39-5.6-2.22-8.4-4.15c-2-1.38-4.26-2.94-6.68-3.87c-1.92-0.73-5.23-1.61-10.03-1.61
		c-0.76,0-1.54,0.02-2.34,0.07c-1.19,0.07-2.41,0.13-3.61,0.13c-4.08,0-8.4-0.72-9.56-6.09c-1.15-5.42,2.69-9.53,6.42-13.51
		l0.05-0.06c2.67-2.85,5.44-5.8,6.39-9.25c0.57-2,0.38-4.87,0.13-6.93c-0.42-3.38-1.43-6.87-2.4-10.24
		c-0.12-0.37-0.24-0.76-0.34-1.12l-0.03-0.09h-0.38l0.05,0.16C16.05,56.17,16.1,56.37,16.16,56.56z"/>
	<path fill="#1815B7" d="M203.61,278.12c-6.36,1.1-10.55,6.08-12.11,14.41c-0.45,2.4-0.66,4.94-0.85,7.19l-0.01,0.14
		c-0.18,2.04-0.34,3.96-0.66,5.78l-0.03,0.15h0.37l0.02-0.1c0.32-1.86,0.5-3.87,0.67-5.94l0.02-0.2c0.2-2.3,0.41-4.67,0.84-6.95
		c1.52-8.17,5.6-13.04,11.8-14.1c0.42-0.07,0.8-0.12,1.18-0.15l0.12-0.01v-0.37l-0.13,0.01
		C204.49,277.99,204.07,278.03,203.61,278.12z"/>
	<path fill="#1815B7" d="M158.19,303.4c-0.35-1.6-0.68-3.03-1.06-4.36c-0.69-2.43-1.8-4.94-2.88-7.36l-0.2-0.45
		c-0.71-1.63-1.29-3.35-1.87-5.12c-1.23-3.72-2.5-7.56-5.06-10.36c-2.26-2.47-5.96-3.89-10.14-3.89c-2.34,0-4.59,0.45-6.5,1.31
		c-2.24,0.99-4.07,2.2-5.59,3.68c-1.19,1.16-2.94,1.79-4.63,2.39l-0.16,0.06c-1.23,0.42-2.42,0.84-3.48,1.44
		c-3.26,1.85-5.29,4.44-5.89,7.47c-0.59,2.88-0.51,6.64-0.44,9.96l0.01,0.38c0.03,2,0.06,4.07-0.04,5.98l0,0.04
		c-0.02,0.35-0.04,0.72-0.08,1.08l-0.01,0.14h0.37l0.01-0.12c0.03-0.33,0.04-0.67,0.06-0.99l0.01-0.14c0.09-1.9,0.06-3.96,0.04-5.96
		l-0.01-0.41c-0.06-3.49-0.12-7.09,0.44-9.89c0.59-2.94,2.57-5.43,5.72-7.22c1.04-0.58,2.24-1,3.42-1.41
		c1.78-0.62,3.62-1.27,4.92-2.51c1.48-1.44,3.28-2.62,5.5-3.61c1.88-0.84,4.08-1.28,6.35-1.28c4.08,0,7.67,1.38,9.87,3.77
		c2.53,2.77,3.83,6.72,4.98,10.22l0.12,0.37c0.57,1.69,1.11,3.28,1.77,4.78l0.27,0.6c1.04,2.36,2.12,4.8,2.79,7.17
		c0.38,1.34,0.72,2.82,1.04,4.26l0.14,0.62c0.13,0.56,0.25,1.11,0.38,1.64l0.02,0.1h0.38l-0.04-0.15
		C158.53,304.9,158.35,304.13,158.19,303.4z"/>
	<path fill="#1815B7" d="M150.31,295.16c-0.32-0.81-0.83-1.49-1.27-2.09c-0.37-0.49-0.72-0.97-1-1.5c-0.4-0.72-0.71-1.53-1.04-2.39
		l-0.07-0.19c-1.04-2.66-2.11-5.4-5.08-6.19c-0.68-0.19-1.57-0.27-2.8-0.27c-1.23,0-2.51,0.1-3.7,0.2c-0.42,0.03-0.87,0.06-1.29,0.1
		c-3.79,0.23-7.84,1.68-10.85,3.88c-3.65,2.66-4.69,7.12-5.16,10.24c-0.56,3.49-0.42,6.24,0.42,8.4l0.04,0.09
		c0.04,0.08,0.07,0.17,0.1,0.25l0.03,0.09h0.4l-0.07-0.17c-0.03-0.06-0.05-0.13-0.08-0.19c-0.03-0.06-0.06-0.13-0.08-0.19
		c-1.06-2.75-0.74-6.01-0.4-8.22c0.47-3.06,1.49-7.43,5.02-10c2.95-2.15,6.94-3.57,10.66-3.81c0.4-0.02,0.82-0.05,1.29-0.09
		c1.14-0.1,2.46-0.2,3.68-0.2c1.09,0,2,0.09,2.7,0.27c2.78,0.74,3.81,3.38,4.82,5.95c0.33,0.88,0.7,1.8,1.14,2.62
		c0.26,0.5,0.59,0.94,0.91,1.38l0.15,0.21c0.44,0.61,0.9,1.24,1.2,1.95c0.79,1.94,1.11,4.17,1.37,5.96c0.19,1.27,0.28,2.75,0.28,4.4
		v0.12h0.37l0-0.12c0.03-1.55-0.06-3.1-0.27-4.46C151.44,299.39,151.11,297.13,150.31,295.16z"/>
	<path fill="#1815B7" d="M204.8,286.92c-0.03,0-0.05-0.02-0.09-0.01c-5.69,0.52-8.87,6.64-9.7,18.73l-0.01,0.13h0.37l0.01-0.12
		c0.82-11.85,3.87-17.86,9.33-18.39c0.04,0.01,0.08,0.02,0.13,0.02h0.12v-0.37h-0.12C204.83,286.93,204.82,286.92,204.8,286.92z"/>
	<path fill="#1815B7" d="M203.27,301.99l-0.06,0.06c-0.6,1.01-1.23,2.22-1.35,3.59l-0.01,0.13h0.37l0.01-0.11
		c0.12-1.27,0.71-2.42,1.28-3.37c0.47-0.28,0.92-0.44,1.34-0.48l0.11-0.01v-0.36l-0.14,0.01
		C204.31,301.5,203.79,301.68,203.27,301.99z"/>
	<path fill="#1815B7" d="M14.62,298.85c-0.65-2.88-0.62-6.9,0.07-9.14c0.91-2.96,2.46-4.78,4.93-7.49c0.26-0.31,0.55-0.6,0.86-0.92
		c0.13-0.13,0.26-0.27,0.39-0.41c1.77-1.82,3.77-3.89,4.23-6.08c0.91-4.36-1.79-6.9-4.54-8.81c-1.39-0.95-2.95-1.71-4.33-2.39
		c-1.79-0.87-3.81-1.86-5.44-3.25c-1.7-1.47-3.17-3.58-4.38-6.26c-0.51-1.12-0.75-2.33-0.99-3.5l-0.04-0.21
		c-0.23-1.22-0.47-2.48-0.99-3.68C2,241.37-1.13,235.34-6.19,231.15c-2.19-1.82-4.96-4.69-5.68-8.07c-0.47-2.23,0.19-4.18,0.73-5.75
		l0.09-0.28c1.2-3.56,4.81-12.06,12.25-14.18c1.24-0.36,2.75-0.62,4.35-0.9l0.39-0.07c2.41-0.4,4.53-0.79,6.15-1.38
		c2.63-0.98,4.54-2.35,6.42-3.79l0.28-0.21c1.83-1.41,4.15-3.19,7.16-2.96c2.63,0.22,5.61,1.59,8.17,3.75
		c2.59,2.18,4.34,4.84,4.8,7.29c0.26,1.5,0.41,2.73,0.54,4.11c0.03,0.24,0.05,0.48,0.08,0.71c0.08,0.8,0.17,1.63,0.33,2.49
		c0.99,5.62,3.68,10.09,8.02,13.29c3.53,2.6,8.23,4.42,13.96,5.41c1.41,0.24,2.87,0.37,4.34,0.37c5.41,0,9.73-1.64,11.83-2.61
		c3.8-1.78,7.82-6,11.3-9.82c3.48-3.83,5.32-6.11,5.73-12.15c0.13-1.92-0.03-3.77-0.17-5.56l-0.01-0.09
		c-0.02-0.34-0.05-0.68-0.08-1.03c-0.03-0.38-0.06-0.76-0.09-1.13c-0.03-0.5-0.07-1.02-0.12-1.63c-0.16-1.71-0.34-3.66,0-5.65
		c0.69-3.97,2.96-5.69,6.99-5.3c5.31,0.5,9.94,4.01,11.8,8.94c1.47,3.9,0.3,8.01-0.65,11.3l-0.18,0.63
		c-1.58,5.51-3.73,9.82-6.57,13.15c-1.62,1.88-3.41,3.66-5.14,5.38c-0.67,0.65-1.38,1.37-1.94,1.94c-0.91,0.92-1.91,1.76-2.87,2.55
		c-1.22,1.01-2.49,2.09-3.56,3.3c-1.51,1.69-2.63,3.64-3.57,5.33c-2.98,5.48-5.05,10.29-6.34,14.71c-1.15,3.95-4.33,7.09-8.5,8.39
		c-2.41,0.75-5.32,1.13-8.66,1.13c-4.12,0-8.96-0.58-14.4-1.73c-4.81-1.02-7.67-3.77-8.49-8.19c-0.96-5.15-4.43-7.7-8.1-10.41
		c-0.92-0.67-1.89-1.39-2.84-2.16c-3.78-3.09-1.89-6.04,0.1-9.15l0.07-0.11c0.89-1.4,1.82-2.85,2.21-4.34
		c0.65-2.34-0.16-4.8-0.95-7.17l-0.03-0.1c-0.4-1.17-0.8-2.39-0.99-3.55c-0.94-5.54-1.89-9.93-4.74-11.75
		c-0.9-0.57-1.92-0.85-3.13-0.85c-0.86,0-1.84,0.15-2.89,0.45c-0.4,0.1-0.85,0.23-1.31,0.37l-0.14,0.04
		c-0.91,0.27-1.95,0.57-2.8,0.76c-1.51,0.35-3.1,0.55-4.86,0.76l-0.21,0.03c-1.75,0.22-3.56,0.45-5.56,0.87
		c-3.15,0.65-5.93,2.17-8.03,4.39c-2.06,2.18-3.37,4.93-3.79,7.95c-0.18,1.3-0.23,2.41,0.12,3.63c1.03,3.5,4.18,5.96,6.96,8.13
		l0.08,0.06c0.61,0.47,1.25,0.96,1.85,1.46l0.11,0.09c2.68,2.21,6.01,4.97,5.89,8.72c-0.13,3.96,0.38,6.83,1.69,9.6
		c2.07,4.38,4.99,7.03,10.08,9.14c0.16,0.06,0.32,0.13,0.48,0.19c0.22,0.09,0.44,0.18,0.66,0.26l0.14,0.06
		c1.68,0.69,3.41,1.41,5.03,2.33c1.34,0.75,2.24,1.69,3.2,2.7c0.53,0.56,1.08,1.14,1.72,1.69c0.72,0.63,1.4,1.44,2.21,2.44
		c1.72,2.12,3.66,4.52,6.52,4.52c0.33,0,0.67-0.03,1.01-0.1c1.71-0.33,3.39-1.49,5.17-2.72l0.07-0.05c1.55-1.08,3.16-2.2,4.97-2.92
		c3.02-1.19,7.28-1.47,11.79-1.78l0.43-0.03c2.7-0.18,5.5-0.37,8.05-0.77c6.03-0.95,10.1-3.07,12.46-6.47
		c0.72-1.02,1.19-2.19,1.61-3.23l0.06-0.15c0.32-0.79,0.64-1.61,1.07-2.35c0.31-0.56,0.8-1,1.27-1.44l0.14-0.13
		c0.26-0.23,0.56-0.5,0.79-0.78c0.47-0.52,0.93-1.07,1.39-1.64l0.26-0.32c0.41-0.5,0.84-1.01,1.29-1.51
		c0.71-0.78,1.52-1.51,2.3-2.22l0.58-0.52c0.82-0.74,1.67-1.51,2.44-2.34c0.71-0.74,1.29-1.57,1.75-2.24
		c0.58-0.83,1.17-1.69,1.99-2.48c1.37-1.36,2.8-2.85,3.95-4.5c0.93-1.34,1.37-2.64,1.83-4.01l0.09-0.26
		c0.14-0.48,0.29-0.93,0.46-1.38c0.34-1.01,0.98-1.98,1.6-2.92l0.05-0.08c0.37-0.57,0.76-1.16,1.08-1.76
		c1.21-2.23,2.25-4.46,3.1-6.62c0.12-0.31,0.23-0.63,0.34-0.95c0.11-0.3,0.21-0.6,0.33-0.89c0.05-0.15,0.11-0.29,0.16-0.43
		c0.04-0.11,0.08-0.22,0.12-0.32c0.46-1.27,0.9-2.43,1.3-3.45l0.12-0.32c1.2-3.18,2.44-6.47,3.08-9.48
		c0.41-1.89,0.81-4.08,0.35-6.22c-1.54-7.17-8.52-14.68-14.92-16.05c-1.39-0.29-2.95-0.44-4.62-0.44c-1.89,0-3.86,0.19-5.84,0.56
		c-6.36,1.19-8.71,4.26-8.39,10.95c0.06,1.3,0.18,2.62,0.29,3.9l0.07,0.82c0.29,3.21,0.57,6.24,0.23,9.17
		c-0.15,1.29-0.53,2.66-1.17,4.2c-0.94,2.27-3.05,6.05-5.65,10.12c-2.56,4.01-6.02,6.95-9.49,8.05c-1.69,0.54-3.55,0.81-5.54,0.81
		c-5.57,0-11.31-2.16-14.99-5.63c-2.56-2.41-5.3-6.53-3.78-12.45c0.1-0.37,0.26-0.75,0.41-1.1c0.2-0.43,0.42-0.94,0.53-1.48
		c0.78-1.34,1.75-2.56,2.76-3.79c2.22-2.74,4.31-5.33,3.5-9.05c-0.14-0.66-0.43-1.36-0.73-2.11l-0.03-0.08
		c-0.63-1.53-1.29-3.12-0.55-4.04c1.33-1.65,3.14-3.39,5.19-5.33c3.43-3.26,6.97-6.62,7.98-9.81c1.05-3.25-1.14-6.51-1.96-7.74
		c-0.8-1.2-1.69-2.43-2.63-3.72l-0.58-0.8c-0.88-1.19-1.82-2.47-2.7-3.74c-0.6-0.88-1.19-1.72-1.78-2.55l-0.99-1.42
		c-1.4-2.01-2.71-3.9-4.08-5.93c-0.46-0.69-0.93-1.43-1.38-2.15l-0.46-0.73c-1.05-1.67-2.08-3.28-3.12-4.69
		c-2.33-3.12-4.99-4.41-7.87-3.82c-2.81,0.58-5.78,2.67-8.58,4.76l-0.29,0.21c-0.26,0.2-0.53,0.39-0.78,0.59l-0.13,0.1
		c-4.91,3.69-10.48,7.87-11.96,12.54c-1.28,4.06,1.07,5.94,3.55,7.92c0.27,0.21,0.53,0.43,0.79,0.65c1.58,1.3,2.79,2.63,3.87,3.88
		c1.4,1.64,2.64,3.62,3.73,5.37c0.79,1.26,1.6,2.56,2.39,3.59c2.7,3.53,6.18,5.09,9.54,6.6l0.05,0.02c3.27,1.45,6.65,2.95,9.2,6.27
		c0,0.05,0,0.1,0,0.14c0,0.06,0,0.12,0,0.18l0,0.09c0.01,0.31,0.02,0.61-0.06,0.88c-2.04,2.2-4.38,3.27-7.14,3.27
		c-1.34,0-2.8-0.26-4.34-0.77c-1.47-0.49-2.96-1.3-4.4-2.08c-2.64-1.43-5.37-2.91-8.41-2.91c-0.9,0-1.79,0.13-2.66,0.4
		c-2.92,0.88-4.94,2.92-6.89,4.89l-0.06,0.06c-1.91,1.95-3.89,3.97-6.76,4.97c-1.68,0.58-3.41,0.74-5.86,0.93
		c-6.22,0.47-9.23,1.19-11.81,4.45c-3.36,4.28-7.5,11.81-8.77,14.92c-0.5,1.25-0.82,2.19-0.96,2.88c-1.09,5.46,2.26,9.74,5.3,12.87
		c0.75,0.76,1.59,1.48,2.32,2.09c0.72,0.61,1.42,1.22,2.07,1.84c1.38,1.38,2.48,3.03,3.45,4.48c0.13,0.19,0.25,0.37,0.38,0.56
		c0.41,0.6,0.83,1.22,1.27,1.81c4.13,5.5,5.37,10.3,4.04,15.55c-0.97,3.77-3.18,8.54-8.2,9.83c-1.92,0.49-4.09,0.74-6,0.96
		l-0.45,0.05c-1.84,0.22-3.74,0.45-5.59,0.88c-1.82,0.41-3.56,0.96-5.02,1.43l-0.45,0.14c-2.08,0.64-4.05,1.24-6.08,1.49
		c-0.8,0.11-1.62,0.16-2.45,0.16c-2.81,0-5.42-0.6-7.94-1.18l-0.1-0.02c-2.24-0.52-4.56-1.06-6.79-1.06c-0.57,0-1.12,0.04-1.65,0.1
		l-0.11,0.01v0.37l0.14-0.02c0.52-0.07,1.07-0.11,1.64-0.11c2.15,0,4.33,0.5,6.65,1.03l0.04,0.01c2.57,0.6,5.24,1.22,8.14,1.22
		c0.84,0,1.67-0.05,2.48-0.16c2.15-0.27,4.2-0.91,6.38-1.59l0.21-0.06c1.57-0.5,3.25-1.01,5-1.41c2.03-0.45,4.14-0.7,6-0.92
		l0.15-0.02c2.09-0.24,4.06-0.47,5.9-0.95c4.13-1.07,7.05-4.56,8.46-10.09c1.37-5.37,0.1-10.26-4.1-15.88
		c-0.49-0.65-0.95-1.34-1.41-2l-0.36-0.53c-1.02-1.5-2.07-3.05-3.39-4.34c-0.68-0.69-1.43-1.33-2.07-1.86l-0.26-0.22
		c-0.68-0.59-1.39-1.2-2.03-1.85c-2.98-3.05-6.27-7.23-5.2-12.54c0.13-0.66,0.43-1.57,0.93-2.8c1.25-3.09,5.36-10.57,8.7-14.82
		c2.48-3.15,5.44-3.86,11.55-4.32c2.47-0.19,4.21-0.36,5.96-0.96c2.9-0.99,4.9-3.01,6.82-4.95l0.09-0.09c2.01-2.06,3.91-4,6.78-4.86
		c0.83-0.25,1.69-0.38,2.55-0.38c2.94,0,5.63,1.46,8.24,2.87l0.25,0.13c1.44,0.77,2.81,1.51,4.2,1.97c1.58,0.53,3.08,0.79,4.46,0.79
		c2.88,0,5.32-1.12,7.45-3.41l0.04-0.08c0.11-0.39,0.09-0.79,0.06-1.12v-0.4l-0.01-0.06l-0.04-0.04c-2.61-3.43-6.05-4.96-9.38-6.45
		c-3.33-1.48-6.78-3.01-9.43-6.5c-0.79-1.05-1.64-2.39-2.38-3.57c-1.04-1.66-2.34-3.72-3.77-5.4c-1.01-1.18-2.27-2.57-3.91-3.93
		c-0.23-0.19-0.45-0.37-0.68-0.55l-0.11-0.09c-2.39-1.91-4.64-3.72-3.43-7.52c1.45-4.56,6.97-8.71,11.84-12.38l0.36-0.27
		c0.28-0.21,0.56-0.42,0.82-0.63c2.79-2.11,5.75-4.14,8.42-4.69c2.74-0.56,5.28,0.69,7.52,3.69c0.93,1.22,1.84,2.67,2.72,4.07
		l0.38,0.59c0.65,1.04,1.24,1.98,1.85,2.89c1.18,1.77,2.33,3.43,3.55,5.18c0.38,0.55,0.77,1.11,1.16,1.67
		c0.37,0.53,0.75,1.07,1.13,1.62c0.33,0.48,0.67,0.96,1.01,1.45c0.8,1.16,1.71,2.42,2.7,3.75l0.19,0.25
		c1.09,1.49,2.12,2.9,3.02,4.27c0.87,1.31,2.9,4.38,1.92,7.43c-0.98,3.08-4.47,6.39-7.84,9.59l-0.06,0.06
		c-1.89,1.79-3.84,3.64-5.23,5.36c-0.87,1.1-0.14,2.86,0.51,4.41l0.02,0.04c0.3,0.75,0.59,1.45,0.73,2.08
		c0.78,3.55-1.26,6.07-3.43,8.74l-0.05,0.07c-0.96,1.2-1.96,2.43-2.75,3.82l-0.01,0.04c-0.12,0.52-0.32,1-0.52,1.44
		c-0.04,0.1-0.08,0.19-0.12,0.28c-0.12,0.29-0.24,0.57-0.31,0.86c-1.22,4.76,0.16,9.31,3.89,12.82c3.73,3.53,9.57,5.73,15.25,5.73
		c2.02,0,3.91-0.27,5.64-0.82c3.55-1.14,7.08-4.13,9.68-8.2c2.65-4.15,4.78-7.96,5.69-10.19c0.63-1.5,1.03-2.94,1.2-4.3
		c0.34-2.93,0.08-5.94-0.21-9.13l-0.02-0.24c-0.14-1.56-0.28-3.09-0.35-4.58c-0.16-3.33,0.34-5.64,1.58-7.27
		c1.28-1.66,3.34-2.71,6.5-3.29c1.98-0.37,3.93-0.56,5.8-0.56c1.65,0,3.17,0.15,4.53,0.44c6.27,1.34,13.11,8.7,14.64,15.76
		c0.44,2.04,0.08,4.11-0.34,6.06c-0.65,3.02-1.9,6.32-3.11,9.51l-0.09,0.23c-0.43,1.14-0.87,2.32-1.29,3.46
		c-0.1,0.26-0.19,0.51-0.28,0.77c-0.2,0.6-0.43,1.22-0.66,1.83c-0.83,2.16-1.86,4.37-3.07,6.56c-0.25,0.46-0.54,0.91-0.83,1.36
		l-0.29,0.46c-0.63,0.96-1.28,1.95-1.65,3c-0.11,0.31-0.21,0.62-0.31,0.91c-0.05,0.16-0.11,0.32-0.16,0.48
		c-0.45,1.43-0.88,2.78-1.84,4.17c-1.14,1.63-2.56,3.1-3.92,4.44c-0.8,0.77-1.39,1.63-1.97,2.45l-0.05,0.07
		c-0.5,0.73-1.05,1.5-1.71,2.21c-0.83,0.88-1.76,1.73-2.57,2.44l-0.14,0.13c-0.88,0.8-1.79,1.62-2.62,2.51
		c-0.47,0.52-0.98,1.12-1.56,1.83c-0.43,0.53-0.89,1.09-1.37,1.62c-0.22,0.24-0.48,0.49-0.82,0.81c-0.52,0.47-1.06,0.96-1.42,1.61
		c-0.47,0.79-0.81,1.61-1.17,2.53c-0.47,1.18-0.9,2.23-1.55,3.17c-2.29,3.31-6.29,5.37-12.22,6.31c-2.55,0.41-5.34,0.6-8.05,0.78
		l-0.38,0.03c-4.55,0.31-8.84,0.59-11.92,1.8c-1.87,0.74-3.55,1.91-5.04,2.95l-0.04,0.03c-1.75,1.22-3.4,2.37-5.05,2.68
		c-0.32,0.06-0.63,0.09-0.94,0.09c-2.66,0-4.55-2.31-6.22-4.36l-0.17-0.21c-0.71-0.87-1.38-1.68-2.1-2.31
		c-0.68-0.6-1.26-1.21-1.69-1.68l-0.1-0.1c-0.95-0.98-1.84-1.91-3.19-2.67c-1.63-0.91-3.33-1.62-5.22-2.4
		c-0.16-0.06-0.32-0.13-0.47-0.19c-0.22-0.09-0.44-0.18-0.66-0.27c-4.99-2.09-7.85-4.68-9.87-8.96c-1.29-2.73-1.79-5.55-1.66-9.44
		c0.12-3.94-3.3-6.76-6.06-9.03l-0.09-0.06c-0.54-0.46-1.12-0.92-1.84-1.46c-2.9-2.25-5.9-4.58-6.92-7.99
		c-0.33-1.15-0.28-2.21-0.11-3.46c0.84-6.11,5.26-10.72,11.52-12.03c1.93-0.4,3.7-0.63,5.4-0.85l0.32-0.04
		c1.52-0.19,3.27-0.41,4.91-0.77c0.76-0.17,1.76-0.44,2.96-0.8l0.2-0.06c0.39-0.12,0.76-0.23,1.11-0.32
		c1.01-0.28,1.94-0.42,2.77-0.42c1.15,0,2.12,0.26,2.96,0.8c2.72,1.72,3.64,6.03,4.57,11.49c0.2,1.15,0.56,2.27,1.01,3.62l0.02,0.07
		c0.78,2.33,1.58,4.75,0.96,6.98c-0.39,1.43-1.29,2.85-2.16,4.21l-0.08,0.12c-2.1,3.27-4.08,6.35-0.04,9.65
		c0.99,0.81,2,1.55,2.85,2.17c3.61,2.66,7.02,5.17,7.95,10.18c0.86,4.58,3.82,7.42,8.79,8.46c5.46,1.15,10.33,1.74,14.47,1.74
		c3.37,0,6.32-0.39,8.75-1.15c4.31-1.35,7.58-4.58,8.74-8.63c1.3-4.45,3.36-9.24,6.32-14.65c0.83-1.53,1.98-3.51,3.52-5.27
		c1.01-1.15,2.22-2.17,3.39-3.14l0.41-0.34c0.88-0.74,1.79-1.51,2.61-2.34c0.57-0.59,1.21-1.23,1.94-1.94
		c1.9-1.88,3.6-3.58,5.16-5.4c2.87-3.36,5.04-7.7,6.64-13.28l0.16-0.55c0.93-3.17,2.2-7.51,0.67-11.61
		c-1.92-5.07-6.67-8.67-12.1-9.18c-4.27-0.4-6.67,1.44-7.38,5.61c-0.36,2-0.17,3.98-0.01,5.73c0.02,0.23,0.03,0.44,0.05,0.66
		c0.03,0.33,0.05,0.65,0.07,0.97c0.05,0.74,0.11,1.45,0.17,2.16l0.01,0.09c0.15,1.78,0.3,3.62,0.18,5.51
		c-0.42,5.93-2.22,8.17-5.63,11.93c-3.47,3.81-7.48,8.01-11.18,9.73c-1.66,0.78-6.13,2.59-11.69,2.59c-1.44,0-2.87-0.12-4.26-0.36
		c-12.63-2.19-19.93-8.38-21.68-18.4c-0.18-1.06-0.28-2.03-0.39-3.18l-0.01-0.08c-0.13-1.22-0.26-2.49-0.54-4.06
		c-0.45-2.51-2.24-5.25-4.92-7.51c-2.65-2.21-5.7-3.61-8.38-3.83c-0.19-0.01-0.38-0.02-0.57-0.02c-2.88,0-5.08,1.69-6.84,3.05
		l-0.28,0.21c-1.96,1.49-3.79,2.8-6.33,3.74c-1.56,0.57-3.72,0.95-5.82,1.32l-0.27,0.05c-1.73,0.3-3.39,0.6-4.77,0.98
		c-3.31,0.94-6.23,3.19-8.67,6.68c-1.95,2.78-3.16,5.74-3.84,7.73l-0.09,0.29c-0.55,1.61-1.23,3.6-0.73,5.94
		c0.75,3.52,3.58,6.45,5.82,8.28c5.06,4.19,8.13,10.16,10.47,15.45c0.5,1.13,0.74,2.37,0.97,3.58l0.04,0.21
		c0.24,1.2,0.48,2.44,1.02,3.6c1.23,2.73,2.73,4.88,4.47,6.38c1.62,1.41,3.58,2.36,5.48,3.28l0.24,0.12
		c1.38,0.68,2.81,1.38,4.07,2.26c2.65,1.83,5.25,4.27,4.38,8.44c-0.44,2.1-2.48,4.2-4.12,5.89c-0.44,0.46-0.87,0.91-1.27,1.35
		c-2.49,2.72-4.06,4.58-4.99,7.62c-0.7,2.3-0.75,6.38-0.12,9.29c0.54,2.48,1.19,4.82,1.76,6.79l0.03,0.09h0.38l-0.05-0.16
		C15.86,303.82,15.18,301.4,14.62,298.85z"/>
</g>
</svg>
