<svg xmlns="http://www.w3.org/2000/svg" width="256" height="250" viewBox="-51 55.8 256 250">
    <g fill="#1815B7">
        <path d="M67.75 56.51l.34.25c1.7 1.25 3.67 2.72 5.48 4.31.2.17.39.37.58.56l.09.09c.2.22.42.44.63.63 3.96 3.53 8.17 5.48 11.86 5.48 3.66 0 6.75-1.8 9.18-5.36 1.29-1.88 2.35-4.18 3-6.49l.04-.16h-.38l-.03.09c-.63 2.24-1.68 4.5-2.93 6.36-2.38 3.45-5.37 5.21-8.9 5.21-3.59 0-7.71-1.91-11.62-5.37-.2-.19-.4-.4-.6-.62-.22-.23-.45-.46-.69-.69-1.79-1.56-3.76-3.04-5.5-4.34-.21-.15-.4-.29-.6-.44l-.25-.19h-.61l.29.22c.21.16.41.31.62.46zM-50.56 82.63l.05-.14c1.5-4.42 4.53-7.24 7.45-9.97l.04-.03c2.56-2.38 5.21-4.84 6.91-8.39.99-2.08 1.75-5.05 2.1-8.14l.02-.14h-.37l-.01.11c-.33 3.06-1.08 5.98-2.06 8.01-1.67 3.47-4.3 5.91-6.83 8.27l-.04.04c-2.96 2.76-6.02 5.61-7.54 10.11-.05.13-.1.28-.14.45v1.38l.25-.95c.04-.22.11-.42.17-.61z"/>
        <path d="M85.86 62.36c1.27 0 2.53-.45 3.65-1.31 1.04-.78 1.57-1.6 2.08-2.39l.05-.07c.24-.38.47-.74.75-1.1.21-.5.4-1 .54-1.51l.05-.16h-.38l-.03.09c-.15.49-.32.96-.5 1.4-.24.32-.47.67-.73 1.09-.56.88-1.07 1.62-2.04 2.36-1.1.82-2.26 1.24-3.44 1.24-3.21 0-6.34-2.87-9.09-5.4l-.84-.77h-.55l1.11 1.03c2.83 2.57 6.01 5.5 9.37 5.5zM-50.68 101.59l.06-.15c.91-2.31 1.51-5.49 2.03-8.3l.03-.14c.58-3 1.12-5.84 1.96-7.84 1.41-3.43 4.35-6.33 7.46-9.4l.1-.1c1.95-1.9 3.96-3.87 5.65-6.05 2.13-2.73 3.55-5.07 4.74-7.83.67-1.55 1.25-3.34 1.81-5.07l.09-.27c.02-.06.04-.12.06-.19.04-.1.07-.21.1-.31l.04-.15h-.38l-.02.09-.09.29c-.02.05-.04.1-.05.16-.58 1.81-1.17 3.68-1.87 5.3-1.19 2.75-2.59 5.07-4.7 7.75-1.65 2.11-3.61 4.04-5.51 5.9l-.12.12c-3.18 3.13-6.18 6.08-7.62 9.6-.86 2.08-1.42 4.98-2 8.06l-.04.21c-.55 2.87-1.12 5.83-1.96 8-.03.03-.06.07-.06.13v1.08l.24-.73c0-.06.03-.11.05-.16zM-42.6 130.25c1.21.26 2.31.68 3.55 1.18 4.08 1.63 9.16 3.66 11.11 7.76.12 2.25-.67 4.16-1.51 6.18-1.21 2.88-2.57 6.14-1.8 11.27.59 3.89 2.87 6.38 5.52 9.28 1.22 1.33 2.24 2.46 3.26 3.79 2.84 3.74 4.77 8 6.13 11.31 1.49 3.55 2.66 6.36 6.6 7.31 1.81.44 4.44.83 7.81 1.18 1.26.13 2.41.2 3.42.2 1.69 0 3.19-.19 4.46-.55 2.67-.79 4.35-2.95 6.48-5.67.76-.97 1.38-1.74 2.01-2.5.5-.6 1.15-1.26 1.84-1.96 1.61-1.61 2.98-3.05 3.4-4.24.15-.48.12-.93.08-1.4v-.03c-.04-.36-.07-.76-.04-1.21l.03-.11-.05-.06c-1.38-1.82-3.06-3.29-4.68-4.72l-.19-.17c-2.77-2.43-5.38-4.72-6.37-8.47-.52-1.99-.33-4.11.58-6.5.98-2.55 3.26-5.33 6.42-7.84 1.28-1.01 2.62-2.06 4.04-3.18l.67-.53c7.36-5.73 15.69-12.23 20.26-17.91l.03-.09c.15-.69.11-1.51-.11-2.43-.59-2.4-2.48-5.27-5.18-7.87-2.55-2.44-5.47-4.28-7.82-4.93l-.1-.03c-.2-.05-.51-.14-.85-.2-1.05-.23-2.16-.35-3.4-.35-2 0-4.03.3-6.01.6-1.98.3-3.86.58-5.69.58-.69 0-1.32-.04-1.93-.12-5.26-.69-9.04-4.21-10.37-9.65-1.75-7.14 3.12-11.65 7.83-16l.09-.08c3.48-3.23 7.07-6.56 8.01-10.97.91-4.16-.27-8.64-1.05-11.61l-.01-.05a44.6 44.6 0 0 0-1.09-3.57l-.03-.08h-.38l.06.17c.41 1.17.78 2.39 1.11 3.6l.01.05c.77 2.93 1.92 7.36 1.05 11.43-.93 4.34-4.53 7.66-8 10.86l-.03.03c-4.77 4.42-9.71 8.99-7.91 16.33 1.37 5.59 5.27 9.21 10.68 9.92.63.08 1.29.12 2 .12 1.87 0 3.83-.29 5.72-.57 1.94-.29 3.95-.59 5.94-.59 1.22 0 2.31.11 3.33.34.34.07.67.16.86.21l.07.02c4.55 1.25 11.45 7.39 12.72 12.52.21.84.25 1.59.12 2.23-4.59 5.69-12.94 12.19-20.31 17.93l-.08.06c-1.59 1.24-3.09 2.4-4.51 3.52-3.23 2.58-5.54 5.42-6.52 8.01-.94 2.47-1.14 4.67-.59 6.71 1.03 3.9 3.71 6.25 6.55 8.74 1.62 1.41 3.3 2.88 4.71 4.7-.03.46-.01.85.02 1.24.05.46.09.86-.05 1.27-.39 1.14-1.79 2.59-3.32 4.1l-.16.16c-.64.65-1.24 1.25-1.69 1.81-.77.91-1.46 1.79-2.02 2.52-2.08 2.68-3.73 4.79-6.29 5.55-1.23.36-2.65.54-4.35.54-1.02 0-2.15-.07-3.37-.2-3.45-.37-5.99-.75-7.77-1.18-3.77-.89-4.91-3.63-6.36-7.11-1.47-3.55-3.36-7.68-6.17-11.39-1.1-1.44-2.3-2.75-3.27-3.81-2.61-2.83-4.86-5.28-5.43-9.09-.75-4.99.57-8.2 1.74-11.03l.06-.14c.84-2.04 1.63-3.97 1.49-6.28l-.02-.08c-2.03-4.29-7.41-6.42-11.34-7.97-1.12-.45-2.28-.91-3.58-1.19-2.9-.6-5.7-.95-8.32-1.05h-.13v.37h.12c2.57.09 5.36.45 8.26 1.06z"/>
        <path d="M20.29 57.04c.24.81.48 1.68.67 2.37.33 1.24.7 2.49 1.06 3.65.78 2.62 1.51 5.1 1.8 7.33.22 1.57.22 3.18.01 4.32-.6 3.37-2.87 6.02-5.07 8.58l-.06.07c-2.58 2.99-5.24 6.08-5.44 10.42.29 3.92 4.63 4.47 9.23 5.05.35.05.71.1 1.08.15.49.06.98.13 1.46.2 3.29.52 7.12 1.58 11.07 3.06 1.37.52 2.69 1.16 3.96 1.79 2.45 1.22 4.77 2.38 7.5 2.68.31.04.63.05 1.07.05 1.81 0 3.38-.5 4.84-1.01 1.41-.5 2.62-1.03 3.73-1.53l.03-.01c2.45-1.08 4.77-2.09 8.33-2.41.6-.07 1.25-.1 1.92-.1 3.87 0 7.12 1.02 10.27 2l.04.01c2.6.83 5.29 1.68 8.05 1.68.57 0 1.1-.03 1.58-.1 4.13-.53 7.29-2.66 9.66-6.52 2.15-3.49 3.35-7.93 4.3-11.81.53-2.2.86-3.92.98-5.11.19-1.58-.07-2.74-.78-3.54-1.27-1.48-3.89-1.56-6.65-1.65-1.34-.04-2.66-.09-3.96-.27-5.63-.73-10.35-1.46-15.56-3.63-3.31-1.37-7.06-3.2-11.47-5.57-4.79-2.61-10.21-5.84-14.04-11.31l-.04-.05h-.44l.14.2c3.91 5.62 9.39 8.89 14.22 11.51 2.88 1.57 7.21 3.81 11.49 5.59 5.24 2.18 9.99 2.92 15.65 3.66 1.15.15 2.31.2 3.42.25l.57.03c2.81.09 5.24.17 6.4 1.51.63.73.85 1.79.68 3.26-.17 1.47-.62 3.58-.98 5.07-1.98 8.15-4.83 16.95-13.65 18.05-.5.06-1.02.09-1.53.09-2.65 0-5.22-.81-7.94-1.66l-.07-.02c-3.16-.98-6.43-2-10.34-2-.65 0-1.31.03-1.96.09-3.59.32-5.92 1.35-8.39 2.44l-.14.06c-1.13.5-2.3 1.02-3.66 1.5-1.33.47-2.9.97-4.71.97-.32 0-.65-.02-1.03-.05-2.62-.28-4.88-1.4-7.28-2.57l-.21-.1c-1.25-.62-2.54-1.26-3.89-1.76-3.97-1.49-7.82-2.55-11.14-3.08-.86-.13-1.72-.25-2.58-.35-4.43-.58-8.62-1.13-8.88-4.71.2-4.13 2.78-7.16 5.28-10.09l.07-.08c2.15-2.48 4.58-5.29 5.22-8.81.21-1.15.2-2.81-.01-4.45-.29-2.17-1-4.55-1.75-7.07l-.36-1.21c-.27-.9-.54-1.82-.79-2.73-.2-.77-.43-1.59-.67-2.38-.06-.19-.11-.39-.17-.59l-.12-.45-.03-.09h-.38l.05.16c.15.29.25.65.34 1.02zM-48.75 69.28l.14-.09c2.35-1.5 4.56-2.92 6.11-5.32 1.14-1.76 2.31-4.08 2.33-7.94v-.13h-.37v.12c-.03 3.77-1.11 5.95-2.27 7.75-1.51 2.32-3.7 3.72-6.03 5.21l-.22.14c-.62.4-1.26.81-1.88 1.25l-.05.04v.44l.2-.14c.66-.45 1.36-.9 2.04-1.33z"/>
        <path d="M27.88 64.68c.28.67.57 1.32.85 1.93l.06.14c.69 1.55 1.41 3.16 1.65 4.82.69 4.66-1.72 7.71-4.05 10.66l-.03.04c-1.62 2.03-3.15 3.95-3.63 6.35-.12.59-.09.95-.07 1.41v.06c.02.25.04.5.04.89l.01.02c.62 1.73 2.45 2.92 3.88 3.61 5.09 2.52 13.37 3.71 19.42 4.58l.04.01c1.04.14 1.92.2 2.77.2 2.34 0 4.5-.39 6.8-.81l.27-.05c2.4-.43 4.88-.87 7.73-.87.7 0 1.49.03 2.33.1.1.01.29.02.55.04.18.01.39.02.63.04.99.05 1.97.11 2.61.16 2.37.18 4.25.58 6.27 1.05l.05.01c2.5.56 4.86 1.08 8.35 1.08.36 0 .75-.01 1.15-.02 2.83-.45 5.42-3.42 6.45-7.39.85-3.29.65-7.67-2.46-10.09-3.64-2.83-14.18-5.3-19.83-5.74-1.22-.11-2.25-.12-3.19-.12-1.07-.01-2.18-.02-3.63-.14-3.87-.36-7.07-1.88-10.7-5.1-4.53-4.03-6.97-7.14-10.47-13.27-.38-.67-.74-1.47-1.05-2.37l-.03-.08h-.41l.06.17c.31.82.68 1.75 1.11 2.46 3.52 6.19 5.98 9.31 10.54 13.35 3.68 3.28 6.94 4.83 10.9 5.18 1.44.13 2.56.14 3.67.14 1 .01 1.95.02 3.16.12 5.62.46 16.06 2.9 19.64 5.67 2.95 2.3 3.14 6.52 2.32 9.71-.99 3.83-3.46 6.69-6.16 7.11-.36.01-.73.02-1.08.02-3.39 0-5.71-.51-8.17-1.05l-.16-.03c-1.67-.38-3.75-.85-6.33-1.05l-.11-.01c-.73-.05-1.71-.12-2.51-.16l-.67-.03c-.23-.01-.41-.02-.49-.03-.72-.07-1.5-.11-2.37-.11-3 0-5.66.48-8 .91-2.28.41-4.44.81-6.79.81-1.03 0-1.89-.06-2.72-.19l-.13-.02c-5.99-.86-14.2-2.04-19.21-4.53-1.11-.54-3.06-1.69-3.67-3.38-.01-.21-.02-.39-.02-.55-.01-.11-.01-.2-.02-.31-.04-.44-.07-.8.05-1.36.47-2.29 1.97-4.19 3.56-6.19 2.4-3 4.87-6.11 4.15-10.98-.25-1.7-.94-3.29-1.74-5.04l-.18-.46c-.22-.49-.45-1-.64-1.5-.68-1.65-1.93-4.96-2.71-8.59l-.02-.1h-.38l.03.15c.74 3.42 1.89 6.63 2.73 8.72zM-38.49 114.4c1.65-1.84 3.11-3.78 4.64-5.84 2.44-3.25 4.95-6.61 8.21-9.38.25-.23.48-.46.67-.69.18-.19.4-.42.61-.61 2.14-1.88 4.55-3.38 6.9-4.82l.31-.19c1.54-.95 3.12-1.93 4.62-3.03 1.26-.93 2.54-1.92 3.74-2.85 1.81-1.41 3.76-2.9 5.69-4.23.89-.61 1.81-1.2 2.8-1.82l.07-.05c4.95-3.16 10.55-6.74 11.42-13.23.45-3.41-.43-7.82-2.36-11.8l-.04-.06H8.4l.09.18c1.9 3.92 2.78 8.28 2.35 11.65C10 73.97 4.46 77.49-.42 80.59c-1.08.69-1.97 1.26-2.87 1.87-1.98 1.37-3.96 2.9-5.71 4.25l-.47.36c-1.07.82-2.17 1.67-3.29 2.48-1.55 1.14-3.2 2.16-4.89 3.2-2.36 1.46-4.8 2.97-6.94 4.85-.14.12-.27.26-.4.39-.08.08-.16.17-.25.25l-.08.08c-.18.19-.38.39-.58.57-3.29 2.8-5.81 6.18-8.26 9.44-1.5 2.01-2.98 3.97-4.63 5.81-3.15 3.54-7.46 6.03-12.11 7.01l-.1.02v.37l.15-.03c4.74-1 9.13-3.53 12.36-7.11zM-45.75 109.79c1.61-2.35 1.62-6.57 1.45-9.99-.13-2.74-.08-7.97 1.7-12.29 1.39-3.34 4.82-6.4 7.85-9.11.45-.4.89-.81 1.32-1.2l.11-.1c6.39-5.82 9.57-11.06 12.38-17.14.19-.41.36-.85.53-1.28l.13-.33c.23-.61.5-1.31.84-1.99.06-.13.13-.26.19-.38l.11-.19h-.43l-.03.08c-.03.07-.07.14-.11.2-.02.04-.04.08-.07.12-.34.68-.6 1.37-.83 2.02-.18.49-.4 1.05-.66 1.58-2.79 6.05-5.95 11.27-12.29 17.04-.23.21-.47.42-.7.63-.24.22-.49.44-.73.66-3.21 2.88-6.53 5.85-7.93 9.25-1.81 4.37-1.86 9.67-1.73 12.44.17 3.36.16 7.5-1.39 9.77-1.24 1.77-3.26 2.95-4.89 3.77l-.07.03v.41l.18-.09c1.7-.84 3.8-2.06 5.07-3.91zM-49.01 59.27c.72-.75 1.13-1.97 1.13-3.34v-.12h-.39v.12c0 1.28-.37 2.41-1.01 3.09-.48.5-1.03.76-1.59.76h-.12v.37h.12c.67 0 1.31-.3 1.86-.88z"/>
        <path d="M-29.28 82.09c-3.18 1.87-6.46 3.81-7.76 7.43-.47 1.32-.48 2.75-.02 4.54.46 1.01 1.28 1.55 2.39 1.55 1.81 0 3.9-1.38 4.76-2.12 1.64-1.38 3.07-3.24 4.62-5.34l.35-.47c.65-.87 1.33-1.77 2.02-2.59l.03-.04c.43-.49 1.75-1.97 2.84-2.62 2.67-1.58 6.11-2.79 9.75-4.07l.09-.03C-5.1 76.55.18 74.7 3.51 71.66c1.76-1.58 2.83-4.09 2.92-6.88.08-2.96-.95-5.76-2.9-7.9a8.65 8.65 0 0 0-1.11-1.05l-.03-.03h-.6l.28.22c.43.34.84.72 1.2 1.12 1.9 2.06 2.89 4.78 2.8 7.64-.07 2.68-1.08 5.09-2.78 6.63-3.23 2.95-8.45 4.78-13.49 6.56l-.21.08c-3.65 1.28-7.1 2.5-9.8 4.1-1.2.71-2.57 2.28-2.97 2.74-.75.88-1.48 1.85-2.18 2.78l-.25.34c-1.41 1.88-2.87 3.83-4.54 5.23-.96.82-2.95 2.04-4.52 2.04-.97 0-1.66-.45-2.05-1.31-.43-1.69-.42-3.06.03-4.3 1.25-3.48 4.48-5.39 7.61-7.23 2.25-1.33 4.38-2.59 5.7-4.38 2.34-3.17 4.49-7.8 6.21-11.52l.58-1.29c1.18-2.6 2.4-5.28 4.08-7.25.59-.7 1.31-1.35 2.14-1.93l.32-.23h-.63l-.03.02c-.77.53-1.47 1.16-2.08 1.88-1.71 2.01-2.94 4.72-4.12 7.34-.14.29-.27.58-.4.87l-.22.49c-1.71 3.68-3.85 8.27-6.16 11.39-1.28 1.72-3.38 2.95-5.59 4.26zM34.06 88.19l.02.03c.19.2.32.5.43.8l.05.1.03.04c.89.83 2.22 1.29 3.74 1.29 2.14 0 4.29-.91 5.34-2.26.64-.83.85-1.79.61-2.76-.46-1.82-2.16-2.4-4.02-2.88l-.08-.06-.06.06c-3.1.45-6.3 2.35-6.08 5.45l-.07.01.09.18zm.79.69c-.13-.33-.25-.63-.45-.87-.25-3.32 3.66-4.79 5.78-5.11 1.8.47 3.32 1 3.74 2.61.22.88.03 1.73-.55 2.45-.97 1.27-3.01 2.12-5.06 2.12-1.4-.02-2.63-.43-3.46-1.2zM66.21 90.28l.04.04.03.02c1.92 1.21 5.1 2.02 7.91 2.02 1.87 0 5.13-.38 5.98-2.92l.01-.05c.02-.89-.31-1.69-.97-2.37-1.23-1.26-3.66-2.04-6.34-2.04-3.41 0-7.1 1.34-7.17 4.31v.07l.07.04c.2.2.32.53.42.81l.02.07zm12.73-3.01c.58.61.87 1.3.87 2.07-.8 2.3-3.87 2.64-5.63 2.64-2.71 0-5.78-.77-7.67-1.93l-.03-.06c-.11-.28-.23-.57-.42-.79.11-2.65 3.59-3.85 6.8-3.85 2.59-.01 4.92.73 6.08 1.92zM9.45 143.68c2.13-1.86 4.34-3.38 6.47-4.85l.41-.28c2.45-1.68 4.98-3.42 7.4-5.63 3.66-3.31 7.81-7.06 8.5-12.81v-.05c-.43-2.7-1.26-5.47-4.37-7.48-1.74-1.14-3.67-1.67-6.08-1.67-2.02 0-4.1.37-6.3.77l-.05.01c-2.37.43-4.82.87-7.39.87-.54 0-1.13-.02-1.84-.07-1.18-.12-2.66-.47-4.34-.89l-.19-.05c-2.1-.5-4.28-1.03-6.01-1.03-.36 0-.71.03-1.04.08-2.41.36-4.97 2.45-6.94 4.23-3.24 2.94-6.31 6.01-6.83 8.57-.25 1.21-.07 3.17-.01 3.74.17 1.63.51 3.02.84 4.36l.08.33c.62 2.51 1.27 5.11.95 9.25-.14 2.09-.58 3.94-.97 5.57l-.02.08c-.67 2.88-1.36 5.85-1.07 10.33 2.25 7.76 4.89 13.65 8.09 17.99.8 1.07 1.7 2.19 2.83 3.09 1.66 1.33 4.03 2.12 6.33 2.12 2.32 0 4.31-.81 5.58-2.27 1.43-1.62 1.95-3.93 1.57-6.89-.22-1.63-.81-3.34-1.39-4.99l-.02-.04c-.55-1.55-1.18-3.31-1.39-4.97-.84-6.27 1.85-12.79 7.2-17.42zm-7.56 17.48c.21 1.58.79 3.23 1.34 4.82l.07.21c.55 1.55 1.18 3.31 1.38 4.97.38 2.84-.11 5.06-1.48 6.6-1.2 1.38-3.08 2.13-5.29 2.13-2.2 0-4.49-.77-6.1-2.05-1.1-.88-1.98-1.97-2.76-3.02-3.16-4.25-5.79-10.1-8.04-17.83-.28-4.45.42-7.39 1.1-10.23.41-1.74.83-3.55.98-5.64.34-4.28-.35-7.01-.95-9.41l-.06-.26c-.33-1.34-.67-2.72-.83-4.33-.12-1.15-.18-2.7 0-3.63.5-2.46 3.52-5.48 6.71-8.38 1.92-1.74 4.42-3.78 6.73-4.14.3-.04.62-.06.98-.06 1.79 0 4.09.57 6.12 1.06l.04.03c1.61.39 3.13.75 4.35.87.65.05 1.26.08 1.87.08 2.52 0 4.96-.42 7.44-.89l.26-.05c2.11-.37 4.1-.72 6.03-.72 2.32 0 4.2.51 5.9 1.61 2.95 1.91 3.76 4.6 4.2 7.22-.68 5.55-4.76 9.25-8.38 12.54-2.37 2.14-4.87 3.86-7.29 5.52l-.08.06c-2.47 1.69-4.7 3.24-6.92 5.17-5.45 4.71-8.19 11.34-7.32 17.75z"/>
        <path d="M12.36 136.26c2.85-1.95 5.55-3.79 7.94-6.01.81-.41 1.37-1.13 1.81-1.71l.07-.08c.36-.45.72-.92 1.2-1.27l.02-.02c2.23-2.79 2.96-6.05 1.86-8.31-.7-1.43-2.42-3.14-6.67-3.14-.6 0-1.21.04-1.78.09-1.3.13-2.78.4-4.35.69l-.19.03c-1.69.31-3.8.69-5.91.92-.44.04-.84.08-1.25.13-5.53.55-8.87.88-12.24 4.84-2.37 2.8-3.64 6.27-4 10.93-.21 2.97-.04 6.21.11 9.07.09 1.41.17 2.78.18 4.02.09.39.16.8.23 1.23l.07.4c.31 1.97.69 4.42 2.88 5.56l.08.01c2.58-.18 4.19-2.43 5.9-4.81l.25-.35c.54-.75 1.1-1.53 1.7-2.21 3.69-4.27 7.86-7.11 11.89-9.85l.2-.16zm-19.92 16.99c-1.96-1.05-2.3-3.19-2.62-5.26l-.07-.44c-.07-.42-.13-.82-.21-1.17-.02-.96-.07-2.02-.13-3.13l-.05-1.06c-.15-2.79-.31-5.95-.1-8.82.35-4.55 1.59-7.95 3.91-10.71 3.23-3.84 6.33-4.16 11.95-4.73h.05c.41-.04.81-.08 1.24-.12 1.88-.2 3.76-.53 5.41-.83l1.18-.21c1.38-.25 2.69-.49 3.85-.59.68-.07 1.25-.1 1.76-.1 4.07 0 5.7 1.6 6.35 2.94 1.03 2.15.31 5.25-1.8 7.88-.51.39-.9.88-1.28 1.35l-.05.06c-.5.65-.97 1.27-1.72 1.63l-.03.02c-2.45 2.28-5.26 4.19-7.98 6.04-4.08 2.76-8.31 5.61-12.12 10.01-.63.71-1.22 1.53-1.78 2.33l-.17.24c-1.65 2.3-3.2 4.48-5.59 4.67zM102.9 157.69c2.27-2.68 3.41-5.78 4.73-9.36.08-.23.17-.46.25-.7l.19-.51c.16-.41.31-.82.47-1.22.1-.27.21-.55.31-.82l.11-.29c1.43-3.77 2.77-7.32 3.1-10.3.78-6.74-1.67-9.47-4.71-12.1-4.73-4.08-10.83-4.38-17.3-4.7-1.58-.08-3.45-.25-5.23-.42-3.15-.29-6.47-.58-9.25-.58-3.08 0-5.12.36-6.24 1.09-4.62 3.06-4.09 10.47-3.64 13.51l.11 1c.9 8.44 1.75 16.41 8.36 22.13 4.43 3.83 11.61 7.92 18.46 7.92 4.21-.01 7.66-1.57 10.28-4.65zm-27.32-40.63c2.92 0 6.56.34 9.23.59l.62.06c1.68.15 3.26.29 4.62.35 6.4.32 12.45.62 17.07 4.62 2.95 2.55 5.34 5.19 4.58 11.78-.34 2.93-1.68 6.49-3.1 10.25l-.09.25c-.26.68-.52 1.37-.77 2.05-.16.39-.31.8-.45 1.22-1.31 3.54-2.44 6.6-4.67 9.26-2.53 2.99-5.89 4.51-9.98 4.51-6.78 0-13.85-4.05-18.22-7.84-6.49-5.6-7.34-13.48-8.23-21.83l-.13-1.04c-.44-2.98-.99-10.23 3.48-13.18 1.04-.71 3.01-1.05 6.04-1.05z"/>
        <path d="M72.07 133.57l.01.15c.79 7.27 1.47 13.55 7.39 18.22 2.75 2.18 7.7 4.73 12.62 4.73 2.46 0 4.53-.64 6.17-1.9 4.62-3.57 6.63-11 6.95-16.27.36-6.11-1.88-11.47-6-14.32-3.77-2.63-8.55-2.9-13.64-3.18l-.47-.02c-.93-.04-1.9-.09-2.85-.09-3.21 0-7.16.4-9.2 3.56-1.17 2.4-1.09 5.28-1.01 7.81.02.44.02.87.03 1.31zm10.2-12.33c.96 0 1.98.04 3.3.12l.16.01c4.96.28 9.64.54 13.29 3.08 4.02 2.8 6.2 8.03 5.83 14-.31 5.2-2.28 12.51-6.81 16.01-1.58 1.21-3.58 1.83-5.94 1.83-4.8 0-9.69-2.51-12.41-4.66-5.81-4.6-6.44-10.52-7.23-18-.01-.46-.02-.92-.04-1.4-.07-2.63-.14-5.34.97-7.62 1.94-2.98 5.76-3.37 8.88-3.37zM.32 133.04l.04.04c.18.19.36.38.57.49l.04.04H1.07c3.37-.59 7.21-2.34 10.02-4.57 1.12-.89 2.45-2.11 2.7-3.63l.03-.09-.05-.08c-.14-.21-.32-.39-.5-.56l-.06-.06c-.14-.13-.27-.26-.4-.4l-.05-.08-.08-.01c-.54-.05-1.07-.08-1.59-.08-2.95 0-6.97.89-9.4 3.39-1.33 1.39-1.97 3.09-1.9 5.03v.11l.09.06c.15.09.3.25.44.4zm10.76-8.63c.49 0 1 .03 1.48.07.12.14.26.27.39.4.17.15.34.31.47.51-.27 1.4-1.51 2.53-2.55 3.35-2.76 2.18-6.51 3.9-9.8 4.49a2.85 2.85 0 0 1-.48-.44c-.14-.15-.28-.3-.44-.42-.04-1.81.56-3.38 1.81-4.68 2.32-2.42 6.23-3.28 9.12-3.28z"/>
        <path d="M84.43 148.64c1.97 1.28 4.2 1.99 6.27 1.99 2.72 0 5.01-1.18 6.64-3.42 3.76-5.18 2.06-14.96-3.32-19.03-1.46-1.11-3.94-2.44-7.53-2.44-.86 0-1.72.07-2.57.22-3.8.64-5.78 3.63-5.72 8.64.07 3.78.96 10.62 6.23 14.04zm2.06-22.53c3.47 0 5.9 1.28 7.32 2.36 2.5 1.9 4.3 5.15 4.94 8.91.63 3.67-.01 7.27-1.71 9.62-1.54 2.13-3.73 3.25-6.33 3.25-2.01 0-4.17-.68-6.07-1.92-5.14-3.33-5.99-10.04-6.04-13.74-.08-4.81 1.79-7.67 5.39-8.28.84-.12 1.69-.2 2.5-.2zM-43.48 176.91c.48-.08.94-.12 1.37-.12 3.37 0 4.73 2.48 6.05 4.87.47.85.95 1.73 1.54 2.46l.02.02c.67.86 1.91 2.47 3.61 2.47.14 0 .27-.01.41-.03 2.02-.3 4.68-2.68 4.2-6.21-.38-2.79-2.24-4.83-5.88-6.43-.23-.1-.46-.2-.71-.3-1.7-.72-3.31-1.4-4.04-2.97-.76-3.19-.92-7.51-1.09-12.08l-.01-.22c-.12-3.45-.26-7.74-.8-11.28-1.01-6.62-4.4-10.58-10.39-12.09-.53-.16-1.09-.27-1.66-.35l-.14-.02v.37l.11.02c.49.07 1.01.18 1.6.33 5.82 1.46 9.13 5.31 10.12 11.79.51 3.37.66 7.32.79 11.13v.12c.15 4.44.31 9.04 1.11 12.4.81 1.76 2.56 2.48 4.26 3.19.11.05.22.1.33.14.12.05.24.1.37.16 3.5 1.52 5.3 3.47 5.65 6.14.45 3.28-2.01 5.51-3.88 5.79-.12.02-.24.03-.37.03-1.47 0-2.56-1.36-3.28-2.26l-.07-.08c-.54-.7-1.02-1.54-1.51-2.43-1.38-2.49-2.81-5.06-6.37-5.06-.44 0-.92.04-1.41.12-2.16.35-4.58 1.49-7.4 3.49l-.05.04v.46l.2-.14c2.81-2 5.2-3.14 7.32-3.47z"/>
        <path d="M-47.83 165.97c2.65-2.91 4.06-7.21 3.88-11.82-.18-4.43-1.85-8.49-4.47-10.87-.76-.54-1.58-.93-2.42-1.14l-.16-.04v.37l.09.02c.76.19 1.52.55 2.24 1.05 2.55 2.32 4.17 6.28 4.33 10.6.18 4.49-1.2 8.71-3.78 11.57-.77.85-1.69 1.64-2.84 2.44l-.05.04v.44l.19-.13c1.19-.78 2.16-1.61 2.99-2.53zM25.06 154.74l.02.02c1.78 4.18 3.83 8.19 6.11 11.93.96 1.59 2.02 3.26 3.38 4.62 3.26 3.26 8.92 5.54 13.76 5.54 2.68 0 4.93-.67 6.69-2 2.94-2.24 4.17-5 3.65-8.21-.12-.78-.46-1.71-.79-2.51-2.5-6.23-8.38-12.77-12.66-16.47-2.95-2.55-5.4-4.03-7.27-4.4-.4-.09-.83-.13-1.32-.13-5.14 0-11.46 5.23-11.85 9.84.02.2.06.43.13.68l.03.14c.06.29.12.56.09.86v.03l.03.06zm23.29 21.72c-4.75 0-10.3-2.23-13.5-5.43-1.31-1.3-2.33-2.89-3.34-4.54-2.2-3.6-4.25-7.59-6.07-11.86.03-.4-.06-.76-.15-1.07l-.03-.11c-.04-.17-.08-.35-.1-.49.39-4.42 6.52-9.47 11.49-9.47.44 0 .85.04 1.24.12 1.82.37 4.21 1.83 7.1 4.32 4.25 3.68 10.08 10.17 12.55 16.33.26.66.66 1.65.78 2.44.48 3.08-.7 5.72-3.53 7.84-1.68 1.27-3.86 1.92-6.44 1.92z"/>
        <path d="M47.52 156.61c-2.59-2.36-5.67-4.06-8.04-4.43-.45-.08-.88-.12-1.3-.12-1.5 0-2.71.47-3.61 1.41-1.04 1.08-1.56 2.77-1.48 4.78 1.05 4.48 2.1 8.12 5.27 10.7 2 1.65 5.07 2.71 7.82 2.71 3.33 0 5.63-1.53 6.31-4.19.2-.8.16-1.93.04-2.7-.39-2.64-2.22-5.61-5.01-8.16zm-8.09-4.07c4.87.78 11.93 6.87 12.76 12.27.1.71.14 1.8-.06 2.55-.64 2.48-2.81 3.91-5.95 3.91-2.65 0-5.62-1.03-7.58-2.62-3.06-2.5-4.1-6.07-5.13-10.47-.08-1.86.41-3.45 1.38-4.48.8-.84 1.93-1.27 3.34-1.27.37 0 .79.04 1.24.11zM57.95 204.34c-2.63 1.85-5.36 3.77-6.04 6.94-.4 2.25.18 4.39 1.7 6.19 2.12 2.53 5.99 4.16 9.86 4.16 2.53 0 4.75-.67 6.44-1.95 1.33-1 2.27-2.42 3.19-3.79l.16-.24c.94-1.85 1.25-4.07 1.59-6.43l.01-.09c.27-1.94.58-4.14 1.32-6.29.43-1.21.87-2.25 1.34-3.3 1.36-3.09 2.53-5.77 1.97-12.42-.31-3.8-.98-8.41-3.41-10.33l-.09-.03c-.34-.04-.65-.06-.95-.06-.66 0-1.32.1-2.09.31-3.78 1.1-7.59 4.37-8.85 7.62-.9 2.29-.53 4.81-.17 7.25.32 2.21.63 4.3.02 6.12-.98 2.83-3.52 4.61-6 6.34zm6.33-12.51c-.36-2.39-.73-4.86.14-7.05 1.21-3.15 4.92-6.33 8.61-7.4.73-.2 1.36-.29 1.99-.29.28 0 .57.02.86.05 2.27 1.84 2.93 6.32 3.24 10.02.54 6.57-.62 9.2-1.96 12.24l-.08.18c-.42.96-.85 1.96-1.26 3.15-.71 2.08-1.02 4.17-1.31 6.19l-.02.17c-.34 2.35-.66 4.57-1.56 6.38l-.13.21c-.93 1.41-1.82 2.73-3.11 3.71-1.6 1.22-3.75 1.86-6.22 1.86-3.76 0-7.52-1.57-9.58-4.01-1.44-1.71-1.99-3.75-1.61-5.89.64-3.01 3.17-4.79 5.84-6.67l.06-.04c2.51-1.76 5.1-3.57 6.1-6.51.65-1.93.34-4.05 0-6.3zM-34.97 199.51c-1.21 0-2.56.76-3.71 2.08-1.39 1.62-2.16 3.73-1.92 5.26.55 2.6 2.92 3.96 4.97 3.96 1.44 0 2.69-.62 3.52-1.75 1.65-2.27 1.2-7.02-.84-8.77-.61-.51-1.29-.78-2.02-.78zm-.66 10.93c-1.9 0-4.1-1.26-4.61-3.66-.22-1.43.53-3.43 1.85-4.96 1.04-1.22 2.31-1.94 3.42-1.94.66 0 1.25.23 1.77.68 1.93 1.65 2.36 6.14.8 8.28-.76 1.03-1.91 1.6-3.23 1.6zM10.16 215.81c-.08-.14-.15-.28-.17-.43l-.02-.06-.05-.06c-.49-.35-1.05-.53-1.63-.53-.88 0-1.8.42-2.46 1.13-.61.66-.91 1.48-.84 2.31l.02.07c.44.87 1.2 1.36 2.14 1.36 1.46 0 3.2-1.26 3.36-2.94v-.04c-.04-.22-.14-.41-.24-.6l-.11-.21zm-3.01 3.41c-.78 0-1.44-.41-1.8-1.13-.06-.71.2-1.42.74-2 .58-.63 1.4-1.01 2.19-1.01.46 0 .94.16 1.35.44.05.19.15.36.24.52l.05.1c.09.17.17.32.21.49-.16 1.48-1.7 2.59-2.98 2.59zM170.07 58.23c1.57.76 3.33 1.16 5.08 1.16 1.43 0 2.79-.26 4.04-.77 1.42-.6 2.61-1.48 3.54-2.61l.17-.2h-.46l-.04.04a8.445 8.445 0 0 1-3.34 2.43c-1.22.5-2.54.75-3.93.75-1.69 0-3.38-.39-4.9-1.12-.9-.43-1.74-1.1-2.59-2.06l-.04-.04h-.49l.18.21c.86.99 1.8 1.74 2.78 2.21zM64.86 60.59l.55.37c1.03.69 2.1 1.4 3.12 2.13 1.05.74 2.05 1.53 3.02 2.29l.18.14c2.48 1.94 4.83 3.78 7.45 4.65 2.89 1.45 5.71 2.18 8.37 2.18 2.21 0 4.33-.51 6.32-1.51 4.97-2.5 8.87-8.06 10.44-14.89l.04-.15h-.38l-.02.1c-1.56 6.71-5.39 12.17-10.24 14.61-1.94.97-4 1.46-6.15 1.46-2.6 0-5.36-.72-8.24-2.15-2.54-.85-4.86-2.66-7.32-4.59l-.28-.22c-.95-.74-1.94-1.5-2.98-2.24-1.19-.84-2.41-1.66-3.67-2.49l-.06-.04c-2.22-1.47-4.31-2.86-6.18-4.41l-.03-.03h-.6l.26.22c1.99 1.67 4.33 3.21 6.4 4.57zM115.8 68.18c1.46 0 2.97-.25 4.05-.44h.06c.26-.04.52-.06.8-.06 1.11 0 2.27.34 3.3.64.56.17 1.15.34 1.72.45.36.09.72.16 1.07.22l.3.06c1.67.32 3.74.72 5.53 1.54.64.3 1.34.61 2.09.92 3.4 1.47 6.92 2.98 9.2 5.95.14.19.27.37.4.55 1.58 2.33 2.94 4.83 4.32 7.39 1.43 2.64 3.05 5.62 4.95 8.29 1.85 2.6 4.39 5.54 6.64 8.13.91 1.05 1.65 1.92 2.35 2.74 3.77 4.46 7.34 8.68 13.94 8.68h.01c1.64 0 3.44-.26 5.48-.8 5.68-1.53 15.72-5.34 19.16-13.66.9-2.16 1.5-5.17 2.13-8.34l.07-.37c.47-2.36.96-4.79 1.58-6.82l.01-1.23-.24.76c-.7 2.19-1.23 4.86-1.74 7.44l-.04.21c-.63 3.13-1.22 6.09-2.1 8.22-3.38 8.15-13.3 11.92-18.92 13.44-1.97.53-3.73.79-5.39.79-6.45 0-9.95-4.16-13.65-8.56-.52-.61-1.05-1.23-1.6-1.86l-.83-.95c-2.34-2.71-4.75-5.51-6.56-8.03-1.84-2.59-3.38-5.43-4.88-8.18l-.04-.07c-1.26-2.34-2.7-4.99-4.34-7.41-.12-.2-.28-.4-.42-.58-2.34-3.03-5.9-4.57-9.34-6.06-.81-.35-1.49-.65-2.08-.92-1.77-.82-3.7-1.2-5.57-1.57l-.05-.01c-.46-.09-.91-.18-1.37-.28-.48-.1-.98-.24-1.47-.38l-.32-.09c-1.08-.31-2.2-.64-3.32-.64-.3 0-.62.03-.86.06l-.05.01c-1.29.22-2.67.43-3.99.43-2.68 0-4.34-.88-5.08-2.68-.79-1.88-.52-5.1-.28-7.93.04-.44.07-.84.1-1.24l.01-.13h-.37l-.01.12-.03.4-.06.82c-.23 2.73-.51 6.12.3 8.1.82 1.97 2.59 2.93 5.43 2.93z"/>
        <path d="M159.39 59.61l.02.03c3.53 4.79 9.82 7.65 16.81 7.65 1.71 0 3.4-.18 5.01-.52 6.66-1.47 8.34-6.29 9.12-10.81l.03-.15H190l-.02.1c-.32 1.83-.71 3.26-1.24 4.49-1.41 3.25-3.82 5.15-7.58 6-1.55.34-3.21.52-4.94.52-6.85 0-13.02-2.8-16.5-7.49-.42-1.07-.75-2.38-1.03-3.52l-.02-.1h-.38l.04.15c.37 1.56.7 2.72 1.06 3.65zM125.85 62.18c3.23.46 6.42 1.47 8.99 2.28 1.83.58 3.77 1.18 5.76 1.66 1.19.28 2.44.53 3.62.71 1.16.17 2.17.26 2.98.26 1.76 0 2.83-.38 3.17-1.13.9-1.94 1.56-6.05 1.6-10.01v-.13h-.37v.12c-.04 3.89-.68 7.94-1.56 9.87-.27.6-1.23.9-2.84.9-.85 0-1.83-.08-2.93-.25-1.16-.18-2.4-.42-3.58-.71-1.91-.46-3.8-1.04-5.73-1.65l-.29-.09c-2.81-.87-5.72-1.77-8.78-2.21-3.03-.43-5.49-2.53-6.93-5.92l-.03-.08h-.4l.07.17c1.48 3.54 4.05 5.74 7.25 6.21z"/>
        <path d="M151.06 72.52c.57 7.06 3.06 12.83 8.59 19.91 1.12 1.43 2.18 2.89 3.15 4.26l.18.24c1.66 2.28 3.23 4.43 5.05 6.47 2.84 3.19 6.42 4.81 10.64 4.81 4.88 0 10.35-2.27 15.02-6.23 4.82-5.22 5.55-12.11 5.88-18.73.03-.52.04-1.04.05-1.62v-.05c.07-2.61.16-5.86 1.43-7.46.97-1.22 2.19-2.33 3.85-3.49l.05-.04v-.44l-.2.14c-1.18.82-2.7 1.97-4 3.62-1.32 1.66-1.42 4.95-1.5 7.59v.12c-.01.25-.02.5-.02.74l-.03.88c-.32 6.55-1.03 13.38-5.76 18.5-4.61 3.9-9.99 6.14-14.76 6.14-4.09 0-7.58-1.58-10.36-4.7-1.87-2.1-3.46-4.28-5.21-6.71-.92-1.28-2.01-2.78-3.16-4.26-5.49-7.04-7.96-12.76-8.5-19.73-.19-1.69.25-3.69 2.09-4.22 3.44.2 7.14 1.36 10.75 2.49l.06.02c4.04 1.26 8.21 2.57 12.14 2.57.67 0 1.37-.04 2.1-.13.36-.05.74-.1 1.14-.14 3.87-.49 9.17-1.16 12.21-3.52 3-2.3 3.14-6.12 3.32-10.54.01-.32.03-.64.04-.96.02-.6.04-1.22.08-1.82.01-.07.02-.13.02-.19l.02-.22h-.38v.36c-.08.81-.11 1.62-.14 2.4l-.02.42c-.16 4.33-.29 8.07-3.15 10.26-3.01 2.32-8.24 2.97-12.07 3.45l-.41.06c-.24.03-.48.07-.71.09-.63.09-1.32.13-2.05.13-3.87 0-8.01-1.3-12.01-2.55l-.28-.09c-3.55-1.11-7.23-2.25-10.7-2.45l-.06.01-.01.01c-2.04.59-2.56 2.76-2.37 4.6zM196.91 117.91l.07-.06c1.45-1.14 3.33-2 5.32-2.91.88-.39 1.75-.8 2.59-1.22l.07-.03v-.41l-.18.09c-.81.4-1.7.82-2.63 1.24-2.03.92-3.94 1.79-5.37 2.96l-.04.02c-.84.66-2.1 1.67-1.96 3.12l.02.06.06.05c.29.21.52.47.67.64l.03.07h.08c1.53.31 3.07.46 4.58.46 1.52 0 3.08-.16 4.65-.48l.1-.02v-.37l-.15.03c-2.95.62-6.07.63-9.05.04-.16-.18-.37-.4-.61-.61-.09-1.17.93-2 1.75-2.67zM204.84 60.15h.12v-.37h-.12c-1.27 0-2.48-1.34-2.59-2.86-.04-.33-.04-.63-.01-.96l.01-.14h-.37l-.01.12c-.03.39-.03.71 0 1.01.13 1.7 1.52 3.2 2.97 3.2z"/>
        <path d="M185.46 78.74c-.77 0-1.59.08-2.45.25-1.79.36-3.69.9-5.8 1.53l-.31.09c-2.2.64-4.47 1.3-6.64 1.67-2.19.4-3.13 1.38-2.88 3l.01.05c.69 1.43 1.22 3.03 1.78 4.71l.13.4c1.3 3.99 2.65 8.13 5.95 10.29 1.56 1.01 3.46 1.55 5.5 1.55 3.29 0 6.67-1.38 9.06-3.69 1.95-1.92 3.38-5.03 3.81-8.32.47-3.49-.24-6.79-1.93-9.05-1.13-1.53-3.52-2.48-6.23-2.48zm0 .36c2.59 0 4.86.89 5.93 2.34 3.62 4.83 1.95 13.18-1.85 16.87-2.3 2.25-5.59 3.6-8.79 3.6-1.98 0-3.81-.52-5.31-1.51-3.2-2.08-4.52-6.15-5.81-10.07l-.01-.04c-.59-1.82-1.14-3.54-1.89-5.1-.2-1.4.62-2.21 2.58-2.55 2.26-.41 4.6-1.07 6.99-1.78 2.04-.6 3.96-1.16 5.76-1.52.82-.16 1.62-.24 2.4-.24zM107.72 169.67c3.68-1.88 4.68-5.24 5.75-8.79l.01-.04c.1-.29.19-.6.28-.9l.06-.21c1.53-4.99 3.74-10.04 9.5-13.2l.03-.02.03-.05c.03-.04.08-.09.12-.14 1.19-.63 2.39-1.26 3.58-1.9l1.14-.6c1.72-.91 3.5-1.84 5.25-2.74.47-.25.95-.5 1.42-.75.44-.24.88-.47 1.32-.7 1.53-.82 2.9-1.55 4.28-2.24.95-.46 1.81-1.09 2.64-1.7l.23-.17c.18-.13.36-.27.54-.4.69-.51 1.62-1.15 2.67-1.55 1.82-.72 3.83-.81 5.77-.91l.2-.01c1.92-.08 3.65-.18 5.29-.66 1.59-.46 2.79-.9 3.75-2.31 3.07-4.48 1.53-7.83-.99-12.06-2.64-4.41-5.84-7.85-9.53-10.22-.65-.42-1.35-.75-2.03-1.06l-.05-.02c-.79-.37-1.56-.74-2.25-1.22-.72-.49-1.41-1.03-2.09-1.55l-.41-.32c-.59-.46-1.2-.93-1.82-1.39-2.67-1.93-5.88-4.07-9.47-5.33-.95-.34-2.17-.51-3.62-.51-1 0-2.04.09-2.91.26-1.15.22-2.08.73-2.98 1.23-.43.23-.85.46-1.25.66-.38.17-.78.31-1.16.45l-.27.1c-.61.2-1.26.44-1.87.77-1.5.82-2.97 1.79-4.23 2.64-1.23.82-2.63 1.75-4.05 2.54-6.55 3.68-12.16 5.76-17.66 6.55-3.64.53-7.38.47-10.96-.2-1.45-.26-2.95-.68-4.41-1.08l-.37-.1c-2.67-.74-5.42-1.5-8.14-1.5-1.55 0-2.92.23-4.19.71-2.61.96-4.93 2.94-7.38 5.03l-.35.3c-1.16.98-2.35 2-3.65 2.96-.32.23-.72.51-1.17.82l-.32.23c-.96.68-2.05 1.45-3.02 2.26-2.04 1.74-2.6 3.35-1.93 5.53.57 1.82 1.56 3.69 2.53 5.5.62 1.19 1.23 2.35 1.73 3.49.31.66.61 1.35.92 2.04.15.35.31.7.46 1.04l.05.11c2.75 6.23 5.59 12.68 9.72 17.86 1.49 1.87 3.28 3.67 5.01 5.41l.64.64c1.67 1.66 3.24 3.22 4.5 4.81.66.8 1.21 1.67 1.75 2.51 1.09 1.7 2.23 3.46 4.08 4.64l.05.02.65-.05c6.85-.41 12.77-.76 19.08-1.91 4.54-.82 7.73-1.7 9.5-2.6zm-29.14 4.18c-1.76-1.15-2.85-2.84-3.9-4.48-.54-.84-1.11-1.74-1.77-2.55-1.33-1.65-2.97-3.3-4.81-5.12l-.36-.36c-1.73-1.74-3.52-3.54-4.99-5.39-4.13-5.19-6.98-11.64-9.72-17.88l-.13-.29c-.41-.93-.83-1.89-1.24-2.8-.55-1.21-1.2-2.45-1.76-3.51l-.17-.32c-.93-1.79-1.81-3.48-2.32-5.12-.62-2.02-.09-3.51 1.81-5.13.96-.82 2.06-1.59 3.03-2.27l.29-.2c.45-.31.84-.59 1.16-.82 1.3-.96 2.5-1.98 3.66-2.97l.32-.27c2.44-2.09 4.74-4.06 7.31-5.01 1.29-.46 2.63-.69 4.07-.69 2.7 0 5.47.78 8.15 1.53 1.59.45 3.15.88 4.7 1.17 3.67.66 7.42.72 11.07.19 5.53-.8 11.18-2.9 17.79-6.6 1.2-.67 2.37-1.44 3.51-2.18l.56-.37c1.26-.84 2.73-1.8 4.2-2.62.61-.33 1.25-.56 1.81-.74.48-.17.98-.34 1.47-.57.42-.19.82-.41 1.21-.62l.09-.05c.93-.51 1.81-.99 2.86-1.19.89-.17 1.9-.27 2.84-.27.76 0 2.24.07 3.49.5 3.56 1.25 6.74 3.38 9.37 5.29.65.47 1.31.98 1.92 1.45l.18.14c.72.55 1.46 1.12 2.22 1.65.76.52 1.62.92 2.31 1.25l.06.03c.66.31 1.34.63 1.96 1.03 3.65 2.35 6.82 5.74 9.42 10.09 2.45 4.13 3.95 7.38 1 11.68-.89 1.32-1.98 1.71-3.55 2.17-1.58.48-3.28.56-4.93.65l-.28.01c-1.92.08-4.11.16-6.11.94-1.03.4-1.92 1-2.73 1.59-.14.1-.27.2-.4.29l-.26.2c-.85.63-1.73 1.29-2.7 1.76-1.48.72-3 1.53-4.3 2.23l-.41.22c-.76.41-1.56.83-2.34 1.23-1.86.96-3.73 1.95-5.56 2.91l-.83.43c-1.21.65-2.41 1.29-3.62 1.92l-.03.02c-.04.04-.1.1-.15.16-5.84 3.24-8.08 8.36-9.63 13.4-.09.27-.17.54-.25.8l-.1.32c-1.05 3.49-2.04 6.78-5.58 8.59-1.78.91-4.94 1.78-9.38 2.58-6.37 1.15-12.28 1.51-19.13 1.92l-.4.05z"/>
        <path d="M110.96 152.2c3.33-7.98 9.15-18.3 17.96-22.15 1.58-.69 3.12-.83 4.75-.98.65-.05 1.3-.12 1.96-.21 2.6-.37 5.41-.89 8.59-1.58.31-.06.62-.13.93-.2l.45-.1c2.42-.53 5.62-2.06 6.68-4.6.78-1.87.67-3.58-.32-5.09-2.92-4.39-12.92-5.88-17.03-5.89h-.08c-1.76 0-3.57.18-5.32.35l-.15.01c-1.05.11-2.07.22-3.07.28-1.73.12-3.15.62-4.9 1.71-1.77 1.11-3.66 1.63-5.95 1.63-1.75 0-3.56-.29-5.31-.58-.57-.1-1.17-.19-1.73-.28-2.4-.36-5.01-.52-8.22-.52-1.9 0-3.78.05-5.87.12l-1.22.03c-1.5.04-3.05.09-4.57.09-3.51 0-6.35-.21-8.94-.67-.6-.11-1.24-.26-1.93-.42l-.65-.15c-1.85-.44-3.95-.94-6.06-.94-1.21 0-2.28.15-3.26.44-4.99 1.5-9.15 7.59-9.92 12.33-.28 1.77-.24 3.59.12 5.73.59 3.31 1.38 6.25 2.15 9.09l.23.88c2.41 8.98 5.99 14.28 13.21 19.56l.3.23c3.84 2.81 7.15 5.23 10.85 6.4 1.85.6 4.14.91 6.61.91h.01c3.24 0 6.55-.57 8.86-1.52 6.11-2.5 8.3-7.79 10.84-13.91zm-19.72 15.07c-2.41 0-4.66-.31-6.51-.89-3.67-1.16-6.99-3.59-10.83-6.41l-.22-.17c-7.14-5.23-10.68-10.48-13.06-19.35l-.23-.88c-.88-3.21-1.59-5.92-2.12-9.02-.35-2.11-.38-3.89-.1-5.6.74-4.62 4.79-10.56 9.64-12.04 1.01-.29 2.04-.43 3.16-.43 2.12 0 4.22.51 6.08.95.87.21 1.7.41 2.47.55 2.6.46 5.46.67 9 .67 1.7 0 3.6-.04 5.8-.12 1.8-.06 3.83-.12 5.86-.12 3.13 0 5.72.16 8.16.52.44.07.86.14 1.28.21l.56.09c1.82.28 3.55.55 5.26.55 2.37 0 4.33-.53 6.15-1.67 1.68-1.05 3.05-1.53 4.73-1.66.95-.08 1.92-.17 3.08-.28 1.67-.18 3.6-.37 5.43-.37h.08c4.05.01 13.88 1.46 16.72 5.71.93 1.4 1.03 3 .29 4.75-1 2.39-4.08 3.85-6.41 4.37-.45.1-.91.2-1.38.3-3.35.72-6.15 1.23-8.57 1.57-.71.1-1.41.16-1.93.2l-.11.01c-1.63.16-3.16.31-4.77 1.01-8.92 3.9-14.8 14.3-18.16 22.34-2.52 6.05-4.69 11.28-10.62 13.72-2.25.93-5.51 1.49-8.73 1.49zM204.97 134.67l-.11-.02c-.88-.13-1.73-.2-2.54-.2h-.05c-3.15 0-5.96.98-8.35 2.91l-.05.07c-.24.44-.48.83-.7 1.17l-.08.12c-.81 1.3-1.34 2.16-1.61 4.41-.19 1.71-.12 3.46-.06 5.16l.01.26c.08 2.02.16 4.11-.19 6.16-1.21 7.38-7.09 14.99-13.68 17.7-.63.25-1.5.58-2.09.7-.52.09-.95.13-1.34.13-3.8 0-4.67-3.77-5.52-7.42l-.11-.44c-.16-.68-.33-1.38-.52-2.03-.9-3.06-2.1-5.09-3.91-6.59-1.82-1.48-4.25-2.45-7.9-3.13-1.47-.27-2.83-.4-4.16-.4-2.53 0-4.95.47-8.09 1.57-.14.04-.28.09-.41.14-1.67.56-3.24 1.1-4.33 2.78-2.02 3.16-3.66 8.25-2.88 11.88.77 3.61 3.48 4.34 6.09 5.05.55.15 1.08.3 1.57.45.88.3 1.51.57 2.04.87 4.07 2.28 8.58 4.36 14.19 6.52 4.69 1.81 6.98 5.8 9.19 9.65l.04.07c2.18 3.78 4.42 7.7 8.91 9.58.71.29 1.49.44 2.32.44 1 0 2.1-.21 3.29-.63 3.19-1.11 6.06-4.54 8.21-7.4l.09-.12c3.3-4.42 7.42-9.92 12.26-13.44l.44-.31v-.46l-.2.14c-.06.05-.12.09-.19.13-.09.06-.18.13-.27.19-4.93 3.58-9.08 9.15-12.42 13.63-2.09 2.82-4.9 6.19-8.03 7.28-1.14.39-2.2.59-3.17.59-.8 0-1.52-.13-2.19-.41-4.4-1.84-6.61-5.7-8.74-9.44-2.25-3.92-4.57-7.98-9.41-9.84-5.61-2.17-10.1-4.24-14.14-6.51-.59-.34-1.26-.62-2.11-.89-.4-.13-.83-.25-1.25-.36l-.35-.09c-2.62-.73-5.09-1.41-5.81-4.77-.75-3.54.86-8.52 2.84-11.6 1-1.57 2.52-2.08 4.13-2.63.13-.05.26-.1.41-.14 3.07-1.09 5.45-1.56 7.97-1.56 1.3 0 2.64.13 4.08.4 6.94 1.28 9.85 3.66 11.53 9.45.21.72.42 1.54.62 2.44.89 3.79 1.81 7.7 5.9 7.7.44 0 .91-.04 1.4-.12.62-.12 1.53-.45 2.17-.73 3.31-1.36 6.53-3.94 9.07-7.28 2.5-3.26 4.22-7.06 4.84-10.7.34-2.13.26-4.26.18-6.32-.07-1.73-.14-3.53.06-5.27.24-2.14.72-2.93 1.53-4.23l.18-.29c.18-.3.39-.64.61-1.02 2.31-1.87 5.04-2.82 8.12-2.82.81 0 1.65.07 2.5.21l.15.02v-.36z"/>
        <path d="M195.94 164.09c.61-3.21 1.24-6.53 1.53-9.78.08-.77.11-1.49.15-2.19l.01-.15c.12-2.01.24-3.91.85-5.69.81-2.39 2.8-3.94 5.05-3.94.42 0 .85.06 1.28.17l.16.04v-.38l-.09-.02c-.44-.11-.89-.16-1.34-.16-2.41 0-4.53 1.64-5.4 4.18-.62 1.82-.74 3.74-.87 5.78-.03.61-.08 1.43-.17 2.33-.28 3.23-.91 6.54-1.52 9.75l-.07.39c-.56 3.03-1.09 5.89-1.2 8.17v.1l.08.05c.36.27.79.56 1.31.56.12 0 .22-.02.3-.05l.04-.02c1.08-.62 2.24-1.19 3.35-1.74l.33-.16c1.64-.79 3.49-1.68 5.19-2.83l.05-.04v-.44l-.2.13c-1.64 1.12-3.46 2-5.21 2.86l-.12.06c-1.19.58-2.42 1.18-3.57 1.85-.05.01-.1.01-.15.01-.36 0-.67-.17-1.03-.43.12-2.29.66-5.2 1.23-8.28l.03-.13zM152.42 162.07c-2.29 0-4.62 1.14-4.64 3.7v.03c.7 2.44 4.1 5.43 7.06 5.43.73 0 1.4-.19 2.01-.56.84-.55 1.39-1.38 1.57-2.4.23-1.28-.16-2.84-.99-3.96-1.02-1.38-2.94-2.24-5.01-2.24zm2.42 8.79c-2.81 0-6.02-2.82-6.7-5.13.04-2.27 2.17-3.28 4.27-3.28 1.96 0 3.77.8 4.73 2.1.76 1.04 1.12 2.47.91 3.66-.16.91-.65 1.65-1.41 2.15-.51.33-1.11.5-1.8.5zM191.39 176.77c-.22-.08-.47-.13-.73-.13-1.04 0-2.18.66-3.18 1.24l-.19.11c-.33.18-.66.37-.99.54-.14.08-.29.15-.44.22-.08.04-.16.08-.25.12-3.45 1.69-8.17 4.01-7.83 9.58.48 1.75 1.94 3.51 4.12 3.51.18 0 .38-.02.65-.06 3.87-1.6 6.18-6.08 7.76-9.8l.13-.29c.71-1.67 1.52-3.56 1.06-4.94l-.06-.09-.05-.01zm-1.28 4.87l-.14.33c-1.56 3.66-3.84 8.06-7.53 9.59-.18.03-.35.04-.55.04-1.96 0-3.31-1.62-3.76-3.2-.32-5.3 4.28-7.55 7.64-9.19.1-.05.19-.1.29-.14.14-.06.27-.13.39-.2.27-.13.55-.29.82-.44.13-.07.25-.14.38-.21.96-.56 2.04-1.2 2.99-1.2.18 0 .36.02.53.07.35 1.23-.4 2.99-1.06 4.55zM145.96 217.11c-2.67 0-4.44 3.02-4.81 6-.28 2.2-.21 4.62.17 6.63.38 1.99 1.18 2.99 2.85 3.57.38.13.84.25 1.35.35.89.19 1.63.27 2.34.27 1.92 0 3.32-.67 4.16-1.98.97-1.49.82-4.93.58-6.72-.38-2.61-1.55-4.98-3.21-6.5-1.15-1.08-2.3-1.62-3.43-1.62zm-.01.37c1.03 0 2.1.51 3.19 1.5 1.63 1.53 2.75 3.81 3.07 6.28.27 1.88.36 5.16-.51 6.49-.77 1.19-2.07 1.8-3.85 1.8-.7 0-1.47-.09-2.26-.26-.57-.12-.99-.23-1.31-.35-1.54-.52-2.25-1.42-2.59-3.29-.38-1.91-.44-4.28-.17-6.5.35-2.81 1.98-5.67 4.43-5.67zM-19.44 254.52c-2.5 1.31-5.44 1.52-8.29 1.72l-.12.01c-1.28.08-2.64.18-3.93.37-1.38.22-2.5.48-3.58.74l-.03.01c-.89.22-1.86.46-3 .67-2.21.39-4.4.68-6.25.92-2.17.29-4.28.58-6.24.94l-.1.02v.37l.15-.03c2.01-.38 4.19-.67 6.25-.94 2.04-.26 4.15-.53 6.25-.91 1.04-.18 1.93-.4 2.79-.61l.25-.06c1.06-.26 2.17-.53 3.57-.76 1.13-.17 2.32-.26 3.47-.35l.42-.03c2.93-.19 5.95-.39 8.55-1.75 3.31-1.73 3.65-6.1 2.53-9.66-1.87-5.98-4.3-10.12-7.41-12.66-1.26-1.01-2.47-2.23-3.45-3.21l-.08-.08c-2.21-2.19-4.49-4.45-7.47-5.64-2.2-.9-4.68-1.56-7.45-2.27-1.4-.36-3.05-.8-4.6-1.28-.7-.21-1.46-.49-2.25-.79-.43-.16-.89-.32-1.35-.48l-.17-.06v.38l.08.03c.44.16.88.32 1.3.47l.57.2c.6.22 1.17.42 1.71.58 1.59.48 3.22.91 4.61 1.27l.25.07c2.44.64 4.97 1.31 7.17 2.19 2.92 1.19 5.18 3.43 7.37 5.6l.04.04c.99.99 2.22 2.21 3.49 3.24 3.04 2.47 5.43 6.55 7.29 12.49 1.07 3.46.76 7.63-2.34 9.24z"/>
        <path d="M-45.29 252.49c1.42-.44 2.9-.85 4.28-1.24l.07-.02c2.67-.75 5.43-1.53 8.07-2.69 2.64-1.15 5.31-2.49 6.51-5.2 1.56-3.56.05-7.37-4.03-10.19-.59-.42-1.16-.82-1.71-1.22l-.29-.21c-2.7-1.98-5.25-3.85-8.96-4.56-2.27-.42-5.74-.72-9.52-.81H-51v.37h.12c3.72.07 7.17.36 9.46.8 3.64.71 6.15 2.55 8.8 4.5l.49.36c.49.35.99.72 1.52 1.08 3.93 2.73 5.39 6.37 3.9 9.74-1.14 2.61-3.74 3.91-6.31 5.01-2.56 1.12-5.25 1.89-7.86 2.63l-.24.07c-1.08.3-2.69.76-4.28 1.26-1.79.58-3.63.94-5.51 1.29l-.1.02v.37l.34-.07c1.79-.36 3.62-.72 5.38-1.29z"/>
        <path d="M-45.89 265.26c1.18 0 2.35.03 3.6.07l.39.01c1.33.05 2.74.11 4.18.11 1.53 0 2.87-.06 4.1-.19 2.54-.26 4.89-.78 7.08-1.29.2-.04.39-.08.59-.13.36-.08.72-.16 1.09-.23.5-.12.87-.2 1.25-.27 4.28-.91 8.71-1.85 12.34-4.31 4.27-2.89 4.81-8.92 2.87-13.08-1.75-3.79-4.68-6.78-7.53-9.68-2.34-2.38-4.76-4.83-6.49-7.75-.74-.98-1.36-1.94-1.95-2.87l-.14-.22c-2.07-3.2-3.7-5.72-8.05-6.75-8.27-1.93-15.41-3.59-16.73-11.79-.46-2.9.17-5.17.79-7.36l-.12-.03h.13c.5-1.77.97-3.43.86-5.33l-.05-.12-.03-.02c-.16-.14-.31-.3-.46-.45l-.3-.31c-.24-.24-.48-.48-.76-.7l-.04-.04h-.09c-.5.04-.99.1-1.51.21l-.1.02v.38l.15-.03c.48-.1.95-.17 1.41-.19.28.23.55.5.79.75l.15.15c.14.15.29.3.45.43.1 1.8-.36 3.4-.83 5.1l-.03.12c-.62 2.22-1.25 4.52-.78 7.48 1.36 8.45 8.61 10.13 17.02 12.09 4.23.98 5.82 3.46 7.83 6.6.61.95 1.29 1.99 2.1 3.08 1.72 2.89 4.11 5.33 6.42 7.7l.18.19c2.79 2.85 5.68 5.8 7.41 9.51 1.86 4.03 1.33 9.86-2.75 12.64-3.62 2.44-8.18 3.4-12.2 4.25-.17.04-.34.07-.5.11-.25.06-.5.11-.75.16-.56.12-1.12.25-1.68.38l-.11.02c-2.2.49-4.47 1-6.94 1.25-1.19.12-2.5.18-4 .18-1.43 0-2.84-.05-4.21-.1-1.34-.05-2.72-.1-4.07-.1-1.93 0-3.49.1-4.93.32l-.11.02v.37l.14-.02c1.37-.24 2.95-.34 4.92-.34zM40.68 238.44l.21.11c.35.17.69.33.96.54 1.37.99 2.55 2.37 3.31 3.36 1.9 2.47 3.02 4.85 3.75 7.97 1.05 4.43 3.83 6.19 8.27 7.73 2.55.88 5.36 1.34 8.11 1.34 1.42 0 2.79-.12 4.08-.36 4.81-.86 7.9-3.77 8.46-8 .12-.88.28-1.79.44-2.65.65-3.56 1.33-7.24-.77-10.57-1.94-3.06-5.79-3.14-9.42-3.06l-.57.01c-.6.02-1.19.04-1.75.04-1.09 0-1.95-.05-2.71-.17-2.61-.42-5.2-1.06-7.49-1.62l-.36-.09c-3.91-.95-7.6-1.84-11.31-1.84-.76 0-1.56.04-2.37.13-1.02.13-1.92.97-2.46 2.31-.45 1.14-.68 2.84.16 3.86.38.42.93.7 1.46.96zm-1.26-4.7c.48-1.2 1.28-1.98 2.14-2.09.8-.08 1.59-.13 2.33-.13 3.83 0 7.76.98 11.57 1.92l.03.01c2.44.6 4.96 1.21 7.5 1.61.74.12 1.59.17 2.77.17.57 0 1.17-.01 1.76-.02.6-.02 1.23-.03 1.82-.03 3.12 0 6.24.35 7.84 2.91 2.02 3.2 1.36 6.81.72 10.3l-.06.31c-.14.78-.29 1.59-.39 2.36-.55 4.06-3.52 6.86-8.16 7.7-1.24.23-2.59.35-4.02.35-2.73 0-5.5-.45-8-1.31-4.33-1.5-7.03-3.21-8.03-7.49-.76-3.18-1.9-5.6-3.83-8.1-1.13-1.47-2.26-2.62-3.36-3.43-.25-.19-.55-.34-.84-.49l-.24-.12c-.58-.27-1.13-.55-1.47-.95-.58-.71-.62-2.14-.08-3.48z"/>
        <path d="M62.77 254.5c1.38 0 2.89-.24 3.62-.48.21-.07.43-.15.61-.24 1.21-.57 1.89-1.52 1.92-2.7.02-.92-.38-1.88-1.07-2.58-.68-.71-1.58-1.1-2.53-1.1-.34 0-.69.05-1.03.16-1.36.42-4.19 2.04-5.02 3.8-.3.63-.35 1.24-.12 1.8.46 1.11 2.22 1.34 3.62 1.34zm0-.37c-1.82 0-2.99-.4-3.28-1.12-.2-.47-.16-.97.1-1.49.8-1.66 3.55-3.23 4.8-3.6.29-.09.61-.13.93-.13.85 0 1.65.35 2.26.98.63.64.99 1.51.96 2.32-.03 1.03-.63 1.87-1.7 2.36-.21.1-.39.17-.57.23-.68.22-2.14.45-3.5.45zM99.57 298.39v-.03c.01-.31.02-.63-.02-.96-.23-1.91-1-4.24-1.82-6.71l-.07-.21c-.83-2.51-1.7-5.1-2.11-7.59-.14-.87-.24-1.81-.34-2.72l-.07-.64c-.35-3.61-.71-7.35-3.28-9.03-1.15-.77-2.85-1.13-5.32-1.13-1.16 0-2.42.08-3.63.16l-2.34.16c-4.99.3-15.41 1.6-19.07 4.37-5 3.79-5.59 10.26-5.51 16.1.58 7.17 5.18 11.15 11.14 15.61l.03.03h.62l-.3-.22c-5.95-4.46-10.55-8.42-11.13-15.43-.07-5.74.52-12.1 5.38-15.78 3.57-2.72 13.9-4 18.86-4.3.38-.02.76-.05 1.15-.08l.55-.04c1.21-.09 2.79-.2 4.26-.2 2.38 0 4.01.34 5.13 1.07 2.41 1.58 2.77 5.22 3.12 8.73l.01.09c.1 1.16.21 2.28.39 3.33.44 2.65 1.39 5.48 2.15 7.75l.04.12c.81 2.43 1.58 4.73 1.79 6.62.04.31.03.63.02.9v.03c-.01.3-.02.58.02.85.23 1.85 0 4.06-.67 6.4l-.05.16h.38l.03-.09c.68-2.42.91-4.66.66-6.5-.02-.28-.01-.54 0-.82zM-46.35 278.49c-1.55-.47-2.98-.63-4.52-.51l-.12.01v.37l.13-.01c1.49-.12 2.89.04 4.4.5 5.12 1.56 10.97 4.86 12.01 9.45.43 1.88.36 4.21.28 6.69v.06c-.06 1.55-.12 3.31-.04 5.03.09 1.94.03 3.82-.18 5.59l-.02.14h.37l.01-.11c.21-1.86.27-3.76.18-5.65-.08-1.83-.02-3.63.04-5v-.06c.08-2.5.16-4.86-.28-6.77-1.06-4.76-7.03-8.15-12.26-9.73z"/>
        <path d="M92.38 294.21l-.11-.36c-.61-2.05-1.3-4.37-1.64-6.7-.1-.61-.19-1.24-.28-1.98l-.01-.04c-.58-4.17-1.04-7.47-3.86-9.67-1.92-1.5-5.5-2.39-9.56-2.39-4.95 0-9.55 1.25-12.31 3.35-4.55 3.44-4.74 9.5-4.09 13.99.99 4.77 4.4 7.22 8.71 10.32l.05.03c2 1.43 4.07 2.91 6.21 4.84.02.01.04.03.06.05.04.04.08.08.12.11l.03.02h.61l-.32-.23-.15-.12c-.04-.04-.08-.08-.12-.11-2.12-1.93-4.3-3.49-6.21-4.87-4.27-3.06-7.65-5.48-8.63-10.12-.64-4.37-.48-10.28 3.97-13.64 2.69-2.04 7.2-3.26 12.08-3.26 3.98 0 7.47.86 9.33 2.31 2.7 2.1 3.14 5.31 3.7 9.37l.01.09.15 1.06c.04.3.08.61.13.92.38 2.53 1.13 5 1.73 6.98l.03.11c.43 1.42.83 2.76 1.03 3.86.45 2.37.28 5.03-.47 7.47l-.05.16h.38l.03-.09c.77-2.48.94-5.18.48-7.6-.21-1.09-.61-2.44-1.03-3.86zM10.55 299.9l-.3-.74c-1.15-2.83-2.24-5.5-3-8.14-.5-1.76-.87-5.02-.59-7.25.05-.43.17-.92.32-1.49.48-1.87 1.07-4.19-1.31-5.89l-.03-.02-.06-.02c-.28-.03-.56-.05-.84-.05-3.86 0-6.3 3.29-8.47 6.21-.64.87-1.17 1.59-1.74 2.26-2.05 2.15-4.86 3.7-7.83 5.35l-.1.05c-4.69 2.61-9.54 5.3-11.83 10.56-.67 1.5-1.25 3.29-1.76 4.86l-.05.16h.38l.03-.09c.55-1.7 1.1-3.35 1.72-4.8 2.24-5.14 7.02-7.79 11.65-10.36l.04-.03c3.03-1.68 5.89-3.26 8.02-5.49.53-.62 1.04-1.29 1.58-2.01l.23-.3c2.09-2.83 4.47-6.03 8.15-6.03.24 0 .49.01.74.04 2.13 1.56 1.6 3.65 1.13 5.5l-.02.07c-.14.52-.27 1.01-.33 1.46-.27 2.31.1 5.63.6 7.39.71 2.49 1.72 4.99 2.79 7.62l.26.63c.83 2.02 1.71 4.18 2.47 6.32l.03.08h.38l-.06-.17c-.65-1.9-1.44-3.82-2.2-5.68z"/>
        <path d="M75 276.65c-2.69 0-5.34.79-7.09 2.11-2.28 1.71-3.65 3.78-3.39 8.8 1.55 6.36 8.45 9.79 14.14 9.79.79 0 1.5-.06 2.17-.17l.06-.01.03-.03c.79-.64 1.53-1.43 2.26-2.42l.03-.07c2.09-6.44 1.99-11.8-.28-14.71-1.64-2.09-4.53-3.29-7.93-3.29zm7.86 17.88c-.72.94-1.41 1.69-2.13 2.3-.71.1-1.4.15-2.06.15-5.56 0-12.28-3.32-13.77-9.46-.25-4.82 1.06-6.81 3.24-8.46 1.68-1.28 4.25-2.04 6.88-2.04 3.29 0 6.07 1.15 7.62 3.16 2.16 2.8 2.25 8.03.22 14.35zM49.76 305.38c-2.17-3.17-2.98-7.11-3.77-10.92l-.03-.17c-.89-4.27-1.82-8.69-4.62-12.21-1.47-1.85-3.28-2.57-5.6-2.23-4.7.7-10.22 4.92-13.21 7.19-3.35 3.49-4.62 7.71-3.87 12.91.28 1.89.8 3.88 1.32 5.74l.03.09h.38l-.04-.16c-.55-1.98-1.07-3.91-1.32-5.73-.73-5.08.5-9.2 3.75-12.59 2.94-2.24 8.42-6.42 13.02-7.09.37-.05.71-.08 1.01-.08 1.69 0 3.08.71 4.25 2.18 2.8 3.52 3.74 8.11 4.57 12.16.79 3.87 1.61 7.87 3.83 11.1l.03.04c.03.04.06.09.11.14l.03.03h.45l-.17-.2c-.05-.06-.1-.14-.15-.2z"/>
        <path d="M75.67 284.8c-.47-.79-1.22-1.26-2-1.26-.27 0-.53.05-.76.15l-.04.03c-.46.35-.79.91-.86 1.46-.04.39.08.77.36 1.07.16.12.31.27.46.44l.06.04h.03c.23.09.47.13.72.13.82 0 1.57-.47 2.04-1.28l.02-.06c.02-.16.01-.32.01-.48v-.18l-.04-.06zm-2.02 1.69c-.18 0-.37-.03-.59-.09-.14-.15-.29-.3-.42-.4-.19-.23-.27-.49-.24-.77.05-.42.32-.9.69-1.19.19-.07.38-.11.61-.11.63 0 1.25.38 1.65 1.03 0 .08-.01.16-.01.25s0 .18-.01.26c-.4.64-1 1.02-1.68 1.02zM-44.89 290.11c-1.51-1.85-2.9-2.59-5.96-3.17l-.15-.03v.37l.1.02c2.94.55 4.28 1.26 5.72 3.03 2.57 3.17 4.14 9.05 4.52 13.18.07.81.11 1.51.11 2.14v.12h.37v-.12c0-.7-.03-1.43-.1-2.18-.37-4.18-1.98-10.14-4.61-13.36zM39.73 302.7l-.05-.18c-1.59-5.11-3.39-10.9-8.39-10.9-.18 0-.36 0-.53.02-1.64.13-3.1.9-4.22 2.21-1.58 1.88-2.28 4.73-1.97 8.02.12 1.29.33 2.58.6 3.82l.02.1h.38l-.03-.15c-.29-1.33-.49-2.6-.6-3.8-.29-3.21.38-5.97 1.89-7.75 1.05-1.24 2.42-1.96 4-2.09.17-.01.32-.02.47-.02 4.72 0 6.48 5.67 8.04 10.68l.09.29c.3.97.59 1.89.89 2.75l.03.08h.4l-.06-.17c-.35-.89-.65-1.87-.96-2.91zM8.26 304.45c-2.54-4.65-6.06-7.59-9.64-8.07-.78-.12-1.58-.17-2.46-.17-3.28 0-6.5.89-9.3 2.57a17.828 17.828 0 0 0-6.46 6.81l-.1.18h.41l.04-.07c3.01-5.64 8.91-9.14 15.41-9.14.75 0 1.54.05 2.41.16 3.48.48 6.89 3.36 9.37 7.9.22.4.4.75.56 1.07l.03.07h.4l-.08-.18c-.21-.41-.4-.79-.59-1.13zM-50.7 301.45c-.07 0-.14 0-.19.01l-.1.02v.34h.29c.87 0 1.59.57 2.03 1.61.27.68.42 1.47.41 2.24v.13h.38v-.12c0-.84-.16-1.7-.45-2.38-.51-1.2-1.36-1.85-2.37-1.85z"/>
        <path d="M-3.95 303.39c-2.39 0-4.79.77-6.75 2.16l-.32.23h.63l.03-.02c1.87-1.29 4.14-1.99 6.41-1.99 2.23 0 4.31.69 6.02 1.99l.03.03h.6l-.28-.22c-1.79-1.43-3.99-2.18-6.37-2.18zM164.57 300.49c-.89-1.92-1.9-3.79-2.97-5.77l-.53-.97c-1.34-2.46-2.73-5.01-3.82-7.63-.63-1.49-1.2-3.1-1.83-4.91-2.62-7.51-5.58-16.03-14.82-16.03h-.36c-3.37.08-6.51 1.25-8.54 2.22-.44.19-.93.42-1.53.71-1.52.69-3.12 1.43-4.55 2.22-4.12 2.27-8.84 3.39-13.42 4.47l-.14.03c-.39.1-.8.19-1.24.27-3.11.66-6.99 1.49-8.23 5.14-.94 2.79-.09 6.31.73 9.72l.08.34c.28 1.14.53 2.22.71 3.25.67 3.88.71 7.51.12 10.79-.09.47-.18.89-.28 1.29l-.04.15h.38l.02-.09c.11-.44.19-.85.27-1.3.59-3.35.55-7.03-.12-10.92-.21-1.17-.51-2.44-.78-3.56-.82-3.38-1.67-6.87-.75-9.57 1.17-3.45 4.93-4.25 7.97-4.89l.57-.13c.24-.05.46-.1.68-.15l.07-.01c4.61-1.08 9.38-2.19 13.6-4.52 1.43-.79 3.07-1.55 4.51-2.22.39-.17.77-.35 1.15-.53l.38-.18c1.63-.78 4.89-2.1 8.41-2.18.11-.01.24-.01.34-.01h.01c8.97 0 11.89 8.4 14.47 15.82.59 1.73 1.18 3.4 1.82 4.92 1.16 2.76 2.61 5.41 4.01 7.97l.02.04c1.13 2.06 2.3 4.2 3.3 6.38.96 2.11 2 3.82 3.08 5.08l.04.04h.5l-.19-.21c-1.08-1.2-2.09-2.86-3.1-5.07zM201.64 271.98c.6-.22 1.65-.51 2.57-.7.21-.04.43-.08.64-.11l.11-.01v-.38l-.15.03c-.11.02-.22.04-.33.05-.11.02-.23.04-.35.06-1 .22-2.03.51-2.61.73-7.58 2.86-12.63 8.26-14.62 15.6-.54 1.95-.91 4.43-1.27 6.83l-.05.36c-.47 3.12-.95 6.35-1.74 8.6-.36.99-.83 1.82-1.43 2.53l-.18.21h.47l.04-.05a8.52 8.52 0 0 0 1.43-2.56c.8-2.26 1.29-5.48 1.75-8.59l.03-.2c.37-2.48.76-5.05 1.3-7.04 1.96-7.24 6.93-12.55 14.39-15.36z"/>
        <path d="M53.3 298.57c-1.27-3.1-2.43-10.69-1.29-16.89 1.17-6.32 4.65-10.29 10.36-11.8 2.54-.68 5.34-1.05 8.29-1.43 1.36-.17 3.15-.4 4.92-.69l.13-.02c3.45-.58 7.36-1.25 10.59-3.28 3.49-2.18 4.18-5.15 4.98-8.59l.02-.08c.09-.36.2-.79.28-1.21.71-2.95 3.43-5.31 5.84-7.38l.43-.37c.42-.36.81-.7 1.18-1.04.7-.64 1.5-1.33 2.43-2.12 2.39-2.03 4.86-4.12 6.43-6.55.59-.89 1.25-1.75 1.89-2.59l.19-.25c1.19-1.57 2.42-3.19 3.25-5.05 1.08-2.4 1.96-4.95 2.81-7.4l.47-1.34c.2-.56.39-1.12.59-1.67 1.38-3.85 2.81-7.83 4.73-11.82l.22-.48c.96-1.99 2.04-4.24 3.47-6.07 1.84-2.37 4.53-3.44 6.91-4.39.85-.36 1.67-.71 2.46-1.05 3.08-1.35 5.73-2.51 9.14-2.51.66 0 1.34.04 2.02.13 2.71.37 5.55 1.53 8.94 3.66 3.67 2.32 6.99 5.55 9.85 9.59 1.41 1.98 2.71 4.26 3.86 6.78.29.65.59 1.35.85 1.96.98 2.32 2.09 4.94 3.73 6.78 1.9 2.13 4.2 2.86 7.07 2.24 2.44-.53 4.76-1.71 7.01-2.86l.14-.07c2.19-1.1 4.46-2.24 6.79-2.74.98-.22 2-.33 3.03-.33 2.75 0 5.32.78 7.47 1.54l.17.06v-.38l-.08-.03c-2.15-.77-4.74-1.56-7.58-1.56-1.05 0-2.08.11-3.08.33-2.51.56-5 1.84-7 2.87-2.24 1.13-4.56 2.31-6.93 2.8-.63.14-1.23.2-1.8.2-4.78 0-6.79-4.79-8.57-9.01l-.84-1.97c-1.16-2.53-2.47-4.83-3.91-6.84-2.91-4.08-6.26-7.33-9.95-9.67-3.44-2.17-6.33-3.35-9.09-3.71-.7-.09-1.4-.14-2.08-.14-3.46 0-6.28 1.23-9.26 2.52-.94.42-1.72.75-2.45 1.05l-.03.01c-2.42.98-5.16 2.1-7.04 4.52-1.37 1.77-2.43 3.92-3.49 6.14l-.24.48c-1.85 3.83-3.21 7.59-4.65 11.58l-.09.26c-.33.92-.66 1.86-.98 2.79l-.12.36c-.84 2.41-1.7 4.89-2.76 7.24-.78 1.79-1.97 3.36-3.12 4.88l-.25.33c-.65.85-1.32 1.73-1.92 2.64-1.57 2.4-4.02 4.47-6.39 6.47l-.52.45c-.67.58-1.31 1.12-1.92 1.68-.43.39-.95.85-1.54 1.33-2.48 2.13-5.28 4.55-6.03 7.65-.07.28-.13.56-.19.83l-.09.38c-.78 3.39-1.46 6.33-4.85 8.45-3.22 2.01-7.14 2.67-10.59 3.25-1.32.23-2.67.41-3.97.58l-.94.13c-3.08.39-5.83.77-8.34 1.42-5.86 1.56-9.44 5.63-10.63 12.09-1.15 6.3.03 13.98 1.32 17.1 1.04 2.52 2.79 4.76 5.5 7.04l.04.03h.59l-.27-.22c-2.72-2.27-4.48-4.5-5.52-7.02z"/>
        <path d="M204.85 253.35c-2.38.48-5.13 1.08-7.62 2.13-3.76 1.54-6.52 4.2-9.19 6.77l-.14.13c-2.79 2.71-5.43 5.28-8.88 6.28-.71.21-1.43.32-2.14.32-3.75 0-6.82-2.99-9.78-5.88-.21-.21-.43-.43-.65-.64-1.81-1.75-3.97-3.07-6.05-4.34-1.41-.86-3.02-1.84-4.42-2.94-1.08-.84-2.24-1.64-3.23-2.32-.32-.23-.64-.45-.96-.68-.41-.29-.82-.57-1.22-.86-1.14-.84-1.95-2.16-2.73-3.44l-.25-.41c-.37-.61-.76-1.24-1.19-1.78-1.39-1.78-3.32-3.11-5.18-4.4-3.39-2.33-6.6-4.54-6.83-9.12-.13-2.73.49-6.13 1.69-9.33 1.15-3.02 3.33-6.3 5.98-9 1.79-1.82 3.61-2.66 5.37-2.52 3.19.28 5.92 3.66 7.95 6.58 1.22 1.76 1.7 3.47 2.16 5.13.28 1 .59 2.06 1.06 3.21.39.95.85 1.89 1.3 2.79l.24.49c.75 1.48 1.68 3.32 2.24 5.23.89 3.07 1.07 7.51-.31 10.06-1.39 2.54-.74 6.83.72 9.09 1.32 2.04 4.6 3.34 7.25 4.39.59.23 1.13.46 1.63.66.11.05.22.1.32.14.12.05.25.11.37.17l.27.12c.75.33 1.4.61 2.15.77.61.12 1.2.19 1.76.19 3.22 0 5.49-2.03 6.95-6.22 1.8-5.13.55-9.81-3.51-13.16-1.18-.97-2.54-1.72-3.85-2.45l-.45-.25c-.51-.28-1.04-.58-1.54-.88-.08-.05-.17-.1-.25-.15-.08-.04-.15-.09-.23-.14l-.06-.04c-1.74-1.04-3.9-2.34-5.09-3.83a32.66 32.66 0 0 1-4.42-7.33c-.59-1.37-1.07-2.83-1.49-4.11l-.12-.36c-.31-.92-.63-1.86-.99-2.83-.74-1.95-1.87-4-3.37-6.08-1.93-2.62-5.4-6.13-8.85-7.42-.8-.29-1.67-.44-2.59-.44-2.26 0-4.92.91-7.68 2.64-2.23 1.4-4.48 3.31-6.19 5.25-2 2.28-3.33 5.15-4.36 7.65-.09.22-.18.44-.27.67-.18.46-.36.92-.55 1.36-1.4 3.53-2.85 7.18-5.22 10.45-.7.98-1.29 2.03-1.87 3.04l-.12.21c-.11.19-.22.38-.32.57-.33.59-.68 1.2-1.05 1.78-1.24 1.93-3.14 3.1-5.02 4.07-.65.34-1.33.66-1.99.98l-.64.31c-2.38 1.11-5.09 2.36-7.26 4.4-1.37 1.3-1.92 2.69-1.63 4.13.48 2.37 3.08 4.11 5.34 4.95 2.06.77 4.43 1.14 7.26 1.14 2.61 0 5.25-.32 7.58-.6l1.74-.18c2.01-.2 4.08-.41 6.11-1.56l.29-.16c.22-.12.43-.25.65-.37l.09-.05c2.97-1.68 5.53-3.14 8.92-3.89.83-.19 1.77-.29 2.71-.29 1.84 0 3.45.38 4.54 1.06.92.56 1.32 1.43 1.75 2.36l.04.09c.27.6.55 1.23.97 1.79 1.62 2.12 3.8 3.79 5.9 5.4l.23.17c2.08 1.58 4.23 3.22 5.84 5.29.92 1.16 1.69 2.59 2.44 3.97l.16.29c.75 1.41 1.61 3.01 2.59 4.24 1.46 1.8 3.32 2.75 5.38 2.75.74 0 1.5-.12 2.27-.36 2.52-.79 5.3-2.91 7.99-4.97l.46-.35c.28-.21.55-.42.82-.62 1.45-1.09 2.88-2.26 4.13-3.28 3.64-2.95 7.09-5.75 10.95-7.31 1.38-.56 3.03-1.01 5.17-1.43l.1-.02v-.37l-.15.03c-2.18.42-3.85.88-5.26 1.45-3.87 1.56-7.29 4.33-10.92 7.26l-.15.12c-1.24 1.01-2.65 2.15-4.1 3.25-.35.27-.8.6-1.21.93l-.14.1c-2.64 2.01-5.36 4.09-7.81 4.85a7.2 7.2 0 0 1-2.16.34c-1.96 0-3.72-.91-5.1-2.62-.91-1.13-1.7-2.56-2.55-4.17-.77-1.43-1.64-3.06-2.64-4.33-1.73-2.18-3.99-3.9-5.98-5.41-2.02-1.54-4.31-3.29-5.98-5.44-.36-.48-.62-1.03-.87-1.57l-.08-.17c-.46-1-.89-1.94-1.9-2.58-1.15-.72-2.84-1.12-4.76-1.12-.96 0-1.92.1-2.77.29-3.54.8-6.25 2.35-9.11 4-.28.15-.62.34-.94.54-1.9 1.07-3.82 1.27-5.85 1.49l-.4.04c-.27.03-.56.07-.85.09l-.65.09c-2.43.28-4.94.57-7.47.57-2.79 0-5.13-.37-7.15-1.12-2.74-1.01-4.74-2.85-5.1-4.68-.27-1.3.25-2.57 1.53-3.78 2.07-1.96 4.65-3.17 7.16-4.35.95-.43 1.84-.86 2.66-1.28 1.91-.99 3.86-2.19 5.15-4.21.47-.74.91-1.52 1.33-2.27l.06-.11c.59-1.07 1.21-2.17 1.95-3.19 2.34-3.24 3.74-6.73 5.21-10.43l.04-.11c.1-.24.19-.48.29-.73.17-.43.34-.87.53-1.31 1.02-2.47 2.33-5.3 4.28-7.54 4.71-5.34 10.34-7.77 13.58-7.77.88 0 1.71.14 2.47.42 3.36 1.24 6.77 4.7 8.67 7.29.83 1.11 2.36 3.37 3.34 5.98.37.97.7 1.96 1.01 2.91l.08.26c.48 1.49.93 2.83 1.5 4.14 1.12 2.6 2.62 5.09 4.46 7.41 1.27 1.58 3.57 2.95 5.25 3.95.12.06.23.13.35.2l.15.09c.38.23.77.45 1.17.67.23.13.47.26.7.4 1.34.73 2.72 1.49 3.93 2.48 3.94 3.25 5.15 7.78 3.41 12.77-1.66 4.72-4.37 6.59-8.31 5.79-.77-.16-1.45-.46-2.34-.86l-.16-.07c-.17-.08-.35-.15-.53-.25-.2-.08-.42-.17-.64-.26-.32-.13-.66-.26-1-.4l-.03-.01c-2.58-1.02-5.79-2.3-7.04-4.23-1.39-2.17-2.03-6.28-.71-8.72 1.42-2.63 1.25-7.2.34-10.34-.5-1.75-1.31-3.4-2.1-5l-.15-.3c-.41-.81-1.02-2.04-1.53-3.27-.42-1.02-.71-2-.99-2.95l-.07-.22c-.48-1.7-.97-3.45-2.22-5.25-2.09-2.99-4.92-6.46-8.22-6.73-1.88-.15-3.8.72-5.66 2.61-2.69 2.73-4.9 6.05-6.07 9.13-1.23 3.27-1.86 6.72-1.72 9.49.23 4.74 3.67 7.11 6.98 9.4l.06.04c1.83 1.27 3.73 2.58 5.06 4.29.46.57.86 1.22 1.27 1.92l.15.25c.8 1.3 1.62 2.64 2.81 3.52.77.56 1.51 1.08 2.19 1.54l.5.36c.9.63 1.83 1.29 2.71 1.97 1.4 1.1 2.91 2.02 4.46 2.95l.12.08c2.03 1.25 4.12 2.54 5.87 4.23.14.13.27.25.4.38.08.08.17.17.26.25l.03.02c3.01 2.93 6.13 5.96 10.02 5.96.74 0 1.49-.11 2.23-.33 3.55-1.03 6.22-3.63 9.05-6.38 2.67-2.6 5.44-5.29 9.16-6.85 2.43-1.01 5.05-1.59 7.53-2.09l.1-.02v-.37l-.1.1z"/>
        <path d="M191.23 272.77l.27-.21c3.89-3.01 7.57-5.86 12.42-6.82.31-.07.63-.12.94-.17l.11-.02v-.37l-.14.02c-.27.04-.54.09-.81.14l-.18.03c-4.94.98-8.65 3.87-12.58 6.92l-.25.19c-2.85 2.22-4.99 4.19-6.53 6.03-1.52 1.82-2.66 4.01-3.77 6.13l-.07.13c-1.73 3.34-3.37 6.49-6.1 7.28-.49.15-1.01.22-1.53.22-2.44 0-4.74-1.58-6.24-2.9-2.25-1.98-4.36-4.86-5.37-7.34-.71-1.7-1.17-3.49-1.62-5.22l-.04-.14c-.46-1.75-.93-3.56-1.66-5.26-1.69-4.01-4.98-6.64-8.17-9.18-.54-.43-1.11-.89-1.66-1.34-2.54-2.09-5.4-3.19-8.28-3.19-2.08 0-4.09.57-5.95 1.69-1.04.63-2.1 1.34-3.27 2.14-3.11 2.11-6.34 4.29-9.71 4.89-3.52.63-6.64.93-9.53.93-1.95 0-3.8-.15-5.51-.43-5.46-.9-7.98-1.97-9.21-8.44-.69-3.69.43-7.29 2.91-9.39 1.11-.95 2.19-1.98 3.2-2.97 1.53-1.49 3.1-3.04 4.93-4.31.53-.36 1.11-.74 1.74-1.14l.34-.22c2.73-1.72 5.82-3.68 7.01-6.45 1.13-2.64 1.75-5.53 2.35-8.33l.07-.34c.54-2.5 1.09-5.09 2.04-7.49.88-2.26 1.98-4.41 3.26-6.39.27-.42.52-.85.79-1.31l.15-.26c.6-1.04 1.23-2.11 1.96-2.94 2.54-2.88 6.25-4.23 9.85-5.54.5-.19.96-.36 1.42-.51.53-.2 1.07-.48 1.61-.75l.34-.17c1.15-.6 2.19-1.1 3.17-1.24.38-.05.77-.08 1.15-.08 2.83 0 5.33 1.49 7.4 2.94l.3.21c.32.22.63.44.94.65l.13.09c2.67 1.87 5.19 3.64 7.22 6.49 1.3 1.8 2.44 3.89 3.39 6.22.29.72.57 1.48.86 2.27.11.31.23.62.35.95 2.02 5.58 4.31 11.9 10.34 13.77.67.21 1.38.31 2.13.31 2.74 0 5.58-1.4 8.36-2.77 2.06-1.02 4.01-1.98 5.9-2.39 2.12-.46 5.76-.72 9.97-.72.82 0 1.65.01 2.47.03h.13v-.37h-.12c-.84-.02-1.69-.03-2.53-.03-4.23 0-7.86.26-9.96.71-1.92.41-3.88 1.36-5.94 2.38l-.12.06c-2.7 1.33-5.5 2.7-8.14 2.7-.71 0-1.39-.1-2.02-.3-5.84-1.82-8.1-8.04-10.09-13.52l-.27-.73c-.33-.89-.63-1.73-.96-2.55-.91-2.28-2.07-4.4-3.43-6.28-2.13-2.96-4.71-4.76-7.44-6.67-.22-.15-.43-.3-.64-.45l-.6-.42c-2.1-1.49-4.65-3.01-7.6-3.01-.4 0-.81.03-1.21.09-1.09.15-2.2.73-3.28 1.28-.75.4-1.36.69-1.91.89l-.46.17c-.31.12-.63.23-.95.35-3.45 1.24-7.37 2.64-10 5.63-.75.86-1.42 2-2 3-.35.61-.64 1.11-.93 1.56-1.26 1.92-2.37 4.08-3.31 6.44-.99 2.54-1.56 5.22-2.1 7.82l-.02.07c-.6 2.78-1.21 5.66-2.33 8.27-1.16 2.71-4.34 4.71-6.89 6.31l-.14.09c-.69.44-1.34.85-1.93 1.27-1.92 1.34-3.63 3.01-5 4.35l-.22.22c-.94.91-1.91 1.85-2.94 2.72-2.59 2.19-3.75 5.93-3.05 9.75 1.25 6.7 3.86 7.81 9.5 8.74 1.71.28 3.57.42 5.53.42 2.91 0 6.07-.3 9.65-.92 3.4-.6 6.61-2.76 9.71-4.86l.12-.08c1.06-.73 2.18-1.49 3.26-2.13 1.8-1.09 3.74-1.64 5.76-1.64 2.8 0 5.58 1.08 8.05 3.11.56.45 1.12.9 1.68 1.34 3.28 2.62 6.39 5.1 8.03 9.03.72 1.68 1.2 3.49 1.65 5.24l.03.11c.43 1.66.91 3.54 1.63 5.28 1.06 2.58 3.16 5.44 5.48 7.47 1.55 1.37 3.93 2.99 6.48 2.99.56 0 1.11-.08 1.63-.23 2.85-.83 4.52-4.02 6.28-7.4l.04-.07c1.21-2.34 2.33-4.41 3.8-6.19 1.94-2.3 4.48-4.38 6.48-5.94zM204.98 128.8h-.12c-.44-.01-.88-.02-1.31-.02-5.65 0-10.26 1.21-13.69 3.59-3.26 2.26-5.22 5.47-5.82 9.52-.23 1.57-.05 3.28.12 4.93v.03c.18 1.63.38 3.48.11 5.19-.29 1.89-1.31 3.6-2.61 4.35-.88.52-1.86.59-2.9.2-3.51-4.07-6.39-6.76-10.68-8.51a49.34 49.34 0 0 0-4.03-1.41c-.75-.24-1.52-.49-2.25-.73-3.94-1.29-8.01-2.62-13.93-2.62-1.12 0-2.3.05-3.49.15-3.81.31-6.67 1.01-9.18 3.55-1.69 1.71-2.96 3.78-4.07 5.6l-.25.4c-.79 1.25-1.6 2.55-2.52 3.71-.44.56-.96 1.11-1.46 1.64l-.36.38c-.85.9-1.73 1.83-2.39 2.86-1.4 2.23-1.47 5.94-.95 8.45.7 3.29 2.78 6.06 4.86 8.63.36.45.7.92 1.06 1.42.15.21.31.43.47.65 1.31 1.89 2.81 4.04 4.86 5.13 1.41.74 3.06 1.08 5.22 1.08.6 0 1.24-.03 2.02-.08s1.57-.25 2.33-.46l.22-.06c.94-.25 1.9-.52 2.85-.52.27 0 .54.02.79.07 4.31.77 9.17 3.76 12.28 6.3 1.7 1.37 3.23 2.93 4.57 4.62 1.05 1.33 2.07 2.7 3.11 4.1 1.82 2.44 3.71 4.96 5.87 7.47 1.53 1.78 3.47 3.6 6.3 3.6.8 0 1.64-.15 2.51-.45 2.34-.81 4.34-2.21 6.2-3.56 2.8-2.07 5.37-5.01 7.64-7.6 1.97-2.27 4.2-4.84 6.3-6.32.49-.35 1.14-.74 2.23-1l.1-.02v-.37l-.15.03c-1.14.25-1.85.68-2.39 1.06-2.08 1.46-4.15 3.85-6.36 6.39l-.13.15c-2.34 2.67-4.77 5.44-7.44 7.4-1.82 1.34-3.78 2.71-6.09 3.51-.82.28-1.63.43-2.39.43-2.68 0-4.55-1.75-6.02-3.47-2.18-2.54-4.13-5.16-5.85-7.46-1.24-1.66-2.2-2.93-3.13-4.11a30.156 30.156 0 0 0-4.62-4.69c-3.17-2.58-8.11-5.6-12.44-6.37a4.72 4.72 0 0 0-.85-.07c-.99 0-1.98.27-2.94.52l-.17.04c-.76.2-1.54.4-2.3.45-.78.06-1.42.08-2.02.08-2.08 0-3.68-.33-5.03-1.04-1.94-1.03-3.36-3.06-4.73-5.01-.6-.88-1.07-1.53-1.53-2.09-2.05-2.53-4.1-5.27-4.78-8.47-.51-2.43-.45-6.02.9-8.17.63-1.02 1.51-1.94 2.36-2.84l.08-.08c.63-.65 1.23-1.28 1.74-1.93 1.08-1.35 2.02-2.89 2.79-4.13l.1-.16c1.16-1.86 2.36-3.79 3.94-5.37 2.45-2.47 5.24-3.15 8.94-3.46 1.19-.1 2.36-.15 3.48-.15 5.91 0 9.92 1.32 13.8 2.61l.73.24c.51.16 1.02.33 1.52.49 1.66.52 2.85.94 4 1.4 4.26 1.73 7.1 4.4 10.58 8.46l.06.04c1.15.43 2.26.36 3.27-.21 1.38-.81 2.47-2.62 2.79-4.62.27-1.69.08-3.48-.11-5.21l-.01-.1c-.17-1.63-.34-3.31-.12-4.83.58-3.95 2.48-7.06 5.65-9.27 3.59-2.5 8.74-3.71 14.76-3.47h.13v-.41zM16.16 56.56c.06.2.12.39.17.59l.15.52c.96 3.37 1.86 6.55 2.23 9.66.24 2.03.42 4.85-.12 6.78-.94 3.36-3.65 6.26-6.28 9.07l-.09.09C8.43 87.3 4.5 91.47 5.71 97.1c.66 3.04 2.31 4.93 5.05 5.78 1.28.4 2.83.59 4.86.59 1.1 0 2.25-.05 3.65-.13.78-.04 1.55-.07 2.3-.07 4.72 0 8 .86 9.91 1.58 2.27.87 4.38 2.3 6.41 3.7l.26.18c2.81 1.93 5.47 3.76 8.49 4.17 1.24.16 2.2.13 3.38-.13 2.85-.63 4.98-2.05 7.25-3.57 3.01-2.01 6.13-4.08 11.1-4.08 1.33 0 2.76.15 4.25.45 1.65.32 3.3.81 5.03 1.33l.09.03c3.22.96 6.56 1.94 10.07 1.94 2.86 0 5.5-.66 8.06-2.02 5.97-2.99 9.68-8.45 13.27-13.73l.04-.06c1.67-2.44 3.39-4.95 5.27-7.17l.03-.03c2.15-2.5 4.82-5.6 8.09-5.6.55 0 1.11.09 1.65.27 1.67.54 3.37.8 5.01 1.06l.08.01c2.57.41 5.23.84 7.62 2.34 1.73 1.08 3.07 2.63 4.37 4.12.64.73 1.27 1.45 1.92 2.1 1.43 1.44 2.59 3.13 3.72 4.78l.08.12c1.01 1.48 2.01 2.92 3.2 4.25l.38.33c1.41 1.24 2.75 2.42 4.24 3.78 1.93 1.76 3.69 3.85 5.4 5.87l.09.11c3.34 3.97 6.49 7.71 10.63 8.93 1.3.39 2.6.57 3.98.57 1.74 0 3.64-.31 5.8-.93 2.22-.64 5.12-1.91 6.65-2.61 3.87-1.76 8.2-4.14 11.59-6.39 2.66-1.77 4.72-4.26 5.95-7.22l.01-1.01-.24.61c-1.2 3.02-3.24 5.55-5.91 7.31-3.41 2.25-7.73 4.63-11.56 6.37-1.88.85-4.55 2-6.59 2.59-2.15.61-4.03.91-5.73.91-1.34 0-2.6-.18-3.85-.55-4.05-1.19-7.16-4.89-10.46-8.81l-.15-.18c-1.7-2.01-3.45-4.08-5.38-5.83-1.53-1.39-2.82-2.54-4.33-3.87l-.28-.25c-1.05-1.15-1.95-2.46-2.83-3.73l-.32-.46c-1.2-1.76-2.4-3.47-3.83-4.93-.62-.62-1.21-1.29-1.78-1.94l-.14-.16c-1.31-1.51-2.67-3.07-4.45-4.18-2.49-1.56-5.2-1.98-7.83-2.39l-.3-.05c-1.54-.25-3.14-.51-4.66-1-.58-.19-1.18-.29-1.77-.29-3.48 0-6.32 3.33-8.39 5.77-1.95 2.27-3.67 4.81-5.34 7.26-3.57 5.25-7.27 10.68-13.12 13.6-2.52 1.33-5.1 1.98-7.9 1.98-3.45 0-6.77-.98-9.97-1.93l-.2-.06c-1.71-.5-3.32-.97-4.96-1.3-1.52-.3-2.97-.45-4.32-.45-5.08 0-8.24 2.1-11.3 4.14-2.23 1.49-4.34 2.89-7.13 3.5-1.1.25-2.02.28-3.23.12-2.97-.39-5.6-2.22-8.4-4.15-2-1.38-4.26-2.94-6.68-3.87-1.92-.73-5.23-1.61-10.03-1.61-.76 0-1.54.02-2.34.07-1.19.07-2.41.13-3.61.13-4.08 0-8.4-.72-9.56-6.09-1.15-5.42 2.69-9.53 6.42-13.51l.05-.06c2.67-2.85 5.44-5.8 6.39-9.25.57-2 .38-4.87.13-6.93-.42-3.38-1.43-6.87-2.4-10.24-.12-.37-.24-.76-.34-1.12l-.03-.09h-.38l.05.16c.09.19.14.39.2.58zM203.61 278.12c-6.36 1.1-10.55 6.08-12.11 14.41-.45 2.4-.66 4.94-.85 7.19l-.01.14c-.18 2.04-.34 3.96-.66 5.78l-.03.15h.37l.02-.1c.32-1.86.5-3.87.67-5.94l.02-.2c.2-2.3.41-4.67.84-6.95 1.52-8.17 5.6-13.04 11.8-14.1.42-.07.8-.12 1.18-.15l.12-.01v-.37l-.13.01c-.35.01-.77.05-1.23.14z"/>
        <path d="M158.19 303.4c-.35-1.6-.68-3.03-1.06-4.36-.69-2.43-1.8-4.94-2.88-7.36l-.2-.45c-.71-1.63-1.29-3.35-1.87-5.12-1.23-3.72-2.5-7.56-5.06-10.36-2.26-2.47-5.96-3.89-10.14-3.89-2.34 0-4.59.45-6.5 1.31-2.24.99-4.07 2.2-5.59 3.68-1.19 1.16-2.94 1.79-4.63 2.39l-.16.06c-1.23.42-2.42.84-3.48 1.44-3.26 1.85-5.29 4.44-5.89 7.47-.59 2.88-.51 6.64-.44 9.96l.01.38c.03 2 .06 4.07-.04 5.98v.04c-.02.35-.04.72-.08 1.08l-.01.14h.37l.01-.12c.03-.33.04-.67.06-.99l.01-.14c.09-1.9.06-3.96.04-5.96l-.01-.41c-.06-3.49-.12-7.09.44-9.89.59-2.94 2.57-5.43 5.72-7.22 1.04-.58 2.24-1 3.42-1.41 1.78-.62 3.62-1.27 4.92-2.51 1.48-1.44 3.28-2.62 5.5-3.61 1.88-.84 4.08-1.28 6.35-1.28 4.08 0 7.67 1.38 9.87 3.77 2.53 2.77 3.83 6.72 4.98 10.22l.12.37c.57 1.69 1.11 3.28 1.77 4.78l.27.6c1.04 2.36 2.12 4.8 2.79 7.17.38 1.34.72 2.82 1.04 4.26l.14.62c.13.56.25 1.11.38 1.64l.02.1h.38l-.04-.15c-.19-.73-.37-1.5-.53-2.23z"/>
        <path d="M150.31 295.16c-.32-.81-.83-1.49-1.27-2.09-.37-.49-.72-.97-1-1.5-.4-.72-.71-1.53-1.04-2.39l-.07-.19c-1.04-2.66-2.11-5.4-5.08-6.19-.68-.19-1.57-.27-2.8-.27-1.23 0-2.51.1-3.7.2-.42.03-.87.06-1.29.1-3.79.23-7.84 1.68-10.85 3.88-3.65 2.66-4.69 7.12-5.16 10.24-.56 3.49-.42 6.24.42 8.4l.04.09c.04.08.07.17.1.25l.03.09h.4l-.07-.17c-.03-.06-.05-.13-.08-.19s-.06-.13-.08-.19c-1.06-2.75-.74-6.01-.4-8.22.47-3.06 1.49-7.43 5.02-10 2.95-2.15 6.94-3.57 10.66-3.81.4-.02.82-.05 1.29-.09 1.14-.1 2.46-.2 3.68-.2 1.09 0 2 .09 2.7.27 2.78.74 3.81 3.38 4.82 5.95.33.88.7 1.8 1.14 2.62.26.5.59.94.91 1.38l.15.21c.44.61.9 1.24 1.2 1.95.79 1.94 1.11 4.17 1.37 5.96.19 1.27.28 2.75.28 4.4v.12h.37v-.12c.03-1.55-.06-3.1-.27-4.46-.29-1.8-.62-4.06-1.42-6.03zM204.8 286.92c-.03 0-.05-.02-.09-.01-5.69.52-8.87 6.64-9.7 18.73l-.01.13h.37l.01-.12c.82-11.85 3.87-17.86 9.33-18.39.04.01.08.02.13.02h.12v-.37h-.12c-.01.02-.02.01-.04.01zM203.27 301.99l-.06.06c-.6 1.01-1.23 2.22-1.35 3.59l-.01.13h.37l.01-.11c.12-1.27.71-2.42 1.28-3.37.47-.28.92-.44 1.34-.48l.11-.01v-.36l-.14.01c-.51.05-1.03.23-1.55.54zM14.62 298.85c-.65-2.88-.62-6.9.07-9.14.91-2.96 2.46-4.78 4.93-7.49.26-.31.55-.6.86-.92.13-.13.26-.27.39-.41 1.77-1.82 3.77-3.89 4.23-6.08.91-4.36-1.79-6.9-4.54-8.81-1.39-.95-2.95-1.71-4.33-2.39-1.79-.87-3.81-1.86-5.44-3.25-1.7-1.47-3.17-3.58-4.38-6.26-.51-1.12-.75-2.33-.99-3.5l-.04-.21c-.23-1.22-.47-2.48-.99-3.68-2.39-5.34-5.52-11.37-10.58-15.56-2.19-1.82-4.96-4.69-5.68-8.07-.47-2.23.19-4.18.73-5.75l.09-.28c1.2-3.56 4.81-12.06 12.25-14.18 1.24-.36 2.75-.62 4.35-.9l.39-.07c2.41-.4 4.53-.79 6.15-1.38 2.63-.98 4.54-2.35 6.42-3.79l.28-.21c1.83-1.41 4.15-3.19 7.16-2.96 2.63.22 5.61 1.59 8.17 3.75 2.59 2.18 4.34 4.84 4.8 7.29.26 1.5.41 2.73.54 4.11.03.24.05.48.08.71.08.8.17 1.63.33 2.49.99 5.62 3.68 10.09 8.02 13.29 3.53 2.6 8.23 4.42 13.96 5.41 1.41.24 2.87.37 4.34.37 5.41 0 9.73-1.64 11.83-2.61 3.8-1.78 7.82-6 11.3-9.82 3.48-3.83 5.32-6.11 5.73-12.15.13-1.92-.03-3.77-.17-5.56l-.01-.09c-.02-.34-.05-.68-.08-1.03l-.09-1.13c-.03-.5-.07-1.02-.12-1.63-.16-1.71-.34-3.66 0-5.65.69-3.97 2.96-5.69 6.99-5.3 5.31.5 9.94 4.01 11.8 8.94 1.47 3.9.3 8.01-.65 11.3l-.18.63c-1.58 5.51-3.73 9.82-6.57 13.15-1.62 1.88-3.41 3.66-5.14 5.38-.67.65-1.38 1.37-1.94 1.94-.91.92-1.91 1.76-2.87 2.55-1.22 1.01-2.49 2.09-3.56 3.3-1.51 1.69-2.63 3.64-3.57 5.33-2.98 5.48-5.05 10.29-6.34 14.71-1.15 3.95-4.33 7.09-8.5 8.39-2.41.75-5.32 1.13-8.66 1.13-4.12 0-8.96-.58-14.4-1.73-4.81-1.02-7.67-3.77-8.49-8.19-.96-5.15-4.43-7.7-8.1-10.41-.92-.67-1.89-1.39-2.84-2.16-3.78-3.09-1.89-6.04.1-9.15l.07-.11c.89-1.4 1.82-2.85 2.21-4.34.65-2.34-.16-4.8-.95-7.17l-.03-.1c-.4-1.17-.8-2.39-.99-3.55-.94-5.54-1.89-9.93-4.74-11.75-.9-.57-1.92-.85-3.13-.85-.86 0-1.84.15-2.89.45-.4.1-.85.23-1.31.37l-.14.04c-.91.27-1.95.57-2.8.76-1.51.35-3.1.55-4.86.76l-.21.03c-1.75.22-3.56.45-5.56.87-3.15.65-5.93 2.17-8.03 4.39-2.06 2.18-3.37 4.93-3.79 7.95-.18 1.3-.23 2.41.12 3.63 1.03 3.5 4.18 5.96 6.96 8.13l.08.06c.61.47 1.25.96 1.85 1.46l.11.09c2.68 2.21 6.01 4.97 5.89 8.72-.13 3.96.38 6.83 1.69 9.6 2.07 4.38 4.99 7.03 10.08 9.14.16.06.32.13.48.19.22.09.44.18.66.26l.14.06c1.68.69 3.41 1.41 5.03 2.33 1.34.75 2.24 1.69 3.2 2.7.53.56 1.08 1.14 1.72 1.69.72.63 1.4 1.44 2.21 2.44 1.72 2.12 3.66 4.52 6.52 4.52.33 0 .67-.03 1.01-.1 1.71-.33 3.39-1.49 5.17-2.72l.07-.05c1.55-1.08 3.16-2.2 4.97-2.92 3.02-1.19 7.28-1.47 11.79-1.78l.43-.03c2.7-.18 5.5-.37 8.05-.77 6.03-.95 10.1-3.07 12.46-6.47.72-1.02 1.19-2.19 1.61-3.23l.06-.15c.32-.79.64-1.61 1.07-2.35.31-.56.8-1 1.27-1.44l.14-.13c.26-.23.56-.5.79-.78.47-.52.93-1.07 1.39-1.64l.26-.32c.41-.5.84-1.01 1.29-1.51.71-.78 1.52-1.51 2.3-2.22l.58-.52c.82-.74 1.67-1.51 2.44-2.34.71-.74 1.29-1.57 1.75-2.24.58-.83 1.17-1.69 1.99-2.48 1.37-1.36 2.8-2.85 3.95-4.5.93-1.34 1.37-2.64 1.83-4.01l.09-.26c.14-.48.29-.93.46-1.38.34-1.01.98-1.98 1.6-2.92l.05-.08c.37-.57.76-1.16 1.08-1.76 1.21-2.23 2.25-4.46 3.1-6.62.12-.31.23-.63.34-.95.11-.3.21-.6.33-.89.05-.15.11-.29.16-.43.04-.11.08-.22.12-.32.46-1.27.9-2.43 1.3-3.45l.12-.32c1.2-3.18 2.44-6.47 3.08-9.48.41-1.89.81-4.08.35-6.22-1.54-7.17-8.52-14.68-14.92-16.05-1.39-.29-2.95-.44-4.62-.44-1.89 0-3.86.19-5.84.56-6.36 1.19-8.71 4.26-8.39 10.95.06 1.3.18 2.62.29 3.9l.07.82c.29 3.21.57 6.24.23 9.17-.15 1.29-.53 2.66-1.17 4.2-.94 2.27-3.05 6.05-5.65 10.12-2.56 4.01-6.02 6.95-9.49 8.05-1.69.54-3.55.81-5.54.81-5.57 0-11.31-2.16-14.99-5.63-2.56-2.41-5.3-6.53-3.78-12.45.1-.37.26-.75.41-1.1.2-.43.42-.94.53-1.48.78-1.34 1.75-2.56 2.76-3.79 2.22-2.74 4.31-5.33 3.5-9.05-.14-.66-.43-1.36-.73-2.11l-.03-.08c-.63-1.53-1.29-3.12-.55-4.04 1.33-1.65 3.14-3.39 5.19-5.33 3.43-3.26 6.97-6.62 7.98-9.81 1.05-3.25-1.14-6.51-1.96-7.74-.8-1.2-1.69-2.43-2.63-3.72l-.58-.8c-.88-1.19-1.82-2.47-2.7-3.74-.6-.88-1.19-1.72-1.78-2.55l-.99-1.42c-1.4-2.01-2.71-3.9-4.08-5.93-.46-.69-.93-1.43-1.38-2.15l-.46-.73c-1.05-1.67-2.08-3.28-3.12-4.69-2.33-3.12-4.99-4.41-7.87-3.82-2.81.58-5.78 2.67-8.58 4.76l-.29.21c-.26.2-.53.39-.78.59l-.13.1c-4.91 3.69-10.48 7.87-11.96 12.54-1.28 4.06 1.07 5.94 3.55 7.92.27.21.53.43.79.65 1.58 1.3 2.79 2.63 3.87 3.88 1.4 1.64 2.64 3.62 3.73 5.37.79 1.26 1.6 2.56 2.39 3.59 2.7 3.53 6.18 5.09 9.54 6.6l.05.02c3.27 1.45 6.65 2.95 9.2 6.27V186.95c.01.31.02.61-.06.88-2.04 2.2-4.38 3.27-7.14 3.27-1.34 0-2.8-.26-4.34-.77-1.47-.49-2.96-1.3-4.4-2.08-2.64-1.43-5.37-2.91-8.41-2.91-.9 0-1.79.13-2.66.4-2.92.88-4.94 2.92-6.89 4.89l-.06.06c-1.91 1.95-3.89 3.97-6.76 4.97-1.68.58-3.41.74-5.86.93-6.22.47-9.23 1.19-11.81 4.45-3.36 4.28-7.5 11.81-8.77 14.92-.5 1.25-.82 2.19-.96 2.88-1.09 5.46 2.26 9.74 5.3 12.87.75.76 1.59 1.48 2.32 2.09.72.61 1.42 1.22 2.07 1.84 1.38 1.38 2.48 3.03 3.45 4.48l.38.56c.41.6.83 1.22 1.27 1.81 4.13 5.5 5.37 10.3 4.04 15.55-.97 3.77-3.18 8.54-8.2 9.83-1.92.49-4.09.74-6 .96l-.45.05c-1.84.22-3.74.45-5.59.88-1.82.41-3.56.96-5.02 1.43l-.45.14c-2.08.64-4.05 1.24-6.08 1.49-.8.11-1.62.16-2.45.16-2.81 0-5.42-.6-7.94-1.18l-.1-.02c-2.24-.52-4.56-1.06-6.79-1.06-.57 0-1.12.04-1.65.1l-.11.01v.37l.14-.02c.52-.07 1.07-.11 1.64-.11 2.15 0 4.33.5 6.65 1.03l.04.01c2.57.6 5.24 1.22 8.14 1.22.84 0 1.67-.05 2.48-.16 2.15-.27 4.2-.91 6.38-1.59l.21-.06c1.57-.5 3.25-1.01 5-1.41 2.03-.45 4.14-.7 6-.92l.15-.02c2.09-.24 4.06-.47 5.9-.95 4.13-1.07 7.05-4.56 8.46-10.09 1.37-5.37.1-10.26-4.1-15.88-.49-.65-.95-1.34-1.41-2l-.36-.53c-1.02-1.5-2.07-3.05-3.39-4.34-.68-.69-1.43-1.33-2.07-1.86l-.26-.22c-.68-.59-1.39-1.2-2.03-1.85-2.98-3.05-6.27-7.23-5.2-12.54.13-.66.43-1.57.93-2.8 1.25-3.09 5.36-10.57 8.7-14.82 2.48-3.15 5.44-3.86 11.55-4.32 2.47-.19 4.21-.36 5.96-.96 2.9-.99 4.9-3.01 6.82-4.95l.09-.09c2.01-2.06 3.91-4 6.78-4.86a8.85 8.85 0 0 1 2.55-.38c2.94 0 5.63 1.46 8.24 2.87l.25.13c1.44.77 2.81 1.51 4.2 1.97 1.58.53 3.08.79 4.46.79 2.88 0 5.32-1.12 7.45-3.41l.04-.08c.11-.39.09-.79.06-1.12v-.4l-.01-.06-.04-.04c-2.61-3.43-6.05-4.96-9.38-6.45-3.33-1.48-6.78-3.01-9.43-6.5-.79-1.05-1.64-2.39-2.38-3.57-1.04-1.66-2.34-3.72-3.77-5.4-1.01-1.18-2.27-2.57-3.91-3.93-.23-.19-.45-.37-.68-.55l-.11-.09c-2.39-1.91-4.64-3.72-3.43-7.52 1.45-4.56 6.97-8.71 11.84-12.38l.36-.27c.28-.21.56-.42.82-.63 2.79-2.11 5.75-4.14 8.42-4.69 2.74-.56 5.28.69 7.52 3.69.93 1.22 1.84 2.67 2.72 4.07l.38.59c.65 1.04 1.24 1.98 1.85 2.89 1.18 1.77 2.33 3.43 3.55 5.18.38.55.77 1.11 1.16 1.67.37.53.75 1.07 1.13 1.62.33.48.67.96 1.01 1.45.8 1.16 1.71 2.42 2.7 3.75l.19.25c1.09 1.49 2.12 2.9 3.02 4.27.87 1.31 2.9 4.38 1.92 7.43-.98 3.08-4.47 6.39-7.84 9.59l-.06.06c-1.89 1.79-3.84 3.64-5.23 5.36-.87 1.1-.14 2.86.51 4.41l.02.04c.3.75.59 1.45.73 2.08.78 3.55-1.26 6.07-3.43 8.74l-.05.07c-.96 1.2-1.96 2.43-2.75 3.82l-.01.04c-.12.52-.32 1-.52 1.44-.04.1-.08.19-.12.28-.12.29-.24.57-.31.86-1.22 4.76.16 9.31 3.89 12.82 3.73 3.53 9.57 5.73 15.25 5.73 2.02 0 3.91-.27 5.64-.82 3.55-1.14 7.08-4.13 9.68-8.2 2.65-4.15 4.78-7.96 5.69-10.19.63-1.5 1.03-2.94 1.2-4.3.34-2.93.08-5.94-.21-9.13l-.02-.24c-.14-1.56-.28-3.09-.35-4.58-.16-3.33.34-5.64 1.58-7.27 1.28-1.66 3.34-2.71 6.5-3.29 1.98-.37 3.93-.56 5.8-.56 1.65 0 3.17.15 4.53.44 6.27 1.34 13.11 8.7 14.64 15.76.44 2.04.08 4.11-.34 6.06-.65 3.02-1.9 6.32-3.11 9.51l-.09.23c-.43 1.14-.87 2.32-1.29 3.46-.1.26-.19.51-.28.77-.2.6-.43 1.22-.66 1.83-.83 2.16-1.86 4.37-3.07 6.56-.25.46-.54.91-.83 1.36l-.29.46c-.63.96-1.28 1.95-1.65 3-.11.31-.21.62-.31.91-.05.16-.11.32-.16.48-.45 1.43-.88 2.78-1.84 4.17-1.14 1.63-2.56 3.1-3.92 4.44-.8.77-1.39 1.63-1.97 2.45l-.05.07c-.5.73-1.05 1.5-1.71 2.21-.83.88-1.76 1.73-2.57 2.44l-.14.13c-.88.8-1.79 1.62-2.62 2.51-.47.52-.98 1.12-1.56 1.83-.43.53-.89 1.09-1.37 1.62-.22.24-.48.49-.82.81-.52.47-1.06.96-1.42 1.61-.47.79-.81 1.61-1.17 2.53-.47 1.18-.9 2.23-1.55 3.17-2.29 3.31-6.29 5.37-12.22 6.31-2.55.41-5.34.6-8.05.78l-.38.03c-4.55.31-8.84.59-11.92 1.8-1.87.74-3.55 1.91-5.04 2.95l-.04.03c-1.75 1.22-3.4 2.37-5.05 2.68-.32.06-.63.09-.94.09-2.66 0-4.55-2.31-6.22-4.36l-.17-.21c-.71-.87-1.38-1.68-2.1-2.31-.68-.6-1.26-1.21-1.69-1.68l-.1-.1c-.95-.98-1.84-1.91-3.19-2.67-1.63-.91-3.33-1.62-5.22-2.4-.16-.06-.32-.13-.47-.19l-.66-.27c-4.99-2.09-7.85-4.68-9.87-8.96-1.29-2.73-1.79-5.55-1.66-9.44.12-3.94-3.3-6.76-6.06-9.03l-.09-.06c-.54-.46-1.12-.92-1.84-1.46-2.9-2.25-5.9-4.58-6.92-7.99-.33-1.15-.28-2.21-.11-3.46.84-6.11 5.26-10.72 11.52-12.03 1.93-.4 3.7-.63 5.4-.85l.32-.04c1.52-.19 3.27-.41 4.91-.77.76-.17 1.76-.44 2.96-.8l.2-.06c.39-.12.76-.23 1.11-.32 1.01-.28 1.94-.42 2.77-.42 1.15 0 2.12.26 2.96.8 2.72 1.72 3.64 6.03 4.57 11.49.2 1.15.56 2.27 1.01 3.62l.02.07c.78 2.33 1.58 4.75.96 6.98-.39 1.43-1.29 2.85-2.16 4.21l-.08.12c-2.1 3.27-4.08 6.35-.04 9.65.99.81 2 1.55 2.85 2.17 3.61 2.66 7.02 5.17 7.95 10.18.86 4.58 3.82 7.42 8.79 8.46 5.46 1.15 10.33 1.74 14.47 1.74 3.37 0 6.32-.39 8.75-1.15 4.31-1.35 7.58-4.58 8.74-8.63 1.3-4.45 3.36-9.24 6.32-14.65.83-1.53 1.98-3.51 3.52-5.27 1.01-1.15 2.22-2.17 3.39-3.14l.41-.34c.88-.74 1.79-1.51 2.61-2.34.57-.59 1.21-1.23 1.94-1.94 1.9-1.88 3.6-3.58 5.16-5.4 2.87-3.36 5.04-7.7 6.64-13.28l.16-.55c.93-3.17 2.2-7.51.67-11.61-1.92-5.07-6.67-8.67-12.1-9.18-4.27-.4-6.67 1.44-7.38 5.61-.36 2-.17 3.98-.01 5.73.02.23.03.44.05.66.03.33.05.65.07.97.05.74.11 1.45.17 2.16l.01.09c.15 1.78.3 3.62.18 5.51-.42 5.93-2.22 8.17-5.63 11.93-3.47 3.81-7.48 8.01-11.18 9.73-1.66.78-6.13 2.59-11.69 2.59-1.44 0-2.87-.12-4.26-.36-12.63-2.19-19.93-8.38-21.68-18.4-.18-1.06-.28-2.03-.39-3.18l-.01-.08c-.13-1.22-.26-2.49-.54-4.06-.45-2.51-2.24-5.25-4.92-7.51-2.65-2.21-5.7-3.61-8.38-3.83-.19-.01-.38-.02-.57-.02-2.88 0-5.08 1.69-6.84 3.05l-.28.21c-1.96 1.49-3.79 2.8-6.33 3.74-1.56.57-3.72.95-5.82 1.32l-.27.05c-1.73.3-3.39.6-4.77.98-3.31.94-6.23 3.19-8.67 6.68-1.95 2.78-3.16 5.74-3.84 7.73l-.09.29c-.55 1.61-1.23 3.6-.73 5.94.75 3.52 3.58 6.45 5.82 8.28 5.06 4.19 8.13 10.16 10.47 15.45.5 1.13.74 2.37.97 3.58l.04.21c.24 1.2.48 2.44 1.02 3.6 1.23 2.73 2.73 4.88 4.47 6.38 1.62 1.41 3.58 2.36 5.48 3.28l.24.12c1.38.68 2.81 1.38 4.07 2.26 2.65 1.83 5.25 4.27 4.38 8.44-.44 2.1-2.48 4.2-4.12 5.89-.44.46-.87.91-1.27 1.35-2.49 2.72-4.06 4.58-4.99 7.62-.7 2.3-.75 6.38-.12 9.29.54 2.48 1.19 4.82 1.76 6.79l.03.09h.38l-.05-.16c-.55-1.82-1.23-4.24-1.79-6.79z"/>
    </g>
</svg>
